<?xml version="1.0" encoding="utf-8" standalone="no"?>
<!DOCTYPE svg PUBLIC "-//W3C//DTD SVG 1.1//EN"
  "http://www.w3.org/Graphics/SVG/1.1/DTD/svg11.dtd">
<!-- Created with matplotlib (https://matplotlib.org/) -->
<svg height="230.4pt" version="1.1" viewBox="0 0 487.521041 230.4" width="487.521041pt" xmlns="http://www.w3.org/2000/svg" xmlns:xlink="http://www.w3.org/1999/xlink">
 <metadata>
  <rdf:RDF xmlns:cc="http://creativecommons.org/ns#" xmlns:dc="http://purl.org/dc/elements/1.1/" xmlns:rdf="http://www.w3.org/1999/02/22-rdf-syntax-ns#">
   <cc:Work>
    <dc:type rdf:resource="http://purl.org/dc/dcmitype/StillImage"/>
    <dc:date>2022-12-16T23:30:50.789512</dc:date>
    <dc:format>image/svg+xml</dc:format>
    <dc:creator>
     <cc:Agent>
      <dc:title>Matplotlib v3.3.4, https://matplotlib.org/</dc:title>
     </cc:Agent>
    </dc:creator>
   </cc:Work>
  </rdf:RDF>
 </metadata>
 <defs>
  <style type="text/css">*{stroke-linecap:butt;stroke-linejoin:round;}</style>
 </defs>
 <g id="figure_1">
  <g id="patch_1">
   <path d="M 0 230.4 
L 487.521041 230.4 
L 487.521041 0 
L 0 0 
z
" style="fill:none;"/>
  </g>
  <g id="axes_1">
   <g id="patch_2">
    <path d="M 67.354688 173.879323 
L 226.115886 173.879323 
L 226.115886 15.118125 
L 67.354688 15.118125 
z
" style="fill:#ffffff;"/>
   </g>
   <g id="QuadMesh_1">
    <path clip-path="url(#p81768c344e)" d="M 67.354688 15.118125 
L 93.814887 15.118125 
L 93.814887 41.578325 
L 67.354688 41.578325 
L 67.354688 15.118125 
" style="fill:#ffede5;"/>
    <path clip-path="url(#p81768c344e)" d="M 93.814887 15.118125 
L 120.275087 15.118125 
L 120.275087 41.578325 
L 93.814887 41.578325 
L 93.814887 15.118125 
" style="fill:#ffede5;"/>
    <path clip-path="url(#p81768c344e)" d="M 120.275087 15.118125 
L 146.735287 15.118125 
L 146.735287 41.578325 
L 120.275087 41.578325 
L 120.275087 15.118125 
" style="fill:#fedbcc;"/>
    <path clip-path="url(#p81768c344e)" d="M 146.735287 15.118125 
L 173.195486 15.118125 
L 173.195486 41.578325 
L 146.735287 41.578325 
L 146.735287 15.118125 
" style="fill:#ffede5;"/>
    <path clip-path="url(#p81768c344e)" d="M 173.195486 15.118125 
L 199.655686 15.118125 
L 199.655686 41.578325 
L 173.195486 41.578325 
L 173.195486 15.118125 
" style="fill:#ffede5;"/>
    <path clip-path="url(#p81768c344e)" d="M 199.655686 15.118125 
L 226.115886 15.118125 
L 226.115886 41.578325 
L 199.655686 41.578325 
L 199.655686 15.118125 
" style="fill:#fee5d9;"/>
    <path clip-path="url(#p81768c344e)" d="M 67.354688 41.578325 
L 93.814887 41.578325 
L 93.814887 68.038524 
L 67.354688 68.038524 
L 67.354688 41.578325 
" style="fill:#ffede5;"/>
    <path clip-path="url(#p81768c344e)" d="M 93.814887 41.578325 
L 120.275087 41.578325 
L 120.275087 68.038524 
L 93.814887 68.038524 
L 93.814887 41.578325 
" style="fill:#ffede5;"/>
    <path clip-path="url(#p81768c344e)" d="M 120.275087 41.578325 
L 146.735287 41.578325 
L 146.735287 68.038524 
L 120.275087 68.038524 
L 120.275087 41.578325 
" style="fill:#fcaf93;"/>
    <path clip-path="url(#p81768c344e)" d="M 146.735287 41.578325 
L 173.195486 41.578325 
L 173.195486 68.038524 
L 146.735287 68.038524 
L 146.735287 41.578325 
" style="fill:#ffede5;"/>
    <path clip-path="url(#p81768c344e)" d="M 173.195486 41.578325 
L 199.655686 41.578325 
L 199.655686 68.038524 
L 173.195486 68.038524 
L 173.195486 41.578325 
" style="fill:#ffede5;"/>
    <path clip-path="url(#p81768c344e)" d="M 199.655686 41.578325 
L 226.115886 41.578325 
L 226.115886 68.038524 
L 199.655686 68.038524 
L 199.655686 41.578325 
" style="fill:#fdcdb9;"/>
    <path clip-path="url(#p81768c344e)" d="M 67.354688 68.038524 
L 93.814887 68.038524 
L 93.814887 94.498724 
L 67.354688 94.498724 
L 67.354688 68.038524 
" style="fill:#fdcdb9;"/>
    <path clip-path="url(#p81768c344e)" d="M 93.814887 68.038524 
L 120.275087 68.038524 
L 120.275087 94.498724 
L 93.814887 94.498724 
L 93.814887 68.038524 
" style="fill:#f44f39;"/>
    <path clip-path="url(#p81768c344e)" d="M 120.275087 68.038524 
L 146.735287 68.038524 
L 146.735287 94.498724 
L 120.275087 94.498724 
L 120.275087 68.038524 
" style="fill:#ffede5;"/>
    <path clip-path="url(#p81768c344e)" d="M 146.735287 68.038524 
L 173.195486 68.038524 
L 173.195486 94.498724 
L 146.735287 94.498724 
L 146.735287 68.038524 
" style="fill:#ffede5;"/>
    <path clip-path="url(#p81768c344e)" d="M 173.195486 68.038524 
L 199.655686 68.038524 
L 199.655686 94.498724 
L 173.195486 94.498724 
L 173.195486 68.038524 
" style="fill:#fcaf93;"/>
    <path clip-path="url(#p81768c344e)" d="M 199.655686 68.038524 
L 226.115886 68.038524 
L 226.115886 94.498724 
L 199.655686 94.498724 
L 199.655686 68.038524 
" style="fill:#7e0610;"/>
    <path clip-path="url(#p81768c344e)" d="M 67.354688 94.498724 
L 93.814887 94.498724 
L 93.814887 120.958924 
L 67.354688 120.958924 
L 67.354688 94.498724 
" style="fill:#ffede5;"/>
    <path clip-path="url(#p81768c344e)" d="M 93.814887 94.498724 
L 120.275087 94.498724 
L 120.275087 120.958924 
L 93.814887 120.958924 
L 93.814887 94.498724 
" style="fill:#ffede5;"/>
    <path clip-path="url(#p81768c344e)" d="M 120.275087 94.498724 
L 146.735287 94.498724 
L 146.735287 120.958924 
L 120.275087 120.958924 
L 120.275087 94.498724 
" style="fill:#ffede5;"/>
    <path clip-path="url(#p81768c344e)" d="M 146.735287 94.498724 
L 173.195486 94.498724 
L 173.195486 120.958924 
L 146.735287 120.958924 
L 146.735287 94.498724 
" style="fill:#ffede5;"/>
    <path clip-path="url(#p81768c344e)" d="M 173.195486 94.498724 
L 199.655686 94.498724 
L 199.655686 120.958924 
L 173.195486 120.958924 
L 173.195486 94.498724 
" style="fill:#fee5d9;"/>
    <path clip-path="url(#p81768c344e)" d="M 199.655686 94.498724 
L 226.115886 94.498724 
L 226.115886 120.958924 
L 199.655686 120.958924 
L 199.655686 94.498724 
" style="fill:#ffede5;"/>
    <path clip-path="url(#p81768c344e)" d="M 67.354688 120.958924 
L 93.814887 120.958924 
L 93.814887 147.419124 
L 67.354688 147.419124 
L 67.354688 120.958924 
" style="fill:#ffede5;"/>
    <path clip-path="url(#p81768c344e)" d="M 93.814887 120.958924 
L 120.275087 120.958924 
L 120.275087 147.419124 
L 93.814887 147.419124 
L 93.814887 120.958924 
" style="fill:#ffede5;"/>
    <path clip-path="url(#p81768c344e)" d="M 120.275087 120.958924 
L 146.735287 120.958924 
L 146.735287 147.419124 
L 120.275087 147.419124 
L 120.275087 120.958924 
" style="fill:#ffede5;"/>
    <path clip-path="url(#p81768c344e)" d="M 146.735287 120.958924 
L 173.195486 120.958924 
L 173.195486 147.419124 
L 146.735287 147.419124 
L 146.735287 120.958924 
" style="fill:#ffede5;"/>
    <path clip-path="url(#p81768c344e)" d="M 173.195486 120.958924 
L 199.655686 120.958924 
L 199.655686 147.419124 
L 173.195486 147.419124 
L 173.195486 120.958924 
" style="fill:#ffede5;"/>
    <path clip-path="url(#p81768c344e)" d="M 199.655686 120.958924 
L 226.115886 120.958924 
L 226.115886 147.419124 
L 199.655686 147.419124 
L 199.655686 120.958924 
" style="fill:#fcbfa7;"/>
    <path clip-path="url(#p81768c344e)" d="M 67.354688 147.419124 
L 93.814887 147.419124 
L 93.814887 173.879323 
L 67.354688 173.879323 
L 67.354688 147.419124 
" style="fill:#fee5d9;"/>
    <path clip-path="url(#p81768c344e)" d="M 93.814887 147.419124 
L 120.275087 147.419124 
L 120.275087 173.879323 
L 93.814887 173.879323 
L 93.814887 147.419124 
" style="fill:#fdcdb9;"/>
    <path clip-path="url(#p81768c344e)" d="M 120.275087 147.419124 
L 146.735287 147.419124 
L 146.735287 173.879323 
L 120.275087 173.879323 
L 120.275087 147.419124 
" style="fill:#fc9070;"/>
    <path clip-path="url(#p81768c344e)" d="M 146.735287 147.419124 
L 173.195486 147.419124 
L 173.195486 173.879323 
L 146.735287 173.879323 
L 146.735287 147.419124 
" style="fill:#ffede5;"/>
    <path clip-path="url(#p81768c344e)" d="M 173.195486 147.419124 
L 199.655686 147.419124 
L 199.655686 173.879323 
L 173.195486 173.879323 
L 173.195486 147.419124 
" style="fill:#fca082;"/>
    <path clip-path="url(#p81768c344e)" d="M 199.655686 147.419124 
L 226.115886 147.419124 
L 226.115886 173.879323 
L 199.655686 173.879323 
L 199.655686 147.419124 
" style="fill:#ffede5;"/>
   </g>
   <g id="matplotlib.axis_1">
    <g id="xtick_1">
     <g id="line2d_1">
      <defs>
       <path d="M 0 0 
L 0 3.5 
" id="m2270addf80" style="stroke:#000000;stroke-width:0.8;"/>
      </defs>
      <g>
       <use style="stroke:#000000;stroke-width:0.8;" x="80.584787" xlink:href="#m2270addf80" y="173.879323"/>
      </g>
     </g>
     <g id="text_1">
      <!-- Insertion -->
      <g transform="translate(67.009442 217.305266)rotate(-45)scale(0.1 -0.1)">
       <defs>
        <path d="M 9.8125 72.90625 
L 19.671875 72.90625 
L 19.671875 0 
L 9.8125 0 
z
" id="DejaVuSans-73"/>
        <path d="M 54.890625 33.015625 
L 54.890625 0 
L 45.90625 0 
L 45.90625 32.71875 
Q 45.90625 40.484375 42.875 44.328125 
Q 39.84375 48.1875 33.796875 48.1875 
Q 26.515625 48.1875 22.3125 43.546875 
Q 18.109375 38.921875 18.109375 30.90625 
L 18.109375 0 
L 9.078125 0 
L 9.078125 54.6875 
L 18.109375 54.6875 
L 18.109375 46.1875 
Q 21.34375 51.125 25.703125 53.5625 
Q 30.078125 56 35.796875 56 
Q 45.21875 56 50.046875 50.171875 
Q 54.890625 44.34375 54.890625 33.015625 
z
" id="DejaVuSans-110"/>
        <path d="M 44.28125 53.078125 
L 44.28125 44.578125 
Q 40.484375 46.53125 36.375 47.5 
Q 32.28125 48.484375 27.875 48.484375 
Q 21.1875 48.484375 17.84375 46.4375 
Q 14.5 44.390625 14.5 40.28125 
Q 14.5 37.15625 16.890625 35.375 
Q 19.28125 33.59375 26.515625 31.984375 
L 29.59375 31.296875 
Q 39.15625 29.25 43.1875 25.515625 
Q 47.21875 21.78125 47.21875 15.09375 
Q 47.21875 7.46875 41.1875 3.015625 
Q 35.15625 -1.421875 24.609375 -1.421875 
Q 20.21875 -1.421875 15.453125 -0.5625 
Q 10.6875 0.296875 5.421875 2 
L 5.421875 11.28125 
Q 10.40625 8.6875 15.234375 7.390625 
Q 20.0625 6.109375 24.8125 6.109375 
Q 31.15625 6.109375 34.5625 8.28125 
Q 37.984375 10.453125 37.984375 14.40625 
Q 37.984375 18.0625 35.515625 20.015625 
Q 33.0625 21.96875 24.703125 23.78125 
L 21.578125 24.515625 
Q 13.234375 26.265625 9.515625 29.90625 
Q 5.8125 33.546875 5.8125 39.890625 
Q 5.8125 47.609375 11.28125 51.796875 
Q 16.75 56 26.8125 56 
Q 31.78125 56 36.171875 55.265625 
Q 40.578125 54.546875 44.28125 53.078125 
z
" id="DejaVuSans-115"/>
        <path d="M 56.203125 29.59375 
L 56.203125 25.203125 
L 14.890625 25.203125 
Q 15.484375 15.921875 20.484375 11.0625 
Q 25.484375 6.203125 34.421875 6.203125 
Q 39.59375 6.203125 44.453125 7.46875 
Q 49.3125 8.734375 54.109375 11.28125 
L 54.109375 2.78125 
Q 49.265625 0.734375 44.1875 -0.34375 
Q 39.109375 -1.421875 33.890625 -1.421875 
Q 20.796875 -1.421875 13.15625 6.1875 
Q 5.515625 13.8125 5.515625 26.8125 
Q 5.515625 40.234375 12.765625 48.109375 
Q 20.015625 56 32.328125 56 
Q 43.359375 56 49.78125 48.890625 
Q 56.203125 41.796875 56.203125 29.59375 
z
M 47.21875 32.234375 
Q 47.125 39.59375 43.09375 43.984375 
Q 39.0625 48.390625 32.421875 48.390625 
Q 24.90625 48.390625 20.390625 44.140625 
Q 15.875 39.890625 15.1875 32.171875 
z
" id="DejaVuSans-101"/>
        <path d="M 41.109375 46.296875 
Q 39.59375 47.171875 37.8125 47.578125 
Q 36.03125 48 33.890625 48 
Q 26.265625 48 22.1875 43.046875 
Q 18.109375 38.09375 18.109375 28.8125 
L 18.109375 0 
L 9.078125 0 
L 9.078125 54.6875 
L 18.109375 54.6875 
L 18.109375 46.1875 
Q 20.953125 51.171875 25.484375 53.578125 
Q 30.03125 56 36.53125 56 
Q 37.453125 56 38.578125 55.875 
Q 39.703125 55.765625 41.0625 55.515625 
z
" id="DejaVuSans-114"/>
        <path d="M 18.3125 70.21875 
L 18.3125 54.6875 
L 36.8125 54.6875 
L 36.8125 47.703125 
L 18.3125 47.703125 
L 18.3125 18.015625 
Q 18.3125 11.328125 20.140625 9.421875 
Q 21.96875 7.515625 27.59375 7.515625 
L 36.8125 7.515625 
L 36.8125 0 
L 27.59375 0 
Q 17.1875 0 13.234375 3.875 
Q 9.28125 7.765625 9.28125 18.015625 
L 9.28125 47.703125 
L 2.6875 47.703125 
L 2.6875 54.6875 
L 9.28125 54.6875 
L 9.28125 70.21875 
z
" id="DejaVuSans-116"/>
        <path d="M 9.421875 54.6875 
L 18.40625 54.6875 
L 18.40625 0 
L 9.421875 0 
z
M 9.421875 75.984375 
L 18.40625 75.984375 
L 18.40625 64.59375 
L 9.421875 64.59375 
z
" id="DejaVuSans-105"/>
        <path d="M 30.609375 48.390625 
Q 23.390625 48.390625 19.1875 42.75 
Q 14.984375 37.109375 14.984375 27.296875 
Q 14.984375 17.484375 19.15625 11.84375 
Q 23.34375 6.203125 30.609375 6.203125 
Q 37.796875 6.203125 41.984375 11.859375 
Q 46.1875 17.53125 46.1875 27.296875 
Q 46.1875 37.015625 41.984375 42.703125 
Q 37.796875 48.390625 30.609375 48.390625 
z
M 30.609375 56 
Q 42.328125 56 49.015625 48.375 
Q 55.71875 40.765625 55.71875 27.296875 
Q 55.71875 13.875 49.015625 6.21875 
Q 42.328125 -1.421875 30.609375 -1.421875 
Q 18.84375 -1.421875 12.171875 6.21875 
Q 5.515625 13.875 5.515625 27.296875 
Q 5.515625 40.765625 12.171875 48.375 
Q 18.84375 56 30.609375 56 
z
" id="DejaVuSans-111"/>
       </defs>
       <use xlink:href="#DejaVuSans-73"/>
       <use x="29.492188" xlink:href="#DejaVuSans-110"/>
       <use x="92.871094" xlink:href="#DejaVuSans-115"/>
       <use x="144.970703" xlink:href="#DejaVuSans-101"/>
       <use x="206.494141" xlink:href="#DejaVuSans-114"/>
       <use x="247.607422" xlink:href="#DejaVuSans-116"/>
       <use x="286.816406" xlink:href="#DejaVuSans-105"/>
       <use x="314.599609" xlink:href="#DejaVuSans-111"/>
       <use x="375.78125" xlink:href="#DejaVuSans-110"/>
      </g>
     </g>
    </g>
    <g id="xtick_2">
     <g id="line2d_2">
      <g>
       <use style="stroke:#000000;stroke-width:0.8;" x="107.044987" xlink:href="#m2270addf80" y="173.879323"/>
      </g>
     </g>
     <g id="text_2">
      <!-- Deletion -->
      <g transform="translate(94.168462 215.907626)rotate(-45)scale(0.1 -0.1)">
       <defs>
        <path d="M 19.671875 64.796875 
L 19.671875 8.109375 
L 31.59375 8.109375 
Q 46.6875 8.109375 53.6875 14.9375 
Q 60.6875 21.78125 60.6875 36.53125 
Q 60.6875 51.171875 53.6875 57.984375 
Q 46.6875 64.796875 31.59375 64.796875 
z
M 9.8125 72.90625 
L 30.078125 72.90625 
Q 51.265625 72.90625 61.171875 64.09375 
Q 71.09375 55.28125 71.09375 36.53125 
Q 71.09375 17.671875 61.125 8.828125 
Q 51.171875 0 30.078125 0 
L 9.8125 0 
z
" id="DejaVuSans-68"/>
        <path d="M 9.421875 75.984375 
L 18.40625 75.984375 
L 18.40625 0 
L 9.421875 0 
z
" id="DejaVuSans-108"/>
       </defs>
       <use xlink:href="#DejaVuSans-68"/>
       <use x="77.001953" xlink:href="#DejaVuSans-101"/>
       <use x="138.525391" xlink:href="#DejaVuSans-108"/>
       <use x="166.308594" xlink:href="#DejaVuSans-101"/>
       <use x="227.832031" xlink:href="#DejaVuSans-116"/>
       <use x="267.041016" xlink:href="#DejaVuSans-105"/>
       <use x="294.824219" xlink:href="#DejaVuSans-111"/>
       <use x="356.005859" xlink:href="#DejaVuSans-110"/>
      </g>
     </g>
    </g>
    <g id="xtick_3">
     <g id="line2d_3">
      <g>
       <use style="stroke:#000000;stroke-width:0.8;" x="133.505187" xlink:href="#m2270addf80" y="173.879323"/>
      </g>
     </g>
     <g id="text_3">
      <!-- Substitution -->
      <g transform="translate(114.117755 228.929439)rotate(-45)scale(0.1 -0.1)">
       <defs>
        <path d="M 53.515625 70.515625 
L 53.515625 60.890625 
Q 47.90625 63.578125 42.921875 64.890625 
Q 37.9375 66.21875 33.296875 66.21875 
Q 25.25 66.21875 20.875 63.09375 
Q 16.5 59.96875 16.5 54.203125 
Q 16.5 49.359375 19.40625 46.890625 
Q 22.3125 44.4375 30.421875 42.921875 
L 36.375 41.703125 
Q 47.40625 39.59375 52.65625 34.296875 
Q 57.90625 29 57.90625 20.125 
Q 57.90625 9.515625 50.796875 4.046875 
Q 43.703125 -1.421875 29.984375 -1.421875 
Q 24.8125 -1.421875 18.96875 -0.25 
Q 13.140625 0.921875 6.890625 3.21875 
L 6.890625 13.375 
Q 12.890625 10.015625 18.65625 8.296875 
Q 24.421875 6.59375 29.984375 6.59375 
Q 38.421875 6.59375 43.015625 9.90625 
Q 47.609375 13.234375 47.609375 19.390625 
Q 47.609375 24.75 44.3125 27.78125 
Q 41.015625 30.8125 33.5 32.328125 
L 27.484375 33.5 
Q 16.453125 35.6875 11.515625 40.375 
Q 6.59375 45.0625 6.59375 53.421875 
Q 6.59375 63.09375 13.40625 68.65625 
Q 20.21875 74.21875 32.171875 74.21875 
Q 37.3125 74.21875 42.625 73.28125 
Q 47.953125 72.359375 53.515625 70.515625 
z
" id="DejaVuSans-83"/>
        <path d="M 8.5 21.578125 
L 8.5 54.6875 
L 17.484375 54.6875 
L 17.484375 21.921875 
Q 17.484375 14.15625 20.5 10.265625 
Q 23.53125 6.390625 29.59375 6.390625 
Q 36.859375 6.390625 41.078125 11.03125 
Q 45.3125 15.671875 45.3125 23.6875 
L 45.3125 54.6875 
L 54.296875 54.6875 
L 54.296875 0 
L 45.3125 0 
L 45.3125 8.40625 
Q 42.046875 3.421875 37.71875 1 
Q 33.40625 -1.421875 27.6875 -1.421875 
Q 18.265625 -1.421875 13.375 4.4375 
Q 8.5 10.296875 8.5 21.578125 
z
M 31.109375 56 
z
" id="DejaVuSans-117"/>
        <path d="M 48.6875 27.296875 
Q 48.6875 37.203125 44.609375 42.84375 
Q 40.53125 48.484375 33.40625 48.484375 
Q 26.265625 48.484375 22.1875 42.84375 
Q 18.109375 37.203125 18.109375 27.296875 
Q 18.109375 17.390625 22.1875 11.75 
Q 26.265625 6.109375 33.40625 6.109375 
Q 40.53125 6.109375 44.609375 11.75 
Q 48.6875 17.390625 48.6875 27.296875 
z
M 18.109375 46.390625 
Q 20.953125 51.265625 25.265625 53.625 
Q 29.59375 56 35.59375 56 
Q 45.5625 56 51.78125 48.09375 
Q 58.015625 40.1875 58.015625 27.296875 
Q 58.015625 14.40625 51.78125 6.484375 
Q 45.5625 -1.421875 35.59375 -1.421875 
Q 29.59375 -1.421875 25.265625 0.953125 
Q 20.953125 3.328125 18.109375 8.203125 
L 18.109375 0 
L 9.078125 0 
L 9.078125 75.984375 
L 18.109375 75.984375 
z
" id="DejaVuSans-98"/>
       </defs>
       <use xlink:href="#DejaVuSans-83"/>
       <use x="63.476562" xlink:href="#DejaVuSans-117"/>
       <use x="126.855469" xlink:href="#DejaVuSans-98"/>
       <use x="190.332031" xlink:href="#DejaVuSans-115"/>
       <use x="242.431641" xlink:href="#DejaVuSans-116"/>
       <use x="281.640625" xlink:href="#DejaVuSans-105"/>
       <use x="309.423828" xlink:href="#DejaVuSans-116"/>
       <use x="348.632812" xlink:href="#DejaVuSans-117"/>
       <use x="412.011719" xlink:href="#DejaVuSans-116"/>
       <use x="451.220703" xlink:href="#DejaVuSans-105"/>
       <use x="479.003906" xlink:href="#DejaVuSans-111"/>
       <use x="540.185547" xlink:href="#DejaVuSans-110"/>
      </g>
     </g>
    </g>
    <g id="xtick_4">
     <g id="line2d_4">
      <g>
       <use style="stroke:#000000;stroke-width:0.8;" x="159.965387" xlink:href="#m2270addf80" y="173.879323"/>
      </g>
     </g>
     <g id="text_4">
      <!-- Split -->
      <g transform="translate(154.077065 201.931218)rotate(-45)scale(0.1 -0.1)">
       <defs>
        <path d="M 18.109375 8.203125 
L 18.109375 -20.796875 
L 9.078125 -20.796875 
L 9.078125 54.6875 
L 18.109375 54.6875 
L 18.109375 46.390625 
Q 20.953125 51.265625 25.265625 53.625 
Q 29.59375 56 35.59375 56 
Q 45.5625 56 51.78125 48.09375 
Q 58.015625 40.1875 58.015625 27.296875 
Q 58.015625 14.40625 51.78125 6.484375 
Q 45.5625 -1.421875 35.59375 -1.421875 
Q 29.59375 -1.421875 25.265625 0.953125 
Q 20.953125 3.328125 18.109375 8.203125 
z
M 48.6875 27.296875 
Q 48.6875 37.203125 44.609375 42.84375 
Q 40.53125 48.484375 33.40625 48.484375 
Q 26.265625 48.484375 22.1875 42.84375 
Q 18.109375 37.203125 18.109375 27.296875 
Q 18.109375 17.390625 22.1875 11.75 
Q 26.265625 6.109375 33.40625 6.109375 
Q 40.53125 6.109375 44.609375 11.75 
Q 48.6875 17.390625 48.6875 27.296875 
z
" id="DejaVuSans-112"/>
       </defs>
       <use xlink:href="#DejaVuSans-83"/>
       <use x="63.476562" xlink:href="#DejaVuSans-112"/>
       <use x="126.953125" xlink:href="#DejaVuSans-108"/>
       <use x="154.736328" xlink:href="#DejaVuSans-105"/>
       <use x="182.519531" xlink:href="#DejaVuSans-116"/>
      </g>
     </g>
    </g>
    <g id="xtick_5">
     <g id="line2d_5">
      <g>
       <use style="stroke:#000000;stroke-width:0.8;" x="186.425586" xlink:href="#m2270addf80" y="173.879323"/>
      </g>
     </g>
     <g id="text_5">
      <!-- Reorder -->
      <g transform="translate(174.475482 214.054785)rotate(-45)scale(0.1 -0.1)">
       <defs>
        <path d="M 44.390625 34.1875 
Q 47.5625 33.109375 50.5625 29.59375 
Q 53.5625 26.078125 56.59375 19.921875 
L 66.609375 0 
L 56 0 
L 46.6875 18.703125 
Q 43.0625 26.03125 39.671875 28.421875 
Q 36.28125 30.8125 30.421875 30.8125 
L 19.671875 30.8125 
L 19.671875 0 
L 9.8125 0 
L 9.8125 72.90625 
L 32.078125 72.90625 
Q 44.578125 72.90625 50.734375 67.671875 
Q 56.890625 62.453125 56.890625 51.90625 
Q 56.890625 45.015625 53.6875 40.46875 
Q 50.484375 35.9375 44.390625 34.1875 
z
M 19.671875 64.796875 
L 19.671875 38.921875 
L 32.078125 38.921875 
Q 39.203125 38.921875 42.84375 42.21875 
Q 46.484375 45.515625 46.484375 51.90625 
Q 46.484375 58.296875 42.84375 61.546875 
Q 39.203125 64.796875 32.078125 64.796875 
z
" id="DejaVuSans-82"/>
        <path d="M 45.40625 46.390625 
L 45.40625 75.984375 
L 54.390625 75.984375 
L 54.390625 0 
L 45.40625 0 
L 45.40625 8.203125 
Q 42.578125 3.328125 38.25 0.953125 
Q 33.9375 -1.421875 27.875 -1.421875 
Q 17.96875 -1.421875 11.734375 6.484375 
Q 5.515625 14.40625 5.515625 27.296875 
Q 5.515625 40.1875 11.734375 48.09375 
Q 17.96875 56 27.875 56 
Q 33.9375 56 38.25 53.625 
Q 42.578125 51.265625 45.40625 46.390625 
z
M 14.796875 27.296875 
Q 14.796875 17.390625 18.875 11.75 
Q 22.953125 6.109375 30.078125 6.109375 
Q 37.203125 6.109375 41.296875 11.75 
Q 45.40625 17.390625 45.40625 27.296875 
Q 45.40625 37.203125 41.296875 42.84375 
Q 37.203125 48.484375 30.078125 48.484375 
Q 22.953125 48.484375 18.875 42.84375 
Q 14.796875 37.203125 14.796875 27.296875 
z
" id="DejaVuSans-100"/>
       </defs>
       <use xlink:href="#DejaVuSans-82"/>
       <use x="64.982422" xlink:href="#DejaVuSans-101"/>
       <use x="126.505859" xlink:href="#DejaVuSans-111"/>
       <use x="187.6875" xlink:href="#DejaVuSans-114"/>
       <use x="227.050781" xlink:href="#DejaVuSans-100"/>
       <use x="290.527344" xlink:href="#DejaVuSans-101"/>
       <use x="352.050781" xlink:href="#DejaVuSans-114"/>
      </g>
     </g>
    </g>
    <g id="xtick_6">
     <g id="line2d_6">
      <g>
       <use style="stroke:#000000;stroke-width:0.8;" x="212.885786" xlink:href="#m2270addf80" y="173.879323"/>
      </g>
     </g>
     <g id="text_6">
      <!-- Structure -->
      <g transform="translate(198.392307 219.141534)rotate(-45)scale(0.1 -0.1)">
       <defs>
        <path d="M 48.78125 52.59375 
L 48.78125 44.1875 
Q 44.96875 46.296875 41.140625 47.34375 
Q 37.3125 48.390625 33.40625 48.390625 
Q 24.65625 48.390625 19.8125 42.84375 
Q 14.984375 37.3125 14.984375 27.296875 
Q 14.984375 17.28125 19.8125 11.734375 
Q 24.65625 6.203125 33.40625 6.203125 
Q 37.3125 6.203125 41.140625 7.25 
Q 44.96875 8.296875 48.78125 10.40625 
L 48.78125 2.09375 
Q 45.015625 0.34375 40.984375 -0.53125 
Q 36.96875 -1.421875 32.421875 -1.421875 
Q 20.0625 -1.421875 12.78125 6.34375 
Q 5.515625 14.109375 5.515625 27.296875 
Q 5.515625 40.671875 12.859375 48.328125 
Q 20.21875 56 33.015625 56 
Q 37.15625 56 41.109375 55.140625 
Q 45.0625 54.296875 48.78125 52.59375 
z
" id="DejaVuSans-99"/>
       </defs>
       <use xlink:href="#DejaVuSans-83"/>
       <use x="63.476562" xlink:href="#DejaVuSans-116"/>
       <use x="102.685547" xlink:href="#DejaVuSans-114"/>
       <use x="143.798828" xlink:href="#DejaVuSans-117"/>
       <use x="207.177734" xlink:href="#DejaVuSans-99"/>
       <use x="262.158203" xlink:href="#DejaVuSans-116"/>
       <use x="301.367188" xlink:href="#DejaVuSans-117"/>
       <use x="364.746094" xlink:href="#DejaVuSans-114"/>
       <use x="403.609375" xlink:href="#DejaVuSans-101"/>
      </g>
     </g>
    </g>
   </g>
   <g id="matplotlib.axis_2">
    <g id="ytick_1">
     <g id="line2d_7">
      <defs>
       <path d="M 0 0 
L -3.5 0 
" id="m4d1e48deed" style="stroke:#000000;stroke-width:0.8;"/>
      </defs>
      <g>
       <use style="stroke:#000000;stroke-width:0.8;" x="67.354688" xlink:href="#m4d1e48deed" y="28.348225"/>
      </g>
     </g>
     <g id="text_7">
      <!-- Insertion -->
      <g transform="translate(16.439063 32.147444)scale(0.1 -0.1)">
       <use xlink:href="#DejaVuSans-73"/>
       <use x="29.492188" xlink:href="#DejaVuSans-110"/>
       <use x="92.871094" xlink:href="#DejaVuSans-115"/>
       <use x="144.970703" xlink:href="#DejaVuSans-101"/>
       <use x="206.494141" xlink:href="#DejaVuSans-114"/>
       <use x="247.607422" xlink:href="#DejaVuSans-116"/>
       <use x="286.816406" xlink:href="#DejaVuSans-105"/>
       <use x="314.599609" xlink:href="#DejaVuSans-111"/>
       <use x="375.78125" xlink:href="#DejaVuSans-110"/>
      </g>
     </g>
    </g>
    <g id="ytick_2">
     <g id="line2d_8">
      <g>
       <use style="stroke:#000000;stroke-width:0.8;" x="67.354688" xlink:href="#m4d1e48deed" y="54.808425"/>
      </g>
     </g>
     <g id="text_8">
      <!-- Deletion -->
      <g transform="translate(18.415625 58.607643)scale(0.1 -0.1)">
       <use xlink:href="#DejaVuSans-68"/>
       <use x="77.001953" xlink:href="#DejaVuSans-101"/>
       <use x="138.525391" xlink:href="#DejaVuSans-108"/>
       <use x="166.308594" xlink:href="#DejaVuSans-101"/>
       <use x="227.832031" xlink:href="#DejaVuSans-116"/>
       <use x="267.041016" xlink:href="#DejaVuSans-105"/>
       <use x="294.824219" xlink:href="#DejaVuSans-111"/>
       <use x="356.005859" xlink:href="#DejaVuSans-110"/>
      </g>
     </g>
    </g>
    <g id="ytick_3">
     <g id="line2d_9">
      <g>
       <use style="stroke:#000000;stroke-width:0.8;" x="67.354688" xlink:href="#m4d1e48deed" y="81.268624"/>
      </g>
     </g>
     <g id="text_9">
      <!-- Substitution -->
      <g transform="translate(0 85.067843)scale(0.1 -0.1)">
       <use xlink:href="#DejaVuSans-83"/>
       <use x="63.476562" xlink:href="#DejaVuSans-117"/>
       <use x="126.855469" xlink:href="#DejaVuSans-98"/>
       <use x="190.332031" xlink:href="#DejaVuSans-115"/>
       <use x="242.431641" xlink:href="#DejaVuSans-116"/>
       <use x="281.640625" xlink:href="#DejaVuSans-105"/>
       <use x="309.423828" xlink:href="#DejaVuSans-116"/>
       <use x="348.632812" xlink:href="#DejaVuSans-117"/>
       <use x="412.011719" xlink:href="#DejaVuSans-116"/>
       <use x="451.220703" xlink:href="#DejaVuSans-105"/>
       <use x="479.003906" xlink:href="#DejaVuSans-111"/>
       <use x="540.185547" xlink:href="#DejaVuSans-110"/>
      </g>
     </g>
    </g>
    <g id="ytick_4">
     <g id="line2d_10">
      <g>
       <use style="stroke:#000000;stroke-width:0.8;" x="67.354688" xlink:href="#m4d1e48deed" y="107.728824"/>
      </g>
     </g>
     <g id="text_10">
      <!-- Split -->
      <g transform="translate(38.18125 111.528043)scale(0.1 -0.1)">
       <use xlink:href="#DejaVuSans-83"/>
       <use x="63.476562" xlink:href="#DejaVuSans-112"/>
       <use x="126.953125" xlink:href="#DejaVuSans-108"/>
       <use x="154.736328" xlink:href="#DejaVuSans-105"/>
       <use x="182.519531" xlink:href="#DejaVuSans-116"/>
      </g>
     </g>
    </g>
    <g id="ytick_5">
     <g id="line2d_11">
      <g>
       <use style="stroke:#000000;stroke-width:0.8;" x="67.354688" xlink:href="#m4d1e48deed" y="134.189024"/>
      </g>
     </g>
     <g id="text_11">
      <!-- Reorder -->
      <g transform="translate(21.035938 137.988243)scale(0.1 -0.1)">
       <use xlink:href="#DejaVuSans-82"/>
       <use x="64.982422" xlink:href="#DejaVuSans-101"/>
       <use x="126.505859" xlink:href="#DejaVuSans-111"/>
       <use x="187.6875" xlink:href="#DejaVuSans-114"/>
       <use x="227.050781" xlink:href="#DejaVuSans-100"/>
       <use x="290.527344" xlink:href="#DejaVuSans-101"/>
       <use x="352.050781" xlink:href="#DejaVuSans-114"/>
      </g>
     </g>
    </g>
    <g id="ytick_6">
     <g id="line2d_12">
      <g>
       <use style="stroke:#000000;stroke-width:0.8;" x="67.354688" xlink:href="#m4d1e48deed" y="160.649224"/>
      </g>
     </g>
     <g id="text_12">
      <!-- Structure -->
      <g transform="translate(13.842188 164.448442)scale(0.1 -0.1)">
       <use xlink:href="#DejaVuSans-83"/>
       <use x="63.476562" xlink:href="#DejaVuSans-116"/>
       <use x="102.685547" xlink:href="#DejaVuSans-114"/>
       <use x="143.798828" xlink:href="#DejaVuSans-117"/>
       <use x="207.177734" xlink:href="#DejaVuSans-99"/>
       <use x="262.158203" xlink:href="#DejaVuSans-116"/>
       <use x="301.367188" xlink:href="#DejaVuSans-117"/>
       <use x="364.746094" xlink:href="#DejaVuSans-114"/>
       <use x="403.609375" xlink:href="#DejaVuSans-101"/>
      </g>
     </g>
    </g>
   </g>
   <g id="text_13">
    <!-- Without composite edits -->
    <g transform="translate(73.699349 9.118125)scale(0.12 -0.12)">
     <defs>
      <path d="M 3.328125 72.90625 
L 13.28125 72.90625 
L 28.609375 11.28125 
L 43.890625 72.90625 
L 54.984375 72.90625 
L 70.3125 11.28125 
L 85.59375 72.90625 
L 95.609375 72.90625 
L 77.296875 0 
L 64.890625 0 
L 49.515625 63.28125 
L 33.984375 0 
L 21.578125 0 
z
" id="DejaVuSans-87"/>
      <path d="M 54.890625 33.015625 
L 54.890625 0 
L 45.90625 0 
L 45.90625 32.71875 
Q 45.90625 40.484375 42.875 44.328125 
Q 39.84375 48.1875 33.796875 48.1875 
Q 26.515625 48.1875 22.3125 43.546875 
Q 18.109375 38.921875 18.109375 30.90625 
L 18.109375 0 
L 9.078125 0 
L 9.078125 75.984375 
L 18.109375 75.984375 
L 18.109375 46.1875 
Q 21.34375 51.125 25.703125 53.5625 
Q 30.078125 56 35.796875 56 
Q 45.21875 56 50.046875 50.171875 
Q 54.890625 44.34375 54.890625 33.015625 
z
" id="DejaVuSans-104"/>
      <path id="DejaVuSans-32"/>
      <path d="M 52 44.1875 
Q 55.375 50.25 60.0625 53.125 
Q 64.75 56 71.09375 56 
Q 79.640625 56 84.28125 50.015625 
Q 88.921875 44.046875 88.921875 33.015625 
L 88.921875 0 
L 79.890625 0 
L 79.890625 32.71875 
Q 79.890625 40.578125 77.09375 44.375 
Q 74.3125 48.1875 68.609375 48.1875 
Q 61.625 48.1875 57.5625 43.546875 
Q 53.515625 38.921875 53.515625 30.90625 
L 53.515625 0 
L 44.484375 0 
L 44.484375 32.71875 
Q 44.484375 40.625 41.703125 44.40625 
Q 38.921875 48.1875 33.109375 48.1875 
Q 26.21875 48.1875 22.15625 43.53125 
Q 18.109375 38.875 18.109375 30.90625 
L 18.109375 0 
L 9.078125 0 
L 9.078125 54.6875 
L 18.109375 54.6875 
L 18.109375 46.1875 
Q 21.1875 51.21875 25.484375 53.609375 
Q 29.78125 56 35.6875 56 
Q 41.65625 56 45.828125 52.96875 
Q 50 49.953125 52 44.1875 
z
" id="DejaVuSans-109"/>
     </defs>
     <use xlink:href="#DejaVuSans-87"/>
     <use x="96.626953" xlink:href="#DejaVuSans-105"/>
     <use x="124.410156" xlink:href="#DejaVuSans-116"/>
     <use x="163.619141" xlink:href="#DejaVuSans-104"/>
     <use x="226.998047" xlink:href="#DejaVuSans-111"/>
     <use x="288.179688" xlink:href="#DejaVuSans-117"/>
     <use x="351.558594" xlink:href="#DejaVuSans-116"/>
     <use x="390.767578" xlink:href="#DejaVuSans-32"/>
     <use x="422.554688" xlink:href="#DejaVuSans-99"/>
     <use x="477.535156" xlink:href="#DejaVuSans-111"/>
     <use x="538.716797" xlink:href="#DejaVuSans-109"/>
     <use x="636.128906" xlink:href="#DejaVuSans-112"/>
     <use x="699.605469" xlink:href="#DejaVuSans-111"/>
     <use x="760.787109" xlink:href="#DejaVuSans-115"/>
     <use x="812.886719" xlink:href="#DejaVuSans-105"/>
     <use x="840.669922" xlink:href="#DejaVuSans-116"/>
     <use x="879.878906" xlink:href="#DejaVuSans-101"/>
     <use x="941.402344" xlink:href="#DejaVuSans-32"/>
     <use x="973.189453" xlink:href="#DejaVuSans-101"/>
     <use x="1034.712891" xlink:href="#DejaVuSans-100"/>
     <use x="1098.189453" xlink:href="#DejaVuSans-105"/>
     <use x="1125.972656" xlink:href="#DejaVuSans-116"/>
     <use x="1165.181641" xlink:href="#DejaVuSans-115"/>
    </g>
   </g>
  </g>
  <g id="axes_2">
   <g id="patch_3">
    <path d="M 306.974235 163.449899 
L 444.876584 163.449899 
L 444.876584 25.54755 
L 306.974235 25.54755 
z
" style="fill:#ffffff;"/>
   </g>
   <g id="QuadMesh_2">
    <path clip-path="url(#p28e436bdf8)" d="M 306.974235 25.54755 
L 341.449822 25.54755 
L 341.449822 60.023137 
L 306.974235 60.023137 
L 306.974235 25.54755 
" style="fill:#ffede5;"/>
    <path clip-path="url(#p28e436bdf8)" d="M 341.449822 25.54755 
L 375.925409 25.54755 
L 375.925409 60.023137 
L 341.449822 60.023137 
L 341.449822 25.54755 
" style="fill:#ffede5;"/>
    <path clip-path="url(#p28e436bdf8)" d="M 375.925409 25.54755 
L 410.400997 25.54755 
L 410.400997 60.023137 
L 375.925409 60.023137 
L 375.925409 25.54755 
" style="fill:#fedbcc;"/>
    <path clip-path="url(#p28e436bdf8)" d="M 410.400997 25.54755 
L 444.876584 25.54755 
L 444.876584 60.023137 
L 410.400997 60.023137 
L 410.400997 25.54755 
" style="fill:#ffede5;"/>
    <path clip-path="url(#p28e436bdf8)" d="M 306.974235 60.023137 
L 341.449822 60.023137 
L 341.449822 94.498724 
L 306.974235 94.498724 
L 306.974235 60.023137 
" style="fill:#ffede5;"/>
    <path clip-path="url(#p28e436bdf8)" d="M 341.449822 60.023137 
L 375.925409 60.023137 
L 375.925409 94.498724 
L 341.449822 94.498724 
L 341.449822 60.023137 
" style="fill:#ffede5;"/>
    <path clip-path="url(#p28e436bdf8)" d="M 375.925409 60.023137 
L 410.400997 60.023137 
L 410.400997 94.498724 
L 375.925409 94.498724 
L 375.925409 60.023137 
" style="fill:#fcaf93;"/>
    <path clip-path="url(#p28e436bdf8)" d="M 410.400997 60.023137 
L 444.876584 60.023137 
L 444.876584 94.498724 
L 410.400997 94.498724 
L 410.400997 60.023137 
" style="fill:#ffede5;"/>
    <path clip-path="url(#p28e436bdf8)" d="M 306.974235 94.498724 
L 341.449822 94.498724 
L 341.449822 128.974311 
L 306.974235 128.974311 
L 306.974235 94.498724 
" style="fill:#fdcdb9;"/>
    <path clip-path="url(#p28e436bdf8)" d="M 341.449822 94.498724 
L 375.925409 94.498724 
L 375.925409 128.974311 
L 341.449822 128.974311 
L 341.449822 94.498724 
" style="fill:#f44f39;"/>
    <path clip-path="url(#p28e436bdf8)" d="M 375.925409 94.498724 
L 410.400997 94.498724 
L 410.400997 128.974311 
L 375.925409 128.974311 
L 375.925409 94.498724 
" style="fill:#ffede5;"/>
    <path clip-path="url(#p28e436bdf8)" d="M 410.400997 94.498724 
L 444.876584 94.498724 
L 444.876584 128.974311 
L 410.400997 128.974311 
L 410.400997 94.498724 
" style="fill:#fcaf93;"/>
    <path clip-path="url(#p28e436bdf8)" d="M 306.974235 128.974311 
L 341.449822 128.974311 
L 341.449822 163.449899 
L 306.974235 163.449899 
L 306.974235 128.974311 
" style="fill:#ffede5;"/>
    <path clip-path="url(#p28e436bdf8)" d="M 341.449822 128.974311 
L 375.925409 128.974311 
L 375.925409 163.449899 
L 341.449822 163.449899 
L 341.449822 128.974311 
" style="fill:#ffede5;"/>
    <path clip-path="url(#p28e436bdf8)" d="M 375.925409 128.974311 
L 410.400997 128.974311 
L 410.400997 163.449899 
L 375.925409 163.449899 
L 375.925409 128.974311 
" style="fill:#ffede5;"/>
    <path clip-path="url(#p28e436bdf8)" d="M 410.400997 128.974311 
L 444.876584 128.974311 
L 444.876584 163.449899 
L 410.400997 163.449899 
L 410.400997 128.974311 
" style="fill:#ffede5;"/>
   </g>
   <g id="matplotlib.axis_3">
    <g id="xtick_7">
     <g id="line2d_13">
      <g>
       <use style="stroke:#000000;stroke-width:0.8;" x="324.212029" xlink:href="#m2270addf80" y="163.449899"/>
      </g>
     </g>
     <g id="text_14">
      <!-- Insertion -->
      <g transform="translate(310.636683 206.875842)rotate(-45)scale(0.1 -0.1)">
       <use xlink:href="#DejaVuSans-73"/>
       <use x="29.492188" xlink:href="#DejaVuSans-110"/>
       <use x="92.871094" xlink:href="#DejaVuSans-115"/>
       <use x="144.970703" xlink:href="#DejaVuSans-101"/>
       <use x="206.494141" xlink:href="#DejaVuSans-114"/>
       <use x="247.607422" xlink:href="#DejaVuSans-116"/>
       <use x="286.816406" xlink:href="#DejaVuSans-105"/>
       <use x="314.599609" xlink:href="#DejaVuSans-111"/>
       <use x="375.78125" xlink:href="#DejaVuSans-110"/>
      </g>
     </g>
    </g>
    <g id="xtick_8">
     <g id="line2d_14">
      <g>
       <use style="stroke:#000000;stroke-width:0.8;" x="358.687616" xlink:href="#m2270addf80" y="163.449899"/>
      </g>
     </g>
     <g id="text_15">
      <!-- Deletion -->
      <g transform="translate(345.811091 205.478201)rotate(-45)scale(0.1 -0.1)">
       <use xlink:href="#DejaVuSans-68"/>
       <use x="77.001953" xlink:href="#DejaVuSans-101"/>
       <use x="138.525391" xlink:href="#DejaVuSans-108"/>
       <use x="166.308594" xlink:href="#DejaVuSans-101"/>
       <use x="227.832031" xlink:href="#DejaVuSans-116"/>
       <use x="267.041016" xlink:href="#DejaVuSans-105"/>
       <use x="294.824219" xlink:href="#DejaVuSans-111"/>
       <use x="356.005859" xlink:href="#DejaVuSans-110"/>
      </g>
     </g>
    </g>
    <g id="xtick_9">
     <g id="line2d_15">
      <g>
       <use style="stroke:#000000;stroke-width:0.8;" x="393.163203" xlink:href="#m2270addf80" y="163.449899"/>
      </g>
     </g>
     <g id="text_16">
      <!-- Substitution -->
      <g transform="translate(373.775771 218.500014)rotate(-45)scale(0.1 -0.1)">
       <use xlink:href="#DejaVuSans-83"/>
       <use x="63.476562" xlink:href="#DejaVuSans-117"/>
       <use x="126.855469" xlink:href="#DejaVuSans-98"/>
       <use x="190.332031" xlink:href="#DejaVuSans-115"/>
       <use x="242.431641" xlink:href="#DejaVuSans-116"/>
       <use x="281.640625" xlink:href="#DejaVuSans-105"/>
       <use x="309.423828" xlink:href="#DejaVuSans-116"/>
       <use x="348.632812" xlink:href="#DejaVuSans-117"/>
       <use x="412.011719" xlink:href="#DejaVuSans-116"/>
       <use x="451.220703" xlink:href="#DejaVuSans-105"/>
       <use x="479.003906" xlink:href="#DejaVuSans-111"/>
       <use x="540.185547" xlink:href="#DejaVuSans-110"/>
      </g>
     </g>
    </g>
    <g id="xtick_10">
     <g id="line2d_16">
      <g>
       <use style="stroke:#000000;stroke-width:0.8;" x="427.63879" xlink:href="#m2270addf80" y="163.449899"/>
      </g>
     </g>
     <g id="text_17">
      <!-- Reorder -->
      <g transform="translate(415.688686 203.62536)rotate(-45)scale(0.1 -0.1)">
       <use xlink:href="#DejaVuSans-82"/>
       <use x="64.982422" xlink:href="#DejaVuSans-101"/>
       <use x="126.505859" xlink:href="#DejaVuSans-111"/>
       <use x="187.6875" xlink:href="#DejaVuSans-114"/>
       <use x="227.050781" xlink:href="#DejaVuSans-100"/>
       <use x="290.527344" xlink:href="#DejaVuSans-101"/>
       <use x="352.050781" xlink:href="#DejaVuSans-114"/>
      </g>
     </g>
    </g>
   </g>
   <g id="matplotlib.axis_4">
    <g id="ytick_7">
     <g id="line2d_17">
      <g>
       <use style="stroke:#000000;stroke-width:0.8;" x="306.974235" xlink:href="#m4d1e48deed" y="42.785343"/>
      </g>
     </g>
     <g id="text_18">
      <!-- Insertion -->
      <g transform="translate(256.05861 46.584562)scale(0.1 -0.1)">
       <use xlink:href="#DejaVuSans-73"/>
       <use x="29.492188" xlink:href="#DejaVuSans-110"/>
       <use x="92.871094" xlink:href="#DejaVuSans-115"/>
       <use x="144.970703" xlink:href="#DejaVuSans-101"/>
       <use x="206.494141" xlink:href="#DejaVuSans-114"/>
       <use x="247.607422" xlink:href="#DejaVuSans-116"/>
       <use x="286.816406" xlink:href="#DejaVuSans-105"/>
       <use x="314.599609" xlink:href="#DejaVuSans-111"/>
       <use x="375.78125" xlink:href="#DejaVuSans-110"/>
      </g>
     </g>
    </g>
    <g id="ytick_8">
     <g id="line2d_18">
      <g>
       <use style="stroke:#000000;stroke-width:0.8;" x="306.974235" xlink:href="#m4d1e48deed" y="77.260931"/>
      </g>
     </g>
     <g id="text_19">
      <!-- Deletion -->
      <g transform="translate(258.035172 81.060149)scale(0.1 -0.1)">
       <use xlink:href="#DejaVuSans-68"/>
       <use x="77.001953" xlink:href="#DejaVuSans-101"/>
       <use x="138.525391" xlink:href="#DejaVuSans-108"/>
       <use x="166.308594" xlink:href="#DejaVuSans-101"/>
       <use x="227.832031" xlink:href="#DejaVuSans-116"/>
       <use x="267.041016" xlink:href="#DejaVuSans-105"/>
       <use x="294.824219" xlink:href="#DejaVuSans-111"/>
       <use x="356.005859" xlink:href="#DejaVuSans-110"/>
      </g>
     </g>
    </g>
    <g id="ytick_9">
     <g id="line2d_19">
      <g>
       <use style="stroke:#000000;stroke-width:0.8;" x="306.974235" xlink:href="#m4d1e48deed" y="111.736518"/>
      </g>
     </g>
     <g id="text_20">
      <!-- Substitution -->
      <g transform="translate(239.619547 115.535737)scale(0.1 -0.1)">
       <use xlink:href="#DejaVuSans-83"/>
       <use x="63.476562" xlink:href="#DejaVuSans-117"/>
       <use x="126.855469" xlink:href="#DejaVuSans-98"/>
       <use x="190.332031" xlink:href="#DejaVuSans-115"/>
       <use x="242.431641" xlink:href="#DejaVuSans-116"/>
       <use x="281.640625" xlink:href="#DejaVuSans-105"/>
       <use x="309.423828" xlink:href="#DejaVuSans-116"/>
       <use x="348.632812" xlink:href="#DejaVuSans-117"/>
       <use x="412.011719" xlink:href="#DejaVuSans-116"/>
       <use x="451.220703" xlink:href="#DejaVuSans-105"/>
       <use x="479.003906" xlink:href="#DejaVuSans-111"/>
       <use x="540.185547" xlink:href="#DejaVuSans-110"/>
      </g>
     </g>
    </g>
    <g id="ytick_10">
     <g id="line2d_20">
      <g>
       <use style="stroke:#000000;stroke-width:0.8;" x="306.974235" xlink:href="#m4d1e48deed" y="146.212105"/>
      </g>
     </g>
     <g id="text_21">
      <!-- Reorder -->
      <g transform="translate(260.655485 150.011324)scale(0.1 -0.1)">
       <use xlink:href="#DejaVuSans-82"/>
       <use x="64.982422" xlink:href="#DejaVuSans-101"/>
       <use x="126.505859" xlink:href="#DejaVuSans-111"/>
       <use x="187.6875" xlink:href="#DejaVuSans-114"/>
       <use x="227.050781" xlink:href="#DejaVuSans-100"/>
       <use x="290.527344" xlink:href="#DejaVuSans-101"/>
       <use x="352.050781" xlink:href="#DejaVuSans-114"/>
      </g>
     </g>
    </g>
   </g>
   <g id="text_22">
    <!-- With composite edits -->
    <g transform="translate(312.715409 19.54755)scale(0.12 -0.12)">
     <use xlink:href="#DejaVuSans-87"/>
     <use x="96.626953" xlink:href="#DejaVuSans-105"/>
     <use x="124.410156" xlink:href="#DejaVuSans-116"/>
     <use x="163.619141" xlink:href="#DejaVuSans-104"/>
     <use x="226.998047" xlink:href="#DejaVuSans-32"/>
     <use x="258.785156" xlink:href="#DejaVuSans-99"/>
     <use x="313.765625" xlink:href="#DejaVuSans-111"/>
     <use x="374.947266" xlink:href="#DejaVuSans-109"/>
     <use x="472.359375" xlink:href="#DejaVuSans-112"/>
     <use x="535.835938" xlink:href="#DejaVuSans-111"/>
     <use x="597.017578" xlink:href="#DejaVuSans-115"/>
     <use x="649.117188" xlink:href="#DejaVuSans-105"/>
     <use x="676.900391" xlink:href="#DejaVuSans-116"/>
     <use x="716.109375" xlink:href="#DejaVuSans-101"/>
     <use x="777.632812" xlink:href="#DejaVuSans-32"/>
     <use x="809.419922" xlink:href="#DejaVuSans-101"/>
     <use x="870.943359" xlink:href="#DejaVuSans-100"/>
     <use x="934.419922" xlink:href="#DejaVuSans-105"/>
     <use x="962.203125" xlink:href="#DejaVuSans-116"/>
     <use x="1001.412109" xlink:href="#DejaVuSans-115"/>
    </g>
   </g>
  </g>
  <g id="axes_3">
   <g id="patch_4">
    <path clip-path="url(#p946aa06b52)" d="M 453.495481 173.879323 
L 453.495481 165.941263 
L 453.495481 23.056185 
L 453.495481 15.118125 
L 461.433541 15.118125 
L 461.433541 23.056185 
L 461.433541 165.941263 
L 461.433541 173.879323 
z
" style="fill:#ffffff;stroke:#ffffff;stroke-linejoin:miter;stroke-width:0.01;"/>
   </g>
   <g id="QuadMesh_3">
    <path clip-path="url(#p946aa06b52)" d="M 453.495481 173.879323 
L 461.433541 173.879323 
L 461.433541 165.941263 
L 453.495481 165.941263 
L 453.495481 173.879323 
" style="fill:#ffede5;"/>
    <path clip-path="url(#p946aa06b52)" d="M 453.495481 165.941263 
L 461.433541 165.941263 
L 461.433541 158.003204 
L 453.495481 158.003204 
L 453.495481 165.941263 
" style="fill:#fee5d9;"/>
    <path clip-path="url(#p946aa06b52)" d="M 453.495481 158.003204 
L 461.433541 158.003204 
L 461.433541 150.065144 
L 453.495481 150.065144 
L 453.495481 158.003204 
" style="fill:#fedbcc;"/>
    <path clip-path="url(#p946aa06b52)" d="M 453.495481 150.065144 
L 461.433541 150.065144 
L 461.433541 142.127084 
L 453.495481 142.127084 
L 453.495481 150.065144 
" style="fill:#fdcdb9;"/>
    <path clip-path="url(#p946aa06b52)" d="M 453.495481 142.127084 
L 461.433541 142.127084 
L 461.433541 134.189024 
L 453.495481 134.189024 
L 453.495481 142.127084 
" style="fill:#fcbfa7;"/>
    <path clip-path="url(#p946aa06b52)" d="M 453.495481 134.189024 
L 461.433541 134.189024 
L 461.433541 126.250964 
L 453.495481 126.250964 
L 453.495481 134.189024 
" style="fill:#fcaf93;"/>
    <path clip-path="url(#p946aa06b52)" d="M 453.495481 126.250964 
L 461.433541 126.250964 
L 461.433541 118.312904 
L 453.495481 118.312904 
L 453.495481 126.250964 
" style="fill:#fca082;"/>
    <path clip-path="url(#p946aa06b52)" d="M 453.495481 118.312904 
L 461.433541 118.312904 
L 461.433541 110.374844 
L 453.495481 110.374844 
L 453.495481 118.312904 
" style="fill:#fc9070;"/>
    <path clip-path="url(#p946aa06b52)" d="M 453.495481 110.374844 
L 461.433541 110.374844 
L 461.433541 102.436784 
L 453.495481 102.436784 
L 453.495481 110.374844 
" style="fill:#fc8161;"/>
    <path clip-path="url(#p946aa06b52)" d="M 453.495481 102.436784 
L 461.433541 102.436784 
L 461.433541 94.498724 
L 453.495481 94.498724 
L 453.495481 102.436784 
" style="fill:#fb7252;"/>
    <path clip-path="url(#p946aa06b52)" d="M 453.495481 94.498724 
L 461.433541 94.498724 
L 461.433541 86.560664 
L 453.495481 86.560664 
L 453.495481 94.498724 
" style="fill:#f96044;"/>
    <path clip-path="url(#p946aa06b52)" d="M 453.495481 86.560664 
L 461.433541 86.560664 
L 461.433541 78.622604 
L 453.495481 78.622604 
L 453.495481 86.560664 
" style="fill:#f44f39;"/>
    <path clip-path="url(#p946aa06b52)" d="M 453.495481 78.622604 
L 461.433541 78.622604 
L 461.433541 70.684544 
L 453.495481 70.684544 
L 453.495481 78.622604 
" style="fill:#f03d2d;"/>
    <path clip-path="url(#p946aa06b52)" d="M 453.495481 70.684544 
L 461.433541 70.684544 
L 461.433541 62.746485 
L 453.495481 62.746485 
L 453.495481 70.684544 
" style="fill:#e32f27;"/>
    <path clip-path="url(#p946aa06b52)" d="M 453.495481 62.746485 
L 461.433541 62.746485 
L 461.433541 54.808425 
L 453.495481 54.808425 
L 453.495481 62.746485 
" style="fill:#d52221;"/>
    <path clip-path="url(#p946aa06b52)" d="M 453.495481 54.808425 
L 461.433541 54.808425 
L 461.433541 46.870365 
L 453.495481 46.870365 
L 453.495481 54.808425 
" style="fill:#c7171c;"/>
    <path clip-path="url(#p946aa06b52)" d="M 453.495481 46.870365 
L 461.433541 46.870365 
L 461.433541 38.932305 
L 453.495481 38.932305 
L 453.495481 46.870365 
" style="fill:#b81419;"/>
    <path clip-path="url(#p946aa06b52)" d="M 453.495481 38.932305 
L 461.433541 38.932305 
L 461.433541 30.994245 
L 453.495481 30.994245 
L 453.495481 38.932305 
" style="fill:#aa1016;"/>
    <path clip-path="url(#p946aa06b52)" d="M 453.495481 30.994245 
L 461.433541 30.994245 
L 461.433541 23.056185 
L 453.495481 23.056185 
L 453.495481 30.994245 
" style="fill:#960b13;"/>
    <path clip-path="url(#p946aa06b52)" d="M 453.495481 23.056185 
L 461.433541 23.056185 
L 461.433541 15.118125 
L 453.495481 15.118125 
L 453.495481 23.056185 
" style="fill:#7e0610;"/>
   </g>
   <g id="matplotlib.axis_5"/>
   <g id="matplotlib.axis_6">
    <g id="ytick_11">
     <g id="line2d_21">
      <defs>
       <path d="M 0 0 
L 3.5 0 
" id="m2995ee44ad" style="stroke:#000000;stroke-width:0.8;"/>
      </defs>
      <g>
       <use style="stroke:#000000;stroke-width:0.8;" x="461.433541" xlink:href="#m2995ee44ad" y="173.879323"/>
      </g>
     </g>
     <g id="text_23">
      <!-- 0 -->
      <g transform="translate(468.433541 177.678542)scale(0.1 -0.1)">
       <defs>
        <path d="M 31.78125 66.40625 
Q 24.171875 66.40625 20.328125 58.90625 
Q 16.5 51.421875 16.5 36.375 
Q 16.5 21.390625 20.328125 13.890625 
Q 24.171875 6.390625 31.78125 6.390625 
Q 39.453125 6.390625 43.28125 13.890625 
Q 47.125 21.390625 47.125 36.375 
Q 47.125 51.421875 43.28125 58.90625 
Q 39.453125 66.40625 31.78125 66.40625 
z
M 31.78125 74.21875 
Q 44.046875 74.21875 50.515625 64.515625 
Q 56.984375 54.828125 56.984375 36.375 
Q 56.984375 17.96875 50.515625 8.265625 
Q 44.046875 -1.421875 31.78125 -1.421875 
Q 19.53125 -1.421875 13.0625 8.265625 
Q 6.59375 17.96875 6.59375 36.375 
Q 6.59375 54.828125 13.0625 64.515625 
Q 19.53125 74.21875 31.78125 74.21875 
z
" id="DejaVuSans-48"/>
       </defs>
       <use xlink:href="#DejaVuSans-48"/>
      </g>
     </g>
    </g>
    <g id="ytick_12">
     <g id="line2d_22">
      <g>
       <use style="stroke:#000000;stroke-width:0.8;" x="461.433541" xlink:href="#m2995ee44ad" y="151.199152"/>
      </g>
     </g>
     <g id="text_24">
      <!-- 100 -->
      <g transform="translate(468.433541 154.998371)scale(0.1 -0.1)">
       <defs>
        <path d="M 12.40625 8.296875 
L 28.515625 8.296875 
L 28.515625 63.921875 
L 10.984375 60.40625 
L 10.984375 69.390625 
L 28.421875 72.90625 
L 38.28125 72.90625 
L 38.28125 8.296875 
L 54.390625 8.296875 
L 54.390625 0 
L 12.40625 0 
z
" id="DejaVuSans-49"/>
       </defs>
       <use xlink:href="#DejaVuSans-49"/>
       <use x="63.623047" xlink:href="#DejaVuSans-48"/>
       <use x="127.246094" xlink:href="#DejaVuSans-48"/>
      </g>
     </g>
    </g>
    <g id="ytick_13">
     <g id="line2d_23">
      <g>
       <use style="stroke:#000000;stroke-width:0.8;" x="461.433541" xlink:href="#m2995ee44ad" y="128.518981"/>
      </g>
     </g>
     <g id="text_25">
      <!-- 200 -->
      <g transform="translate(468.433541 132.3182)scale(0.1 -0.1)">
       <defs>
        <path d="M 19.1875 8.296875 
L 53.609375 8.296875 
L 53.609375 0 
L 7.328125 0 
L 7.328125 8.296875 
Q 12.9375 14.109375 22.625 23.890625 
Q 32.328125 33.6875 34.8125 36.53125 
Q 39.546875 41.84375 41.421875 45.53125 
Q 43.3125 49.21875 43.3125 52.78125 
Q 43.3125 58.59375 39.234375 62.25 
Q 35.15625 65.921875 28.609375 65.921875 
Q 23.96875 65.921875 18.8125 64.3125 
Q 13.671875 62.703125 7.8125 59.421875 
L 7.8125 69.390625 
Q 13.765625 71.78125 18.9375 73 
Q 24.125 74.21875 28.421875 74.21875 
Q 39.75 74.21875 46.484375 68.546875 
Q 53.21875 62.890625 53.21875 53.421875 
Q 53.21875 48.921875 51.53125 44.890625 
Q 49.859375 40.875 45.40625 35.40625 
Q 44.1875 33.984375 37.640625 27.21875 
Q 31.109375 20.453125 19.1875 8.296875 
z
" id="DejaVuSans-50"/>
       </defs>
       <use xlink:href="#DejaVuSans-50"/>
       <use x="63.623047" xlink:href="#DejaVuSans-48"/>
       <use x="127.246094" xlink:href="#DejaVuSans-48"/>
      </g>
     </g>
    </g>
    <g id="ytick_14">
     <g id="line2d_24">
      <g>
       <use style="stroke:#000000;stroke-width:0.8;" x="461.433541" xlink:href="#m2995ee44ad" y="105.83881"/>
      </g>
     </g>
     <g id="text_26">
      <!-- 300 -->
      <g transform="translate(468.433541 109.638029)scale(0.1 -0.1)">
       <defs>
        <path d="M 40.578125 39.3125 
Q 47.65625 37.796875 51.625 33 
Q 55.609375 28.21875 55.609375 21.1875 
Q 55.609375 10.40625 48.1875 4.484375 
Q 40.765625 -1.421875 27.09375 -1.421875 
Q 22.515625 -1.421875 17.65625 -0.515625 
Q 12.796875 0.390625 7.625 2.203125 
L 7.625 11.71875 
Q 11.71875 9.328125 16.59375 8.109375 
Q 21.484375 6.890625 26.8125 6.890625 
Q 36.078125 6.890625 40.9375 10.546875 
Q 45.796875 14.203125 45.796875 21.1875 
Q 45.796875 27.640625 41.28125 31.265625 
Q 36.765625 34.90625 28.71875 34.90625 
L 20.21875 34.90625 
L 20.21875 43.015625 
L 29.109375 43.015625 
Q 36.375 43.015625 40.234375 45.921875 
Q 44.09375 48.828125 44.09375 54.296875 
Q 44.09375 59.90625 40.109375 62.90625 
Q 36.140625 65.921875 28.71875 65.921875 
Q 24.65625 65.921875 20.015625 65.03125 
Q 15.375 64.15625 9.8125 62.3125 
L 9.8125 71.09375 
Q 15.4375 72.65625 20.34375 73.4375 
Q 25.25 74.21875 29.59375 74.21875 
Q 40.828125 74.21875 47.359375 69.109375 
Q 53.90625 64.015625 53.90625 55.328125 
Q 53.90625 49.265625 50.4375 45.09375 
Q 46.96875 40.921875 40.578125 39.3125 
z
" id="DejaVuSans-51"/>
       </defs>
       <use xlink:href="#DejaVuSans-51"/>
       <use x="63.623047" xlink:href="#DejaVuSans-48"/>
       <use x="127.246094" xlink:href="#DejaVuSans-48"/>
      </g>
     </g>
    </g>
    <g id="ytick_15">
     <g id="line2d_25">
      <g>
       <use style="stroke:#000000;stroke-width:0.8;" x="461.433541" xlink:href="#m2995ee44ad" y="83.158639"/>
      </g>
     </g>
     <g id="text_27">
      <!-- 400 -->
      <g transform="translate(468.433541 86.957857)scale(0.1 -0.1)">
       <defs>
        <path d="M 37.796875 64.3125 
L 12.890625 25.390625 
L 37.796875 25.390625 
z
M 35.203125 72.90625 
L 47.609375 72.90625 
L 47.609375 25.390625 
L 58.015625 25.390625 
L 58.015625 17.1875 
L 47.609375 17.1875 
L 47.609375 0 
L 37.796875 0 
L 37.796875 17.1875 
L 4.890625 17.1875 
L 4.890625 26.703125 
z
" id="DejaVuSans-52"/>
       </defs>
       <use xlink:href="#DejaVuSans-52"/>
       <use x="63.623047" xlink:href="#DejaVuSans-48"/>
       <use x="127.246094" xlink:href="#DejaVuSans-48"/>
      </g>
     </g>
    </g>
    <g id="ytick_16">
     <g id="line2d_26">
      <g>
       <use style="stroke:#000000;stroke-width:0.8;" x="461.433541" xlink:href="#m2995ee44ad" y="60.478467"/>
      </g>
     </g>
     <g id="text_28">
      <!-- 500 -->
      <g transform="translate(468.433541 64.277686)scale(0.1 -0.1)">
       <defs>
        <path d="M 10.796875 72.90625 
L 49.515625 72.90625 
L 49.515625 64.59375 
L 19.828125 64.59375 
L 19.828125 46.734375 
Q 21.96875 47.46875 24.109375 47.828125 
Q 26.265625 48.1875 28.421875 48.1875 
Q 40.625 48.1875 47.75 41.5 
Q 54.890625 34.8125 54.890625 23.390625 
Q 54.890625 11.625 47.5625 5.09375 
Q 40.234375 -1.421875 26.90625 -1.421875 
Q 22.3125 -1.421875 17.546875 -0.640625 
Q 12.796875 0.140625 7.71875 1.703125 
L 7.71875 11.625 
Q 12.109375 9.234375 16.796875 8.0625 
Q 21.484375 6.890625 26.703125 6.890625 
Q 35.15625 6.890625 40.078125 11.328125 
Q 45.015625 15.765625 45.015625 23.390625 
Q 45.015625 31 40.078125 35.4375 
Q 35.15625 39.890625 26.703125 39.890625 
Q 22.75 39.890625 18.8125 39.015625 
Q 14.890625 38.140625 10.796875 36.28125 
z
" id="DejaVuSans-53"/>
       </defs>
       <use xlink:href="#DejaVuSans-53"/>
       <use x="63.623047" xlink:href="#DejaVuSans-48"/>
       <use x="127.246094" xlink:href="#DejaVuSans-48"/>
      </g>
     </g>
    </g>
    <g id="ytick_17">
     <g id="line2d_27">
      <g>
       <use style="stroke:#000000;stroke-width:0.8;" x="461.433541" xlink:href="#m2995ee44ad" y="37.798296"/>
      </g>
     </g>
     <g id="text_29">
      <!-- 600 -->
      <g transform="translate(468.433541 41.597515)scale(0.1 -0.1)">
       <defs>
        <path d="M 33.015625 40.375 
Q 26.375 40.375 22.484375 35.828125 
Q 18.609375 31.296875 18.609375 23.390625 
Q 18.609375 15.53125 22.484375 10.953125 
Q 26.375 6.390625 33.015625 6.390625 
Q 39.65625 6.390625 43.53125 10.953125 
Q 47.40625 15.53125 47.40625 23.390625 
Q 47.40625 31.296875 43.53125 35.828125 
Q 39.65625 40.375 33.015625 40.375 
z
M 52.59375 71.296875 
L 52.59375 62.3125 
Q 48.875 64.0625 45.09375 64.984375 
Q 41.3125 65.921875 37.59375 65.921875 
Q 27.828125 65.921875 22.671875 59.328125 
Q 17.53125 52.734375 16.796875 39.40625 
Q 19.671875 43.65625 24.015625 45.921875 
Q 28.375 48.1875 33.59375 48.1875 
Q 44.578125 48.1875 50.953125 41.515625 
Q 57.328125 34.859375 57.328125 23.390625 
Q 57.328125 12.15625 50.6875 5.359375 
Q 44.046875 -1.421875 33.015625 -1.421875 
Q 20.359375 -1.421875 13.671875 8.265625 
Q 6.984375 17.96875 6.984375 36.375 
Q 6.984375 53.65625 15.1875 63.9375 
Q 23.390625 74.21875 37.203125 74.21875 
Q 40.921875 74.21875 44.703125 73.484375 
Q 48.484375 72.75 52.59375 71.296875 
z
" id="DejaVuSans-54"/>
       </defs>
       <use xlink:href="#DejaVuSans-54"/>
       <use x="63.623047" xlink:href="#DejaVuSans-48"/>
       <use x="127.246094" xlink:href="#DejaVuSans-48"/>
      </g>
     </g>
    </g>
    <g id="ytick_18">
     <g id="line2d_28">
      <g>
       <use style="stroke:#000000;stroke-width:0.8;" x="461.433541" xlink:href="#m2995ee44ad" y="15.118125"/>
      </g>
     </g>
     <g id="text_30">
      <!-- 700 -->
      <g transform="translate(468.433541 18.917344)scale(0.1 -0.1)">
       <defs>
        <path d="M 8.203125 72.90625 
L 55.078125 72.90625 
L 55.078125 68.703125 
L 28.609375 0 
L 18.3125 0 
L 43.21875 64.59375 
L 8.203125 64.59375 
z
" id="DejaVuSans-55"/>
       </defs>
       <use xlink:href="#DejaVuSans-55"/>
       <use x="63.623047" xlink:href="#DejaVuSans-48"/>
       <use x="127.246094" xlink:href="#DejaVuSans-48"/>
      </g>
     </g>
    </g>
   </g>
   <g id="patch_5">
    <path d="M 453.495481 173.879323 
L 453.495481 165.941263 
L 453.495481 23.056185 
L 453.495481 15.118125 
L 461.433541 15.118125 
L 461.433541 23.056185 
L 461.433541 165.941263 
L 461.433541 173.879323 
z
" style="fill:none;"/>
   </g>
  </g>
 </g>
 <defs>
  <clipPath id="p81768c344e">
   <rect height="158.761198" width="158.761198" x="67.354688" y="15.118125"/>
  </clipPath>
  <clipPath id="p28e436bdf8">
   <rect height="137.902349" width="137.902349" x="306.974235" y="25.54755"/>
  </clipPath>
  <clipPath id="p946aa06b52">
   <rect height="158.761198" width="7.93806" x="453.495481" y="15.118125"/>
  </clipPath>
 </defs>
</svg>
