<?xml version="1.0" encoding="utf-8" standalone="no"?>
<!DOCTYPE svg PUBLIC "-//W3C//DTD SVG 1.1//EN"
  "http://www.w3.org/Graphics/SVG/1.1/DTD/svg11.dtd">
<svg xmlns:xlink="http://www.w3.org/1999/xlink" width="338.4pt" height="213.965pt" viewBox="0 0 338.4 213.965" xmlns="http://www.w3.org/2000/svg" version="1.1">
 <metadata>
  <rdf:RDF xmlns:dc="http://purl.org/dc/elements/1.1/" xmlns:cc="http://creativecommons.org/ns#" xmlns:rdf="http://www.w3.org/1999/02/22-rdf-syntax-ns#">
   <cc:Work>
    <dc:type rdf:resource="http://purl.org/dc/dcmitype/StillImage"/>
    <dc:date>2022-12-22T23:36:40.271830</dc:date>
    <dc:format>image/svg+xml</dc:format>
    <dc:creator>
     <cc:Agent>
      <dc:title>Matplotlib v3.6.2, https://matplotlib.org/</dc:title>
     </cc:Agent>
    </dc:creator>
   </cc:Work>
  </rdf:RDF>
 </metadata>
 <defs>
  <style type="text/css">*{stroke-linejoin: round; stroke-linecap: butt}</style>
 </defs>
 <g id="figure_1">
  <g id="patch_1">
   <path d="M 0 213.965 
L 338.4 213.965 
L 338.4 0 
L 0 0 
L 0 213.965 
z
" style="fill: none"/>
  </g>
  <g id="axes_1">
   <g id="patch_2">
    <path d="M 147.42 114.886875 
C 147.42 102.939001 144.151875 91.215667 137.970788 80.990901 
C 131.789702 70.766134 122.927977 62.424249 112.348661 56.871795 
L 81.9 114.886875 
L 147.42 114.886875 
z
" style="fill: #ee2a2a"/>
   </g>
   <g id="patch_3">
    <path d="M 112.348661 56.871795 
C 106.709507 53.91214 100.668839 51.790435 94.417503 50.573715 
C 88.166167 49.356995 81.770697 49.058209 75.433151 49.686796 
L 81.9 114.886875 
L 112.348661 56.871795 
z
" style="fill: #64c466"/>
   </g>
   <g id="patch_4">
    <path d="M 75.433151 49.686796 
C 65.33192 50.688684 55.60036 54.024423 47.008616 59.43003 
C 38.416871 64.835636 31.197729 72.164647 25.922504 80.837054 
C 20.647278 89.509461 17.458898 99.290292 16.609687 109.405503 
C 15.760476 119.520714 17.273444 129.696241 21.028856 139.126805 
C 24.784267 148.557369 30.680373 156.987455 38.250561 163.749917 
C 45.82075 170.51238 54.859913 175.423994 64.652701 178.09606 
C 74.44549 180.768127 84.726576 181.128248 94.682327 179.147925 
C 104.638078 177.167601 113.998749 172.900489 122.023549 166.684281 
L 81.9 114.886875 
L 75.433151 49.686796 
z
" style="fill: #2186eb"/>
   </g>
   <g id="patch_5">
    <path d="M 122.023549 166.684281 
C 129.928262 160.561095 136.327407 152.708901 140.72927 143.731067 
C 145.131132 134.753233 147.420002 124.885758 147.42 114.886863 
L 81.9 114.886875 
L 122.023549 166.684281 
z
" style="fill: #3ca3a7"/>
   </g>
   <g id="matplotlib.axis_1">
    <g id="text_1">
     <!-- Structure Edits -->
     <g transform="translate(44.767187 211.885313) scale(0.1 -0.1)">
      <defs>
       <path id="DejaVuSans-53" d="M 3425 4513 
L 3425 3897 
Q 3066 4069 2747 4153 
Q 2428 4238 2131 4238 
Q 1616 4238 1336 4038 
Q 1056 3838 1056 3469 
Q 1056 3159 1242 3001 
Q 1428 2844 1947 2747 
L 2328 2669 
Q 3034 2534 3370 2195 
Q 3706 1856 3706 1288 
Q 3706 609 3251 259 
Q 2797 -91 1919 -91 
Q 1588 -91 1214 -16 
Q 841 59 441 206 
L 441 856 
Q 825 641 1194 531 
Q 1563 422 1919 422 
Q 2459 422 2753 634 
Q 3047 847 3047 1241 
Q 3047 1584 2836 1778 
Q 2625 1972 2144 2069 
L 1759 2144 
Q 1053 2284 737 2584 
Q 422 2884 422 3419 
Q 422 4038 858 4394 
Q 1294 4750 2059 4750 
Q 2388 4750 2728 4690 
Q 3069 4631 3425 4513 
z
" transform="scale(0.015625)"/>
       <path id="DejaVuSans-74" d="M 1172 4494 
L 1172 3500 
L 2356 3500 
L 2356 3053 
L 1172 3053 
L 1172 1153 
Q 1172 725 1289 603 
Q 1406 481 1766 481 
L 2356 481 
L 2356 0 
L 1766 0 
Q 1100 0 847 248 
Q 594 497 594 1153 
L 594 3053 
L 172 3053 
L 172 3500 
L 594 3500 
L 594 4494 
L 1172 4494 
z
" transform="scale(0.015625)"/>
       <path id="DejaVuSans-72" d="M 2631 2963 
Q 2534 3019 2420 3045 
Q 2306 3072 2169 3072 
Q 1681 3072 1420 2755 
Q 1159 2438 1159 1844 
L 1159 0 
L 581 0 
L 581 3500 
L 1159 3500 
L 1159 2956 
Q 1341 3275 1631 3429 
Q 1922 3584 2338 3584 
Q 2397 3584 2469 3576 
Q 2541 3569 2628 3553 
L 2631 2963 
z
" transform="scale(0.015625)"/>
       <path id="DejaVuSans-75" d="M 544 1381 
L 544 3500 
L 1119 3500 
L 1119 1403 
Q 1119 906 1312 657 
Q 1506 409 1894 409 
Q 2359 409 2629 706 
Q 2900 1003 2900 1516 
L 2900 3500 
L 3475 3500 
L 3475 0 
L 2900 0 
L 2900 538 
Q 2691 219 2414 64 
Q 2138 -91 1772 -91 
Q 1169 -91 856 284 
Q 544 659 544 1381 
z
M 1991 3584 
L 1991 3584 
z
" transform="scale(0.015625)"/>
       <path id="DejaVuSans-63" d="M 3122 3366 
L 3122 2828 
Q 2878 2963 2633 3030 
Q 2388 3097 2138 3097 
Q 1578 3097 1268 2742 
Q 959 2388 959 1747 
Q 959 1106 1268 751 
Q 1578 397 2138 397 
Q 2388 397 2633 464 
Q 2878 531 3122 666 
L 3122 134 
Q 2881 22 2623 -34 
Q 2366 -91 2075 -91 
Q 1284 -91 818 406 
Q 353 903 353 1747 
Q 353 2603 823 3093 
Q 1294 3584 2113 3584 
Q 2378 3584 2631 3529 
Q 2884 3475 3122 3366 
z
" transform="scale(0.015625)"/>
       <path id="DejaVuSans-65" d="M 3597 1894 
L 3597 1613 
L 953 1613 
Q 991 1019 1311 708 
Q 1631 397 2203 397 
Q 2534 397 2845 478 
Q 3156 559 3463 722 
L 3463 178 
Q 3153 47 2828 -22 
Q 2503 -91 2169 -91 
Q 1331 -91 842 396 
Q 353 884 353 1716 
Q 353 2575 817 3079 
Q 1281 3584 2069 3584 
Q 2775 3584 3186 3129 
Q 3597 2675 3597 1894 
z
M 3022 2063 
Q 3016 2534 2758 2815 
Q 2500 3097 2075 3097 
Q 1594 3097 1305 2825 
Q 1016 2553 972 2059 
L 3022 2063 
z
" transform="scale(0.015625)"/>
       <path id="DejaVuSans-20" transform="scale(0.015625)"/>
       <path id="DejaVuSans-45" d="M 628 4666 
L 3578 4666 
L 3578 4134 
L 1259 4134 
L 1259 2753 
L 3481 2753 
L 3481 2222 
L 1259 2222 
L 1259 531 
L 3634 531 
L 3634 0 
L 628 0 
L 628 4666 
z
" transform="scale(0.015625)"/>
       <path id="DejaVuSans-64" d="M 2906 2969 
L 2906 4863 
L 3481 4863 
L 3481 0 
L 2906 0 
L 2906 525 
Q 2725 213 2448 61 
Q 2172 -91 1784 -91 
Q 1150 -91 751 415 
Q 353 922 353 1747 
Q 353 2572 751 3078 
Q 1150 3584 1784 3584 
Q 2172 3584 2448 3432 
Q 2725 3281 2906 2969 
z
M 947 1747 
Q 947 1113 1208 752 
Q 1469 391 1925 391 
Q 2381 391 2643 752 
Q 2906 1113 2906 1747 
Q 2906 2381 2643 2742 
Q 2381 3103 1925 3103 
Q 1469 3103 1208 2742 
Q 947 2381 947 1747 
z
" transform="scale(0.015625)"/>
       <path id="DejaVuSans-69" d="M 603 3500 
L 1178 3500 
L 1178 0 
L 603 0 
L 603 3500 
z
M 603 4863 
L 1178 4863 
L 1178 4134 
L 603 4134 
L 603 4863 
z
" transform="scale(0.015625)"/>
       <path id="DejaVuSans-73" d="M 2834 3397 
L 2834 2853 
Q 2591 2978 2328 3040 
Q 2066 3103 1784 3103 
Q 1356 3103 1142 2972 
Q 928 2841 928 2578 
Q 928 2378 1081 2264 
Q 1234 2150 1697 2047 
L 1894 2003 
Q 2506 1872 2764 1633 
Q 3022 1394 3022 966 
Q 3022 478 2636 193 
Q 2250 -91 1575 -91 
Q 1294 -91 989 -36 
Q 684 19 347 128 
L 347 722 
Q 666 556 975 473 
Q 1284 391 1588 391 
Q 1994 391 2212 530 
Q 2431 669 2431 922 
Q 2431 1156 2273 1281 
Q 2116 1406 1581 1522 
L 1381 1569 
Q 847 1681 609 1914 
Q 372 2147 372 2553 
Q 372 3047 722 3315 
Q 1072 3584 1716 3584 
Q 2034 3584 2315 3537 
Q 2597 3491 2834 3397 
z
" transform="scale(0.015625)"/>
      </defs>
      <use xlink:href="#DejaVuSans-53"/>
      <use xlink:href="#DejaVuSans-74" x="63.476562"/>
      <use xlink:href="#DejaVuSans-72" x="102.685547"/>
      <use xlink:href="#DejaVuSans-75" x="143.798828"/>
      <use xlink:href="#DejaVuSans-63" x="207.177734"/>
      <use xlink:href="#DejaVuSans-74" x="262.158203"/>
      <use xlink:href="#DejaVuSans-75" x="301.367188"/>
      <use xlink:href="#DejaVuSans-72" x="364.746094"/>
      <use xlink:href="#DejaVuSans-65" x="403.609375"/>
      <use xlink:href="#DejaVuSans-20" x="465.132812"/>
      <use xlink:href="#DejaVuSans-45" x="496.919922"/>
      <use xlink:href="#DejaVuSans-64" x="560.103516"/>
      <use xlink:href="#DejaVuSans-69" x="623.580078"/>
      <use xlink:href="#DejaVuSans-74" x="651.363281"/>
      <use xlink:href="#DejaVuSans-73" x="690.572266"/>
     </g>
    </g>
   </g>
   <g id="matplotlib.axis_2"/>
  </g>
  <g id="axes_2">
   <g id="patch_6">
    <path d="M 322.02 114.886875 
C 322.02 104.444639 319.523656 94.152135 314.739753 84.870187 
C 309.95585 75.588238 303.02158 67.583035 294.516899 61.5241 
C 286.012218 55.465165 276.181024 51.526257 265.845559 50.03681 
C 255.510094 48.547364 244.966759 49.550093 235.097357 52.961135 
L 256.5 114.886875 
L 322.02 114.886875 
z
" style="fill: #ee2a2a"/>
   </g>
   <g id="patch_7">
    <path d="M 235.097357 52.961135 
C 220.474293 58.015127 208.103712 68.088942 200.192688 81.385278 
C 192.281664 94.681614 189.330422 110.359726 191.865503 125.622433 
C 194.400584 140.88514 202.26169 154.767359 214.046298 164.792322 
C 225.830906 174.817284 240.793858 180.351097 256.265567 180.406456 
L 256.5 114.886875 
L 235.097357 52.961135 
z
" style="fill: #64c466"/>
   </g>
   <g id="patch_8">
    <path d="M 256.265567 180.406456 
C 271.898326 180.46239 287.046436 174.921631 298.953711 164.792314 
C 310.860987 154.662996 318.758629 140.599125 321.20967 125.159608 
L 256.5 114.886875 
L 256.265567 180.406456 
z
" style="fill: #2186eb"/>
   </g>
   <g id="patch_9">
    <path d="M 321.20967 125.159608 
C 321.479257 123.461435 321.681892 121.753307 321.817104 120.039193 
C 321.952316 118.325079 322.02 116.606306 322.02 114.886867 
L 256.5 114.886875 
L 321.20967 125.159608 
z
" style="fill: #3ca3a7"/>
   </g>
   <g id="matplotlib.axis_3">
    <g id="text_2">
     <!-- Split Edits -->
     <g transform="translate(231.536719 211.885313) scale(0.1 -0.1)">
      <defs>
       <path id="DejaVuSans-70" d="M 1159 525 
L 1159 -1331 
L 581 -1331 
L 581 3500 
L 1159 3500 
L 1159 2969 
Q 1341 3281 1617 3432 
Q 1894 3584 2278 3584 
Q 2916 3584 3314 3078 
Q 3713 2572 3713 1747 
Q 3713 922 3314 415 
Q 2916 -91 2278 -91 
Q 1894 -91 1617 61 
Q 1341 213 1159 525 
z
M 3116 1747 
Q 3116 2381 2855 2742 
Q 2594 3103 2138 3103 
Q 1681 3103 1420 2742 
Q 1159 2381 1159 1747 
Q 1159 1113 1420 752 
Q 1681 391 2138 391 
Q 2594 391 2855 752 
Q 3116 1113 3116 1747 
z
" transform="scale(0.015625)"/>
       <path id="DejaVuSans-6c" d="M 603 4863 
L 1178 4863 
L 1178 0 
L 603 0 
L 603 4863 
z
" transform="scale(0.015625)"/>
      </defs>
      <use xlink:href="#DejaVuSans-53"/>
      <use xlink:href="#DejaVuSans-70" x="63.476562"/>
      <use xlink:href="#DejaVuSans-6c" x="126.953125"/>
      <use xlink:href="#DejaVuSans-69" x="154.736328"/>
      <use xlink:href="#DejaVuSans-74" x="182.519531"/>
      <use xlink:href="#DejaVuSans-20" x="221.728516"/>
      <use xlink:href="#DejaVuSans-45" x="253.515625"/>
      <use xlink:href="#DejaVuSans-64" x="316.699219"/>
      <use xlink:href="#DejaVuSans-69" x="380.175781"/>
      <use xlink:href="#DejaVuSans-74" x="407.958984"/>
      <use xlink:href="#DejaVuSans-73" x="447.167969"/>
     </g>
    </g>
   </g>
   <g id="matplotlib.axis_4"/>
  </g>
  <g id="text_3">
   <!-- Child Edits of Composite Edits -->
   <g transform="translate(79.141875 9.118125) scale(0.12 -0.12)">
    <defs>
     <path id="DejaVuSans-43" d="M 4122 4306 
L 4122 3641 
Q 3803 3938 3442 4084 
Q 3081 4231 2675 4231 
Q 1875 4231 1450 3742 
Q 1025 3253 1025 2328 
Q 1025 1406 1450 917 
Q 1875 428 2675 428 
Q 3081 428 3442 575 
Q 3803 722 4122 1019 
L 4122 359 
Q 3791 134 3420 21 
Q 3050 -91 2638 -91 
Q 1578 -91 968 557 
Q 359 1206 359 2328 
Q 359 3453 968 4101 
Q 1578 4750 2638 4750 
Q 3056 4750 3426 4639 
Q 3797 4528 4122 4306 
z
" transform="scale(0.015625)"/>
     <path id="DejaVuSans-68" d="M 3513 2113 
L 3513 0 
L 2938 0 
L 2938 2094 
Q 2938 2591 2744 2837 
Q 2550 3084 2163 3084 
Q 1697 3084 1428 2787 
Q 1159 2491 1159 1978 
L 1159 0 
L 581 0 
L 581 4863 
L 1159 4863 
L 1159 2956 
Q 1366 3272 1645 3428 
Q 1925 3584 2291 3584 
Q 2894 3584 3203 3211 
Q 3513 2838 3513 2113 
z
" transform="scale(0.015625)"/>
     <path id="DejaVuSans-6f" d="M 1959 3097 
Q 1497 3097 1228 2736 
Q 959 2375 959 1747 
Q 959 1119 1226 758 
Q 1494 397 1959 397 
Q 2419 397 2687 759 
Q 2956 1122 2956 1747 
Q 2956 2369 2687 2733 
Q 2419 3097 1959 3097 
z
M 1959 3584 
Q 2709 3584 3137 3096 
Q 3566 2609 3566 1747 
Q 3566 888 3137 398 
Q 2709 -91 1959 -91 
Q 1206 -91 779 398 
Q 353 888 353 1747 
Q 353 2609 779 3096 
Q 1206 3584 1959 3584 
z
" transform="scale(0.015625)"/>
     <path id="DejaVuSans-66" d="M 2375 4863 
L 2375 4384 
L 1825 4384 
Q 1516 4384 1395 4259 
Q 1275 4134 1275 3809 
L 1275 3500 
L 2222 3500 
L 2222 3053 
L 1275 3053 
L 1275 0 
L 697 0 
L 697 3053 
L 147 3053 
L 147 3500 
L 697 3500 
L 697 3744 
Q 697 4328 969 4595 
Q 1241 4863 1831 4863 
L 2375 4863 
z
" transform="scale(0.015625)"/>
     <path id="DejaVuSans-6d" d="M 3328 2828 
Q 3544 3216 3844 3400 
Q 4144 3584 4550 3584 
Q 5097 3584 5394 3201 
Q 5691 2819 5691 2113 
L 5691 0 
L 5113 0 
L 5113 2094 
Q 5113 2597 4934 2840 
Q 4756 3084 4391 3084 
Q 3944 3084 3684 2787 
Q 3425 2491 3425 1978 
L 3425 0 
L 2847 0 
L 2847 2094 
Q 2847 2600 2669 2842 
Q 2491 3084 2119 3084 
Q 1678 3084 1418 2786 
Q 1159 2488 1159 1978 
L 1159 0 
L 581 0 
L 581 3500 
L 1159 3500 
L 1159 2956 
Q 1356 3278 1631 3431 
Q 1906 3584 2284 3584 
Q 2666 3584 2933 3390 
Q 3200 3197 3328 2828 
z
" transform="scale(0.015625)"/>
    </defs>
    <use xlink:href="#DejaVuSans-43"/>
    <use xlink:href="#DejaVuSans-68" x="69.824219"/>
    <use xlink:href="#DejaVuSans-69" x="133.203125"/>
    <use xlink:href="#DejaVuSans-6c" x="160.986328"/>
    <use xlink:href="#DejaVuSans-64" x="188.769531"/>
    <use xlink:href="#DejaVuSans-20" x="252.246094"/>
    <use xlink:href="#DejaVuSans-45" x="284.033203"/>
    <use xlink:href="#DejaVuSans-64" x="347.216797"/>
    <use xlink:href="#DejaVuSans-69" x="410.693359"/>
    <use xlink:href="#DejaVuSans-74" x="438.476562"/>
    <use xlink:href="#DejaVuSans-73" x="477.685547"/>
    <use xlink:href="#DejaVuSans-20" x="529.785156"/>
    <use xlink:href="#DejaVuSans-6f" x="561.572266"/>
    <use xlink:href="#DejaVuSans-66" x="622.753906"/>
    <use xlink:href="#DejaVuSans-20" x="657.958984"/>
    <use xlink:href="#DejaVuSans-43" x="689.746094"/>
    <use xlink:href="#DejaVuSans-6f" x="759.570312"/>
    <use xlink:href="#DejaVuSans-6d" x="820.751953"/>
    <use xlink:href="#DejaVuSans-70" x="918.164062"/>
    <use xlink:href="#DejaVuSans-6f" x="981.640625"/>
    <use xlink:href="#DejaVuSans-73" x="1042.822266"/>
    <use xlink:href="#DejaVuSans-69" x="1094.921875"/>
    <use xlink:href="#DejaVuSans-74" x="1122.705078"/>
    <use xlink:href="#DejaVuSans-65" x="1161.914062"/>
    <use xlink:href="#DejaVuSans-20" x="1223.4375"/>
    <use xlink:href="#DejaVuSans-45" x="1255.224609"/>
    <use xlink:href="#DejaVuSans-64" x="1318.408203"/>
    <use xlink:href="#DejaVuSans-69" x="1381.884766"/>
    <use xlink:href="#DejaVuSans-74" x="1409.667969"/>
    <use xlink:href="#DejaVuSans-73" x="1448.876953"/>
   </g>
  </g>
 </g>
</svg>
