<?xml version="1.0" encoding="utf-8" standalone="no"?>
<!DOCTYPE svg PUBLIC "-//W3C//DTD SVG 1.1//EN"
  "http://www.w3.org/Graphics/SVG/1.1/DTD/svg11.dtd">
<svg xmlns:xlink="http://www.w3.org/1999/xlink" width="698.4pt" height="338.4pt" viewBox="0 0 698.4 338.4" xmlns="http://www.w3.org/2000/svg" version="1.1">
 <metadata>
  <rdf:RDF xmlns:dc="http://purl.org/dc/elements/1.1/" xmlns:cc="http://creativecommons.org/ns#" xmlns:rdf="http://www.w3.org/1999/02/22-rdf-syntax-ns#">
   <cc:Work>
    <dc:type rdf:resource="http://purl.org/dc/dcmitype/StillImage"/>
    <dc:date>2022-12-21T21:09:33.390396</dc:date>
    <dc:format>image/svg+xml</dc:format>
    <dc:creator>
     <cc:Agent>
      <dc:title>Matplotlib v3.6.2, https://matplotlib.org/</dc:title>
     </cc:Agent>
    </dc:creator>
   </cc:Work>
  </rdf:RDF>
 </metadata>
 <defs>
  <style type="text/css">*{stroke-linejoin: round; stroke-linecap: butt}</style>
 </defs>
 <g id="figure_1">
  <g id="patch_1">
   <path d="M 0 338.4 
L 698.4 338.4 
L 698.4 0 
L 0 0 
L 0 338.4 
z
" style="fill: none"/>
  </g>
  <g id="axes_1">
   <g id="patch_2">
    <path d="M 41.8675 163.8 
L 698.4 163.8 
L 698.4 16.637812 
L 41.8675 16.637812 
z
" style="fill: #ffffff"/>
   </g>
   <g id="patch_3">
    <path d="M 41.8675 157.11081 
L 667.136548 157.11081 
L 667.136548 118.886865 
L 41.8675 118.886865 
z
" clip-path="url(#p0c48fc01ef)" style="fill: #0000ff; opacity: 0.2"/>
   </g>
   <g id="patch_4">
    <path d="M 41.8675 109.330879 
L 667.136548 109.330879 
L 667.136548 71.106934 
L 41.8675 71.106934 
z
" clip-path="url(#p0c48fc01ef)" style="fill: #0000ff; opacity: 0.2"/>
   </g>
   <g id="patch_5">
    <path d="M 41.8675 61.550948 
L 667.136548 61.550948 
L 667.136548 23.327003 
L 41.8675 23.327003 
z
" clip-path="url(#p0c48fc01ef)" style="fill: #0000ff; opacity: 0.2"/>
   </g>
   <g id="patch_6">
    <path d="M 41.8675 157.11081 
L 41.8675 157.11081 
L 41.8675 118.886865 
L 41.8675 118.886865 
z
" clip-path="url(#p0c48fc01ef)" style="fill: #64c466; opacity: 0.5"/>
   </g>
   <g id="patch_7">
    <path d="M 41.8675 109.330879 
L 41.8675 109.330879 
L 41.8675 71.106934 
L 41.8675 71.106934 
z
" clip-path="url(#p0c48fc01ef)" style="fill: #64c466; opacity: 0.5"/>
   </g>
   <g id="patch_8">
    <path d="M 41.8675 61.550948 
L 41.8675 61.550948 
L 41.8675 23.327003 
L 41.8675 23.327003 
z
" clip-path="url(#p0c48fc01ef)" style="fill: #64c466; opacity: 0.5"/>
   </g>
   <g id="patch_9">
    <path d="M 41.8675 157.11081 
L 41.8675 157.11081 
L 41.8675 118.886865 
L 41.8675 118.886865 
z
" clip-path="url(#p0c48fc01ef)" style="fill: #64c466; opacity: 0.5"/>
   </g>
   <g id="patch_10">
    <path d="M 41.8675 109.330879 
L 41.8675 109.330879 
L 41.8675 71.106934 
L 41.8675 71.106934 
z
" clip-path="url(#p0c48fc01ef)" style="fill: #64c466; opacity: 0.5"/>
   </g>
   <g id="patch_11">
    <path d="M 41.8675 61.550948 
L 41.8675 61.550948 
L 41.8675 23.327003 
L 41.8675 23.327003 
z
" clip-path="url(#p0c48fc01ef)" style="fill: #64c466; opacity: 0.5"/>
   </g>
   <g id="patch_12">
    <path d="M 41.8675 157.11081 
L 41.8675 157.11081 
L 41.8675 118.886865 
L 41.8675 118.886865 
z
" clip-path="url(#p0c48fc01ef)" style="fill: #64c466; opacity: 0.5"/>
   </g>
   <g id="patch_13">
    <path d="M 41.8675 109.330879 
L 41.8675 109.330879 
L 41.8675 71.106934 
L 41.8675 71.106934 
z
" clip-path="url(#p0c48fc01ef)" style="fill: #64c466; opacity: 0.5"/>
   </g>
   <g id="patch_14">
    <path d="M 41.8675 61.550948 
L 41.8675 61.550948 
L 41.8675 23.327003 
L 41.8675 23.327003 
z
" clip-path="url(#p0c48fc01ef)" style="fill: #64c466; opacity: 0.5"/>
   </g>
   <g id="patch_15">
    <path d="M 41.8675 157.11081 
L 41.8675 157.11081 
L 41.8675 118.886865 
L 41.8675 118.886865 
z
" clip-path="url(#p0c48fc01ef)" style="fill: #64c466; opacity: 0.5"/>
   </g>
   <g id="patch_16">
    <path d="M 41.8675 109.330879 
L 41.8675 109.330879 
L 41.8675 71.106934 
L 41.8675 71.106934 
z
" clip-path="url(#p0c48fc01ef)" style="fill: #64c466; opacity: 0.5"/>
   </g>
   <g id="patch_17">
    <path d="M 41.8675 61.550948 
L 41.8675 61.550948 
L 41.8675 23.327003 
L 41.8675 23.327003 
z
" clip-path="url(#p0c48fc01ef)" style="fill: #64c466; opacity: 0.5"/>
   </g>
   <g id="patch_18">
    <path d="M 538.806219 157.11081 
L 574.301842 157.11081 
L 574.301842 118.886865 
L 538.806219 118.886865 
z
" clip-path="url(#p0c48fc01ef)" style="fill: #ee2a2a; opacity: 0.5"/>
   </g>
   <g id="patch_19">
    <path d="M 350.406375 109.330879 
L 366.78897 109.330879 
L 366.78897 71.106934 
L 350.406375 71.106934 
z
" clip-path="url(#p0c48fc01ef)" style="fill: #ee2a2a; opacity: 0.5"/>
   </g>
   <g id="patch_20">
    <path d="M 538.806219 61.550948 
L 667.136548 61.550948 
L 667.136548 23.327003 
L 538.806219 23.327003 
z
" clip-path="url(#p0c48fc01ef)" style="fill: #ee2a2a; opacity: 0.5"/>
   </g>
   <g id="patch_21">
    <path d="M 617.988762 157.11081 
L 667.136548 157.11081 
L 667.136548 118.886865 
L 617.988762 118.886865 
z
" clip-path="url(#p0c48fc01ef)" style="fill: #ee2a2a; opacity: 0.5"/>
   </g>
   <g id="patch_22">
    <path d="M 500.580164 109.330879 
L 511.501894 109.330879 
L 511.501894 71.106934 
L 500.580164 71.106934 
z
" clip-path="url(#p0c48fc01ef)" style="fill: #ee2a2a; opacity: 0.5"/>
   </g>
   <g id="patch_23">
    <path d="M 41.8675 61.550948 
L 41.8675 61.550948 
L 41.8675 23.327003 
L 41.8675 23.327003 
z
" clip-path="url(#p0c48fc01ef)" style="fill: #ee2a2a; opacity: 0.5"/>
   </g>
   <g id="patch_24">
    <path d="M 41.8675 157.11081 
L 41.8675 157.11081 
L 41.8675 118.886865 
L 41.8675 118.886865 
z
" clip-path="url(#p0c48fc01ef)" style="fill: #ee2a2a; opacity: 0.5"/>
   </g>
   <g id="patch_25">
    <path d="M 514.232326 109.330879 
L 574.301842 109.330879 
L 574.301842 71.106934 
L 514.232326 71.106934 
z
" clip-path="url(#p0c48fc01ef)" style="fill: #ee2a2a; opacity: 0.5"/>
   </g>
   <g id="patch_26">
    <path d="M 41.8675 61.550948 
L 41.8675 61.550948 
L 41.8675 23.327003 
L 41.8675 23.327003 
z
" clip-path="url(#p0c48fc01ef)" style="fill: #ee2a2a; opacity: 0.5"/>
   </g>
   <g id="patch_27">
    <path d="M 41.8675 157.11081 
L 69.171825 157.11081 
L 69.171825 118.886865 
L 41.8675 118.886865 
z
" clip-path="url(#p0c48fc01ef)" style="fill: #2186eb; opacity: 0.5"/>
   </g>
   <g id="patch_28">
    <path d="M 41.8675 109.330879 
L 69.171825 109.330879 
L 69.171825 71.106934 
L 41.8675 71.106934 
z
" clip-path="url(#p0c48fc01ef)" style="fill: #2186eb; opacity: 0.5"/>
   </g>
   <g id="patch_29">
    <path d="M 71.902258 61.550948 
L 93.745718 61.550948 
L 93.745718 23.327003 
L 71.902258 23.327003 
z
" clip-path="url(#p0c48fc01ef)" style="fill: #2186eb; opacity: 0.5"/>
   </g>
   <g id="patch_30">
    <path d="M 71.902258 157.11081 
L 93.745718 157.11081 
L 93.745718 118.886865 
L 71.902258 118.886865 
z
" clip-path="url(#p0c48fc01ef)" style="fill: #2186eb; opacity: 0.5"/>
   </g>
   <g id="patch_31">
    <path d="M 71.902258 109.330879 
L 93.745718 109.330879 
L 93.745718 71.106934 
L 71.902258 71.106934 
z
" clip-path="url(#p0c48fc01ef)" style="fill: #2186eb; opacity: 0.5"/>
   </g>
   <g id="patch_32">
    <path d="M 41.8675 61.550948 
L 69.171825 61.550948 
L 69.171825 23.327003 
L 41.8675 23.327003 
z
" clip-path="url(#p0c48fc01ef)" style="fill: #2186eb; opacity: 0.5"/>
   </g>
   <g id="patch_33">
    <path d="M 514.232326 157.11081 
L 536.075787 157.11081 
L 536.075787 118.886865 
L 514.232326 118.886865 
z
" clip-path="url(#p0c48fc01ef)" style="fill: #2186eb; opacity: 0.5"/>
   </g>
   <g id="patch_34">
    <path d="M 263.032534 109.330879 
L 295.797725 109.330879 
L 295.797725 71.106934 
L 263.032534 71.106934 
z
" clip-path="url(#p0c48fc01ef)" style="fill: #2186eb; opacity: 0.5"/>
   </g>
   <g id="patch_35">
    <path d="M 500.580164 61.550948 
L 511.501894 61.550948 
L 511.501894 23.327003 
L 500.580164 23.327003 
z
" clip-path="url(#p0c48fc01ef)" style="fill: #2186eb; opacity: 0.5"/>
   </g>
   <g id="patch_36">
    <path d="M 273.954264 157.11081 
L 287.606427 157.11081 
L 287.606427 118.886865 
L 273.954264 118.886865 
z
" clip-path="url(#p0c48fc01ef)" style="fill: #2186eb; opacity: 0.5"/>
   </g>
   <g id="patch_37">
    <path d="M 617.988762 109.330879 
L 667.136548 109.330879 
L 667.136548 71.106934 
L 617.988762 71.106934 
z
" clip-path="url(#p0c48fc01ef)" style="fill: #2186eb; opacity: 0.5"/>
   </g>
   <g id="patch_38">
    <path d="M 41.8675 61.550948 
L 41.8675 61.550948 
L 41.8675 23.327003 
L 41.8675 23.327003 
z
" clip-path="url(#p0c48fc01ef)" style="fill: #2186eb; opacity: 0.5"/>
   </g>
   <g id="patch_39">
    <path d="M 41.8675 157.11081 
L 41.8675 157.11081 
L 41.8675 118.886865 
L 41.8675 118.886865 
z
" clip-path="url(#p0c48fc01ef)" style="fill: #2186eb; opacity: 0.5"/>
   </g>
   <g id="patch_40">
    <path d="M 577.032274 109.330879 
L 615.25833 109.330879 
L 615.25833 71.106934 
L 577.032274 71.106934 
z
" clip-path="url(#p0c48fc01ef)" style="fill: #2186eb; opacity: 0.5"/>
   </g>
   <g id="patch_41">
    <path d="M 41.8675 61.550948 
L 41.8675 61.550948 
L 41.8675 23.327003 
L 41.8675 23.327003 
z
" clip-path="url(#p0c48fc01ef)" style="fill: #2186eb; opacity: 0.5"/>
   </g>
   <g id="patch_42">
    <path d="M 224.806479 157.11081 
L 260.302102 157.11081 
L 260.302102 118.886865 
L 224.806479 118.886865 
z
" clip-path="url(#p0c48fc01ef)" style="fill: #f7ce46; opacity: 0.5"/>
   </g>
   <g id="patch_43">
    <path d="M 224.806479 109.330879 
L 260.302102 109.330879 
L 260.302102 71.106934 
L 224.806479 71.106934 
z
" clip-path="url(#p0c48fc01ef)" style="fill: #f7ce46; opacity: 0.5"/>
   </g>
   <g id="patch_44">
    <path d="M 224.806479 61.550948 
L 260.302102 61.550948 
L 260.302102 23.327003 
L 224.806479 23.327003 
z
" clip-path="url(#p0c48fc01ef)" style="fill: #f7ce46; opacity: 0.5"/>
   </g>
   <g id="patch_45">
    <path d="M 500.580164 157.11081 
L 511.501894 157.11081 
L 511.501894 118.886865 
L 500.580164 118.886865 
z
" clip-path="url(#p0c48fc01ef)" style="fill: #f7ce46; opacity: 0.5"/>
   </g>
   <g id="patch_46">
    <path d="M 41.8675 109.330879 
L 41.8675 109.330879 
L 41.8675 71.106934 
L 41.8675 71.106934 
z
" clip-path="url(#p0c48fc01ef)" style="fill: #f7ce46; opacity: 0.5"/>
   </g>
   <g id="patch_47">
    <path d="M 41.8675 61.550948 
L 41.8675 61.550948 
L 41.8675 23.327003 
L 41.8675 23.327003 
z
" clip-path="url(#p0c48fc01ef)" style="fill: #f7ce46; opacity: 0.5"/>
   </g>
   <g id="patch_48">
    <path d="M 41.8675 157.11081 
L 222.076046 157.11081 
L 222.076046 118.886865 
L 41.8675 118.886865 
z
" clip-path="url(#p0c48fc01ef)" style="fill: #3ca3a7; opacity: 0.5"/>
   </g>
   <g id="patch_49">
    <path d="M 476.006271 109.330879 
L 497.849731 109.330879 
L 497.849731 71.106934 
L 476.006271 71.106934 
z
" clip-path="url(#p0c48fc01ef)" style="fill: #3ca3a7; opacity: 0.5"/>
   </g>
   <g id="patch_50">
    <path d="M 41.8675 61.550948 
L 41.8675 61.550948 
L 41.8675 23.327003 
L 41.8675 23.327003 
z
" clip-path="url(#p0c48fc01ef)" style="fill: #3ca3a7; opacity: 0.5"/>
   </g>
   <g id="patch_51">
    <path d="M 476.006271 157.11081 
L 497.849731 157.11081 
L 497.849731 118.886865 
L 476.006271 118.886865 
z
" clip-path="url(#p0c48fc01ef)" style="fill: #3ca3a7; opacity: 0.5"/>
   </g>
   <g id="patch_52">
    <path d="M 369.519403 109.330879 
L 473.275839 109.330879 
L 473.275839 71.106934 
L 369.519403 71.106934 
z
" clip-path="url(#p0c48fc01ef)" style="fill: #3ca3a7; opacity: 0.5"/>
   </g>
   <g id="patch_53">
    <path d="M 41.8675 61.550948 
L 41.8675 61.550948 
L 41.8675 23.327003 
L 41.8675 23.327003 
z
" clip-path="url(#p0c48fc01ef)" style="fill: #3ca3a7; opacity: 0.5"/>
   </g>
   <g id="patch_54">
    <path d="M 369.519403 157.11081 
L 473.275839 157.11081 
L 473.275839 118.886865 
L 369.519403 118.886865 
z
" clip-path="url(#p0c48fc01ef)" style="fill: #3ca3a7; opacity: 0.5"/>
   </g>
   <g id="patch_55">
    <path d="M 41.8675 109.330879 
L 41.8675 109.330879 
L 41.8675 71.106934 
L 41.8675 71.106934 
z
" clip-path="url(#p0c48fc01ef)" style="fill: #3ca3a7; opacity: 0.5"/>
   </g>
   <g id="patch_56">
    <path d="M 41.8675 61.550948 
L 41.8675 61.550948 
L 41.8675 23.327003 
L 41.8675 23.327003 
z
" clip-path="url(#p0c48fc01ef)" style="fill: #3ca3a7; opacity: 0.5"/>
   </g>
   <g id="patch_57">
    <path d="M 263.032534 157.11081 
L 295.797725 157.11081 
L 295.797725 118.886865 
L 263.032534 118.886865 
z
" clip-path="url(#p0c48fc01ef)" style="fill: #ff9f15; opacity: 0.5"/>
   </g>
   <g id="patch_58">
    <path d="M 41.8675 109.330879 
L 41.8675 109.330879 
L 41.8675 71.106934 
L 41.8675 71.106934 
z
" clip-path="url(#p0c48fc01ef)" style="fill: #ff9f15; opacity: 0.5"/>
   </g>
   <g id="patch_59">
    <path d="M 263.032534 61.550948 
L 295.797725 61.550948 
L 295.797725 23.327003 
L 263.032534 23.327003 
z
" clip-path="url(#p0c48fc01ef)" style="fill: #ff9f15; opacity: 0.5"/>
   </g>
   <g id="patch_60">
    <path d="M 350.406375 157.11081 
L 366.78897 157.11081 
L 366.78897 118.886865 
L 350.406375 118.886865 
z
" clip-path="url(#p0c48fc01ef)" style="fill: #ff9f15; opacity: 0.5"/>
   </g>
   <g id="patch_61">
    <path d="M 41.8675 109.330879 
L 41.8675 109.330879 
L 41.8675 71.106934 
L 41.8675 71.106934 
z
" clip-path="url(#p0c48fc01ef)" style="fill: #ff9f15; opacity: 0.5"/>
   </g>
   <g id="patch_62">
    <path d="M 350.406375 61.550948 
L 366.78897 61.550948 
L 366.78897 23.327003 
L 350.406375 23.327003 
z
" clip-path="url(#p0c48fc01ef)" style="fill: #ff9f15; opacity: 0.5"/>
   </g>
   <g id="patch_63">
    <path d="M 41.8675 157.11081 
L 41.8675 157.11081 
L 41.8675 118.886865 
L 41.8675 118.886865 
z
" clip-path="url(#p0c48fc01ef)" style="fill: #ff9f15; opacity: 0.5"/>
   </g>
   <g id="patch_64">
    <path d="M 41.8675 109.330879 
L 41.8675 109.330879 
L 41.8675 71.106934 
L 41.8675 71.106934 
z
" clip-path="url(#p0c48fc01ef)" style="fill: #ff9f15; opacity: 0.5"/>
   </g>
   <g id="patch_65">
    <path d="M 369.519403 61.550948 
L 473.275839 61.550948 
L 473.275839 23.327003 
L 369.519403 23.327003 
z
" clip-path="url(#p0c48fc01ef)" style="fill: #ff9f15; opacity: 0.5"/>
   </g>
   <g id="patch_66">
    <path d="M 41.8675 157.11081 
L 41.8675 157.11081 
L 41.8675 118.886865 
L 41.8675 118.886865 
z
" clip-path="url(#p0c48fc01ef)" style="fill: #ff9f15; opacity: 0.5"/>
   </g>
   <g id="patch_67">
    <path d="M 41.8675 109.330879 
L 41.8675 109.330879 
L 41.8675 71.106934 
L 41.8675 71.106934 
z
" clip-path="url(#p0c48fc01ef)" style="fill: #ff9f15; opacity: 0.5"/>
   </g>
   <g id="patch_68">
    <path d="M 476.006271 61.550948 
L 497.849731 61.550948 
L 497.849731 23.327003 
L 476.006271 23.327003 
z
" clip-path="url(#p0c48fc01ef)" style="fill: #ff9f15; opacity: 0.5"/>
   </g>
   <g id="patch_69">
    <path d="M 577.032274 157.11081 
L 585.223572 157.11081 
L 585.223572 118.886865 
L 577.032274 118.886865 
z
" clip-path="url(#p0c48fc01ef)" style="fill: #ff9f15; opacity: 0.5"/>
   </g>
   <g id="patch_70">
    <path d="M 41.8675 109.330879 
L 41.8675 109.330879 
L 41.8675 71.106934 
L 41.8675 71.106934 
z
" clip-path="url(#p0c48fc01ef)" style="fill: #ff9f15; opacity: 0.5"/>
   </g>
   <g id="patch_71">
    <path d="M 41.8675 61.550948 
L 41.8675 61.550948 
L 41.8675 23.327003 
L 41.8675 23.327003 
z
" clip-path="url(#p0c48fc01ef)" style="fill: #ff9f15; opacity: 0.5"/>
   </g>
   <g id="patch_72">
    <path d="M 587.954004 157.11081 
L 615.25833 157.11081 
L 615.25833 118.886865 
L 587.954004 118.886865 
z
" clip-path="url(#p0c48fc01ef)" style="fill: #ff9f15; opacity: 0.5"/>
   </g>
   <g id="patch_73">
    <path d="M 41.8675 109.330879 
L 41.8675 109.330879 
L 41.8675 71.106934 
L 41.8675 71.106934 
z
" clip-path="url(#p0c48fc01ef)" style="fill: #ff9f15; opacity: 0.5"/>
   </g>
   <g id="patch_74">
    <path d="M 41.8675 61.550948 
L 41.8675 61.550948 
L 41.8675 23.327003 
L 41.8675 23.327003 
z
" clip-path="url(#p0c48fc01ef)" style="fill: #ff9f15; opacity: 0.5"/>
   </g>
   <g id="patch_75">
    <path d="M 587.954004 157.11081 
L 615.25833 157.11081 
L 615.25833 118.886865 
L 587.954004 118.886865 
z
" clip-path="url(#p0c48fc01ef)" style="fill: #ff9f15; opacity: 0.5"/>
   </g>
   <g id="patch_76">
    <path d="M 41.8675 109.330879 
L 41.8675 109.330879 
L 41.8675 71.106934 
L 41.8675 71.106934 
z
" clip-path="url(#p0c48fc01ef)" style="fill: #ff9f15; opacity: 0.5"/>
   </g>
   <g id="patch_77">
    <path d="M 41.8675 61.550948 
L 41.8675 61.550948 
L 41.8675 23.327003 
L 41.8675 23.327003 
z
" clip-path="url(#p0c48fc01ef)" style="fill: #ff9f15; opacity: 0.5"/>
   </g>
   <g id="matplotlib.axis_1"/>
   <g id="matplotlib.axis_2">
    <g id="ytick_1">
     <g id="text_1">
      <!-- Ann 3 -->
      <g transform="translate(0 142.5579) scale(0.12 -0.12)">
       <defs>
        <path id="DejaVuSans-41" d="M 2188 4044 
L 1331 1722 
L 3047 1722 
L 2188 4044 
z
M 1831 4666 
L 2547 4666 
L 4325 0 
L 3669 0 
L 3244 1197 
L 1141 1197 
L 716 0 
L 50 0 
L 1831 4666 
z
" transform="scale(0.015625)"/>
        <path id="DejaVuSans-6e" d="M 3513 2113 
L 3513 0 
L 2938 0 
L 2938 2094 
Q 2938 2591 2744 2837 
Q 2550 3084 2163 3084 
Q 1697 3084 1428 2787 
Q 1159 2491 1159 1978 
L 1159 0 
L 581 0 
L 581 3500 
L 1159 3500 
L 1159 2956 
Q 1366 3272 1645 3428 
Q 1925 3584 2291 3584 
Q 2894 3584 3203 3211 
Q 3513 2838 3513 2113 
z
" transform="scale(0.015625)"/>
        <path id="DejaVuSans-20" transform="scale(0.015625)"/>
        <path id="DejaVuSans-33" d="M 2597 2516 
Q 3050 2419 3304 2112 
Q 3559 1806 3559 1356 
Q 3559 666 3084 287 
Q 2609 -91 1734 -91 
Q 1441 -91 1130 -33 
Q 819 25 488 141 
L 488 750 
Q 750 597 1062 519 
Q 1375 441 1716 441 
Q 2309 441 2620 675 
Q 2931 909 2931 1356 
Q 2931 1769 2642 2001 
Q 2353 2234 1838 2234 
L 1294 2234 
L 1294 2753 
L 1863 2753 
Q 2328 2753 2575 2939 
Q 2822 3125 2822 3475 
Q 2822 3834 2567 4026 
Q 2313 4219 1838 4219 
Q 1578 4219 1281 4162 
Q 984 4106 628 3988 
L 628 4550 
Q 988 4650 1302 4700 
Q 1616 4750 1894 4750 
Q 2613 4750 3031 4423 
Q 3450 4097 3450 3541 
Q 3450 3153 3228 2886 
Q 3006 2619 2597 2516 
z
" transform="scale(0.015625)"/>
       </defs>
       <use xlink:href="#DejaVuSans-41"/>
       <use xlink:href="#DejaVuSans-6e" x="68.408203"/>
       <use xlink:href="#DejaVuSans-6e" x="131.787109"/>
       <use xlink:href="#DejaVuSans-20" x="195.166016"/>
       <use xlink:href="#DejaVuSans-33" x="226.953125"/>
      </g>
     </g>
    </g>
    <g id="ytick_2">
     <g id="text_2">
      <!-- Ann 2 -->
      <g transform="translate(0 94.777969) scale(0.12 -0.12)">
       <defs>
        <path id="DejaVuSans-32" d="M 1228 531 
L 3431 531 
L 3431 0 
L 469 0 
L 469 531 
Q 828 903 1448 1529 
Q 2069 2156 2228 2338 
Q 2531 2678 2651 2914 
Q 2772 3150 2772 3378 
Q 2772 3750 2511 3984 
Q 2250 4219 1831 4219 
Q 1534 4219 1204 4116 
Q 875 4013 500 3803 
L 500 4441 
Q 881 4594 1212 4672 
Q 1544 4750 1819 4750 
Q 2544 4750 2975 4387 
Q 3406 4025 3406 3419 
Q 3406 3131 3298 2873 
Q 3191 2616 2906 2266 
Q 2828 2175 2409 1742 
Q 1991 1309 1228 531 
z
" transform="scale(0.015625)"/>
       </defs>
       <use xlink:href="#DejaVuSans-41"/>
       <use xlink:href="#DejaVuSans-6e" x="68.408203"/>
       <use xlink:href="#DejaVuSans-6e" x="131.787109"/>
       <use xlink:href="#DejaVuSans-20" x="195.166016"/>
       <use xlink:href="#DejaVuSans-32" x="226.953125"/>
      </g>
     </g>
    </g>
    <g id="ytick_3">
     <g id="text_3">
      <!-- Ann 1 -->
      <g transform="translate(0 46.998038) scale(0.12 -0.12)">
       <defs>
        <path id="DejaVuSans-31" d="M 794 531 
L 1825 531 
L 1825 4091 
L 703 3866 
L 703 4441 
L 1819 4666 
L 2450 4666 
L 2450 531 
L 3481 531 
L 3481 0 
L 794 0 
L 794 531 
z
" transform="scale(0.015625)"/>
       </defs>
       <use xlink:href="#DejaVuSans-41"/>
       <use xlink:href="#DejaVuSans-6e" x="68.408203"/>
       <use xlink:href="#DejaVuSans-6e" x="131.787109"/>
       <use xlink:href="#DejaVuSans-20" x="195.166016"/>
       <use xlink:href="#DejaVuSans-31" x="226.953125"/>
      </g>
     </g>
    </g>
   </g>
   <g id="text_4">
    <!-- Original -->
    <g transform="translate(342.741875 10.637812) scale(0.14 -0.14)">
     <defs>
      <path id="DejaVuSans-4f" d="M 2522 4238 
Q 1834 4238 1429 3725 
Q 1025 3213 1025 2328 
Q 1025 1447 1429 934 
Q 1834 422 2522 422 
Q 3209 422 3611 934 
Q 4013 1447 4013 2328 
Q 4013 3213 3611 3725 
Q 3209 4238 2522 4238 
z
M 2522 4750 
Q 3503 4750 4090 4092 
Q 4678 3434 4678 2328 
Q 4678 1225 4090 567 
Q 3503 -91 2522 -91 
Q 1538 -91 948 565 
Q 359 1222 359 2328 
Q 359 3434 948 4092 
Q 1538 4750 2522 4750 
z
" transform="scale(0.015625)"/>
      <path id="DejaVuSans-72" d="M 2631 2963 
Q 2534 3019 2420 3045 
Q 2306 3072 2169 3072 
Q 1681 3072 1420 2755 
Q 1159 2438 1159 1844 
L 1159 0 
L 581 0 
L 581 3500 
L 1159 3500 
L 1159 2956 
Q 1341 3275 1631 3429 
Q 1922 3584 2338 3584 
Q 2397 3584 2469 3576 
Q 2541 3569 2628 3553 
L 2631 2963 
z
" transform="scale(0.015625)"/>
      <path id="DejaVuSans-69" d="M 603 3500 
L 1178 3500 
L 1178 0 
L 603 0 
L 603 3500 
z
M 603 4863 
L 1178 4863 
L 1178 4134 
L 603 4134 
L 603 4863 
z
" transform="scale(0.015625)"/>
      <path id="DejaVuSans-67" d="M 2906 1791 
Q 2906 2416 2648 2759 
Q 2391 3103 1925 3103 
Q 1463 3103 1205 2759 
Q 947 2416 947 1791 
Q 947 1169 1205 825 
Q 1463 481 1925 481 
Q 2391 481 2648 825 
Q 2906 1169 2906 1791 
z
M 3481 434 
Q 3481 -459 3084 -895 
Q 2688 -1331 1869 -1331 
Q 1566 -1331 1297 -1286 
Q 1028 -1241 775 -1147 
L 775 -588 
Q 1028 -725 1275 -790 
Q 1522 -856 1778 -856 
Q 2344 -856 2625 -561 
Q 2906 -266 2906 331 
L 2906 616 
Q 2728 306 2450 153 
Q 2172 0 1784 0 
Q 1141 0 747 490 
Q 353 981 353 1791 
Q 353 2603 747 3093 
Q 1141 3584 1784 3584 
Q 2172 3584 2450 3431 
Q 2728 3278 2906 2969 
L 2906 3500 
L 3481 3500 
L 3481 434 
z
" transform="scale(0.015625)"/>
      <path id="DejaVuSans-61" d="M 2194 1759 
Q 1497 1759 1228 1600 
Q 959 1441 959 1056 
Q 959 750 1161 570 
Q 1363 391 1709 391 
Q 2188 391 2477 730 
Q 2766 1069 2766 1631 
L 2766 1759 
L 2194 1759 
z
M 3341 1997 
L 3341 0 
L 2766 0 
L 2766 531 
Q 2569 213 2275 61 
Q 1981 -91 1556 -91 
Q 1019 -91 701 211 
Q 384 513 384 1019 
Q 384 1609 779 1909 
Q 1175 2209 1959 2209 
L 2766 2209 
L 2766 2266 
Q 2766 2663 2505 2880 
Q 2244 3097 1772 3097 
Q 1472 3097 1187 3025 
Q 903 2953 641 2809 
L 641 3341 
Q 956 3463 1253 3523 
Q 1550 3584 1831 3584 
Q 2591 3584 2966 3190 
Q 3341 2797 3341 1997 
z
" transform="scale(0.015625)"/>
      <path id="DejaVuSans-6c" d="M 603 4863 
L 1178 4863 
L 1178 0 
L 603 0 
L 603 4863 
z
" transform="scale(0.015625)"/>
     </defs>
     <use xlink:href="#DejaVuSans-4f"/>
     <use xlink:href="#DejaVuSans-72" x="78.710938"/>
     <use xlink:href="#DejaVuSans-69" x="119.824219"/>
     <use xlink:href="#DejaVuSans-67" x="147.607422"/>
     <use xlink:href="#DejaVuSans-69" x="211.083984"/>
     <use xlink:href="#DejaVuSans-6e" x="238.867188"/>
     <use xlink:href="#DejaVuSans-61" x="302.246094"/>
     <use xlink:href="#DejaVuSans-6c" x="363.525391"/>
    </g>
   </g>
  </g>
  <g id="axes_2">
   <g id="patch_78">
    <path d="M 41.8675 338.4 
L 698.4 338.4 
L 698.4 191.237812 
L 41.8675 191.237812 
z
" style="fill: #ffffff"/>
   </g>
   <g id="patch_79">
    <path d="M 41.8675 331.71081 
L 667.136548 331.71081 
L 667.136548 293.486865 
L 41.8675 293.486865 
z
" clip-path="url(#pd33c0fdad7)" style="fill: #0000ff; opacity: 0.2"/>
   </g>
   <g id="patch_80">
    <path d="M 41.8675 283.930879 
L 667.136548 283.930879 
L 667.136548 245.706934 
L 41.8675 245.706934 
z
" clip-path="url(#pd33c0fdad7)" style="fill: #0000ff; opacity: 0.2"/>
   </g>
   <g id="patch_81">
    <path d="M 41.8675 236.150948 
L 667.136548 236.150948 
L 667.136548 197.927003 
L 41.8675 197.927003 
z
" clip-path="url(#pd33c0fdad7)" style="fill: #0000ff; opacity: 0.2"/>
   </g>
   <g id="patch_82">
    <path d="M 478.37608 331.71081 
L 487.224227 331.71081 
L 487.224227 293.486865 
L 478.37608 293.486865 
z
" clip-path="url(#pd33c0fdad7)" style="fill: #64c466; opacity: 0.5"/>
   </g>
   <g id="patch_83">
    <path d="M 41.8675 283.930879 
L 59.563794 283.930879 
L 59.563794 245.706934 
L 41.8675 245.706934 
z
" clip-path="url(#pd33c0fdad7)" style="fill: #64c466; opacity: 0.5"/>
   </g>
   <g id="patch_84">
    <path d="M 41.8675 236.150948 
L 59.563794 236.150948 
L 59.563794 197.927003 
L 41.8675 197.927003 
z
" clip-path="url(#pd33c0fdad7)" style="fill: #64c466; opacity: 0.5"/>
   </g>
   <g id="patch_85">
    <path d="M 566.857549 331.71081 
L 667.136548 331.71081 
L 667.136548 293.486865 
L 566.857549 293.486865 
z
" clip-path="url(#pd33c0fdad7)" style="fill: #64c466; opacity: 0.5"/>
   </g>
   <g id="patch_86">
    <path d="M 478.37608 283.930879 
L 487.224227 283.930879 
L 487.224227 245.706934 
L 478.37608 245.706934 
z
" clip-path="url(#pd33c0fdad7)" style="fill: #64c466; opacity: 0.5"/>
   </g>
   <g id="patch_87">
    <path d="M 490.17361 236.150948 
L 537.363726 236.150948 
L 537.363726 197.927003 
L 490.17361 197.927003 
z
" clip-path="url(#pd33c0fdad7)" style="fill: #64c466; opacity: 0.5"/>
   </g>
   <g id="patch_88">
    <path d="M 50.715647 331.71081 
L 59.563794 331.71081 
L 59.563794 293.486865 
L 50.715647 293.486865 
z
" clip-path="url(#pd33c0fdad7)" style="fill: #64c466; opacity: 0.5"/>
   </g>
   <g id="patch_89">
    <path d="M 616.997049 283.930879 
L 667.136548 283.930879 
L 667.136548 245.706934 
L 616.997049 245.706934 
z
" clip-path="url(#pd33c0fdad7)" style="fill: #64c466; opacity: 0.5"/>
   </g>
   <g id="patch_90">
    <path d="M 566.857549 236.150948 
L 667.136548 236.150948 
L 667.136548 197.927003 
L 566.857549 197.927003 
z
" clip-path="url(#pd33c0fdad7)" style="fill: #64c466; opacity: 0.5"/>
   </g>
   <g id="patch_91">
    <path d="M 41.8675 331.71081 
L 41.8675 331.71081 
L 41.8675 293.486865 
L 41.8675 293.486865 
z
" clip-path="url(#pd33c0fdad7)" style="fill: #64c466; opacity: 0.5"/>
   </g>
   <g id="patch_92">
    <path d="M 531.464962 283.930879 
L 563.908167 283.930879 
L 563.908167 245.706934 
L 531.464962 245.706934 
z
" clip-path="url(#pd33c0fdad7)" style="fill: #64c466; opacity: 0.5"/>
   </g>
   <g id="patch_93">
    <path d="M 41.8675 236.150948 
L 41.8675 236.150948 
L 41.8675 197.927003 
L 41.8675 197.927003 
z
" clip-path="url(#pd33c0fdad7)" style="fill: #64c466; opacity: 0.5"/>
   </g>
   <g id="patch_94">
    <path d="M 41.8675 331.71081 
L 41.8675 331.71081 
L 41.8675 293.486865 
L 41.8675 293.486865 
z
" clip-path="url(#pd33c0fdad7)" style="fill: #ee2a2a; opacity: 0.5"/>
   </g>
   <g id="patch_95">
    <path d="M 41.8675 283.930879 
L 41.8675 283.930879 
L 41.8675 245.706934 
L 41.8675 245.706934 
z
" clip-path="url(#pd33c0fdad7)" style="fill: #ee2a2a; opacity: 0.5"/>
   </g>
   <g id="patch_96">
    <path d="M 41.8675 236.150948 
L 41.8675 236.150948 
L 41.8675 197.927003 
L 41.8675 197.927003 
z
" clip-path="url(#pd33c0fdad7)" style="fill: #ee2a2a; opacity: 0.5"/>
   </g>
   <g id="patch_97">
    <path d="M 41.8675 331.71081 
L 41.8675 331.71081 
L 41.8675 293.486865 
L 41.8675 293.486865 
z
" clip-path="url(#pd33c0fdad7)" style="fill: #ee2a2a; opacity: 0.5"/>
   </g>
   <g id="patch_98">
    <path d="M 41.8675 283.930879 
L 41.8675 283.930879 
L 41.8675 245.706934 
L 41.8675 245.706934 
z
" clip-path="url(#pd33c0fdad7)" style="fill: #ee2a2a; opacity: 0.5"/>
   </g>
   <g id="patch_99">
    <path d="M 41.8675 236.150948 
L 41.8675 236.150948 
L 41.8675 197.927003 
L 41.8675 197.927003 
z
" clip-path="url(#pd33c0fdad7)" style="fill: #ee2a2a; opacity: 0.5"/>
   </g>
   <g id="patch_100">
    <path d="M 41.8675 331.71081 
L 41.8675 331.71081 
L 41.8675 293.486865 
L 41.8675 293.486865 
z
" clip-path="url(#pd33c0fdad7)" style="fill: #ee2a2a; opacity: 0.5"/>
   </g>
   <g id="patch_101">
    <path d="M 41.8675 283.930879 
L 41.8675 283.930879 
L 41.8675 245.706934 
L 41.8675 245.706934 
z
" clip-path="url(#pd33c0fdad7)" style="fill: #ee2a2a; opacity: 0.5"/>
   </g>
   <g id="patch_102">
    <path d="M 41.8675 236.150948 
L 41.8675 236.150948 
L 41.8675 197.927003 
L 41.8675 197.927003 
z
" clip-path="url(#pd33c0fdad7)" style="fill: #ee2a2a; opacity: 0.5"/>
   </g>
   <g id="patch_103">
    <path d="M 62.513176 331.71081 
L 77.260088 331.71081 
L 77.260088 293.486865 
L 62.513176 293.486865 
z
" clip-path="url(#pd33c0fdad7)" style="fill: #2186eb; opacity: 0.5"/>
   </g>
   <g id="patch_104">
    <path d="M 62.513176 283.930879 
L 77.260088 283.930879 
L 77.260088 245.706934 
L 62.513176 245.706934 
z
" clip-path="url(#pd33c0fdad7)" style="fill: #2186eb; opacity: 0.5"/>
   </g>
   <g id="patch_105">
    <path d="M 80.20947 236.150948 
L 103.804528 236.150948 
L 103.804528 197.927003 
L 80.20947 197.927003 
z
" clip-path="url(#pd33c0fdad7)" style="fill: #2186eb; opacity: 0.5"/>
   </g>
   <g id="patch_106">
    <path d="M 80.20947 331.71081 
L 103.804528 331.71081 
L 103.804528 293.486865 
L 80.20947 293.486865 
z
" clip-path="url(#pd33c0fdad7)" style="fill: #2186eb; opacity: 0.5"/>
   </g>
   <g id="patch_107">
    <path d="M 80.20947 283.930879 
L 103.804528 283.930879 
L 103.804528 245.706934 
L 80.20947 245.706934 
z
" clip-path="url(#pd33c0fdad7)" style="fill: #2186eb; opacity: 0.5"/>
   </g>
   <g id="patch_108">
    <path d="M 62.513176 236.150948 
L 77.260088 236.150948 
L 77.260088 197.927003 
L 62.513176 197.927003 
z
" clip-path="url(#pd33c0fdad7)" style="fill: #2186eb; opacity: 0.5"/>
   </g>
   <g id="patch_109">
    <path d="M 41.8675 331.71081 
L 47.766265 331.71081 
L 47.766265 293.486865 
L 41.8675 293.486865 
z
" clip-path="url(#pd33c0fdad7)" style="fill: #2186eb; opacity: 0.5"/>
   </g>
   <g id="patch_110">
    <path d="M 395.793376 283.930879 
L 419.388434 283.930879 
L 419.388434 245.706934 
L 395.793376 245.706934 
z
" clip-path="url(#pd33c0fdad7)" style="fill: #2186eb; opacity: 0.5"/>
   </g>
   <g id="patch_111">
    <path d="M 478.37608 236.150948 
L 487.224227 236.150948 
L 487.224227 197.927003 
L 478.37608 197.927003 
z
" clip-path="url(#pd33c0fdad7)" style="fill: #2186eb; opacity: 0.5"/>
   </g>
   <g id="patch_112">
    <path d="M 395.793376 331.71081 
L 419.388434 331.71081 
L 419.388434 293.486865 
L 395.793376 293.486865 
z
" clip-path="url(#pd33c0fdad7)" style="fill: #2186eb; opacity: 0.5"/>
   </g>
   <g id="patch_113">
    <path d="M 566.857549 283.930879 
L 614.047666 283.930879 
L 614.047666 245.706934 
L 566.857549 245.706934 
z
" clip-path="url(#pd33c0fdad7)" style="fill: #2186eb; opacity: 0.5"/>
   </g>
   <g id="patch_114">
    <path d="M 41.8675 236.150948 
L 41.8675 236.150948 
L 41.8675 197.927003 
L 41.8675 197.927003 
z
" clip-path="url(#pd33c0fdad7)" style="fill: #2186eb; opacity: 0.5"/>
   </g>
   <g id="patch_115">
    <path d="M 41.8675 331.71081 
L 41.8675 331.71081 
L 41.8675 293.486865 
L 41.8675 293.486865 
z
" clip-path="url(#pd33c0fdad7)" style="fill: #2186eb; opacity: 0.5"/>
   </g>
   <g id="patch_116">
    <path d="M 490.17361 283.930879 
L 528.51558 283.930879 
L 528.51558 245.706934 
L 490.17361 245.706934 
z
" clip-path="url(#pd33c0fdad7)" style="fill: #2186eb; opacity: 0.5"/>
   </g>
   <g id="patch_117">
    <path d="M 41.8675 236.150948 
L 41.8675 236.150948 
L 41.8675 197.927003 
L 41.8675 197.927003 
z
" clip-path="url(#pd33c0fdad7)" style="fill: #2186eb; opacity: 0.5"/>
   </g>
   <g id="patch_118">
    <path d="M 245.374879 331.71081 
L 251.273643 331.71081 
L 251.273643 293.486865 
L 245.374879 293.486865 
z
" clip-path="url(#pd33c0fdad7)" style="fill: #f7ce46; opacity: 0.5"/>
   </g>
   <g id="patch_119">
    <path d="M 245.374879 283.930879 
L 251.273643 283.930879 
L 251.273643 245.706934 
L 245.374879 245.706934 
z
" clip-path="url(#pd33c0fdad7)" style="fill: #f7ce46; opacity: 0.5"/>
   </g>
   <g id="patch_120">
    <path d="M 245.374879 236.150948 
L 251.273643 236.150948 
L 251.273643 197.927003 
L 245.374879 197.927003 
z
" clip-path="url(#pd33c0fdad7)" style="fill: #f7ce46; opacity: 0.5"/>
   </g>
   <g id="patch_121">
    <path d="M 62.513176 331.71081 
L 242.425496 331.71081 
L 242.425496 293.486865 
L 62.513176 293.486865 
z
" clip-path="url(#pd33c0fdad7)" style="fill: #3ca3a7; opacity: 0.5"/>
   </g>
   <g id="patch_122">
    <path d="M 254.223026 283.930879 
L 277.818084 283.930879 
L 277.818084 245.706934 
L 254.223026 245.706934 
z
" clip-path="url(#pd33c0fdad7)" style="fill: #3ca3a7; opacity: 0.5"/>
   </g>
   <g id="patch_123">
    <path d="M 41.8675 236.150948 
L 41.8675 236.150948 
L 41.8675 197.927003 
L 41.8675 197.927003 
z
" clip-path="url(#pd33c0fdad7)" style="fill: #3ca3a7; opacity: 0.5"/>
   </g>
   <g id="patch_124">
    <path d="M 254.223026 331.71081 
L 277.818084 331.71081 
L 277.818084 293.486865 
L 254.223026 293.486865 
z
" clip-path="url(#pd33c0fdad7)" style="fill: #3ca3a7; opacity: 0.5"/>
   </g>
   <g id="patch_125">
    <path d="M 280.767466 283.930879 
L 392.843994 283.930879 
L 392.843994 245.706934 
L 280.767466 245.706934 
z
" clip-path="url(#pd33c0fdad7)" style="fill: #3ca3a7; opacity: 0.5"/>
   </g>
   <g id="patch_126">
    <path d="M 41.8675 236.150948 
L 41.8675 236.150948 
L 41.8675 197.927003 
L 41.8675 197.927003 
z
" clip-path="url(#pd33c0fdad7)" style="fill: #3ca3a7; opacity: 0.5"/>
   </g>
   <g id="patch_127">
    <path d="M 280.767466 331.71081 
L 392.843994 331.71081 
L 392.843994 293.486865 
L 280.767466 293.486865 
z
" clip-path="url(#pd33c0fdad7)" style="fill: #3ca3a7; opacity: 0.5"/>
   </g>
   <g id="patch_128">
    <path d="M 41.8675 283.930879 
L 41.8675 283.930879 
L 41.8675 245.706934 
L 41.8675 245.706934 
z
" clip-path="url(#pd33c0fdad7)" style="fill: #3ca3a7; opacity: 0.5"/>
   </g>
   <g id="patch_129">
    <path d="M 41.8675 236.150948 
L 41.8675 236.150948 
L 41.8675 197.927003 
L 41.8675 197.927003 
z
" clip-path="url(#pd33c0fdad7)" style="fill: #3ca3a7; opacity: 0.5"/>
   </g>
   <g id="patch_130">
    <path d="M 395.793376 331.71081 
L 419.388434 331.71081 
L 419.388434 293.486865 
L 395.793376 293.486865 
z
" clip-path="url(#pd33c0fdad7)" style="fill: #ff9f15; opacity: 0.5"/>
   </g>
   <g id="patch_131">
    <path d="M 41.8675 283.930879 
L 41.8675 283.930879 
L 41.8675 245.706934 
L 41.8675 245.706934 
z
" clip-path="url(#pd33c0fdad7)" style="fill: #ff9f15; opacity: 0.5"/>
   </g>
   <g id="patch_132">
    <path d="M 254.223026 236.150948 
L 277.818084 236.150948 
L 277.818084 197.927003 
L 254.223026 197.927003 
z
" clip-path="url(#pd33c0fdad7)" style="fill: #ff9f15; opacity: 0.5"/>
   </g>
   <g id="patch_133">
    <path d="M 41.8675 331.71081 
L 41.8675 331.71081 
L 41.8675 293.486865 
L 41.8675 293.486865 
z
" clip-path="url(#pd33c0fdad7)" style="fill: #ff9f15; opacity: 0.5"/>
   </g>
   <g id="patch_134">
    <path d="M 41.8675 283.930879 
L 41.8675 283.930879 
L 41.8675 245.706934 
L 41.8675 245.706934 
z
" clip-path="url(#pd33c0fdad7)" style="fill: #ff9f15; opacity: 0.5"/>
   </g>
   <g id="patch_135">
    <path d="M 280.767466 236.150948 
L 392.843994 236.150948 
L 392.843994 197.927003 
L 280.767466 197.927003 
z
" clip-path="url(#pd33c0fdad7)" style="fill: #ff9f15; opacity: 0.5"/>
   </g>
   <g id="patch_136">
    <path d="M 41.8675 331.71081 
L 41.8675 331.71081 
L 41.8675 293.486865 
L 41.8675 293.486865 
z
" clip-path="url(#pd33c0fdad7)" style="fill: #ff9f15; opacity: 0.5"/>
   </g>
   <g id="patch_137">
    <path d="M 41.8675 283.930879 
L 41.8675 283.930879 
L 41.8675 245.706934 
L 41.8675 245.706934 
z
" clip-path="url(#pd33c0fdad7)" style="fill: #ff9f15; opacity: 0.5"/>
   </g>
   <g id="patch_138">
    <path d="M 395.793376 236.150948 
L 419.388434 236.150948 
L 419.388434 197.927003 
L 395.793376 197.927003 
z
" clip-path="url(#pd33c0fdad7)" style="fill: #ff9f15; opacity: 0.5"/>
   </g>
   <g id="patch_139">
    <path d="M 501.971139 331.71081 
L 528.51558 331.71081 
L 528.51558 293.486865 
L 501.971139 293.486865 
z
" clip-path="url(#pd33c0fdad7)" style="fill: #ff9f15; opacity: 0.5"/>
   </g>
   <g id="patch_140">
    <path d="M 41.8675 283.930879 
L 41.8675 283.930879 
L 41.8675 245.706934 
L 41.8675 245.706934 
z
" clip-path="url(#pd33c0fdad7)" style="fill: #ff9f15; opacity: 0.5"/>
   </g>
   <g id="patch_141">
    <path d="M 41.8675 236.150948 
L 41.8675 236.150948 
L 41.8675 197.927003 
L 41.8675 197.927003 
z
" clip-path="url(#pd33c0fdad7)" style="fill: #ff9f15; opacity: 0.5"/>
   </g>
   <g id="patch_142">
    <path d="M 501.971139 331.71081 
L 528.51558 331.71081 
L 528.51558 293.486865 
L 501.971139 293.486865 
z
" clip-path="url(#pd33c0fdad7)" style="fill: #ff9f15; opacity: 0.5"/>
   </g>
   <g id="patch_143">
    <path d="M 41.8675 283.930879 
L 41.8675 283.930879 
L 41.8675 245.706934 
L 41.8675 245.706934 
z
" clip-path="url(#pd33c0fdad7)" style="fill: #ff9f15; opacity: 0.5"/>
   </g>
   <g id="patch_144">
    <path d="M 41.8675 236.150948 
L 41.8675 236.150948 
L 41.8675 197.927003 
L 41.8675 197.927003 
z
" clip-path="url(#pd33c0fdad7)" style="fill: #ff9f15; opacity: 0.5"/>
   </g>
   <g id="patch_145">
    <path d="M 531.464962 331.71081 
L 563.908167 331.71081 
L 563.908167 293.486865 
L 531.464962 293.486865 
z
" clip-path="url(#pd33c0fdad7)" style="fill: #ff9f15; opacity: 0.5"/>
   </g>
   <g id="patch_146">
    <path d="M 41.8675 283.930879 
L 41.8675 283.930879 
L 41.8675 245.706934 
L 41.8675 245.706934 
z
" clip-path="url(#pd33c0fdad7)" style="fill: #ff9f15; opacity: 0.5"/>
   </g>
   <g id="patch_147">
    <path d="M 41.8675 236.150948 
L 41.8675 236.150948 
L 41.8675 197.927003 
L 41.8675 197.927003 
z
" clip-path="url(#pd33c0fdad7)" style="fill: #ff9f15; opacity: 0.5"/>
   </g>
   <g id="matplotlib.axis_3"/>
   <g id="matplotlib.axis_4">
    <g id="ytick_4">
     <g id="text_5">
      <!-- Ann 3 -->
      <g transform="translate(0 317.1579) scale(0.12 -0.12)">
       <use xlink:href="#DejaVuSans-41"/>
       <use xlink:href="#DejaVuSans-6e" x="68.408203"/>
       <use xlink:href="#DejaVuSans-6e" x="131.787109"/>
       <use xlink:href="#DejaVuSans-20" x="195.166016"/>
       <use xlink:href="#DejaVuSans-33" x="226.953125"/>
      </g>
     </g>
    </g>
    <g id="ytick_5">
     <g id="text_6">
      <!-- Ann 2 -->
      <g transform="translate(0 269.377969) scale(0.12 -0.12)">
       <use xlink:href="#DejaVuSans-41"/>
       <use xlink:href="#DejaVuSans-6e" x="68.408203"/>
       <use xlink:href="#DejaVuSans-6e" x="131.787109"/>
       <use xlink:href="#DejaVuSans-20" x="195.166016"/>
       <use xlink:href="#DejaVuSans-32" x="226.953125"/>
      </g>
     </g>
    </g>
    <g id="ytick_6">
     <g id="text_7">
      <!-- Ann 1 -->
      <g transform="translate(0 221.598038) scale(0.12 -0.12)">
       <use xlink:href="#DejaVuSans-41"/>
       <use xlink:href="#DejaVuSans-6e" x="68.408203"/>
       <use xlink:href="#DejaVuSans-6e" x="131.787109"/>
       <use xlink:href="#DejaVuSans-20" x="195.166016"/>
       <use xlink:href="#DejaVuSans-31" x="226.953125"/>
      </g>
     </g>
    </g>
   </g>
   <g id="text_8">
    <!-- Simplification -->
    <g transform="translate(322.637656 185.237812) scale(0.14 -0.14)">
     <defs>
      <path id="DejaVuSans-53" d="M 3425 4513 
L 3425 3897 
Q 3066 4069 2747 4153 
Q 2428 4238 2131 4238 
Q 1616 4238 1336 4038 
Q 1056 3838 1056 3469 
Q 1056 3159 1242 3001 
Q 1428 2844 1947 2747 
L 2328 2669 
Q 3034 2534 3370 2195 
Q 3706 1856 3706 1288 
Q 3706 609 3251 259 
Q 2797 -91 1919 -91 
Q 1588 -91 1214 -16 
Q 841 59 441 206 
L 441 856 
Q 825 641 1194 531 
Q 1563 422 1919 422 
Q 2459 422 2753 634 
Q 3047 847 3047 1241 
Q 3047 1584 2836 1778 
Q 2625 1972 2144 2069 
L 1759 2144 
Q 1053 2284 737 2584 
Q 422 2884 422 3419 
Q 422 4038 858 4394 
Q 1294 4750 2059 4750 
Q 2388 4750 2728 4690 
Q 3069 4631 3425 4513 
z
" transform="scale(0.015625)"/>
      <path id="DejaVuSans-6d" d="M 3328 2828 
Q 3544 3216 3844 3400 
Q 4144 3584 4550 3584 
Q 5097 3584 5394 3201 
Q 5691 2819 5691 2113 
L 5691 0 
L 5113 0 
L 5113 2094 
Q 5113 2597 4934 2840 
Q 4756 3084 4391 3084 
Q 3944 3084 3684 2787 
Q 3425 2491 3425 1978 
L 3425 0 
L 2847 0 
L 2847 2094 
Q 2847 2600 2669 2842 
Q 2491 3084 2119 3084 
Q 1678 3084 1418 2786 
Q 1159 2488 1159 1978 
L 1159 0 
L 581 0 
L 581 3500 
L 1159 3500 
L 1159 2956 
Q 1356 3278 1631 3431 
Q 1906 3584 2284 3584 
Q 2666 3584 2933 3390 
Q 3200 3197 3328 2828 
z
" transform="scale(0.015625)"/>
      <path id="DejaVuSans-70" d="M 1159 525 
L 1159 -1331 
L 581 -1331 
L 581 3500 
L 1159 3500 
L 1159 2969 
Q 1341 3281 1617 3432 
Q 1894 3584 2278 3584 
Q 2916 3584 3314 3078 
Q 3713 2572 3713 1747 
Q 3713 922 3314 415 
Q 2916 -91 2278 -91 
Q 1894 -91 1617 61 
Q 1341 213 1159 525 
z
M 3116 1747 
Q 3116 2381 2855 2742 
Q 2594 3103 2138 3103 
Q 1681 3103 1420 2742 
Q 1159 2381 1159 1747 
Q 1159 1113 1420 752 
Q 1681 391 2138 391 
Q 2594 391 2855 752 
Q 3116 1113 3116 1747 
z
" transform="scale(0.015625)"/>
      <path id="DejaVuSans-66" d="M 2375 4863 
L 2375 4384 
L 1825 4384 
Q 1516 4384 1395 4259 
Q 1275 4134 1275 3809 
L 1275 3500 
L 2222 3500 
L 2222 3053 
L 1275 3053 
L 1275 0 
L 697 0 
L 697 3053 
L 147 3053 
L 147 3500 
L 697 3500 
L 697 3744 
Q 697 4328 969 4595 
Q 1241 4863 1831 4863 
L 2375 4863 
z
" transform="scale(0.015625)"/>
      <path id="DejaVuSans-63" d="M 3122 3366 
L 3122 2828 
Q 2878 2963 2633 3030 
Q 2388 3097 2138 3097 
Q 1578 3097 1268 2742 
Q 959 2388 959 1747 
Q 959 1106 1268 751 
Q 1578 397 2138 397 
Q 2388 397 2633 464 
Q 2878 531 3122 666 
L 3122 134 
Q 2881 22 2623 -34 
Q 2366 -91 2075 -91 
Q 1284 -91 818 406 
Q 353 903 353 1747 
Q 353 2603 823 3093 
Q 1294 3584 2113 3584 
Q 2378 3584 2631 3529 
Q 2884 3475 3122 3366 
z
" transform="scale(0.015625)"/>
      <path id="DejaVuSans-74" d="M 1172 4494 
L 1172 3500 
L 2356 3500 
L 2356 3053 
L 1172 3053 
L 1172 1153 
Q 1172 725 1289 603 
Q 1406 481 1766 481 
L 2356 481 
L 2356 0 
L 1766 0 
Q 1100 0 847 248 
Q 594 497 594 1153 
L 594 3053 
L 172 3053 
L 172 3500 
L 594 3500 
L 594 4494 
L 1172 4494 
z
" transform="scale(0.015625)"/>
      <path id="DejaVuSans-6f" d="M 1959 3097 
Q 1497 3097 1228 2736 
Q 959 2375 959 1747 
Q 959 1119 1226 758 
Q 1494 397 1959 397 
Q 2419 397 2687 759 
Q 2956 1122 2956 1747 
Q 2956 2369 2687 2733 
Q 2419 3097 1959 3097 
z
M 1959 3584 
Q 2709 3584 3137 3096 
Q 3566 2609 3566 1747 
Q 3566 888 3137 398 
Q 2709 -91 1959 -91 
Q 1206 -91 779 398 
Q 353 888 353 1747 
Q 353 2609 779 3096 
Q 1206 3584 1959 3584 
z
" transform="scale(0.015625)"/>
     </defs>
     <use xlink:href="#DejaVuSans-53"/>
     <use xlink:href="#DejaVuSans-69" x="63.476562"/>
     <use xlink:href="#DejaVuSans-6d" x="91.259766"/>
     <use xlink:href="#DejaVuSans-70" x="188.671875"/>
     <use xlink:href="#DejaVuSans-6c" x="252.148438"/>
     <use xlink:href="#DejaVuSans-69" x="279.931641"/>
     <use xlink:href="#DejaVuSans-66" x="307.714844"/>
     <use xlink:href="#DejaVuSans-69" x="342.919922"/>
     <use xlink:href="#DejaVuSans-63" x="370.703125"/>
     <use xlink:href="#DejaVuSans-61" x="425.683594"/>
     <use xlink:href="#DejaVuSans-74" x="486.962891"/>
     <use xlink:href="#DejaVuSans-69" x="526.171875"/>
     <use xlink:href="#DejaVuSans-6f" x="553.955078"/>
     <use xlink:href="#DejaVuSans-6e" x="615.136719"/>
    </g>
   </g>
  </g>
 </g>
 <defs>
  <clipPath id="p0c48fc01ef">
   <rect x="41.8675" y="16.637812" width="656.5325" height="147.162187"/>
  </clipPath>
  <clipPath id="pd33c0fdad7">
   <rect x="41.8675" y="191.237812" width="656.5325" height="147.162187"/>
  </clipPath>
 </defs>
</svg>
