<?xml version="1.0" encoding="utf-8" standalone="no"?>
<!DOCTYPE svg PUBLIC "-//W3C//DTD SVG 1.1//EN"
  "http://www.w3.org/Graphics/SVG/1.1/DTD/svg11.dtd">
<!-- Created with matplotlib (https://matplotlib.org/) -->
<svg height="338.4pt" version="1.1" viewBox="0 0 698.4 338.4" width="698.4pt" xmlns="http://www.w3.org/2000/svg" xmlns:xlink="http://www.w3.org/1999/xlink">
 <metadata>
  <rdf:RDF xmlns:cc="http://creativecommons.org/ns#" xmlns:dc="http://purl.org/dc/elements/1.1/" xmlns:rdf="http://www.w3.org/1999/02/22-rdf-syntax-ns#">
   <cc:Work>
    <dc:type rdf:resource="http://purl.org/dc/dcmitype/StillImage"/>
    <dc:date>2022-12-16T16:17:38.767175</dc:date>
    <dc:format>image/svg+xml</dc:format>
    <dc:creator>
     <cc:Agent>
      <dc:title>Matplotlib v3.3.4, https://matplotlib.org/</dc:title>
     </cc:Agent>
    </dc:creator>
   </cc:Work>
  </rdf:RDF>
 </metadata>
 <defs>
  <style type="text/css">*{stroke-linecap:butt;stroke-linejoin:round;}</style>
 </defs>
 <g id="figure_1">
  <g id="patch_1">
   <path d="M 0 338.4 
L 698.4 338.4 
L 698.4 0 
L 0 0 
z
" style="fill:none;"/>
  </g>
  <g id="axes_1">
   <g id="patch_2">
    <path d="M 41.8675 163.8 
L 698.4 163.8 
L 698.4 15.118125 
L 41.8675 15.118125 
z
" style="fill:#ffffff;"/>
   </g>
   <g id="patch_3">
    <path clip-path="url(#p18af5dba3f)" d="M 41.8675 157.041733 
L 667.136548 157.041733 
L 667.136548 118.423064 
L 41.8675 118.423064 
z
" style="fill:#0000ff;opacity:0.2;"/>
   </g>
   <g id="patch_4">
    <path clip-path="url(#p18af5dba3f)" d="M 41.8675 108.768397 
L 667.136548 108.768397 
L 667.136548 70.149728 
L 41.8675 70.149728 
z
" style="fill:#0000ff;opacity:0.2;"/>
   </g>
   <g id="patch_5">
    <path clip-path="url(#p18af5dba3f)" d="M 41.8675 60.495061 
L 667.136548 60.495061 
L 667.136548 21.876392 
L 41.8675 21.876392 
z
" style="fill:#0000ff;opacity:0.2;"/>
   </g>
   <g id="patch_6">
    <path clip-path="url(#p18af5dba3f)" d="M 41.8675 157.041733 
L 41.8675 157.041733 
L 41.8675 118.423064 
L 41.8675 118.423064 
z
" style="fill:#64c466;opacity:0.5;"/>
   </g>
   <g id="patch_7">
    <path clip-path="url(#p18af5dba3f)" d="M 41.8675 108.768397 
L 41.8675 108.768397 
L 41.8675 70.149728 
L 41.8675 70.149728 
z
" style="fill:#64c466;opacity:0.5;"/>
   </g>
   <g id="patch_8">
    <path clip-path="url(#p18af5dba3f)" d="M 41.8675 60.495061 
L 41.8675 60.495061 
L 41.8675 21.876392 
L 41.8675 21.876392 
z
" style="fill:#64c466;opacity:0.5;"/>
   </g>
   <g id="patch_9">
    <path clip-path="url(#p18af5dba3f)" d="M 41.8675 157.041733 
L 41.8675 157.041733 
L 41.8675 118.423064 
L 41.8675 118.423064 
z
" style="fill:#64c466;opacity:0.5;"/>
   </g>
   <g id="patch_10">
    <path clip-path="url(#p18af5dba3f)" d="M 41.8675 108.768397 
L 41.8675 108.768397 
L 41.8675 70.149728 
L 41.8675 70.149728 
z
" style="fill:#64c466;opacity:0.5;"/>
   </g>
   <g id="patch_11">
    <path clip-path="url(#p18af5dba3f)" d="M 41.8675 60.495061 
L 41.8675 60.495061 
L 41.8675 21.876392 
L 41.8675 21.876392 
z
" style="fill:#64c466;opacity:0.5;"/>
   </g>
   <g id="patch_12">
    <path clip-path="url(#p18af5dba3f)" d="M 41.8675 157.041733 
L 41.8675 157.041733 
L 41.8675 118.423064 
L 41.8675 118.423064 
z
" style="fill:#64c466;opacity:0.5;"/>
   </g>
   <g id="patch_13">
    <path clip-path="url(#p18af5dba3f)" d="M 41.8675 108.768397 
L 41.8675 108.768397 
L 41.8675 70.149728 
L 41.8675 70.149728 
z
" style="fill:#64c466;opacity:0.5;"/>
   </g>
   <g id="patch_14">
    <path clip-path="url(#p18af5dba3f)" d="M 41.8675 60.495061 
L 41.8675 60.495061 
L 41.8675 21.876392 
L 41.8675 21.876392 
z
" style="fill:#64c466;opacity:0.5;"/>
   </g>
   <g id="patch_15">
    <path clip-path="url(#p18af5dba3f)" d="M 41.8675 157.041733 
L 41.8675 157.041733 
L 41.8675 118.423064 
L 41.8675 118.423064 
z
" style="fill:#64c466;opacity:0.5;"/>
   </g>
   <g id="patch_16">
    <path clip-path="url(#p18af5dba3f)" d="M 41.8675 108.768397 
L 41.8675 108.768397 
L 41.8675 70.149728 
L 41.8675 70.149728 
z
" style="fill:#64c466;opacity:0.5;"/>
   </g>
   <g id="patch_17">
    <path clip-path="url(#p18af5dba3f)" d="M 41.8675 60.495061 
L 41.8675 60.495061 
L 41.8675 21.876392 
L 41.8675 21.876392 
z
" style="fill:#64c466;opacity:0.5;"/>
   </g>
   <g id="patch_18">
    <path clip-path="url(#p18af5dba3f)" d="M 538.806219 157.041733 
L 574.301842 157.041733 
L 574.301842 118.423064 
L 538.806219 118.423064 
z
" style="fill:#ee2a2a;opacity:0.5;"/>
   </g>
   <g id="patch_19">
    <path clip-path="url(#p18af5dba3f)" d="M 350.406375 108.768397 
L 366.78897 108.768397 
L 366.78897 70.149728 
L 350.406375 70.149728 
z
" style="fill:#ee2a2a;opacity:0.5;"/>
   </g>
   <g id="patch_20">
    <path clip-path="url(#p18af5dba3f)" d="M 538.806219 60.495061 
L 667.136548 60.495061 
L 667.136548 21.876392 
L 538.806219 21.876392 
z
" style="fill:#ee2a2a;opacity:0.5;"/>
   </g>
   <g id="patch_21">
    <path clip-path="url(#p18af5dba3f)" d="M 617.988762 157.041733 
L 667.136548 157.041733 
L 667.136548 118.423064 
L 617.988762 118.423064 
z
" style="fill:#ee2a2a;opacity:0.5;"/>
   </g>
   <g id="patch_22">
    <path clip-path="url(#p18af5dba3f)" d="M 500.580164 108.768397 
L 511.501894 108.768397 
L 511.501894 70.149728 
L 500.580164 70.149728 
z
" style="fill:#ee2a2a;opacity:0.5;"/>
   </g>
   <g id="patch_23">
    <path clip-path="url(#p18af5dba3f)" d="M 41.8675 60.495061 
L 41.8675 60.495061 
L 41.8675 21.876392 
L 41.8675 21.876392 
z
" style="fill:#ee2a2a;opacity:0.5;"/>
   </g>
   <g id="patch_24">
    <path clip-path="url(#p18af5dba3f)" d="M 41.8675 157.041733 
L 41.8675 157.041733 
L 41.8675 118.423064 
L 41.8675 118.423064 
z
" style="fill:#ee2a2a;opacity:0.5;"/>
   </g>
   <g id="patch_25">
    <path clip-path="url(#p18af5dba3f)" d="M 514.232326 108.768397 
L 574.301842 108.768397 
L 574.301842 70.149728 
L 514.232326 70.149728 
z
" style="fill:#ee2a2a;opacity:0.5;"/>
   </g>
   <g id="patch_26">
    <path clip-path="url(#p18af5dba3f)" d="M 41.8675 60.495061 
L 41.8675 60.495061 
L 41.8675 21.876392 
L 41.8675 21.876392 
z
" style="fill:#ee2a2a;opacity:0.5;"/>
   </g>
   <g id="patch_27">
    <path clip-path="url(#p18af5dba3f)" d="M 41.8675 157.041733 
L 69.171825 157.041733 
L 69.171825 118.423064 
L 41.8675 118.423064 
z
" style="fill:#2186eb;opacity:0.5;"/>
   </g>
   <g id="patch_28">
    <path clip-path="url(#p18af5dba3f)" d="M 41.8675 108.768397 
L 69.171825 108.768397 
L 69.171825 70.149728 
L 41.8675 70.149728 
z
" style="fill:#2186eb;opacity:0.5;"/>
   </g>
   <g id="patch_29">
    <path clip-path="url(#p18af5dba3f)" d="M 71.902258 60.495061 
L 93.745718 60.495061 
L 93.745718 21.876392 
L 71.902258 21.876392 
z
" style="fill:#2186eb;opacity:0.5;"/>
   </g>
   <g id="patch_30">
    <path clip-path="url(#p18af5dba3f)" d="M 71.902258 157.041733 
L 93.745718 157.041733 
L 93.745718 118.423064 
L 71.902258 118.423064 
z
" style="fill:#2186eb;opacity:0.5;"/>
   </g>
   <g id="patch_31">
    <path clip-path="url(#p18af5dba3f)" d="M 71.902258 108.768397 
L 93.745718 108.768397 
L 93.745718 70.149728 
L 71.902258 70.149728 
z
" style="fill:#2186eb;opacity:0.5;"/>
   </g>
   <g id="patch_32">
    <path clip-path="url(#p18af5dba3f)" d="M 41.8675 60.495061 
L 69.171825 60.495061 
L 69.171825 21.876392 
L 41.8675 21.876392 
z
" style="fill:#2186eb;opacity:0.5;"/>
   </g>
   <g id="patch_33">
    <path clip-path="url(#p18af5dba3f)" d="M 514.232326 157.041733 
L 536.075787 157.041733 
L 536.075787 118.423064 
L 514.232326 118.423064 
z
" style="fill:#2186eb;opacity:0.5;"/>
   </g>
   <g id="patch_34">
    <path clip-path="url(#p18af5dba3f)" d="M 263.032534 108.768397 
L 295.797725 108.768397 
L 295.797725 70.149728 
L 263.032534 70.149728 
z
" style="fill:#2186eb;opacity:0.5;"/>
   </g>
   <g id="patch_35">
    <path clip-path="url(#p18af5dba3f)" d="M 500.580164 60.495061 
L 511.501894 60.495061 
L 511.501894 21.876392 
L 500.580164 21.876392 
z
" style="fill:#2186eb;opacity:0.5;"/>
   </g>
   <g id="patch_36">
    <path clip-path="url(#p18af5dba3f)" d="M 273.954264 157.041733 
L 287.606427 157.041733 
L 287.606427 118.423064 
L 273.954264 118.423064 
z
" style="fill:#2186eb;opacity:0.5;"/>
   </g>
   <g id="patch_37">
    <path clip-path="url(#p18af5dba3f)" d="M 617.988762 108.768397 
L 667.136548 108.768397 
L 667.136548 70.149728 
L 617.988762 70.149728 
z
" style="fill:#2186eb;opacity:0.5;"/>
   </g>
   <g id="patch_38">
    <path clip-path="url(#p18af5dba3f)" d="M 41.8675 60.495061 
L 41.8675 60.495061 
L 41.8675 21.876392 
L 41.8675 21.876392 
z
" style="fill:#2186eb;opacity:0.5;"/>
   </g>
   <g id="patch_39">
    <path clip-path="url(#p18af5dba3f)" d="M 41.8675 157.041733 
L 41.8675 157.041733 
L 41.8675 118.423064 
L 41.8675 118.423064 
z
" style="fill:#2186eb;opacity:0.5;"/>
   </g>
   <g id="patch_40">
    <path clip-path="url(#p18af5dba3f)" d="M 577.032274 108.768397 
L 615.25833 108.768397 
L 615.25833 70.149728 
L 577.032274 70.149728 
z
" style="fill:#2186eb;opacity:0.5;"/>
   </g>
   <g id="patch_41">
    <path clip-path="url(#p18af5dba3f)" d="M 41.8675 60.495061 
L 41.8675 60.495061 
L 41.8675 21.876392 
L 41.8675 21.876392 
z
" style="fill:#2186eb;opacity:0.5;"/>
   </g>
   <g id="patch_42">
    <path clip-path="url(#p18af5dba3f)" d="M 41.8675 157.041733 
L 222.076046 157.041733 
L 222.076046 118.423064 
L 41.8675 118.423064 
z
" style="fill:#3ca3a7;opacity:0.5;"/>
   </g>
   <g id="patch_43">
    <path clip-path="url(#p18af5dba3f)" d="M 476.006271 108.768397 
L 497.849731 108.768397 
L 497.849731 70.149728 
L 476.006271 70.149728 
z
" style="fill:#3ca3a7;opacity:0.5;"/>
   </g>
   <g id="patch_44">
    <path clip-path="url(#p18af5dba3f)" d="M 41.8675 60.495061 
L 41.8675 60.495061 
L 41.8675 21.876392 
L 41.8675 21.876392 
z
" style="fill:#3ca3a7;opacity:0.5;"/>
   </g>
   <g id="patch_45">
    <path clip-path="url(#p18af5dba3f)" d="M 476.006271 157.041733 
L 497.849731 157.041733 
L 497.849731 118.423064 
L 476.006271 118.423064 
z
" style="fill:#3ca3a7;opacity:0.5;"/>
   </g>
   <g id="patch_46">
    <path clip-path="url(#p18af5dba3f)" d="M 369.519403 108.768397 
L 473.275839 108.768397 
L 473.275839 70.149728 
L 369.519403 70.149728 
z
" style="fill:#3ca3a7;opacity:0.5;"/>
   </g>
   <g id="patch_47">
    <path clip-path="url(#p18af5dba3f)" d="M 41.8675 60.495061 
L 41.8675 60.495061 
L 41.8675 21.876392 
L 41.8675 21.876392 
z
" style="fill:#3ca3a7;opacity:0.5;"/>
   </g>
   <g id="patch_48">
    <path clip-path="url(#p18af5dba3f)" d="M 369.519403 157.041733 
L 473.275839 157.041733 
L 473.275839 118.423064 
L 369.519403 118.423064 
z
" style="fill:#3ca3a7;opacity:0.5;"/>
   </g>
   <g id="patch_49">
    <path clip-path="url(#p18af5dba3f)" d="M 41.8675 108.768397 
L 41.8675 108.768397 
L 41.8675 70.149728 
L 41.8675 70.149728 
z
" style="fill:#3ca3a7;opacity:0.5;"/>
   </g>
   <g id="patch_50">
    <path clip-path="url(#p18af5dba3f)" d="M 41.8675 60.495061 
L 41.8675 60.495061 
L 41.8675 21.876392 
L 41.8675 21.876392 
z
" style="fill:#3ca3a7;opacity:0.5;"/>
   </g>
   <g id="patch_51">
    <path clip-path="url(#p18af5dba3f)" d="M 263.032534 157.041733 
L 295.797725 157.041733 
L 295.797725 118.423064 
L 263.032534 118.423064 
z
" style="fill:#ff9f15;opacity:0.5;"/>
   </g>
   <g id="patch_52">
    <path clip-path="url(#p18af5dba3f)" d="M 41.8675 108.768397 
L 41.8675 108.768397 
L 41.8675 70.149728 
L 41.8675 70.149728 
z
" style="fill:#ff9f15;opacity:0.5;"/>
   </g>
   <g id="patch_53">
    <path clip-path="url(#p18af5dba3f)" d="M 263.032534 60.495061 
L 295.797725 60.495061 
L 295.797725 21.876392 
L 263.032534 21.876392 
z
" style="fill:#ff9f15;opacity:0.5;"/>
   </g>
   <g id="patch_54">
    <path clip-path="url(#p18af5dba3f)" d="M 350.406375 157.041733 
L 366.78897 157.041733 
L 366.78897 118.423064 
L 350.406375 118.423064 
z
" style="fill:#ff9f15;opacity:0.5;"/>
   </g>
   <g id="patch_55">
    <path clip-path="url(#p18af5dba3f)" d="M 41.8675 108.768397 
L 41.8675 108.768397 
L 41.8675 70.149728 
L 41.8675 70.149728 
z
" style="fill:#ff9f15;opacity:0.5;"/>
   </g>
   <g id="patch_56">
    <path clip-path="url(#p18af5dba3f)" d="M 350.406375 60.495061 
L 366.78897 60.495061 
L 366.78897 21.876392 
L 350.406375 21.876392 
z
" style="fill:#ff9f15;opacity:0.5;"/>
   </g>
   <g id="patch_57">
    <path clip-path="url(#p18af5dba3f)" d="M 41.8675 157.041733 
L 41.8675 157.041733 
L 41.8675 118.423064 
L 41.8675 118.423064 
z
" style="fill:#ff9f15;opacity:0.5;"/>
   </g>
   <g id="patch_58">
    <path clip-path="url(#p18af5dba3f)" d="M 41.8675 108.768397 
L 41.8675 108.768397 
L 41.8675 70.149728 
L 41.8675 70.149728 
z
" style="fill:#ff9f15;opacity:0.5;"/>
   </g>
   <g id="patch_59">
    <path clip-path="url(#p18af5dba3f)" d="M 369.519403 60.495061 
L 473.275839 60.495061 
L 473.275839 21.876392 
L 369.519403 21.876392 
z
" style="fill:#ff9f15;opacity:0.5;"/>
   </g>
   <g id="patch_60">
    <path clip-path="url(#p18af5dba3f)" d="M 41.8675 157.041733 
L 41.8675 157.041733 
L 41.8675 118.423064 
L 41.8675 118.423064 
z
" style="fill:#ff9f15;opacity:0.5;"/>
   </g>
   <g id="patch_61">
    <path clip-path="url(#p18af5dba3f)" d="M 41.8675 108.768397 
L 41.8675 108.768397 
L 41.8675 70.149728 
L 41.8675 70.149728 
z
" style="fill:#ff9f15;opacity:0.5;"/>
   </g>
   <g id="patch_62">
    <path clip-path="url(#p18af5dba3f)" d="M 476.006271 60.495061 
L 497.849731 60.495061 
L 497.849731 21.876392 
L 476.006271 21.876392 
z
" style="fill:#ff9f15;opacity:0.5;"/>
   </g>
   <g id="patch_63">
    <path clip-path="url(#p18af5dba3f)" d="M 577.032274 157.041733 
L 585.223572 157.041733 
L 585.223572 118.423064 
L 577.032274 118.423064 
z
" style="fill:#ff9f15;opacity:0.5;"/>
   </g>
   <g id="patch_64">
    <path clip-path="url(#p18af5dba3f)" d="M 41.8675 108.768397 
L 41.8675 108.768397 
L 41.8675 70.149728 
L 41.8675 70.149728 
z
" style="fill:#ff9f15;opacity:0.5;"/>
   </g>
   <g id="patch_65">
    <path clip-path="url(#p18af5dba3f)" d="M 41.8675 60.495061 
L 41.8675 60.495061 
L 41.8675 21.876392 
L 41.8675 21.876392 
z
" style="fill:#ff9f15;opacity:0.5;"/>
   </g>
   <g id="patch_66">
    <path clip-path="url(#p18af5dba3f)" d="M 587.954004 157.041733 
L 615.25833 157.041733 
L 615.25833 118.423064 
L 587.954004 118.423064 
z
" style="fill:#ff9f15;opacity:0.5;"/>
   </g>
   <g id="patch_67">
    <path clip-path="url(#p18af5dba3f)" d="M 41.8675 108.768397 
L 41.8675 108.768397 
L 41.8675 70.149728 
L 41.8675 70.149728 
z
" style="fill:#ff9f15;opacity:0.5;"/>
   </g>
   <g id="patch_68">
    <path clip-path="url(#p18af5dba3f)" d="M 41.8675 60.495061 
L 41.8675 60.495061 
L 41.8675 21.876392 
L 41.8675 21.876392 
z
" style="fill:#ff9f15;opacity:0.5;"/>
   </g>
   <g id="patch_69">
    <path clip-path="url(#p18af5dba3f)" d="M 587.954004 157.041733 
L 615.25833 157.041733 
L 615.25833 118.423064 
L 587.954004 118.423064 
z
" style="fill:#ff9f15;opacity:0.5;"/>
   </g>
   <g id="patch_70">
    <path clip-path="url(#p18af5dba3f)" d="M 41.8675 108.768397 
L 41.8675 108.768397 
L 41.8675 70.149728 
L 41.8675 70.149728 
z
" style="fill:#ff9f15;opacity:0.5;"/>
   </g>
   <g id="patch_71">
    <path clip-path="url(#p18af5dba3f)" d="M 41.8675 60.495061 
L 41.8675 60.495061 
L 41.8675 21.876392 
L 41.8675 21.876392 
z
" style="fill:#ff9f15;opacity:0.5;"/>
   </g>
   <g id="matplotlib.axis_1"/>
   <g id="matplotlib.axis_2">
    <g id="ytick_1">
     <g id="text_1">
      <!-- Ann 3 -->
      <g transform="translate(0 142.291461)scale(0.12 -0.12)">
       <defs>
        <path d="M 34.1875 63.1875 
L 20.796875 26.90625 
L 47.609375 26.90625 
z
M 28.609375 72.90625 
L 39.796875 72.90625 
L 67.578125 0 
L 57.328125 0 
L 50.6875 18.703125 
L 17.828125 18.703125 
L 11.1875 0 
L 0.78125 0 
z
" id="DejaVuSans-65"/>
        <path d="M 54.890625 33.015625 
L 54.890625 0 
L 45.90625 0 
L 45.90625 32.71875 
Q 45.90625 40.484375 42.875 44.328125 
Q 39.84375 48.1875 33.796875 48.1875 
Q 26.515625 48.1875 22.3125 43.546875 
Q 18.109375 38.921875 18.109375 30.90625 
L 18.109375 0 
L 9.078125 0 
L 9.078125 54.6875 
L 18.109375 54.6875 
L 18.109375 46.1875 
Q 21.34375 51.125 25.703125 53.5625 
Q 30.078125 56 35.796875 56 
Q 45.21875 56 50.046875 50.171875 
Q 54.890625 44.34375 54.890625 33.015625 
z
" id="DejaVuSans-110"/>
        <path id="DejaVuSans-32"/>
        <path d="M 40.578125 39.3125 
Q 47.65625 37.796875 51.625 33 
Q 55.609375 28.21875 55.609375 21.1875 
Q 55.609375 10.40625 48.1875 4.484375 
Q 40.765625 -1.421875 27.09375 -1.421875 
Q 22.515625 -1.421875 17.65625 -0.515625 
Q 12.796875 0.390625 7.625 2.203125 
L 7.625 11.71875 
Q 11.71875 9.328125 16.59375 8.109375 
Q 21.484375 6.890625 26.8125 6.890625 
Q 36.078125 6.890625 40.9375 10.546875 
Q 45.796875 14.203125 45.796875 21.1875 
Q 45.796875 27.640625 41.28125 31.265625 
Q 36.765625 34.90625 28.71875 34.90625 
L 20.21875 34.90625 
L 20.21875 43.015625 
L 29.109375 43.015625 
Q 36.375 43.015625 40.234375 45.921875 
Q 44.09375 48.828125 44.09375 54.296875 
Q 44.09375 59.90625 40.109375 62.90625 
Q 36.140625 65.921875 28.71875 65.921875 
Q 24.65625 65.921875 20.015625 65.03125 
Q 15.375 64.15625 9.8125 62.3125 
L 9.8125 71.09375 
Q 15.4375 72.65625 20.34375 73.4375 
Q 25.25 74.21875 29.59375 74.21875 
Q 40.828125 74.21875 47.359375 69.109375 
Q 53.90625 64.015625 53.90625 55.328125 
Q 53.90625 49.265625 50.4375 45.09375 
Q 46.96875 40.921875 40.578125 39.3125 
z
" id="DejaVuSans-51"/>
       </defs>
       <use xlink:href="#DejaVuSans-65"/>
       <use x="68.408203" xlink:href="#DejaVuSans-110"/>
       <use x="131.787109" xlink:href="#DejaVuSans-110"/>
       <use x="195.166016" xlink:href="#DejaVuSans-32"/>
       <use x="226.953125" xlink:href="#DejaVuSans-51"/>
      </g>
     </g>
    </g>
    <g id="ytick_2">
     <g id="text_2">
      <!-- Ann 2 -->
      <g transform="translate(0 94.018125)scale(0.12 -0.12)">
       <defs>
        <path d="M 19.1875 8.296875 
L 53.609375 8.296875 
L 53.609375 0 
L 7.328125 0 
L 7.328125 8.296875 
Q 12.9375 14.109375 22.625 23.890625 
Q 32.328125 33.6875 34.8125 36.53125 
Q 39.546875 41.84375 41.421875 45.53125 
Q 43.3125 49.21875 43.3125 52.78125 
Q 43.3125 58.59375 39.234375 62.25 
Q 35.15625 65.921875 28.609375 65.921875 
Q 23.96875 65.921875 18.8125 64.3125 
Q 13.671875 62.703125 7.8125 59.421875 
L 7.8125 69.390625 
Q 13.765625 71.78125 18.9375 73 
Q 24.125 74.21875 28.421875 74.21875 
Q 39.75 74.21875 46.484375 68.546875 
Q 53.21875 62.890625 53.21875 53.421875 
Q 53.21875 48.921875 51.53125 44.890625 
Q 49.859375 40.875 45.40625 35.40625 
Q 44.1875 33.984375 37.640625 27.21875 
Q 31.109375 20.453125 19.1875 8.296875 
z
" id="DejaVuSans-50"/>
       </defs>
       <use xlink:href="#DejaVuSans-65"/>
       <use x="68.408203" xlink:href="#DejaVuSans-110"/>
       <use x="131.787109" xlink:href="#DejaVuSans-110"/>
       <use x="195.166016" xlink:href="#DejaVuSans-32"/>
       <use x="226.953125" xlink:href="#DejaVuSans-50"/>
      </g>
     </g>
    </g>
    <g id="ytick_3">
     <g id="text_3">
      <!-- Ann 1 -->
      <g transform="translate(0 45.744789)scale(0.12 -0.12)">
       <defs>
        <path d="M 12.40625 8.296875 
L 28.515625 8.296875 
L 28.515625 63.921875 
L 10.984375 60.40625 
L 10.984375 69.390625 
L 28.421875 72.90625 
L 38.28125 72.90625 
L 38.28125 8.296875 
L 54.390625 8.296875 
L 54.390625 0 
L 12.40625 0 
z
" id="DejaVuSans-49"/>
       </defs>
       <use xlink:href="#DejaVuSans-65"/>
       <use x="68.408203" xlink:href="#DejaVuSans-110"/>
       <use x="131.787109" xlink:href="#DejaVuSans-110"/>
       <use x="195.166016" xlink:href="#DejaVuSans-32"/>
       <use x="226.953125" xlink:href="#DejaVuSans-49"/>
      </g>
     </g>
    </g>
   </g>
   <g id="text_4">
    <!-- Original -->
    <g transform="translate(346.655 9.118125)scale(0.12 -0.12)">
     <defs>
      <path d="M 39.40625 66.21875 
Q 28.65625 66.21875 22.328125 58.203125 
Q 16.015625 50.203125 16.015625 36.375 
Q 16.015625 22.609375 22.328125 14.59375 
Q 28.65625 6.59375 39.40625 6.59375 
Q 50.140625 6.59375 56.421875 14.59375 
Q 62.703125 22.609375 62.703125 36.375 
Q 62.703125 50.203125 56.421875 58.203125 
Q 50.140625 66.21875 39.40625 66.21875 
z
M 39.40625 74.21875 
Q 54.734375 74.21875 63.90625 63.9375 
Q 73.09375 53.65625 73.09375 36.375 
Q 73.09375 19.140625 63.90625 8.859375 
Q 54.734375 -1.421875 39.40625 -1.421875 
Q 24.03125 -1.421875 14.8125 8.828125 
Q 5.609375 19.09375 5.609375 36.375 
Q 5.609375 53.65625 14.8125 63.9375 
Q 24.03125 74.21875 39.40625 74.21875 
z
" id="DejaVuSans-79"/>
      <path d="M 41.109375 46.296875 
Q 39.59375 47.171875 37.8125 47.578125 
Q 36.03125 48 33.890625 48 
Q 26.265625 48 22.1875 43.046875 
Q 18.109375 38.09375 18.109375 28.8125 
L 18.109375 0 
L 9.078125 0 
L 9.078125 54.6875 
L 18.109375 54.6875 
L 18.109375 46.1875 
Q 20.953125 51.171875 25.484375 53.578125 
Q 30.03125 56 36.53125 56 
Q 37.453125 56 38.578125 55.875 
Q 39.703125 55.765625 41.0625 55.515625 
z
" id="DejaVuSans-114"/>
      <path d="M 9.421875 54.6875 
L 18.40625 54.6875 
L 18.40625 0 
L 9.421875 0 
z
M 9.421875 75.984375 
L 18.40625 75.984375 
L 18.40625 64.59375 
L 9.421875 64.59375 
z
" id="DejaVuSans-105"/>
      <path d="M 45.40625 27.984375 
Q 45.40625 37.75 41.375 43.109375 
Q 37.359375 48.484375 30.078125 48.484375 
Q 22.859375 48.484375 18.828125 43.109375 
Q 14.796875 37.75 14.796875 27.984375 
Q 14.796875 18.265625 18.828125 12.890625 
Q 22.859375 7.515625 30.078125 7.515625 
Q 37.359375 7.515625 41.375 12.890625 
Q 45.40625 18.265625 45.40625 27.984375 
z
M 54.390625 6.78125 
Q 54.390625 -7.171875 48.1875 -13.984375 
Q 42 -20.796875 29.203125 -20.796875 
Q 24.46875 -20.796875 20.265625 -20.09375 
Q 16.0625 -19.390625 12.109375 -17.921875 
L 12.109375 -9.1875 
Q 16.0625 -11.328125 19.921875 -12.34375 
Q 23.78125 -13.375 27.78125 -13.375 
Q 36.625 -13.375 41.015625 -8.765625 
Q 45.40625 -4.15625 45.40625 5.171875 
L 45.40625 9.625 
Q 42.625 4.78125 38.28125 2.390625 
Q 33.9375 0 27.875 0 
Q 17.828125 0 11.671875 7.65625 
Q 5.515625 15.328125 5.515625 27.984375 
Q 5.515625 40.671875 11.671875 48.328125 
Q 17.828125 56 27.875 56 
Q 33.9375 56 38.28125 53.609375 
Q 42.625 51.21875 45.40625 46.390625 
L 45.40625 54.6875 
L 54.390625 54.6875 
z
" id="DejaVuSans-103"/>
      <path d="M 34.28125 27.484375 
Q 23.390625 27.484375 19.1875 25 
Q 14.984375 22.515625 14.984375 16.5 
Q 14.984375 11.71875 18.140625 8.90625 
Q 21.296875 6.109375 26.703125 6.109375 
Q 34.1875 6.109375 38.703125 11.40625 
Q 43.21875 16.703125 43.21875 25.484375 
L 43.21875 27.484375 
z
M 52.203125 31.203125 
L 52.203125 0 
L 43.21875 0 
L 43.21875 8.296875 
Q 40.140625 3.328125 35.546875 0.953125 
Q 30.953125 -1.421875 24.3125 -1.421875 
Q 15.921875 -1.421875 10.953125 3.296875 
Q 6 8.015625 6 15.921875 
Q 6 25.140625 12.171875 29.828125 
Q 18.359375 34.515625 30.609375 34.515625 
L 43.21875 34.515625 
L 43.21875 35.40625 
Q 43.21875 41.609375 39.140625 45 
Q 35.0625 48.390625 27.6875 48.390625 
Q 23 48.390625 18.546875 47.265625 
Q 14.109375 46.140625 10.015625 43.890625 
L 10.015625 52.203125 
Q 14.9375 54.109375 19.578125 55.046875 
Q 24.21875 56 28.609375 56 
Q 40.484375 56 46.34375 49.84375 
Q 52.203125 43.703125 52.203125 31.203125 
z
" id="DejaVuSans-97"/>
      <path d="M 9.421875 75.984375 
L 18.40625 75.984375 
L 18.40625 0 
L 9.421875 0 
z
" id="DejaVuSans-108"/>
     </defs>
     <use xlink:href="#DejaVuSans-79"/>
     <use x="78.710938" xlink:href="#DejaVuSans-114"/>
     <use x="119.824219" xlink:href="#DejaVuSans-105"/>
     <use x="147.607422" xlink:href="#DejaVuSans-103"/>
     <use x="211.083984" xlink:href="#DejaVuSans-105"/>
     <use x="238.867188" xlink:href="#DejaVuSans-110"/>
     <use x="302.246094" xlink:href="#DejaVuSans-97"/>
     <use x="363.525391" xlink:href="#DejaVuSans-108"/>
    </g>
   </g>
  </g>
  <g id="axes_2">
   <g id="patch_72">
    <path d="M 41.8675 338.4 
L 698.4 338.4 
L 698.4 189.718125 
L 41.8675 189.718125 
z
" style="fill:#ffffff;"/>
   </g>
   <g id="patch_73">
    <path clip-path="url(#pd2c18304e7)" d="M 41.8675 331.641733 
L 667.136548 331.641733 
L 667.136548 293.023064 
L 41.8675 293.023064 
z
" style="fill:#0000ff;opacity:0.2;"/>
   </g>
   <g id="patch_74">
    <path clip-path="url(#pd2c18304e7)" d="M 41.8675 283.368397 
L 667.136548 283.368397 
L 667.136548 244.749728 
L 41.8675 244.749728 
z
" style="fill:#0000ff;opacity:0.2;"/>
   </g>
   <g id="patch_75">
    <path clip-path="url(#pd2c18304e7)" d="M 41.8675 235.095061 
L 667.136548 235.095061 
L 667.136548 196.476392 
L 41.8675 196.476392 
z
" style="fill:#0000ff;opacity:0.2;"/>
   </g>
   <g id="patch_76">
    <path clip-path="url(#pd2c18304e7)" d="M 478.37608 331.641733 
L 487.224227 331.641733 
L 487.224227 293.023064 
L 478.37608 293.023064 
z
" style="fill:#64c466;opacity:0.5;"/>
   </g>
   <g id="patch_77">
    <path clip-path="url(#pd2c18304e7)" d="M 41.8675 283.368397 
L 59.563794 283.368397 
L 59.563794 244.749728 
L 41.8675 244.749728 
z
" style="fill:#64c466;opacity:0.5;"/>
   </g>
   <g id="patch_78">
    <path clip-path="url(#pd2c18304e7)" d="M 41.8675 235.095061 
L 59.563794 235.095061 
L 59.563794 196.476392 
L 41.8675 196.476392 
z
" style="fill:#64c466;opacity:0.5;"/>
   </g>
   <g id="patch_79">
    <path clip-path="url(#pd2c18304e7)" d="M 566.857549 331.641733 
L 667.136548 331.641733 
L 667.136548 293.023064 
L 566.857549 293.023064 
z
" style="fill:#64c466;opacity:0.5;"/>
   </g>
   <g id="patch_80">
    <path clip-path="url(#pd2c18304e7)" d="M 478.37608 283.368397 
L 487.224227 283.368397 
L 487.224227 244.749728 
L 478.37608 244.749728 
z
" style="fill:#64c466;opacity:0.5;"/>
   </g>
   <g id="patch_81">
    <path clip-path="url(#pd2c18304e7)" d="M 490.17361 235.095061 
L 537.363726 235.095061 
L 537.363726 196.476392 
L 490.17361 196.476392 
z
" style="fill:#64c466;opacity:0.5;"/>
   </g>
   <g id="patch_82">
    <path clip-path="url(#pd2c18304e7)" d="M 50.715647 331.641733 
L 59.563794 331.641733 
L 59.563794 293.023064 
L 50.715647 293.023064 
z
" style="fill:#64c466;opacity:0.5;"/>
   </g>
   <g id="patch_83">
    <path clip-path="url(#pd2c18304e7)" d="M 616.997049 283.368397 
L 667.136548 283.368397 
L 667.136548 244.749728 
L 616.997049 244.749728 
z
" style="fill:#64c466;opacity:0.5;"/>
   </g>
   <g id="patch_84">
    <path clip-path="url(#pd2c18304e7)" d="M 566.857549 235.095061 
L 667.136548 235.095061 
L 667.136548 196.476392 
L 566.857549 196.476392 
z
" style="fill:#64c466;opacity:0.5;"/>
   </g>
   <g id="patch_85">
    <path clip-path="url(#pd2c18304e7)" d="M 41.8675 331.641733 
L 41.8675 331.641733 
L 41.8675 293.023064 
L 41.8675 293.023064 
z
" style="fill:#64c466;opacity:0.5;"/>
   </g>
   <g id="patch_86">
    <path clip-path="url(#pd2c18304e7)" d="M 531.464962 283.368397 
L 563.908167 283.368397 
L 563.908167 244.749728 
L 531.464962 244.749728 
z
" style="fill:#64c466;opacity:0.5;"/>
   </g>
   <g id="patch_87">
    <path clip-path="url(#pd2c18304e7)" d="M 41.8675 235.095061 
L 41.8675 235.095061 
L 41.8675 196.476392 
L 41.8675 196.476392 
z
" style="fill:#64c466;opacity:0.5;"/>
   </g>
   <g id="patch_88">
    <path clip-path="url(#pd2c18304e7)" d="M 41.8675 331.641733 
L 41.8675 331.641733 
L 41.8675 293.023064 
L 41.8675 293.023064 
z
" style="fill:#ee2a2a;opacity:0.5;"/>
   </g>
   <g id="patch_89">
    <path clip-path="url(#pd2c18304e7)" d="M 41.8675 283.368397 
L 41.8675 283.368397 
L 41.8675 244.749728 
L 41.8675 244.749728 
z
" style="fill:#ee2a2a;opacity:0.5;"/>
   </g>
   <g id="patch_90">
    <path clip-path="url(#pd2c18304e7)" d="M 41.8675 235.095061 
L 41.8675 235.095061 
L 41.8675 196.476392 
L 41.8675 196.476392 
z
" style="fill:#ee2a2a;opacity:0.5;"/>
   </g>
   <g id="patch_91">
    <path clip-path="url(#pd2c18304e7)" d="M 41.8675 331.641733 
L 41.8675 331.641733 
L 41.8675 293.023064 
L 41.8675 293.023064 
z
" style="fill:#ee2a2a;opacity:0.5;"/>
   </g>
   <g id="patch_92">
    <path clip-path="url(#pd2c18304e7)" d="M 41.8675 283.368397 
L 41.8675 283.368397 
L 41.8675 244.749728 
L 41.8675 244.749728 
z
" style="fill:#ee2a2a;opacity:0.5;"/>
   </g>
   <g id="patch_93">
    <path clip-path="url(#pd2c18304e7)" d="M 41.8675 235.095061 
L 41.8675 235.095061 
L 41.8675 196.476392 
L 41.8675 196.476392 
z
" style="fill:#ee2a2a;opacity:0.5;"/>
   </g>
   <g id="patch_94">
    <path clip-path="url(#pd2c18304e7)" d="M 41.8675 331.641733 
L 41.8675 331.641733 
L 41.8675 293.023064 
L 41.8675 293.023064 
z
" style="fill:#ee2a2a;opacity:0.5;"/>
   </g>
   <g id="patch_95">
    <path clip-path="url(#pd2c18304e7)" d="M 41.8675 283.368397 
L 41.8675 283.368397 
L 41.8675 244.749728 
L 41.8675 244.749728 
z
" style="fill:#ee2a2a;opacity:0.5;"/>
   </g>
   <g id="patch_96">
    <path clip-path="url(#pd2c18304e7)" d="M 41.8675 235.095061 
L 41.8675 235.095061 
L 41.8675 196.476392 
L 41.8675 196.476392 
z
" style="fill:#ee2a2a;opacity:0.5;"/>
   </g>
   <g id="patch_97">
    <path clip-path="url(#pd2c18304e7)" d="M 62.513176 331.641733 
L 77.260088 331.641733 
L 77.260088 293.023064 
L 62.513176 293.023064 
z
" style="fill:#2186eb;opacity:0.5;"/>
   </g>
   <g id="patch_98">
    <path clip-path="url(#pd2c18304e7)" d="M 62.513176 283.368397 
L 77.260088 283.368397 
L 77.260088 244.749728 
L 62.513176 244.749728 
z
" style="fill:#2186eb;opacity:0.5;"/>
   </g>
   <g id="patch_99">
    <path clip-path="url(#pd2c18304e7)" d="M 80.20947 235.095061 
L 103.804528 235.095061 
L 103.804528 196.476392 
L 80.20947 196.476392 
z
" style="fill:#2186eb;opacity:0.5;"/>
   </g>
   <g id="patch_100">
    <path clip-path="url(#pd2c18304e7)" d="M 80.20947 331.641733 
L 103.804528 331.641733 
L 103.804528 293.023064 
L 80.20947 293.023064 
z
" style="fill:#2186eb;opacity:0.5;"/>
   </g>
   <g id="patch_101">
    <path clip-path="url(#pd2c18304e7)" d="M 80.20947 283.368397 
L 103.804528 283.368397 
L 103.804528 244.749728 
L 80.20947 244.749728 
z
" style="fill:#2186eb;opacity:0.5;"/>
   </g>
   <g id="patch_102">
    <path clip-path="url(#pd2c18304e7)" d="M 62.513176 235.095061 
L 77.260088 235.095061 
L 77.260088 196.476392 
L 62.513176 196.476392 
z
" style="fill:#2186eb;opacity:0.5;"/>
   </g>
   <g id="patch_103">
    <path clip-path="url(#pd2c18304e7)" d="M 41.8675 331.641733 
L 47.766265 331.641733 
L 47.766265 293.023064 
L 41.8675 293.023064 
z
" style="fill:#2186eb;opacity:0.5;"/>
   </g>
   <g id="patch_104">
    <path clip-path="url(#pd2c18304e7)" d="M 395.793376 283.368397 
L 419.388434 283.368397 
L 419.388434 244.749728 
L 395.793376 244.749728 
z
" style="fill:#2186eb;opacity:0.5;"/>
   </g>
   <g id="patch_105">
    <path clip-path="url(#pd2c18304e7)" d="M 478.37608 235.095061 
L 487.224227 235.095061 
L 487.224227 196.476392 
L 478.37608 196.476392 
z
" style="fill:#2186eb;opacity:0.5;"/>
   </g>
   <g id="patch_106">
    <path clip-path="url(#pd2c18304e7)" d="M 395.793376 331.641733 
L 419.388434 331.641733 
L 419.388434 293.023064 
L 395.793376 293.023064 
z
" style="fill:#2186eb;opacity:0.5;"/>
   </g>
   <g id="patch_107">
    <path clip-path="url(#pd2c18304e7)" d="M 566.857549 283.368397 
L 614.047666 283.368397 
L 614.047666 244.749728 
L 566.857549 244.749728 
z
" style="fill:#2186eb;opacity:0.5;"/>
   </g>
   <g id="patch_108">
    <path clip-path="url(#pd2c18304e7)" d="M 41.8675 235.095061 
L 41.8675 235.095061 
L 41.8675 196.476392 
L 41.8675 196.476392 
z
" style="fill:#2186eb;opacity:0.5;"/>
   </g>
   <g id="patch_109">
    <path clip-path="url(#pd2c18304e7)" d="M 41.8675 331.641733 
L 41.8675 331.641733 
L 41.8675 293.023064 
L 41.8675 293.023064 
z
" style="fill:#2186eb;opacity:0.5;"/>
   </g>
   <g id="patch_110">
    <path clip-path="url(#pd2c18304e7)" d="M 490.17361 283.368397 
L 528.51558 283.368397 
L 528.51558 244.749728 
L 490.17361 244.749728 
z
" style="fill:#2186eb;opacity:0.5;"/>
   </g>
   <g id="patch_111">
    <path clip-path="url(#pd2c18304e7)" d="M 41.8675 235.095061 
L 41.8675 235.095061 
L 41.8675 196.476392 
L 41.8675 196.476392 
z
" style="fill:#2186eb;opacity:0.5;"/>
   </g>
   <g id="patch_112">
    <path clip-path="url(#pd2c18304e7)" d="M 62.513176 331.641733 
L 242.425496 331.641733 
L 242.425496 293.023064 
L 62.513176 293.023064 
z
" style="fill:#3ca3a7;opacity:0.5;"/>
   </g>
   <g id="patch_113">
    <path clip-path="url(#pd2c18304e7)" d="M 254.223026 283.368397 
L 277.818084 283.368397 
L 277.818084 244.749728 
L 254.223026 244.749728 
z
" style="fill:#3ca3a7;opacity:0.5;"/>
   </g>
   <g id="patch_114">
    <path clip-path="url(#pd2c18304e7)" d="M 41.8675 235.095061 
L 41.8675 235.095061 
L 41.8675 196.476392 
L 41.8675 196.476392 
z
" style="fill:#3ca3a7;opacity:0.5;"/>
   </g>
   <g id="patch_115">
    <path clip-path="url(#pd2c18304e7)" d="M 254.223026 331.641733 
L 277.818084 331.641733 
L 277.818084 293.023064 
L 254.223026 293.023064 
z
" style="fill:#3ca3a7;opacity:0.5;"/>
   </g>
   <g id="patch_116">
    <path clip-path="url(#pd2c18304e7)" d="M 280.767466 283.368397 
L 392.843994 283.368397 
L 392.843994 244.749728 
L 280.767466 244.749728 
z
" style="fill:#3ca3a7;opacity:0.5;"/>
   </g>
   <g id="patch_117">
    <path clip-path="url(#pd2c18304e7)" d="M 41.8675 235.095061 
L 41.8675 235.095061 
L 41.8675 196.476392 
L 41.8675 196.476392 
z
" style="fill:#3ca3a7;opacity:0.5;"/>
   </g>
   <g id="patch_118">
    <path clip-path="url(#pd2c18304e7)" d="M 280.767466 331.641733 
L 392.843994 331.641733 
L 392.843994 293.023064 
L 280.767466 293.023064 
z
" style="fill:#3ca3a7;opacity:0.5;"/>
   </g>
   <g id="patch_119">
    <path clip-path="url(#pd2c18304e7)" d="M 41.8675 283.368397 
L 41.8675 283.368397 
L 41.8675 244.749728 
L 41.8675 244.749728 
z
" style="fill:#3ca3a7;opacity:0.5;"/>
   </g>
   <g id="patch_120">
    <path clip-path="url(#pd2c18304e7)" d="M 41.8675 235.095061 
L 41.8675 235.095061 
L 41.8675 196.476392 
L 41.8675 196.476392 
z
" style="fill:#3ca3a7;opacity:0.5;"/>
   </g>
   <g id="patch_121">
    <path clip-path="url(#pd2c18304e7)" d="M 395.793376 331.641733 
L 419.388434 331.641733 
L 419.388434 293.023064 
L 395.793376 293.023064 
z
" style="fill:#ff9f15;opacity:0.5;"/>
   </g>
   <g id="patch_122">
    <path clip-path="url(#pd2c18304e7)" d="M 41.8675 283.368397 
L 41.8675 283.368397 
L 41.8675 244.749728 
L 41.8675 244.749728 
z
" style="fill:#ff9f15;opacity:0.5;"/>
   </g>
   <g id="patch_123">
    <path clip-path="url(#pd2c18304e7)" d="M 254.223026 235.095061 
L 277.818084 235.095061 
L 277.818084 196.476392 
L 254.223026 196.476392 
z
" style="fill:#ff9f15;opacity:0.5;"/>
   </g>
   <g id="patch_124">
    <path clip-path="url(#pd2c18304e7)" d="M 41.8675 331.641733 
L 41.8675 331.641733 
L 41.8675 293.023064 
L 41.8675 293.023064 
z
" style="fill:#ff9f15;opacity:0.5;"/>
   </g>
   <g id="patch_125">
    <path clip-path="url(#pd2c18304e7)" d="M 41.8675 283.368397 
L 41.8675 283.368397 
L 41.8675 244.749728 
L 41.8675 244.749728 
z
" style="fill:#ff9f15;opacity:0.5;"/>
   </g>
   <g id="patch_126">
    <path clip-path="url(#pd2c18304e7)" d="M 280.767466 235.095061 
L 392.843994 235.095061 
L 392.843994 196.476392 
L 280.767466 196.476392 
z
" style="fill:#ff9f15;opacity:0.5;"/>
   </g>
   <g id="patch_127">
    <path clip-path="url(#pd2c18304e7)" d="M 41.8675 331.641733 
L 41.8675 331.641733 
L 41.8675 293.023064 
L 41.8675 293.023064 
z
" style="fill:#ff9f15;opacity:0.5;"/>
   </g>
   <g id="patch_128">
    <path clip-path="url(#pd2c18304e7)" d="M 41.8675 283.368397 
L 41.8675 283.368397 
L 41.8675 244.749728 
L 41.8675 244.749728 
z
" style="fill:#ff9f15;opacity:0.5;"/>
   </g>
   <g id="patch_129">
    <path clip-path="url(#pd2c18304e7)" d="M 395.793376 235.095061 
L 419.388434 235.095061 
L 419.388434 196.476392 
L 395.793376 196.476392 
z
" style="fill:#ff9f15;opacity:0.5;"/>
   </g>
   <g id="patch_130">
    <path clip-path="url(#pd2c18304e7)" d="M 501.971139 331.641733 
L 528.51558 331.641733 
L 528.51558 293.023064 
L 501.971139 293.023064 
z
" style="fill:#ff9f15;opacity:0.5;"/>
   </g>
   <g id="patch_131">
    <path clip-path="url(#pd2c18304e7)" d="M 41.8675 283.368397 
L 41.8675 283.368397 
L 41.8675 244.749728 
L 41.8675 244.749728 
z
" style="fill:#ff9f15;opacity:0.5;"/>
   </g>
   <g id="patch_132">
    <path clip-path="url(#pd2c18304e7)" d="M 41.8675 235.095061 
L 41.8675 235.095061 
L 41.8675 196.476392 
L 41.8675 196.476392 
z
" style="fill:#ff9f15;opacity:0.5;"/>
   </g>
   <g id="patch_133">
    <path clip-path="url(#pd2c18304e7)" d="M 501.971139 331.641733 
L 528.51558 331.641733 
L 528.51558 293.023064 
L 501.971139 293.023064 
z
" style="fill:#ff9f15;opacity:0.5;"/>
   </g>
   <g id="patch_134">
    <path clip-path="url(#pd2c18304e7)" d="M 41.8675 283.368397 
L 41.8675 283.368397 
L 41.8675 244.749728 
L 41.8675 244.749728 
z
" style="fill:#ff9f15;opacity:0.5;"/>
   </g>
   <g id="patch_135">
    <path clip-path="url(#pd2c18304e7)" d="M 41.8675 235.095061 
L 41.8675 235.095061 
L 41.8675 196.476392 
L 41.8675 196.476392 
z
" style="fill:#ff9f15;opacity:0.5;"/>
   </g>
   <g id="patch_136">
    <path clip-path="url(#pd2c18304e7)" d="M 531.464962 331.641733 
L 563.908167 331.641733 
L 563.908167 293.023064 
L 531.464962 293.023064 
z
" style="fill:#ff9f15;opacity:0.5;"/>
   </g>
   <g id="patch_137">
    <path clip-path="url(#pd2c18304e7)" d="M 41.8675 283.368397 
L 41.8675 283.368397 
L 41.8675 244.749728 
L 41.8675 244.749728 
z
" style="fill:#ff9f15;opacity:0.5;"/>
   </g>
   <g id="patch_138">
    <path clip-path="url(#pd2c18304e7)" d="M 41.8675 235.095061 
L 41.8675 235.095061 
L 41.8675 196.476392 
L 41.8675 196.476392 
z
" style="fill:#ff9f15;opacity:0.5;"/>
   </g>
   <g id="matplotlib.axis_3"/>
   <g id="matplotlib.axis_4">
    <g id="ytick_4">
     <g id="text_5">
      <!-- Ann 3 -->
      <g transform="translate(0 316.891461)scale(0.12 -0.12)">
       <use xlink:href="#DejaVuSans-65"/>
       <use x="68.408203" xlink:href="#DejaVuSans-110"/>
       <use x="131.787109" xlink:href="#DejaVuSans-110"/>
       <use x="195.166016" xlink:href="#DejaVuSans-32"/>
       <use x="226.953125" xlink:href="#DejaVuSans-51"/>
      </g>
     </g>
    </g>
    <g id="ytick_5">
     <g id="text_6">
      <!-- Ann 2 -->
      <g transform="translate(0 268.618125)scale(0.12 -0.12)">
       <use xlink:href="#DejaVuSans-65"/>
       <use x="68.408203" xlink:href="#DejaVuSans-110"/>
       <use x="131.787109" xlink:href="#DejaVuSans-110"/>
       <use x="195.166016" xlink:href="#DejaVuSans-32"/>
       <use x="226.953125" xlink:href="#DejaVuSans-50"/>
      </g>
     </g>
    </g>
    <g id="ytick_6">
     <g id="text_7">
      <!-- Ann 1 -->
      <g transform="translate(0 220.344789)scale(0.12 -0.12)">
       <use xlink:href="#DejaVuSans-65"/>
       <use x="68.408203" xlink:href="#DejaVuSans-110"/>
       <use x="131.787109" xlink:href="#DejaVuSans-110"/>
       <use x="195.166016" xlink:href="#DejaVuSans-32"/>
       <use x="226.953125" xlink:href="#DejaVuSans-49"/>
      </g>
     </g>
    </g>
   </g>
   <g id="text_8">
    <!-- Simplification -->
    <g transform="translate(329.422813 183.718125)scale(0.12 -0.12)">
     <defs>
      <path d="M 53.515625 70.515625 
L 53.515625 60.890625 
Q 47.90625 63.578125 42.921875 64.890625 
Q 37.9375 66.21875 33.296875 66.21875 
Q 25.25 66.21875 20.875 63.09375 
Q 16.5 59.96875 16.5 54.203125 
Q 16.5 49.359375 19.40625 46.890625 
Q 22.3125 44.4375 30.421875 42.921875 
L 36.375 41.703125 
Q 47.40625 39.59375 52.65625 34.296875 
Q 57.90625 29 57.90625 20.125 
Q 57.90625 9.515625 50.796875 4.046875 
Q 43.703125 -1.421875 29.984375 -1.421875 
Q 24.8125 -1.421875 18.96875 -0.25 
Q 13.140625 0.921875 6.890625 3.21875 
L 6.890625 13.375 
Q 12.890625 10.015625 18.65625 8.296875 
Q 24.421875 6.59375 29.984375 6.59375 
Q 38.421875 6.59375 43.015625 9.90625 
Q 47.609375 13.234375 47.609375 19.390625 
Q 47.609375 24.75 44.3125 27.78125 
Q 41.015625 30.8125 33.5 32.328125 
L 27.484375 33.5 
Q 16.453125 35.6875 11.515625 40.375 
Q 6.59375 45.0625 6.59375 53.421875 
Q 6.59375 63.09375 13.40625 68.65625 
Q 20.21875 74.21875 32.171875 74.21875 
Q 37.3125 74.21875 42.625 73.28125 
Q 47.953125 72.359375 53.515625 70.515625 
z
" id="DejaVuSans-83"/>
      <path d="M 52 44.1875 
Q 55.375 50.25 60.0625 53.125 
Q 64.75 56 71.09375 56 
Q 79.640625 56 84.28125 50.015625 
Q 88.921875 44.046875 88.921875 33.015625 
L 88.921875 0 
L 79.890625 0 
L 79.890625 32.71875 
Q 79.890625 40.578125 77.09375 44.375 
Q 74.3125 48.1875 68.609375 48.1875 
Q 61.625 48.1875 57.5625 43.546875 
Q 53.515625 38.921875 53.515625 30.90625 
L 53.515625 0 
L 44.484375 0 
L 44.484375 32.71875 
Q 44.484375 40.625 41.703125 44.40625 
Q 38.921875 48.1875 33.109375 48.1875 
Q 26.21875 48.1875 22.15625 43.53125 
Q 18.109375 38.875 18.109375 30.90625 
L 18.109375 0 
L 9.078125 0 
L 9.078125 54.6875 
L 18.109375 54.6875 
L 18.109375 46.1875 
Q 21.1875 51.21875 25.484375 53.609375 
Q 29.78125 56 35.6875 56 
Q 41.65625 56 45.828125 52.96875 
Q 50 49.953125 52 44.1875 
z
" id="DejaVuSans-109"/>
      <path d="M 18.109375 8.203125 
L 18.109375 -20.796875 
L 9.078125 -20.796875 
L 9.078125 54.6875 
L 18.109375 54.6875 
L 18.109375 46.390625 
Q 20.953125 51.265625 25.265625 53.625 
Q 29.59375 56 35.59375 56 
Q 45.5625 56 51.78125 48.09375 
Q 58.015625 40.1875 58.015625 27.296875 
Q 58.015625 14.40625 51.78125 6.484375 
Q 45.5625 -1.421875 35.59375 -1.421875 
Q 29.59375 -1.421875 25.265625 0.953125 
Q 20.953125 3.328125 18.109375 8.203125 
z
M 48.6875 27.296875 
Q 48.6875 37.203125 44.609375 42.84375 
Q 40.53125 48.484375 33.40625 48.484375 
Q 26.265625 48.484375 22.1875 42.84375 
Q 18.109375 37.203125 18.109375 27.296875 
Q 18.109375 17.390625 22.1875 11.75 
Q 26.265625 6.109375 33.40625 6.109375 
Q 40.53125 6.109375 44.609375 11.75 
Q 48.6875 17.390625 48.6875 27.296875 
z
" id="DejaVuSans-112"/>
      <path d="M 37.109375 75.984375 
L 37.109375 68.5 
L 28.515625 68.5 
Q 23.6875 68.5 21.796875 66.546875 
Q 19.921875 64.59375 19.921875 59.515625 
L 19.921875 54.6875 
L 34.71875 54.6875 
L 34.71875 47.703125 
L 19.921875 47.703125 
L 19.921875 0 
L 10.890625 0 
L 10.890625 47.703125 
L 2.296875 47.703125 
L 2.296875 54.6875 
L 10.890625 54.6875 
L 10.890625 58.5 
Q 10.890625 67.625 15.140625 71.796875 
Q 19.390625 75.984375 28.609375 75.984375 
z
" id="DejaVuSans-102"/>
      <path d="M 48.78125 52.59375 
L 48.78125 44.1875 
Q 44.96875 46.296875 41.140625 47.34375 
Q 37.3125 48.390625 33.40625 48.390625 
Q 24.65625 48.390625 19.8125 42.84375 
Q 14.984375 37.3125 14.984375 27.296875 
Q 14.984375 17.28125 19.8125 11.734375 
Q 24.65625 6.203125 33.40625 6.203125 
Q 37.3125 6.203125 41.140625 7.25 
Q 44.96875 8.296875 48.78125 10.40625 
L 48.78125 2.09375 
Q 45.015625 0.34375 40.984375 -0.53125 
Q 36.96875 -1.421875 32.421875 -1.421875 
Q 20.0625 -1.421875 12.78125 6.34375 
Q 5.515625 14.109375 5.515625 27.296875 
Q 5.515625 40.671875 12.859375 48.328125 
Q 20.21875 56 33.015625 56 
Q 37.15625 56 41.109375 55.140625 
Q 45.0625 54.296875 48.78125 52.59375 
z
" id="DejaVuSans-99"/>
      <path d="M 18.3125 70.21875 
L 18.3125 54.6875 
L 36.8125 54.6875 
L 36.8125 47.703125 
L 18.3125 47.703125 
L 18.3125 18.015625 
Q 18.3125 11.328125 20.140625 9.421875 
Q 21.96875 7.515625 27.59375 7.515625 
L 36.8125 7.515625 
L 36.8125 0 
L 27.59375 0 
Q 17.1875 0 13.234375 3.875 
Q 9.28125 7.765625 9.28125 18.015625 
L 9.28125 47.703125 
L 2.6875 47.703125 
L 2.6875 54.6875 
L 9.28125 54.6875 
L 9.28125 70.21875 
z
" id="DejaVuSans-116"/>
      <path d="M 30.609375 48.390625 
Q 23.390625 48.390625 19.1875 42.75 
Q 14.984375 37.109375 14.984375 27.296875 
Q 14.984375 17.484375 19.15625 11.84375 
Q 23.34375 6.203125 30.609375 6.203125 
Q 37.796875 6.203125 41.984375 11.859375 
Q 46.1875 17.53125 46.1875 27.296875 
Q 46.1875 37.015625 41.984375 42.703125 
Q 37.796875 48.390625 30.609375 48.390625 
z
M 30.609375 56 
Q 42.328125 56 49.015625 48.375 
Q 55.71875 40.765625 55.71875 27.296875 
Q 55.71875 13.875 49.015625 6.21875 
Q 42.328125 -1.421875 30.609375 -1.421875 
Q 18.84375 -1.421875 12.171875 6.21875 
Q 5.515625 13.875 5.515625 27.296875 
Q 5.515625 40.765625 12.171875 48.375 
Q 18.84375 56 30.609375 56 
z
" id="DejaVuSans-111"/>
     </defs>
     <use xlink:href="#DejaVuSans-83"/>
     <use x="63.476562" xlink:href="#DejaVuSans-105"/>
     <use x="91.259766" xlink:href="#DejaVuSans-109"/>
     <use x="188.671875" xlink:href="#DejaVuSans-112"/>
     <use x="252.148438" xlink:href="#DejaVuSans-108"/>
     <use x="279.931641" xlink:href="#DejaVuSans-105"/>
     <use x="307.714844" xlink:href="#DejaVuSans-102"/>
     <use x="342.919922" xlink:href="#DejaVuSans-105"/>
     <use x="370.703125" xlink:href="#DejaVuSans-99"/>
     <use x="425.683594" xlink:href="#DejaVuSans-97"/>
     <use x="486.962891" xlink:href="#DejaVuSans-116"/>
     <use x="526.171875" xlink:href="#DejaVuSans-105"/>
     <use x="553.955078" xlink:href="#DejaVuSans-111"/>
     <use x="615.136719" xlink:href="#DejaVuSans-110"/>
    </g>
   </g>
  </g>
 </g>
 <defs>
  <clipPath id="p18af5dba3f">
   <rect height="148.681875" width="656.5325" x="41.8675" y="15.118125"/>
  </clipPath>
  <clipPath id="pd2c18304e7">
   <rect height="148.681875" width="656.5325" x="41.8675" y="189.718125"/>
  </clipPath>
 </defs>
</svg>
