<?xml version="1.0" encoding="utf-8" standalone="no"?>
<!DOCTYPE svg PUBLIC "-//W3C//DTD SVG 1.1//EN"
  "http://www.w3.org/Graphics/SVG/1.1/DTD/svg11.dtd">
<!-- Created with matplotlib (https://matplotlib.org/) -->
<svg height="180pt" version="1.1" viewBox="0 0 720 180" width="720pt" xmlns="http://www.w3.org/2000/svg" xmlns:xlink="http://www.w3.org/1999/xlink">
 <metadata>
  <rdf:RDF xmlns:cc="http://creativecommons.org/ns#" xmlns:dc="http://purl.org/dc/elements/1.1/" xmlns:rdf="http://www.w3.org/1999/02/22-rdf-syntax-ns#">
   <cc:Work>
    <dc:type rdf:resource="http://purl.org/dc/dcmitype/StillImage"/>
    <dc:date>2022-12-13T22:52:52.552485</dc:date>
    <dc:format>image/svg+xml</dc:format>
    <dc:creator>
     <cc:Agent>
      <dc:title>Matplotlib v3.3.4, https://matplotlib.org/</dc:title>
     </cc:Agent>
    </dc:creator>
   </cc:Work>
  </rdf:RDF>
 </metadata>
 <defs>
  <style type="text/css">*{stroke-linecap:butt;stroke-linejoin:round;}</style>
 </defs>
 <g id="figure_1">
  <g id="patch_1">
   <path d="M 0 180 
L 720 180 
L 720 0 
L 0 0 
z
" style="fill:none;"/>
  </g>
  <g id="axes_1">
   <g id="patch_2">
    <path d="M 63.404688 53.638594 
L 153.555469 53.638594 
L 153.555469 25.918125 
L 63.404688 25.918125 
z
" style="fill:#ffffff;"/>
   </g>
   <g id="patch_3">
    <path clip-path="url(#p91ca8ec1c9)" d="M 63.404688 52.378572 
L 63.404688 52.378572 
L 63.404688 27.178146 
L 63.404688 27.178146 
z
" style="opacity:0.8;"/>
   </g>
   <g id="patch_4">
    <path clip-path="url(#p91ca8ec1c9)" d="M 63.404688 52.378572 
L 76.613593 52.378572 
L 76.613593 27.178146 
L 63.404688 27.178146 
z
" style="opacity:0.6;"/>
   </g>
   <g id="patch_5">
    <path clip-path="url(#p91ca8ec1c9)" d="M 76.613593 52.378572 
L 87.621015 52.378572 
L 87.621015 27.178146 
L 76.613593 27.178146 
z
" style="opacity:0.4;"/>
   </g>
   <g id="patch_6">
    <path clip-path="url(#p91ca8ec1c9)" d="M 87.621015 52.378572 
L 108.535115 52.378572 
L 108.535115 27.178146 
L 87.621015 27.178146 
z
" style="fill:#b8b398;opacity:0.2;"/>
   </g>
   <g id="patch_7">
    <path clip-path="url(#p91ca8ec1c9)" d="M 108.535115 52.378572 
L 121.744021 52.378572 
L 121.744021 27.178146 
L 108.535115 27.178146 
z
" style="fill:#64c466;opacity:0.4;"/>
   </g>
   <g id="patch_8">
    <path clip-path="url(#p91ca8ec1c9)" d="M 121.744021 52.378572 
L 142.658122 52.378572 
L 142.658122 27.178146 
L 121.744021 27.178146 
z
" style="fill:#64c466;opacity:0.6;"/>
   </g>
   <g id="patch_9">
    <path clip-path="url(#p91ca8ec1c9)" d="M 142.658122 52.378572 
L 149.262574 52.378572 
L 149.262574 27.178146 
L 142.658122 27.178146 
z
" style="fill:#64c466;opacity:0.8;"/>
   </g>
   <g id="matplotlib.axis_1"/>
   <g id="matplotlib.axis_2">
    <g id="ytick_1">
     <g id="line2d_1">
      <defs>
       <path d="M 0 0 
L -3.5 0 
" id="m8f1839d15a" style="stroke:#000000;stroke-width:0.8;"/>
      </defs>
      <g>
       <use style="stroke:#000000;stroke-width:0.8;" x="63.404688" xlink:href="#m8f1839d15a" y="39.778359"/>
      </g>
     </g>
     <g id="text_1">
      <!-- MUSS -->
      <g transform="translate(27.760938 43.577578)scale(0.1 -0.1)">
       <defs>
        <path d="M 9.8125 72.90625 
L 24.515625 72.90625 
L 43.109375 23.296875 
L 61.8125 72.90625 
L 76.515625 72.90625 
L 76.515625 0 
L 66.890625 0 
L 66.890625 64.015625 
L 48.09375 14.015625 
L 38.1875 14.015625 
L 19.390625 64.015625 
L 19.390625 0 
L 9.8125 0 
z
" id="DejaVuSans-77"/>
        <path d="M 8.6875 72.90625 
L 18.609375 72.90625 
L 18.609375 28.609375 
Q 18.609375 16.890625 22.84375 11.734375 
Q 27.09375 6.59375 36.625 6.59375 
Q 46.09375 6.59375 50.34375 11.734375 
Q 54.59375 16.890625 54.59375 28.609375 
L 54.59375 72.90625 
L 64.5 72.90625 
L 64.5 27.390625 
Q 64.5 13.140625 57.4375 5.859375 
Q 50.390625 -1.421875 36.625 -1.421875 
Q 22.796875 -1.421875 15.734375 5.859375 
Q 8.6875 13.140625 8.6875 27.390625 
z
" id="DejaVuSans-85"/>
        <path d="M 53.515625 70.515625 
L 53.515625 60.890625 
Q 47.90625 63.578125 42.921875 64.890625 
Q 37.9375 66.21875 33.296875 66.21875 
Q 25.25 66.21875 20.875 63.09375 
Q 16.5 59.96875 16.5 54.203125 
Q 16.5 49.359375 19.40625 46.890625 
Q 22.3125 44.4375 30.421875 42.921875 
L 36.375 41.703125 
Q 47.40625 39.59375 52.65625 34.296875 
Q 57.90625 29 57.90625 20.125 
Q 57.90625 9.515625 50.796875 4.046875 
Q 43.703125 -1.421875 29.984375 -1.421875 
Q 24.8125 -1.421875 18.96875 -0.25 
Q 13.140625 0.921875 6.890625 3.21875 
L 6.890625 13.375 
Q 12.890625 10.015625 18.65625 8.296875 
Q 24.421875 6.59375 29.984375 6.59375 
Q 38.421875 6.59375 43.015625 9.90625 
Q 47.609375 13.234375 47.609375 19.390625 
Q 47.609375 24.75 44.3125 27.78125 
Q 41.015625 30.8125 33.5 32.328125 
L 27.484375 33.5 
Q 16.453125 35.6875 11.515625 40.375 
Q 6.59375 45.0625 6.59375 53.421875 
Q 6.59375 63.09375 13.40625 68.65625 
Q 20.21875 74.21875 32.171875 74.21875 
Q 37.3125 74.21875 42.625 73.28125 
Q 47.953125 72.359375 53.515625 70.515625 
z
" id="DejaVuSans-83"/>
       </defs>
       <use xlink:href="#DejaVuSans-77"/>
       <use x="86.279297" xlink:href="#DejaVuSans-85"/>
       <use x="159.472656" xlink:href="#DejaVuSans-83"/>
       <use x="222.949219" xlink:href="#DejaVuSans-83"/>
      </g>
     </g>
    </g>
   </g>
   <g id="text_2">
    <!-- Elaboration -->
    <g transform="translate(74.228516 19.918125)scale(0.12 -0.12)">
     <defs>
      <path d="M 9.8125 72.90625 
L 55.90625 72.90625 
L 55.90625 64.59375 
L 19.671875 64.59375 
L 19.671875 43.015625 
L 54.390625 43.015625 
L 54.390625 34.71875 
L 19.671875 34.71875 
L 19.671875 8.296875 
L 56.78125 8.296875 
L 56.78125 0 
L 9.8125 0 
z
" id="DejaVuSans-69"/>
      <path d="M 9.421875 75.984375 
L 18.40625 75.984375 
L 18.40625 0 
L 9.421875 0 
z
" id="DejaVuSans-108"/>
      <path d="M 34.28125 27.484375 
Q 23.390625 27.484375 19.1875 25 
Q 14.984375 22.515625 14.984375 16.5 
Q 14.984375 11.71875 18.140625 8.90625 
Q 21.296875 6.109375 26.703125 6.109375 
Q 34.1875 6.109375 38.703125 11.40625 
Q 43.21875 16.703125 43.21875 25.484375 
L 43.21875 27.484375 
z
M 52.203125 31.203125 
L 52.203125 0 
L 43.21875 0 
L 43.21875 8.296875 
Q 40.140625 3.328125 35.546875 0.953125 
Q 30.953125 -1.421875 24.3125 -1.421875 
Q 15.921875 -1.421875 10.953125 3.296875 
Q 6 8.015625 6 15.921875 
Q 6 25.140625 12.171875 29.828125 
Q 18.359375 34.515625 30.609375 34.515625 
L 43.21875 34.515625 
L 43.21875 35.40625 
Q 43.21875 41.609375 39.140625 45 
Q 35.0625 48.390625 27.6875 48.390625 
Q 23 48.390625 18.546875 47.265625 
Q 14.109375 46.140625 10.015625 43.890625 
L 10.015625 52.203125 
Q 14.9375 54.109375 19.578125 55.046875 
Q 24.21875 56 28.609375 56 
Q 40.484375 56 46.34375 49.84375 
Q 52.203125 43.703125 52.203125 31.203125 
z
" id="DejaVuSans-97"/>
      <path d="M 48.6875 27.296875 
Q 48.6875 37.203125 44.609375 42.84375 
Q 40.53125 48.484375 33.40625 48.484375 
Q 26.265625 48.484375 22.1875 42.84375 
Q 18.109375 37.203125 18.109375 27.296875 
Q 18.109375 17.390625 22.1875 11.75 
Q 26.265625 6.109375 33.40625 6.109375 
Q 40.53125 6.109375 44.609375 11.75 
Q 48.6875 17.390625 48.6875 27.296875 
z
M 18.109375 46.390625 
Q 20.953125 51.265625 25.265625 53.625 
Q 29.59375 56 35.59375 56 
Q 45.5625 56 51.78125 48.09375 
Q 58.015625 40.1875 58.015625 27.296875 
Q 58.015625 14.40625 51.78125 6.484375 
Q 45.5625 -1.421875 35.59375 -1.421875 
Q 29.59375 -1.421875 25.265625 0.953125 
Q 20.953125 3.328125 18.109375 8.203125 
L 18.109375 0 
L 9.078125 0 
L 9.078125 75.984375 
L 18.109375 75.984375 
z
" id="DejaVuSans-98"/>
      <path d="M 30.609375 48.390625 
Q 23.390625 48.390625 19.1875 42.75 
Q 14.984375 37.109375 14.984375 27.296875 
Q 14.984375 17.484375 19.15625 11.84375 
Q 23.34375 6.203125 30.609375 6.203125 
Q 37.796875 6.203125 41.984375 11.859375 
Q 46.1875 17.53125 46.1875 27.296875 
Q 46.1875 37.015625 41.984375 42.703125 
Q 37.796875 48.390625 30.609375 48.390625 
z
M 30.609375 56 
Q 42.328125 56 49.015625 48.375 
Q 55.71875 40.765625 55.71875 27.296875 
Q 55.71875 13.875 49.015625 6.21875 
Q 42.328125 -1.421875 30.609375 -1.421875 
Q 18.84375 -1.421875 12.171875 6.21875 
Q 5.515625 13.875 5.515625 27.296875 
Q 5.515625 40.765625 12.171875 48.375 
Q 18.84375 56 30.609375 56 
z
" id="DejaVuSans-111"/>
      <path d="M 41.109375 46.296875 
Q 39.59375 47.171875 37.8125 47.578125 
Q 36.03125 48 33.890625 48 
Q 26.265625 48 22.1875 43.046875 
Q 18.109375 38.09375 18.109375 28.8125 
L 18.109375 0 
L 9.078125 0 
L 9.078125 54.6875 
L 18.109375 54.6875 
L 18.109375 46.1875 
Q 20.953125 51.171875 25.484375 53.578125 
Q 30.03125 56 36.53125 56 
Q 37.453125 56 38.578125 55.875 
Q 39.703125 55.765625 41.0625 55.515625 
z
" id="DejaVuSans-114"/>
      <path d="M 18.3125 70.21875 
L 18.3125 54.6875 
L 36.8125 54.6875 
L 36.8125 47.703125 
L 18.3125 47.703125 
L 18.3125 18.015625 
Q 18.3125 11.328125 20.140625 9.421875 
Q 21.96875 7.515625 27.59375 7.515625 
L 36.8125 7.515625 
L 36.8125 0 
L 27.59375 0 
Q 17.1875 0 13.234375 3.875 
Q 9.28125 7.765625 9.28125 18.015625 
L 9.28125 47.703125 
L 2.6875 47.703125 
L 2.6875 54.6875 
L 9.28125 54.6875 
L 9.28125 70.21875 
z
" id="DejaVuSans-116"/>
      <path d="M 9.421875 54.6875 
L 18.40625 54.6875 
L 18.40625 0 
L 9.421875 0 
z
M 9.421875 75.984375 
L 18.40625 75.984375 
L 18.40625 64.59375 
L 9.421875 64.59375 
z
" id="DejaVuSans-105"/>
      <path d="M 54.890625 33.015625 
L 54.890625 0 
L 45.90625 0 
L 45.90625 32.71875 
Q 45.90625 40.484375 42.875 44.328125 
Q 39.84375 48.1875 33.796875 48.1875 
Q 26.515625 48.1875 22.3125 43.546875 
Q 18.109375 38.921875 18.109375 30.90625 
L 18.109375 0 
L 9.078125 0 
L 9.078125 54.6875 
L 18.109375 54.6875 
L 18.109375 46.1875 
Q 21.34375 51.125 25.703125 53.5625 
Q 30.078125 56 35.796875 56 
Q 45.21875 56 50.046875 50.171875 
Q 54.890625 44.34375 54.890625 33.015625 
z
" id="DejaVuSans-110"/>
     </defs>
     <use xlink:href="#DejaVuSans-69"/>
     <use x="63.183594" xlink:href="#DejaVuSans-108"/>
     <use x="90.966797" xlink:href="#DejaVuSans-97"/>
     <use x="152.246094" xlink:href="#DejaVuSans-98"/>
     <use x="215.722656" xlink:href="#DejaVuSans-111"/>
     <use x="276.904297" xlink:href="#DejaVuSans-114"/>
     <use x="318.017578" xlink:href="#DejaVuSans-97"/>
     <use x="379.296875" xlink:href="#DejaVuSans-116"/>
     <use x="418.505859" xlink:href="#DejaVuSans-105"/>
     <use x="446.289062" xlink:href="#DejaVuSans-111"/>
     <use x="507.470703" xlink:href="#DejaVuSans-110"/>
    </g>
   </g>
  </g>
  <g id="axes_2">
   <g id="patch_10">
    <path d="M 174.533594 53.638594 
L 264.684375 53.638594 
L 264.684375 25.918125 
L 174.533594 25.918125 
z
" style="fill:#ffffff;"/>
   </g>
   <g id="patch_11">
    <path clip-path="url(#p1b13cce0c5)" d="M 174.533594 52.378572 
L 174.533594 52.378572 
L 174.533594 27.178146 
L 174.533594 27.178146 
z
" style="opacity:0.8;"/>
   </g>
   <g id="patch_12">
    <path clip-path="url(#p1b13cce0c5)" d="M 174.533594 52.378572 
L 197.649179 52.378572 
L 197.649179 27.178146 
L 174.533594 27.178146 
z
" style="opacity:0.6;"/>
   </g>
   <g id="patch_13">
    <path clip-path="url(#p1b13cce0c5)" d="M 197.649179 52.378572 
L 208.027605 52.378572 
L 208.027605 27.178146 
L 197.649179 27.178146 
z
" style="opacity:0.4;"/>
   </g>
   <g id="patch_14">
    <path clip-path="url(#p1b13cce0c5)" d="M 208.027605 52.378572 
L 208.027605 52.378572 
L 208.027605 27.178146 
L 208.027605 27.178146 
z
" style="fill:#b8b398;opacity:0.2;"/>
   </g>
   <g id="patch_15">
    <path clip-path="url(#p1b13cce0c5)" d="M 208.027605 52.378572 
L 208.027605 52.378572 
L 208.027605 27.178146 
L 208.027605 27.178146 
z
" style="fill:#ee2a2a;opacity:0.4;"/>
   </g>
   <g id="patch_16">
    <path clip-path="url(#p1b13cce0c5)" d="M 208.027605 52.378572 
L 237.275896 52.378572 
L 237.275896 27.178146 
L 208.027605 27.178146 
z
" style="fill:#ee2a2a;opacity:0.6;"/>
   </g>
   <g id="patch_17">
    <path clip-path="url(#p1b13cce0c5)" d="M 237.275896 52.378572 
L 260.391481 52.378572 
L 260.391481 27.178146 
L 237.275896 27.178146 
z
" style="fill:#ee2a2a;opacity:0.8;"/>
   </g>
   <g id="matplotlib.axis_3"/>
   <g id="matplotlib.axis_4">
    <g id="ytick_2">
     <g id="line2d_2">
      <g>
       <use style="stroke:#000000;stroke-width:0.8;" x="174.533594" xlink:href="#m8f1839d15a" y="39.778359"/>
      </g>
     </g>
     <g id="text_3">
      <!--   -->
      <g transform="translate(164.355469 43.577578)scale(0.1 -0.1)">
       <defs>
        <path id="DejaVuSans-32"/>
       </defs>
       <use xlink:href="#DejaVuSans-32"/>
      </g>
     </g>
    </g>
   </g>
   <g id="text_4">
    <!-- Generalization -->
    <g transform="translate(175.977734 19.918125)scale(0.12 -0.12)">
     <defs>
      <path d="M 59.515625 10.40625 
L 59.515625 29.984375 
L 43.40625 29.984375 
L 43.40625 38.09375 
L 69.28125 38.09375 
L 69.28125 6.78125 
Q 63.578125 2.734375 56.6875 0.65625 
Q 49.8125 -1.421875 42 -1.421875 
Q 24.90625 -1.421875 15.25 8.5625 
Q 5.609375 18.5625 5.609375 36.375 
Q 5.609375 54.25 15.25 64.234375 
Q 24.90625 74.21875 42 74.21875 
Q 49.125 74.21875 55.546875 72.453125 
Q 61.96875 70.703125 67.390625 67.28125 
L 67.390625 56.78125 
Q 61.921875 61.421875 55.765625 63.765625 
Q 49.609375 66.109375 42.828125 66.109375 
Q 29.4375 66.109375 22.71875 58.640625 
Q 16.015625 51.171875 16.015625 36.375 
Q 16.015625 21.625 22.71875 14.15625 
Q 29.4375 6.6875 42.828125 6.6875 
Q 48.046875 6.6875 52.140625 7.59375 
Q 56.25 8.5 59.515625 10.40625 
z
" id="DejaVuSans-71"/>
      <path d="M 56.203125 29.59375 
L 56.203125 25.203125 
L 14.890625 25.203125 
Q 15.484375 15.921875 20.484375 11.0625 
Q 25.484375 6.203125 34.421875 6.203125 
Q 39.59375 6.203125 44.453125 7.46875 
Q 49.3125 8.734375 54.109375 11.28125 
L 54.109375 2.78125 
Q 49.265625 0.734375 44.1875 -0.34375 
Q 39.109375 -1.421875 33.890625 -1.421875 
Q 20.796875 -1.421875 13.15625 6.1875 
Q 5.515625 13.8125 5.515625 26.8125 
Q 5.515625 40.234375 12.765625 48.109375 
Q 20.015625 56 32.328125 56 
Q 43.359375 56 49.78125 48.890625 
Q 56.203125 41.796875 56.203125 29.59375 
z
M 47.21875 32.234375 
Q 47.125 39.59375 43.09375 43.984375 
Q 39.0625 48.390625 32.421875 48.390625 
Q 24.90625 48.390625 20.390625 44.140625 
Q 15.875 39.890625 15.1875 32.171875 
z
" id="DejaVuSans-101"/>
      <path d="M 5.515625 54.6875 
L 48.1875 54.6875 
L 48.1875 46.484375 
L 14.40625 7.171875 
L 48.1875 7.171875 
L 48.1875 0 
L 4.296875 0 
L 4.296875 8.203125 
L 38.09375 47.515625 
L 5.515625 47.515625 
z
" id="DejaVuSans-122"/>
     </defs>
     <use xlink:href="#DejaVuSans-71"/>
     <use x="77.490234" xlink:href="#DejaVuSans-101"/>
     <use x="139.013672" xlink:href="#DejaVuSans-110"/>
     <use x="202.392578" xlink:href="#DejaVuSans-101"/>
     <use x="263.916016" xlink:href="#DejaVuSans-114"/>
     <use x="305.029297" xlink:href="#DejaVuSans-97"/>
     <use x="366.308594" xlink:href="#DejaVuSans-108"/>
     <use x="394.091797" xlink:href="#DejaVuSans-105"/>
     <use x="421.875" xlink:href="#DejaVuSans-122"/>
     <use x="474.365234" xlink:href="#DejaVuSans-97"/>
     <use x="535.644531" xlink:href="#DejaVuSans-116"/>
     <use x="574.853516" xlink:href="#DejaVuSans-105"/>
     <use x="602.636719" xlink:href="#DejaVuSans-111"/>
     <use x="663.818359" xlink:href="#DejaVuSans-110"/>
    </g>
   </g>
  </g>
  <g id="axes_3">
   <g id="patch_18">
    <path d="M 285.6625 53.638594 
L 375.813281 53.638594 
L 375.813281 25.918125 
L 285.6625 25.918125 
z
" style="fill:#ffffff;"/>
   </g>
   <g id="patch_19">
    <path clip-path="url(#p894a6c284d)" d="M 285.6625 52.378572 
L 285.6625 52.378572 
L 285.6625 27.178146 
L 285.6625 27.178146 
z
" style="opacity:0.8;"/>
   </g>
   <g id="patch_20">
    <path clip-path="url(#p894a6c284d)" d="M 285.6625 52.378572 
L 285.6625 52.378572 
L 285.6625 27.178146 
L 285.6625 27.178146 
z
" style="opacity:0.6;"/>
   </g>
   <g id="patch_21">
    <path clip-path="url(#p894a6c284d)" d="M 285.6625 52.378572 
L 285.6625 52.378572 
L 285.6625 27.178146 
L 285.6625 27.178146 
z
" style="opacity:0.4;"/>
   </g>
   <g id="patch_22">
    <path clip-path="url(#p894a6c284d)" d="M 285.6625 52.378572 
L 285.6625 52.378572 
L 285.6625 27.178146 
L 285.6625 27.178146 
z
" style="fill:#b8b398;opacity:0.2;"/>
   </g>
   <g id="patch_23">
    <path clip-path="url(#p894a6c284d)" d="M 285.6625 52.378572 
L 342.901091 52.378572 
L 342.901091 27.178146 
L 285.6625 27.178146 
z
" style="fill:#f7ce46;opacity:0.4;"/>
   </g>
   <g id="patch_24">
    <path clip-path="url(#p894a6c284d)" d="M 342.901091 52.378572 
L 342.901091 52.378572 
L 342.901091 27.178146 
L 342.901091 27.178146 
z
" style="fill:#f7ce46;opacity:0.6;"/>
   </g>
   <g id="patch_25">
    <path clip-path="url(#p894a6c284d)" d="M 342.901091 52.378572 
L 371.520387 52.378572 
L 371.520387 27.178146 
L 342.901091 27.178146 
z
" style="fill:#f7ce46;opacity:0.8;"/>
   </g>
   <g id="matplotlib.axis_5"/>
   <g id="matplotlib.axis_6">
    <g id="ytick_3">
     <g id="line2d_3">
      <g>
       <use style="stroke:#000000;stroke-width:0.8;" x="285.6625" xlink:href="#m8f1839d15a" y="39.778359"/>
      </g>
     </g>
     <g id="text_5">
      <!--   -->
      <g transform="translate(275.484375 43.577578)scale(0.1 -0.1)">
       <use xlink:href="#DejaVuSans-32"/>
      </g>
     </g>
    </g>
   </g>
   <g id="text_6">
    <!-- Split -->
    <g transform="translate(317.433828 19.918125)scale(0.12 -0.12)">
     <defs>
      <path d="M 18.109375 8.203125 
L 18.109375 -20.796875 
L 9.078125 -20.796875 
L 9.078125 54.6875 
L 18.109375 54.6875 
L 18.109375 46.390625 
Q 20.953125 51.265625 25.265625 53.625 
Q 29.59375 56 35.59375 56 
Q 45.5625 56 51.78125 48.09375 
Q 58.015625 40.1875 58.015625 27.296875 
Q 58.015625 14.40625 51.78125 6.484375 
Q 45.5625 -1.421875 35.59375 -1.421875 
Q 29.59375 -1.421875 25.265625 0.953125 
Q 20.953125 3.328125 18.109375 8.203125 
z
M 48.6875 27.296875 
Q 48.6875 37.203125 44.609375 42.84375 
Q 40.53125 48.484375 33.40625 48.484375 
Q 26.265625 48.484375 22.1875 42.84375 
Q 18.109375 37.203125 18.109375 27.296875 
Q 18.109375 17.390625 22.1875 11.75 
Q 26.265625 6.109375 33.40625 6.109375 
Q 40.53125 6.109375 44.609375 11.75 
Q 48.6875 17.390625 48.6875 27.296875 
z
" id="DejaVuSans-112"/>
     </defs>
     <use xlink:href="#DejaVuSans-83"/>
     <use x="63.476562" xlink:href="#DejaVuSans-112"/>
     <use x="126.953125" xlink:href="#DejaVuSans-108"/>
     <use x="154.736328" xlink:href="#DejaVuSans-105"/>
     <use x="182.519531" xlink:href="#DejaVuSans-116"/>
    </g>
   </g>
  </g>
  <g id="axes_4">
   <g id="patch_26">
    <path d="M 396.791406 53.638594 
L 486.942187 53.638594 
L 486.942187 25.918125 
L 396.791406 25.918125 
z
" style="fill:#ffffff;"/>
   </g>
   <g id="patch_27">
    <path clip-path="url(#pd085ad0459)" d="M 396.791406 52.378572 
L 396.791406 52.378572 
L 396.791406 27.178146 
L 396.791406 27.178146 
z
" style="opacity:0.8;"/>
   </g>
   <g id="patch_28">
    <path clip-path="url(#pd085ad0459)" d="M 396.791406 52.378572 
L 398.442519 52.378572 
L 398.442519 27.178146 
L 396.791406 27.178146 
z
" style="opacity:0.6;"/>
   </g>
   <g id="patch_29">
    <path clip-path="url(#pd085ad0459)" d="M 398.442519 52.378572 
L 401.744746 52.378572 
L 401.744746 27.178146 
L 398.442519 27.178146 
z
" style="opacity:0.4;"/>
   </g>
   <g id="patch_30">
    <path clip-path="url(#pd085ad0459)" d="M 401.744746 52.378572 
L 421.558104 52.378572 
L 421.558104 27.178146 
L 401.744746 27.178146 
z
" style="fill:#b8b398;opacity:0.2;"/>
   </g>
   <g id="patch_31">
    <path clip-path="url(#pd085ad0459)" d="M 421.558104 52.378572 
L 447.975916 52.378572 
L 447.975916 27.178146 
L 421.558104 27.178146 
z
" style="fill:#ff9f15;opacity:0.4;"/>
   </g>
   <g id="patch_32">
    <path clip-path="url(#pd085ad0459)" d="M 447.975916 52.378572 
L 462.835935 52.378572 
L 462.835935 27.178146 
L 447.975916 27.178146 
z
" style="fill:#ff9f15;opacity:0.6;"/>
   </g>
   <g id="patch_33">
    <path clip-path="url(#pd085ad0459)" d="M 462.835935 52.378572 
L 482.649293 52.378572 
L 482.649293 27.178146 
L 462.835935 27.178146 
z
" style="fill:#ff9f15;opacity:0.8;"/>
   </g>
   <g id="matplotlib.axis_7"/>
   <g id="matplotlib.axis_8">
    <g id="ytick_4">
     <g id="line2d_4">
      <g>
       <use style="stroke:#000000;stroke-width:0.8;" x="396.791406" xlink:href="#m8f1839d15a" y="39.778359"/>
      </g>
     </g>
     <g id="text_7">
      <!--   -->
      <g transform="translate(386.613281 43.577578)scale(0.1 -0.1)">
       <use xlink:href="#DejaVuSans-32"/>
      </g>
     </g>
    </g>
   </g>
   <g id="text_8">
    <!-- Structure -->
    <g transform="translate(413.959297 19.918125)scale(0.12 -0.12)">
     <defs>
      <path d="M 8.5 21.578125 
L 8.5 54.6875 
L 17.484375 54.6875 
L 17.484375 21.921875 
Q 17.484375 14.15625 20.5 10.265625 
Q 23.53125 6.390625 29.59375 6.390625 
Q 36.859375 6.390625 41.078125 11.03125 
Q 45.3125 15.671875 45.3125 23.6875 
L 45.3125 54.6875 
L 54.296875 54.6875 
L 54.296875 0 
L 45.3125 0 
L 45.3125 8.40625 
Q 42.046875 3.421875 37.71875 1 
Q 33.40625 -1.421875 27.6875 -1.421875 
Q 18.265625 -1.421875 13.375 4.4375 
Q 8.5 10.296875 8.5 21.578125 
z
M 31.109375 56 
z
" id="DejaVuSans-117"/>
      <path d="M 48.78125 52.59375 
L 48.78125 44.1875 
Q 44.96875 46.296875 41.140625 47.34375 
Q 37.3125 48.390625 33.40625 48.390625 
Q 24.65625 48.390625 19.8125 42.84375 
Q 14.984375 37.3125 14.984375 27.296875 
Q 14.984375 17.28125 19.8125 11.734375 
Q 24.65625 6.203125 33.40625 6.203125 
Q 37.3125 6.203125 41.140625 7.25 
Q 44.96875 8.296875 48.78125 10.40625 
L 48.78125 2.09375 
Q 45.015625 0.34375 40.984375 -0.53125 
Q 36.96875 -1.421875 32.421875 -1.421875 
Q 20.0625 -1.421875 12.78125 6.34375 
Q 5.515625 14.109375 5.515625 27.296875 
Q 5.515625 40.671875 12.859375 48.328125 
Q 20.21875 56 33.015625 56 
Q 37.15625 56 41.109375 55.140625 
Q 45.0625 54.296875 48.78125 52.59375 
z
" id="DejaVuSans-99"/>
     </defs>
     <use xlink:href="#DejaVuSans-83"/>
     <use x="63.476562" xlink:href="#DejaVuSans-116"/>
     <use x="102.685547" xlink:href="#DejaVuSans-114"/>
     <use x="143.798828" xlink:href="#DejaVuSans-117"/>
     <use x="207.177734" xlink:href="#DejaVuSans-99"/>
     <use x="262.158203" xlink:href="#DejaVuSans-116"/>
     <use x="301.367188" xlink:href="#DejaVuSans-117"/>
     <use x="364.746094" xlink:href="#DejaVuSans-114"/>
     <use x="403.609375" xlink:href="#DejaVuSans-101"/>
    </g>
   </g>
  </g>
  <g id="axes_5">
   <g id="patch_34">
    <path d="M 507.920313 53.638594 
L 598.071094 53.638594 
L 598.071094 25.918125 
L 507.920313 25.918125 
z
" style="fill:#ffffff;"/>
   </g>
   <g id="patch_35">
    <path clip-path="url(#pc078a8a2c5)" d="M 507.920313 52.378572 
L 507.920313 52.378572 
L 507.920313 27.178146 
L 507.920313 27.178146 
z
" style="opacity:0.8;"/>
   </g>
   <g id="patch_36">
    <path clip-path="url(#pc078a8a2c5)" d="M 507.920313 52.378572 
L 515.27956 52.378572 
L 515.27956 27.178146 
L 507.920313 27.178146 
z
" style="opacity:0.6;"/>
   </g>
   <g id="patch_37">
    <path clip-path="url(#pc078a8a2c5)" d="M 515.27956 52.378572 
L 517.732642 52.378572 
L 517.732642 27.178146 
L 515.27956 27.178146 
z
" style="opacity:0.4;"/>
   </g>
   <g id="patch_38">
    <path clip-path="url(#pc078a8a2c5)" d="M 517.732642 52.378572 
L 539.810385 52.378572 
L 539.810385 27.178146 
L 517.732642 27.178146 
z
" style="fill:#b8b398;opacity:0.2;"/>
   </g>
   <g id="patch_39">
    <path clip-path="url(#pc078a8a2c5)" d="M 539.810385 52.378572 
L 571.700457 52.378572 
L 571.700457 27.178146 
L 539.810385 27.178146 
z
" style="fill:#3ca3a7;opacity:0.4;"/>
   </g>
   <g id="patch_40">
    <path clip-path="url(#pc078a8a2c5)" d="M 571.700457 52.378572 
L 591.325117 52.378572 
L 591.325117 27.178146 
L 571.700457 27.178146 
z
" style="fill:#3ca3a7;opacity:0.6;"/>
   </g>
   <g id="patch_41">
    <path clip-path="url(#pc078a8a2c5)" d="M 591.325117 52.378572 
L 593.778199 52.378572 
L 593.778199 27.178146 
L 591.325117 27.178146 
z
" style="fill:#3ca3a7;opacity:0.8;"/>
   </g>
   <g id="matplotlib.axis_9"/>
   <g id="matplotlib.axis_10">
    <g id="ytick_5">
     <g id="line2d_5">
      <g>
       <use style="stroke:#000000;stroke-width:0.8;" x="507.920313" xlink:href="#m8f1839d15a" y="39.778359"/>
      </g>
     </g>
     <g id="text_9">
      <!--   -->
      <g transform="translate(497.742188 43.577578)scale(0.1 -0.1)">
       <use xlink:href="#DejaVuSans-32"/>
      </g>
     </g>
    </g>
   </g>
   <g id="text_10">
    <!-- Reorder -->
    <g transform="translate(529.404453 19.918125)scale(0.12 -0.12)">
     <defs>
      <path d="M 44.390625 34.1875 
Q 47.5625 33.109375 50.5625 29.59375 
Q 53.5625 26.078125 56.59375 19.921875 
L 66.609375 0 
L 56 0 
L 46.6875 18.703125 
Q 43.0625 26.03125 39.671875 28.421875 
Q 36.28125 30.8125 30.421875 30.8125 
L 19.671875 30.8125 
L 19.671875 0 
L 9.8125 0 
L 9.8125 72.90625 
L 32.078125 72.90625 
Q 44.578125 72.90625 50.734375 67.671875 
Q 56.890625 62.453125 56.890625 51.90625 
Q 56.890625 45.015625 53.6875 40.46875 
Q 50.484375 35.9375 44.390625 34.1875 
z
M 19.671875 64.796875 
L 19.671875 38.921875 
L 32.078125 38.921875 
Q 39.203125 38.921875 42.84375 42.21875 
Q 46.484375 45.515625 46.484375 51.90625 
Q 46.484375 58.296875 42.84375 61.546875 
Q 39.203125 64.796875 32.078125 64.796875 
z
" id="DejaVuSans-82"/>
      <path d="M 45.40625 46.390625 
L 45.40625 75.984375 
L 54.390625 75.984375 
L 54.390625 0 
L 45.40625 0 
L 45.40625 8.203125 
Q 42.578125 3.328125 38.25 0.953125 
Q 33.9375 -1.421875 27.875 -1.421875 
Q 17.96875 -1.421875 11.734375 6.484375 
Q 5.515625 14.40625 5.515625 27.296875 
Q 5.515625 40.1875 11.734375 48.09375 
Q 17.96875 56 27.875 56 
Q 33.9375 56 38.25 53.625 
Q 42.578125 51.265625 45.40625 46.390625 
z
M 14.796875 27.296875 
Q 14.796875 17.390625 18.875 11.75 
Q 22.953125 6.109375 30.078125 6.109375 
Q 37.203125 6.109375 41.296875 11.75 
Q 45.40625 17.390625 45.40625 27.296875 
Q 45.40625 37.203125 41.296875 42.84375 
Q 37.203125 48.484375 30.078125 48.484375 
Q 22.953125 48.484375 18.875 42.84375 
Q 14.796875 37.203125 14.796875 27.296875 
z
" id="DejaVuSans-100"/>
     </defs>
     <use xlink:href="#DejaVuSans-82"/>
     <use x="64.982422" xlink:href="#DejaVuSans-101"/>
     <use x="126.505859" xlink:href="#DejaVuSans-111"/>
     <use x="187.6875" xlink:href="#DejaVuSans-114"/>
     <use x="227.050781" xlink:href="#DejaVuSans-100"/>
     <use x="290.527344" xlink:href="#DejaVuSans-101"/>
     <use x="352.050781" xlink:href="#DejaVuSans-114"/>
    </g>
   </g>
  </g>
  <g id="axes_6">
   <g id="patch_42">
    <path d="M 619.049219 53.638594 
L 709.2 53.638594 
L 709.2 25.918125 
L 619.049219 25.918125 
z
" style="fill:#ffffff;"/>
   </g>
   <g id="patch_43">
    <path clip-path="url(#pd66a5a62ef)" d="M 619.049219 52.378572 
L 620.603208 52.378572 
L 620.603208 27.178146 
L 619.049219 27.178146 
z
" style="opacity:0.8;"/>
   </g>
   <g id="patch_44">
    <path clip-path="url(#pd66a5a62ef)" d="M 620.603208 52.378572 
L 627.20766 52.378572 
L 627.20766 27.178146 
L 620.603208 27.178146 
z
" style="opacity:0.6;"/>
   </g>
   <g id="patch_45">
    <path clip-path="url(#pd66a5a62ef)" d="M 627.20766 52.378572 
L 629.150147 52.378572 
L 629.150147 27.178146 
L 627.20766 27.178146 
z
" style="opacity:0.4;"/>
   </g>
   <g id="patch_46">
    <path clip-path="url(#pd66a5a62ef)" d="M 629.150147 52.378572 
L 637.697086 52.378572 
L 637.697086 27.178146 
L 629.150147 27.178146 
z
" style="fill:#b8b398;opacity:0.2;"/>
   </g>
   <g id="patch_47">
    <path clip-path="url(#pd66a5a62ef)" d="M 637.697086 52.378572 
L 657.121947 52.378572 
L 657.121947 27.178146 
L 637.697086 27.178146 
z
" style="fill:#2186eb;opacity:0.4;"/>
   </g>
   <g id="patch_48">
    <path clip-path="url(#pd66a5a62ef)" d="M 657.121947 52.378572 
L 674.604322 52.378572 
L 674.604322 27.178146 
L 657.121947 27.178146 
z
" style="fill:#2186eb;opacity:0.6;"/>
   </g>
   <g id="patch_49">
    <path clip-path="url(#pd66a5a62ef)" d="M 674.604322 52.378572 
L 704.907106 52.378572 
L 704.907106 27.178146 
L 674.604322 27.178146 
z
" style="fill:#2186eb;opacity:0.8;"/>
   </g>
   <g id="matplotlib.axis_11"/>
   <g id="matplotlib.axis_12">
    <g id="ytick_6">
     <g id="line2d_6">
      <g>
       <use style="stroke:#000000;stroke-width:0.8;" x="619.049219" xlink:href="#m8f1839d15a" y="39.778359"/>
      </g>
     </g>
     <g id="text_11">
      <!--   -->
      <g transform="translate(608.871094 43.577578)scale(0.1 -0.1)">
       <use xlink:href="#DejaVuSans-32"/>
      </g>
     </g>
    </g>
   </g>
   <g id="text_12">
    <!-- Paraphrase -->
    <g transform="translate(630.383984 19.918125)scale(0.12 -0.12)">
     <defs>
      <path d="M 19.671875 64.796875 
L 19.671875 37.40625 
L 32.078125 37.40625 
Q 38.96875 37.40625 42.71875 40.96875 
Q 46.484375 44.53125 46.484375 51.125 
Q 46.484375 57.671875 42.71875 61.234375 
Q 38.96875 64.796875 32.078125 64.796875 
z
M 9.8125 72.90625 
L 32.078125 72.90625 
Q 44.34375 72.90625 50.609375 67.359375 
Q 56.890625 61.8125 56.890625 51.125 
Q 56.890625 40.328125 50.609375 34.8125 
Q 44.34375 29.296875 32.078125 29.296875 
L 19.671875 29.296875 
L 19.671875 0 
L 9.8125 0 
z
" id="DejaVuSans-80"/>
      <path d="M 54.890625 33.015625 
L 54.890625 0 
L 45.90625 0 
L 45.90625 32.71875 
Q 45.90625 40.484375 42.875 44.328125 
Q 39.84375 48.1875 33.796875 48.1875 
Q 26.515625 48.1875 22.3125 43.546875 
Q 18.109375 38.921875 18.109375 30.90625 
L 18.109375 0 
L 9.078125 0 
L 9.078125 75.984375 
L 18.109375 75.984375 
L 18.109375 46.1875 
Q 21.34375 51.125 25.703125 53.5625 
Q 30.078125 56 35.796875 56 
Q 45.21875 56 50.046875 50.171875 
Q 54.890625 44.34375 54.890625 33.015625 
z
" id="DejaVuSans-104"/>
      <path d="M 44.28125 53.078125 
L 44.28125 44.578125 
Q 40.484375 46.53125 36.375 47.5 
Q 32.28125 48.484375 27.875 48.484375 
Q 21.1875 48.484375 17.84375 46.4375 
Q 14.5 44.390625 14.5 40.28125 
Q 14.5 37.15625 16.890625 35.375 
Q 19.28125 33.59375 26.515625 31.984375 
L 29.59375 31.296875 
Q 39.15625 29.25 43.1875 25.515625 
Q 47.21875 21.78125 47.21875 15.09375 
Q 47.21875 7.46875 41.1875 3.015625 
Q 35.15625 -1.421875 24.609375 -1.421875 
Q 20.21875 -1.421875 15.453125 -0.5625 
Q 10.6875 0.296875 5.421875 2 
L 5.421875 11.28125 
Q 10.40625 8.6875 15.234375 7.390625 
Q 20.0625 6.109375 24.8125 6.109375 
Q 31.15625 6.109375 34.5625 8.28125 
Q 37.984375 10.453125 37.984375 14.40625 
Q 37.984375 18.0625 35.515625 20.015625 
Q 33.0625 21.96875 24.703125 23.78125 
L 21.578125 24.515625 
Q 13.234375 26.265625 9.515625 29.90625 
Q 5.8125 33.546875 5.8125 39.890625 
Q 5.8125 47.609375 11.28125 51.796875 
Q 16.75 56 26.8125 56 
Q 31.78125 56 36.171875 55.265625 
Q 40.578125 54.546875 44.28125 53.078125 
z
" id="DejaVuSans-115"/>
     </defs>
     <use xlink:href="#DejaVuSans-80"/>
     <use x="55.802734" xlink:href="#DejaVuSans-97"/>
     <use x="117.082031" xlink:href="#DejaVuSans-114"/>
     <use x="158.195312" xlink:href="#DejaVuSans-97"/>
     <use x="219.474609" xlink:href="#DejaVuSans-112"/>
     <use x="282.951172" xlink:href="#DejaVuSans-104"/>
     <use x="346.330078" xlink:href="#DejaVuSans-114"/>
     <use x="387.443359" xlink:href="#DejaVuSans-97"/>
     <use x="448.722656" xlink:href="#DejaVuSans-115"/>
     <use x="500.822266" xlink:href="#DejaVuSans-101"/>
    </g>
   </g>
  </g>
  <g id="axes_7">
   <g id="patch_50">
    <path d="M 63.404688 92.159063 
L 153.555469 92.159063 
L 153.555469 64.438594 
L 63.404688 64.438594 
z
" style="fill:#ffffff;"/>
   </g>
   <g id="patch_51">
    <path clip-path="url(#pe1c8cb753f)" d="M 63.404688 90.899041 
L 63.404688 90.899041 
L 63.404688 65.698615 
L 63.404688 65.698615 
z
" style="opacity:0.8;"/>
   </g>
   <g id="patch_52">
    <path clip-path="url(#pe1c8cb753f)" d="M 63.404688 90.899041 
L 67.697582 90.899041 
L 67.697582 65.698615 
L 63.404688 65.698615 
z
" style="opacity:0.6;"/>
   </g>
   <g id="patch_53">
    <path clip-path="url(#pe1c8cb753f)" d="M 67.697582 90.899041 
L 67.697582 90.899041 
L 67.697582 65.698615 
L 67.697582 65.698615 
z
" style="opacity:0.4;"/>
   </g>
   <g id="patch_54">
    <path clip-path="url(#pe1c8cb753f)" d="M 67.697582 90.899041 
L 99.894289 90.899041 
L 99.894289 65.698615 
L 67.697582 65.698615 
z
" style="fill:#b8b398;opacity:0.2;"/>
   </g>
   <g id="patch_55">
    <path clip-path="url(#pe1c8cb753f)" d="M 99.894289 90.899041 
L 112.772972 90.899041 
L 112.772972 65.698615 
L 99.894289 65.698615 
z
" style="fill:#64c466;opacity:0.4;"/>
   </g>
   <g id="patch_56">
    <path clip-path="url(#pe1c8cb753f)" d="M 112.772972 90.899041 
L 140.676786 90.899041 
L 140.676786 65.698615 
L 112.772972 65.698615 
z
" style="fill:#64c466;opacity:0.6;"/>
   </g>
   <g id="patch_57">
    <path clip-path="url(#pe1c8cb753f)" d="M 140.676786 90.899041 
L 149.262574 90.899041 
L 149.262574 65.698615 
L 140.676786 65.698615 
z
" style="fill:#64c466;opacity:0.8;"/>
   </g>
   <g id="matplotlib.axis_13"/>
   <g id="matplotlib.axis_14">
    <g id="ytick_7">
     <g id="line2d_7">
      <g>
       <use style="stroke:#000000;stroke-width:0.8;" x="63.404688" xlink:href="#m8f1839d15a" y="78.298828"/>
      </g>
     </g>
     <g id="text_13">
      <!-- GPT-Zero -->
      <g transform="translate(10.815625 82.098047)scale(0.1 -0.1)">
       <defs>
        <path d="M -0.296875 72.90625 
L 61.375 72.90625 
L 61.375 64.59375 
L 35.5 64.59375 
L 35.5 0 
L 25.59375 0 
L 25.59375 64.59375 
L -0.296875 64.59375 
z
" id="DejaVuSans-84"/>
        <path d="M 4.890625 31.390625 
L 31.203125 31.390625 
L 31.203125 23.390625 
L 4.890625 23.390625 
z
" id="DejaVuSans-45"/>
        <path d="M 5.609375 72.90625 
L 62.890625 72.90625 
L 62.890625 65.375 
L 16.796875 8.296875 
L 64.015625 8.296875 
L 64.015625 0 
L 4.5 0 
L 4.5 7.515625 
L 50.59375 64.59375 
L 5.609375 64.59375 
z
" id="DejaVuSans-90"/>
       </defs>
       <use xlink:href="#DejaVuSans-71"/>
       <use x="77.490234" xlink:href="#DejaVuSans-80"/>
       <use x="137.792969" xlink:href="#DejaVuSans-84"/>
       <use x="189.751953" xlink:href="#DejaVuSans-45"/>
       <use x="225.835938" xlink:href="#DejaVuSans-90"/>
       <use x="294.341797" xlink:href="#DejaVuSans-101"/>
       <use x="355.865234" xlink:href="#DejaVuSans-114"/>
       <use x="394.728516" xlink:href="#DejaVuSans-111"/>
      </g>
     </g>
    </g>
   </g>
  </g>
  <g id="axes_8">
   <g id="patch_58">
    <path d="M 174.533594 92.159063 
L 264.684375 92.159063 
L 264.684375 64.438594 
L 174.533594 64.438594 
z
" style="fill:#ffffff;"/>
   </g>
   <g id="patch_59">
    <path clip-path="url(#pe4a42d9efa)" d="M 174.533594 90.899041 
L 174.533594 90.899041 
L 174.533594 65.698615 
L 174.533594 65.698615 
z
" style="opacity:0.8;"/>
   </g>
   <g id="patch_60">
    <path clip-path="url(#pe4a42d9efa)" d="M 174.533594 90.899041 
L 185.922905 90.899041 
L 185.922905 65.698615 
L 174.533594 65.698615 
z
" style="opacity:0.6;"/>
   </g>
   <g id="patch_61">
    <path clip-path="url(#pe4a42d9efa)" d="M 185.922905 90.899041 
L 190.30341 90.899041 
L 190.30341 65.698615 
L 185.922905 65.698615 
z
" style="opacity:0.4;"/>
   </g>
   <g id="patch_62">
    <path clip-path="url(#pe4a42d9efa)" d="M 190.30341 90.899041 
L 190.30341 90.899041 
L 190.30341 65.698615 
L 190.30341 65.698615 
z
" style="fill:#b8b398;opacity:0.2;"/>
   </g>
   <g id="patch_63">
    <path clip-path="url(#pe4a42d9efa)" d="M 190.30341 90.899041 
L 190.30341 90.899041 
L 190.30341 65.698615 
L 190.30341 65.698615 
z
" style="fill:#ee2a2a;opacity:0.4;"/>
   </g>
   <g id="patch_64">
    <path clip-path="url(#pe4a42d9efa)" d="M 190.30341 90.899041 
L 227.975748 90.899041 
L 227.975748 65.698615 
L 190.30341 65.698615 
z
" style="fill:#ee2a2a;opacity:0.6;"/>
   </g>
   <g id="patch_65">
    <path clip-path="url(#pe4a42d9efa)" d="M 227.975748 90.899041 
L 260.391481 90.899041 
L 260.391481 65.698615 
L 227.975748 65.698615 
z
" style="fill:#ee2a2a;opacity:0.8;"/>
   </g>
   <g id="matplotlib.axis_15"/>
   <g id="matplotlib.axis_16">
    <g id="ytick_8">
     <g id="line2d_8">
      <g>
       <use style="stroke:#000000;stroke-width:0.8;" x="174.533594" xlink:href="#m8f1839d15a" y="78.298828"/>
      </g>
     </g>
     <g id="text_14">
      <!--   -->
      <g transform="translate(164.355469 82.098047)scale(0.1 -0.1)">
       <use xlink:href="#DejaVuSans-32"/>
      </g>
     </g>
    </g>
   </g>
  </g>
  <g id="axes_9">
   <g id="patch_66">
    <path d="M 285.6625 92.159063 
L 375.813281 92.159063 
L 375.813281 64.438594 
L 285.6625 64.438594 
z
" style="fill:#ffffff;"/>
   </g>
   <g id="patch_67">
    <path clip-path="url(#p5f8cc0bd0a)" d="M 285.6625 90.899041 
L 285.6625 90.899041 
L 285.6625 65.698615 
L 285.6625 65.698615 
z
" style="opacity:0.8;"/>
   </g>
   <g id="patch_68">
    <path clip-path="url(#p5f8cc0bd0a)" d="M 285.6625 90.899041 
L 291.028618 90.899041 
L 291.028618 65.698615 
L 285.6625 65.698615 
z
" style="opacity:0.6;"/>
   </g>
   <g id="patch_69">
    <path clip-path="url(#p5f8cc0bd0a)" d="M 291.028618 90.899041 
L 291.028618 90.899041 
L 291.028618 65.698615 
L 291.028618 65.698615 
z
" style="opacity:0.4;"/>
   </g>
   <g id="patch_70">
    <path clip-path="url(#p5f8cc0bd0a)" d="M 291.028618 90.899041 
L 293.711677 90.899041 
L 293.711677 65.698615 
L 291.028618 65.698615 
z
" style="fill:#b8b398;opacity:0.2;"/>
   </g>
   <g id="patch_71">
    <path clip-path="url(#p5f8cc0bd0a)" d="M 293.711677 90.899041 
L 323.225326 90.899041 
L 323.225326 65.698615 
L 293.711677 65.698615 
z
" style="fill:#f7ce46;opacity:0.4;"/>
   </g>
   <g id="patch_72">
    <path clip-path="url(#p5f8cc0bd0a)" d="M 323.225326 90.899041 
L 358.105092 90.899041 
L 358.105092 65.698615 
L 323.225326 65.698615 
z
" style="fill:#f7ce46;opacity:0.6;"/>
   </g>
   <g id="patch_73">
    <path clip-path="url(#p5f8cc0bd0a)" d="M 358.105092 90.899041 
L 371.520387 90.899041 
L 371.520387 65.698615 
L 358.105092 65.698615 
z
" style="fill:#f7ce46;opacity:0.8;"/>
   </g>
   <g id="matplotlib.axis_17"/>
   <g id="matplotlib.axis_18">
    <g id="ytick_9">
     <g id="line2d_9">
      <g>
       <use style="stroke:#000000;stroke-width:0.8;" x="285.6625" xlink:href="#m8f1839d15a" y="78.298828"/>
      </g>
     </g>
     <g id="text_15">
      <!--   -->
      <g transform="translate(275.484375 82.098047)scale(0.1 -0.1)">
       <use xlink:href="#DejaVuSans-32"/>
      </g>
     </g>
    </g>
   </g>
  </g>
  <g id="axes_10">
   <g id="patch_74">
    <path d="M 396.791406 92.159063 
L 486.942187 92.159063 
L 486.942187 64.438594 
L 396.791406 64.438594 
z
" style="fill:#ffffff;"/>
   </g>
   <g id="patch_75">
    <path clip-path="url(#p8e28b679b7)" d="M 396.791406 90.899041 
L 396.791406 90.899041 
L 396.791406 65.698615 
L 396.791406 65.698615 
z
" style="opacity:0.8;"/>
   </g>
   <g id="patch_76">
    <path clip-path="url(#p8e28b679b7)" d="M 396.791406 90.899041 
L 399.143677 90.899041 
L 399.143677 65.698615 
L 396.791406 65.698615 
z
" style="opacity:0.6;"/>
   </g>
   <g id="patch_77">
    <path clip-path="url(#p8e28b679b7)" d="M 399.143677 90.899041 
L 401.495948 90.899041 
L 401.495948 65.698615 
L 399.143677 65.698615 
z
" style="opacity:0.4;"/>
   </g>
   <g id="patch_78">
    <path clip-path="url(#p8e28b679b7)" d="M 401.495948 90.899041 
L 417.961844 90.899041 
L 417.961844 65.698615 
L 401.495948 65.698615 
z
" style="fill:#b8b398;opacity:0.2;"/>
   </g>
   <g id="patch_79">
    <path clip-path="url(#p8e28b679b7)" d="M 417.961844 90.899041 
L 454.422043 90.899041 
L 454.422043 65.698615 
L 417.961844 65.698615 
z
" style="fill:#ff9f15;opacity:0.4;"/>
   </g>
   <g id="patch_80">
    <path clip-path="url(#p8e28b679b7)" d="M 454.422043 90.899041 
L 468.535668 90.899041 
L 468.535668 65.698615 
L 454.422043 65.698615 
z
" style="fill:#ff9f15;opacity:0.6;"/>
   </g>
   <g id="patch_81">
    <path clip-path="url(#p8e28b679b7)" d="M 468.535668 90.899041 
L 482.649293 90.899041 
L 482.649293 65.698615 
L 468.535668 65.698615 
z
" style="fill:#ff9f15;opacity:0.8;"/>
   </g>
   <g id="matplotlib.axis_19"/>
   <g id="matplotlib.axis_20">
    <g id="ytick_10">
     <g id="line2d_10">
      <g>
       <use style="stroke:#000000;stroke-width:0.8;" x="396.791406" xlink:href="#m8f1839d15a" y="78.298828"/>
      </g>
     </g>
     <g id="text_16">
      <!--   -->
      <g transform="translate(386.613281 82.098047)scale(0.1 -0.1)">
       <use xlink:href="#DejaVuSans-32"/>
      </g>
     </g>
    </g>
   </g>
  </g>
  <g id="axes_11">
   <g id="patch_82">
    <path d="M 507.920313 92.159063 
L 598.071094 92.159063 
L 598.071094 64.438594 
L 507.920313 64.438594 
z
" style="fill:#ffffff;"/>
   </g>
   <g id="patch_83">
    <path clip-path="url(#p4c5d66f5cf)" d="M 507.920313 90.899041 
L 507.920313 90.899041 
L 507.920313 65.698615 
L 507.920313 65.698615 
z
" style="opacity:0.8;"/>
   </g>
   <g id="patch_84">
    <path clip-path="url(#p4c5d66f5cf)" d="M 507.920313 90.899041 
L 514.524765 90.899041 
L 514.524765 65.698615 
L 507.920313 65.698615 
z
" style="opacity:0.6;"/>
   </g>
   <g id="patch_85">
    <path clip-path="url(#p4c5d66f5cf)" d="M 514.524765 90.899041 
L 516.72625 90.899041 
L 516.72625 65.698615 
L 514.524765 65.698615 
z
" style="opacity:0.4;"/>
   </g>
   <g id="patch_86">
    <path clip-path="url(#p4c5d66f5cf)" d="M 516.72625 90.899041 
L 529.935155 90.899041 
L 529.935155 65.698615 
L 516.72625 65.698615 
z
" style="fill:#b8b398;opacity:0.2;"/>
   </g>
   <g id="patch_87">
    <path clip-path="url(#p4c5d66f5cf)" d="M 529.935155 90.899041 
L 560.755935 90.899041 
L 560.755935 65.698615 
L 529.935155 65.698615 
z
" style="fill:#3ca3a7;opacity:0.4;"/>
   </g>
   <g id="patch_88">
    <path clip-path="url(#p4c5d66f5cf)" d="M 560.755935 90.899041 
L 591.576715 90.899041 
L 591.576715 65.698615 
L 560.755935 65.698615 
z
" style="fill:#3ca3a7;opacity:0.6;"/>
   </g>
   <g id="patch_89">
    <path clip-path="url(#p4c5d66f5cf)" d="M 591.576715 90.899041 
L 593.778199 90.899041 
L 593.778199 65.698615 
L 591.576715 65.698615 
z
" style="fill:#3ca3a7;opacity:0.8;"/>
   </g>
   <g id="matplotlib.axis_21"/>
   <g id="matplotlib.axis_22">
    <g id="ytick_11">
     <g id="line2d_11">
      <g>
       <use style="stroke:#000000;stroke-width:0.8;" x="507.920313" xlink:href="#m8f1839d15a" y="78.298828"/>
      </g>
     </g>
     <g id="text_17">
      <!--   -->
      <g transform="translate(497.742188 82.098047)scale(0.1 -0.1)">
       <use xlink:href="#DejaVuSans-32"/>
      </g>
     </g>
    </g>
   </g>
  </g>
  <g id="axes_12">
   <g id="patch_90">
    <path d="M 619.049219 92.159063 
L 709.2 92.159063 
L 709.2 64.438594 
L 619.049219 64.438594 
z
" style="fill:#ffffff;"/>
   </g>
   <g id="patch_91">
    <path clip-path="url(#pd56b86c4f9)" d="M 619.049219 90.899041 
L 620.401311 90.899041 
L 620.401311 65.698615 
L 619.049219 65.698615 
z
" style="opacity:0.8;"/>
   </g>
   <g id="patch_92">
    <path clip-path="url(#pd56b86c4f9)" d="M 620.401311 90.899041 
L 622.429451 90.899041 
L 622.429451 65.698615 
L 620.401311 65.698615 
z
" style="opacity:0.6;"/>
   </g>
   <g id="patch_93">
    <path clip-path="url(#pd56b86c4f9)" d="M 622.429451 90.899041 
L 622.429451 90.899041 
L 622.429451 65.698615 
L 622.429451 65.698615 
z
" style="opacity:0.4;"/>
   </g>
   <g id="patch_94">
    <path clip-path="url(#pd56b86c4f9)" d="M 622.429451 90.899041 
L 629.189914 90.899041 
L 629.189914 65.698615 
L 622.429451 65.698615 
z
" style="fill:#b8b398;opacity:0.2;"/>
   </g>
   <g id="patch_95">
    <path clip-path="url(#pd56b86c4f9)" d="M 629.189914 90.899041 
L 646.767119 90.899041 
L 646.767119 65.698615 
L 629.189914 65.698615 
z
" style="fill:#2186eb;opacity:0.4;"/>
   </g>
   <g id="patch_96">
    <path clip-path="url(#pd56b86c4f9)" d="M 646.767119 90.899041 
L 675.161066 90.899041 
L 675.161066 65.698615 
L 646.767119 65.698615 
z
" style="fill:#2186eb;opacity:0.6;"/>
   </g>
   <g id="patch_97">
    <path clip-path="url(#pd56b86c4f9)" d="M 675.161066 90.899041 
L 704.907106 90.899041 
L 704.907106 65.698615 
L 675.161066 65.698615 
z
" style="fill:#2186eb;opacity:0.8;"/>
   </g>
   <g id="matplotlib.axis_23"/>
   <g id="matplotlib.axis_24">
    <g id="ytick_12">
     <g id="line2d_12">
      <g>
       <use style="stroke:#000000;stroke-width:0.8;" x="619.049219" xlink:href="#m8f1839d15a" y="78.298828"/>
      </g>
     </g>
     <g id="text_18">
      <!--   -->
      <g transform="translate(608.871094 82.098047)scale(0.1 -0.1)">
       <use xlink:href="#DejaVuSans-32"/>
      </g>
     </g>
    </g>
   </g>
  </g>
  <g id="axes_13">
   <g id="patch_98">
    <path d="M 63.404688 130.679531 
L 153.555469 130.679531 
L 153.555469 102.959063 
L 63.404688 102.959063 
z
" style="fill:#ffffff;"/>
   </g>
   <g id="patch_99">
    <path clip-path="url(#p1d3beab3ca)" d="M 63.404688 129.41951 
L 63.404688 129.41951 
L 63.404688 104.219084 
L 63.404688 104.219084 
z
" style="opacity:0.8;"/>
   </g>
   <g id="patch_100">
    <path clip-path="url(#p1d3beab3ca)" d="M 63.404688 129.41951 
L 65.789629 129.41951 
L 65.789629 104.219084 
L 63.404688 104.219084 
z
" style="opacity:0.6;"/>
   </g>
   <g id="patch_101">
    <path clip-path="url(#p1d3beab3ca)" d="M 65.789629 129.41951 
L 65.789629 129.41951 
L 65.789629 104.219084 
L 65.789629 104.219084 
z
" style="opacity:0.4;"/>
   </g>
   <g id="patch_102">
    <path clip-path="url(#p1d3beab3ca)" d="M 65.789629 129.41951 
L 105.14116 129.41951 
L 105.14116 104.219084 
L 65.789629 104.219084 
z
" style="fill:#b8b398;opacity:0.2;"/>
   </g>
   <g id="patch_103">
    <path clip-path="url(#p1d3beab3ca)" d="M 105.14116 129.41951 
L 114.680926 129.41951 
L 114.680926 104.219084 
L 105.14116 104.219084 
z
" style="fill:#64c466;opacity:0.4;"/>
   </g>
   <g id="patch_104">
    <path clip-path="url(#p1d3beab3ca)" d="M 114.680926 129.41951 
L 143.300221 129.41951 
L 143.300221 104.219084 
L 114.680926 104.219084 
z
" style="fill:#64c466;opacity:0.6;"/>
   </g>
   <g id="patch_105">
    <path clip-path="url(#p1d3beab3ca)" d="M 143.300221 129.41951 
L 149.262574 129.41951 
L 149.262574 104.219084 
L 143.300221 104.219084 
z
" style="fill:#64c466;opacity:0.8;"/>
   </g>
   <g id="matplotlib.axis_25"/>
   <g id="matplotlib.axis_26">
    <g id="ytick_13">
     <g id="line2d_13">
      <g>
       <use style="stroke:#000000;stroke-width:0.8;" x="63.404688" xlink:href="#m8f1839d15a" y="116.819297"/>
      </g>
     </g>
     <g id="text_19">
      <!-- GPT-Few -->
      <g transform="translate(14.290625 120.618516)scale(0.1 -0.1)">
       <defs>
        <path d="M 9.8125 72.90625 
L 51.703125 72.90625 
L 51.703125 64.59375 
L 19.671875 64.59375 
L 19.671875 43.109375 
L 48.578125 43.109375 
L 48.578125 34.8125 
L 19.671875 34.8125 
L 19.671875 0 
L 9.8125 0 
z
" id="DejaVuSans-70"/>
        <path d="M 4.203125 54.6875 
L 13.1875 54.6875 
L 24.421875 12.015625 
L 35.59375 54.6875 
L 46.1875 54.6875 
L 57.421875 12.015625 
L 68.609375 54.6875 
L 77.59375 54.6875 
L 63.28125 0 
L 52.6875 0 
L 40.921875 44.828125 
L 29.109375 0 
L 18.5 0 
z
" id="DejaVuSans-119"/>
       </defs>
       <use xlink:href="#DejaVuSans-71"/>
       <use x="77.490234" xlink:href="#DejaVuSans-80"/>
       <use x="137.792969" xlink:href="#DejaVuSans-84"/>
       <use x="189.751953" xlink:href="#DejaVuSans-45"/>
       <use x="225.835938" xlink:href="#DejaVuSans-70"/>
       <use x="277.855469" xlink:href="#DejaVuSans-101"/>
       <use x="339.378906" xlink:href="#DejaVuSans-119"/>
      </g>
     </g>
    </g>
   </g>
  </g>
  <g id="axes_14">
   <g id="patch_106">
    <path d="M 174.533594 130.679531 
L 264.684375 130.679531 
L 264.684375 102.959063 
L 174.533594 102.959063 
z
" style="fill:#ffffff;"/>
   </g>
   <g id="patch_107">
    <path clip-path="url(#pbc5e2b1dbf)" d="M 174.533594 129.41951 
L 174.533594 129.41951 
L 174.533594 104.219084 
L 174.533594 104.219084 
z
" style="opacity:0.8;"/>
   </g>
   <g id="patch_108">
    <path clip-path="url(#pbc5e2b1dbf)" d="M 174.533594 129.41951 
L 186.799006 129.41951 
L 186.799006 104.219084 
L 174.533594 104.219084 
z
" style="opacity:0.6;"/>
   </g>
   <g id="patch_109">
    <path clip-path="url(#pbc5e2b1dbf)" d="M 186.799006 129.41951 
L 188.843242 129.41951 
L 188.843242 104.219084 
L 186.799006 104.219084 
z
" style="opacity:0.4;"/>
   </g>
   <g id="patch_110">
    <path clip-path="url(#pbc5e2b1dbf)" d="M 188.843242 129.41951 
L 188.843242 129.41951 
L 188.843242 104.219084 
L 188.843242 104.219084 
z
" style="fill:#b8b398;opacity:0.2;"/>
   </g>
   <g id="patch_111">
    <path clip-path="url(#pbc5e2b1dbf)" d="M 188.843242 129.41951 
L 188.843242 129.41951 
L 188.843242 104.219084 
L 188.843242 104.219084 
z
" style="fill:#ee2a2a;opacity:0.4;"/>
   </g>
   <g id="patch_112">
    <path clip-path="url(#pbc5e2b1dbf)" d="M 188.843242 129.41951 
L 224.106302 129.41951 
L 224.106302 104.219084 
L 188.843242 104.219084 
z
" style="fill:#ee2a2a;opacity:0.6;"/>
   </g>
   <g id="patch_113">
    <path clip-path="url(#pbc5e2b1dbf)" d="M 224.106302 129.41951 
L 260.391481 129.41951 
L 260.391481 104.219084 
L 224.106302 104.219084 
z
" style="fill:#ee2a2a;opacity:0.8;"/>
   </g>
   <g id="matplotlib.axis_27"/>
   <g id="matplotlib.axis_28">
    <g id="ytick_14">
     <g id="line2d_14">
      <g>
       <use style="stroke:#000000;stroke-width:0.8;" x="174.533594" xlink:href="#m8f1839d15a" y="116.819297"/>
      </g>
     </g>
     <g id="text_20">
      <!--   -->
      <g transform="translate(164.355469 120.618516)scale(0.1 -0.1)">
       <use xlink:href="#DejaVuSans-32"/>
      </g>
     </g>
    </g>
   </g>
  </g>
  <g id="axes_15">
   <g id="patch_114">
    <path d="M 285.6625 130.679531 
L 375.813281 130.679531 
L 375.813281 102.959063 
L 285.6625 102.959063 
z
" style="fill:#ffffff;"/>
   </g>
   <g id="patch_115">
    <path clip-path="url(#p69b387aaf5)" d="M 285.6625 129.41951 
L 285.6625 129.41951 
L 285.6625 104.219084 
L 285.6625 104.219084 
z
" style="opacity:0.8;"/>
   </g>
   <g id="patch_116">
    <path clip-path="url(#p69b387aaf5)" d="M 285.6625 129.41951 
L 288.842422 129.41951 
L 288.842422 104.219084 
L 285.6625 104.219084 
z
" style="opacity:0.6;"/>
   </g>
   <g id="patch_117">
    <path clip-path="url(#p69b387aaf5)" d="M 288.842422 129.41951 
L 292.022343 129.41951 
L 292.022343 104.219084 
L 288.842422 104.219084 
z
" style="opacity:0.4;"/>
   </g>
   <g id="patch_118">
    <path clip-path="url(#p69b387aaf5)" d="M 292.022343 129.41951 
L 292.022343 129.41951 
L 292.022343 104.219084 
L 292.022343 104.219084 
z
" style="fill:#b8b398;opacity:0.2;"/>
   </g>
   <g id="patch_119">
    <path clip-path="url(#p69b387aaf5)" d="M 292.022343 129.41951 
L 311.101874 129.41951 
L 311.101874 104.219084 
L 292.022343 104.219084 
z
" style="fill:#f7ce46;opacity:0.4;"/>
   </g>
   <g id="patch_120">
    <path clip-path="url(#p69b387aaf5)" d="M 311.101874 129.41951 
L 355.620778 129.41951 
L 355.620778 104.219084 
L 311.101874 104.219084 
z
" style="fill:#f7ce46;opacity:0.6;"/>
   </g>
   <g id="patch_121">
    <path clip-path="url(#p69b387aaf5)" d="M 355.620778 129.41951 
L 371.520387 129.41951 
L 371.520387 104.219084 
L 355.620778 104.219084 
z
" style="fill:#f7ce46;opacity:0.8;"/>
   </g>
   <g id="matplotlib.axis_29"/>
   <g id="matplotlib.axis_30">
    <g id="ytick_15">
     <g id="line2d_15">
      <g>
       <use style="stroke:#000000;stroke-width:0.8;" x="285.6625" xlink:href="#m8f1839d15a" y="116.819297"/>
      </g>
     </g>
     <g id="text_21">
      <!--   -->
      <g transform="translate(275.484375 120.618516)scale(0.1 -0.1)">
       <use xlink:href="#DejaVuSans-32"/>
      </g>
     </g>
    </g>
   </g>
  </g>
  <g id="axes_16">
   <g id="patch_122">
    <path d="M 396.791406 130.679531 
L 486.942187 130.679531 
L 486.942187 102.959063 
L 396.791406 102.959063 
z
" style="fill:#ffffff;"/>
   </g>
   <g id="patch_123">
    <path clip-path="url(#p63bd627502)" d="M 396.791406 129.41951 
L 396.791406 129.41951 
L 396.791406 104.219084 
L 396.791406 104.219084 
z
" style="opacity:0.8;"/>
   </g>
   <g id="patch_124">
    <path clip-path="url(#p63bd627502)" d="M 396.791406 129.41951 
L 402.592615 129.41951 
L 402.592615 104.219084 
L 396.791406 104.219084 
z
" style="opacity:0.6;"/>
   </g>
   <g id="patch_125">
    <path clip-path="url(#p63bd627502)" d="M 402.592615 129.41951 
L 406.07334 129.41951 
L 406.07334 104.219084 
L 402.592615 104.219084 
z
" style="opacity:0.4;"/>
   </g>
   <g id="patch_126">
    <path clip-path="url(#p63bd627502)" d="M 406.07334 129.41951 
L 414.195032 129.41951 
L 414.195032 104.219084 
L 406.07334 104.219084 
z
" style="fill:#b8b398;opacity:0.2;"/>
   </g>
   <g id="patch_127">
    <path clip-path="url(#p63bd627502)" d="M 414.195032 129.41951 
L 447.842042 129.41951 
L 447.842042 104.219084 
L 414.195032 104.219084 
z
" style="fill:#ff9f15;opacity:0.4;"/>
   </g>
   <g id="patch_128">
    <path clip-path="url(#p63bd627502)" d="M 447.842042 129.41951 
L 462.925184 129.41951 
L 462.925184 104.219084 
L 447.842042 104.219084 
z
" style="fill:#ff9f15;opacity:0.6;"/>
   </g>
   <g id="patch_129">
    <path clip-path="url(#p63bd627502)" d="M 462.925184 129.41951 
L 482.649293 129.41951 
L 482.649293 104.219084 
L 462.925184 104.219084 
z
" style="fill:#ff9f15;opacity:0.8;"/>
   </g>
   <g id="matplotlib.axis_31"/>
   <g id="matplotlib.axis_32">
    <g id="ytick_16">
     <g id="line2d_16">
      <g>
       <use style="stroke:#000000;stroke-width:0.8;" x="396.791406" xlink:href="#m8f1839d15a" y="116.819297"/>
      </g>
     </g>
     <g id="text_22">
      <!--   -->
      <g transform="translate(386.613281 120.618516)scale(0.1 -0.1)">
       <use xlink:href="#DejaVuSans-32"/>
      </g>
     </g>
    </g>
   </g>
  </g>
  <g id="axes_17">
   <g id="patch_130">
    <path d="M 507.920313 130.679531 
L 598.071094 130.679531 
L 598.071094 102.959063 
L 507.920313 102.959063 
z
" style="fill:#ffffff;"/>
   </g>
   <g id="patch_131">
    <path clip-path="url(#p37038ce0cc)" d="M 507.920313 129.41951 
L 507.920313 129.41951 
L 507.920313 104.219084 
L 507.920313 104.219084 
z
" style="opacity:0.8;"/>
   </g>
   <g id="patch_132">
    <path clip-path="url(#p37038ce0cc)" d="M 507.920313 129.41951 
L 513.176918 129.41951 
L 513.176918 104.219084 
L 507.920313 104.219084 
z
" style="opacity:0.6;"/>
   </g>
   <g id="patch_133">
    <path clip-path="url(#p37038ce0cc)" d="M 513.176918 129.41951 
L 516.681321 129.41951 
L 516.681321 104.219084 
L 513.176918 104.219084 
z
" style="opacity:0.4;"/>
   </g>
   <g id="patch_134">
    <path clip-path="url(#p37038ce0cc)" d="M 516.681321 129.41951 
L 530.698936 129.41951 
L 530.698936 104.219084 
L 516.681321 104.219084 
z
" style="fill:#b8b398;opacity:0.2;"/>
   </g>
   <g id="patch_135">
    <path clip-path="url(#p37038ce0cc)" d="M 530.698936 129.41951 
L 555.22976 129.41951 
L 555.22976 104.219084 
L 530.698936 104.219084 
z
" style="fill:#3ca3a7;opacity:0.4;"/>
   </g>
   <g id="patch_136">
    <path clip-path="url(#p37038ce0cc)" d="M 555.22976 129.41951 
L 585.017191 129.41951 
L 585.017191 104.219084 
L 555.22976 104.219084 
z
" style="fill:#3ca3a7;opacity:0.6;"/>
   </g>
   <g id="patch_137">
    <path clip-path="url(#p37038ce0cc)" d="M 585.017191 129.41951 
L 593.778199 129.41951 
L 593.778199 104.219084 
L 585.017191 104.219084 
z
" style="fill:#3ca3a7;opacity:0.8;"/>
   </g>
   <g id="matplotlib.axis_33"/>
   <g id="matplotlib.axis_34">
    <g id="ytick_17">
     <g id="line2d_17">
      <g>
       <use style="stroke:#000000;stroke-width:0.8;" x="507.920313" xlink:href="#m8f1839d15a" y="116.819297"/>
      </g>
     </g>
     <g id="text_23">
      <!--   -->
      <g transform="translate(497.742188 120.618516)scale(0.1 -0.1)">
       <use xlink:href="#DejaVuSans-32"/>
      </g>
     </g>
    </g>
   </g>
  </g>
  <g id="axes_18">
   <g id="patch_138">
    <path d="M 619.049219 130.679531 
L 709.2 130.679531 
L 709.2 102.959063 
L 619.049219 102.959063 
z
" style="fill:#ffffff;"/>
   </g>
   <g id="patch_139">
    <path clip-path="url(#pa40a558787)" d="M 619.049219 129.41951 
L 619.456128 129.41951 
L 619.456128 104.219084 
L 619.049219 104.219084 
z
" style="opacity:0.8;"/>
   </g>
   <g id="patch_140">
    <path clip-path="url(#pa40a558787)" d="M 619.456128 129.41951 
L 621.897585 129.41951 
L 621.897585 104.219084 
L 619.456128 104.219084 
z
" style="opacity:0.6;"/>
   </g>
   <g id="patch_141">
    <path clip-path="url(#pa40a558787)" d="M 621.897585 129.41951 
L 623.118313 129.41951 
L 623.118313 104.219084 
L 621.897585 104.219084 
z
" style="opacity:0.4;"/>
   </g>
   <g id="patch_142">
    <path clip-path="url(#pa40a558787)" d="M 623.118313 129.41951 
L 630.442682 129.41951 
L 630.442682 104.219084 
L 623.118313 104.219084 
z
" style="fill:#b8b398;opacity:0.2;"/>
   </g>
   <g id="patch_143">
    <path clip-path="url(#pa40a558787)" d="M 630.442682 129.41951 
L 646.31215 129.41951 
L 646.31215 104.219084 
L 630.442682 104.219084 
z
" style="fill:#2186eb;opacity:0.4;"/>
   </g>
   <g id="patch_144">
    <path clip-path="url(#pa40a558787)" d="M 646.31215 129.41951 
L 673.168171 129.41951 
L 673.168171 104.219084 
L 646.31215 104.219084 
z
" style="fill:#2186eb;opacity:0.6;"/>
   </g>
   <g id="patch_145">
    <path clip-path="url(#pa40a558787)" d="M 673.168171 129.41951 
L 704.907106 129.41951 
L 704.907106 104.219084 
L 673.168171 104.219084 
z
" style="fill:#2186eb;opacity:0.8;"/>
   </g>
   <g id="matplotlib.axis_35"/>
   <g id="matplotlib.axis_36">
    <g id="ytick_18">
     <g id="line2d_18">
      <g>
       <use style="stroke:#000000;stroke-width:0.8;" x="619.049219" xlink:href="#m8f1839d15a" y="116.819297"/>
      </g>
     </g>
     <g id="text_24">
      <!--   -->
      <g transform="translate(608.871094 120.618516)scale(0.1 -0.1)">
       <use xlink:href="#DejaVuSans-32"/>
      </g>
     </g>
    </g>
   </g>
  </g>
  <g id="axes_19">
   <g id="patch_146">
    <path d="M 63.404688 169.2 
L 153.555469 169.2 
L 153.555469 141.479531 
L 63.404688 141.479531 
z
" style="fill:#ffffff;"/>
   </g>
   <g id="patch_147">
    <path clip-path="url(#p21a2905d72)" d="M 63.404688 167.939979 
L 63.404688 167.939979 
L 63.404688 142.739553 
L 63.404688 142.739553 
z
" style="opacity:0.8;"/>
   </g>
   <g id="patch_148">
    <path clip-path="url(#p21a2905d72)" d="M 63.404688 167.939979 
L 71.990476 167.939979 
L 71.990476 142.739553 
L 63.404688 142.739553 
z
" style="opacity:0.6;"/>
   </g>
   <g id="patch_149">
    <path clip-path="url(#p21a2905d72)" d="M 71.990476 167.939979 
L 73.421441 167.939979 
L 73.421441 142.739553 
L 71.990476 142.739553 
z
" style="opacity:0.4;"/>
   </g>
   <g id="patch_150">
    <path clip-path="url(#p21a2905d72)" d="M 73.421441 167.939979 
L 97.747842 167.939979 
L 97.747842 142.739553 
L 73.421441 142.739553 
z
" style="fill:#b8b398;opacity:0.2;"/>
   </g>
   <g id="patch_151">
    <path clip-path="url(#p21a2905d72)" d="M 97.747842 167.939979 
L 113.488455 167.939979 
L 113.488455 142.739553 
L 97.747842 142.739553 
z
" style="fill:#64c466;opacity:0.4;"/>
   </g>
   <g id="patch_152">
    <path clip-path="url(#p21a2905d72)" d="M 113.488455 167.939979 
L 133.521962 167.939979 
L 133.521962 142.739553 
L 113.488455 142.739553 
z
" style="fill:#64c466;opacity:0.6;"/>
   </g>
   <g id="patch_153">
    <path clip-path="url(#p21a2905d72)" d="M 133.521962 167.939979 
L 149.262574 167.939979 
L 149.262574 142.739553 
L 133.521962 142.739553 
z
" style="fill:#64c466;opacity:0.8;"/>
   </g>
   <g id="matplotlib.axis_37"/>
   <g id="matplotlib.axis_38">
    <g id="ytick_19">
     <g id="line2d_19">
      <g>
       <use style="stroke:#000000;stroke-width:0.8;" x="63.404688" xlink:href="#m8f1839d15a" y="155.339766"/>
      </g>
     </g>
     <g id="text_25">
      <!-- Human 1 -->
      <g transform="translate(10.8 159.138984)scale(0.1 -0.1)">
       <defs>
        <path d="M 9.8125 72.90625 
L 19.671875 72.90625 
L 19.671875 43.015625 
L 55.515625 43.015625 
L 55.515625 72.90625 
L 65.375 72.90625 
L 65.375 0 
L 55.515625 0 
L 55.515625 34.71875 
L 19.671875 34.71875 
L 19.671875 0 
L 9.8125 0 
z
" id="DejaVuSans-72"/>
        <path d="M 52 44.1875 
Q 55.375 50.25 60.0625 53.125 
Q 64.75 56 71.09375 56 
Q 79.640625 56 84.28125 50.015625 
Q 88.921875 44.046875 88.921875 33.015625 
L 88.921875 0 
L 79.890625 0 
L 79.890625 32.71875 
Q 79.890625 40.578125 77.09375 44.375 
Q 74.3125 48.1875 68.609375 48.1875 
Q 61.625 48.1875 57.5625 43.546875 
Q 53.515625 38.921875 53.515625 30.90625 
L 53.515625 0 
L 44.484375 0 
L 44.484375 32.71875 
Q 44.484375 40.625 41.703125 44.40625 
Q 38.921875 48.1875 33.109375 48.1875 
Q 26.21875 48.1875 22.15625 43.53125 
Q 18.109375 38.875 18.109375 30.90625 
L 18.109375 0 
L 9.078125 0 
L 9.078125 54.6875 
L 18.109375 54.6875 
L 18.109375 46.1875 
Q 21.1875 51.21875 25.484375 53.609375 
Q 29.78125 56 35.6875 56 
Q 41.65625 56 45.828125 52.96875 
Q 50 49.953125 52 44.1875 
z
" id="DejaVuSans-109"/>
        <path d="M 12.40625 8.296875 
L 28.515625 8.296875 
L 28.515625 63.921875 
L 10.984375 60.40625 
L 10.984375 69.390625 
L 28.421875 72.90625 
L 38.28125 72.90625 
L 38.28125 8.296875 
L 54.390625 8.296875 
L 54.390625 0 
L 12.40625 0 
z
" id="DejaVuSans-49"/>
       </defs>
       <use xlink:href="#DejaVuSans-72"/>
       <use x="75.195312" xlink:href="#DejaVuSans-117"/>
       <use x="138.574219" xlink:href="#DejaVuSans-109"/>
       <use x="235.986328" xlink:href="#DejaVuSans-97"/>
       <use x="297.265625" xlink:href="#DejaVuSans-110"/>
       <use x="360.644531" xlink:href="#DejaVuSans-32"/>
       <use x="392.431641" xlink:href="#DejaVuSans-49"/>
      </g>
     </g>
    </g>
   </g>
  </g>
  <g id="axes_20">
   <g id="patch_154">
    <path d="M 174.533594 169.2 
L 264.684375 169.2 
L 264.684375 141.479531 
L 174.533594 141.479531 
z
" style="fill:#ffffff;"/>
   </g>
   <g id="patch_155">
    <path clip-path="url(#p9f9e4dcf20)" d="M 174.533594 167.939979 
L 174.533594 167.939979 
L 174.533594 142.739553 
L 174.533594 142.739553 
z
" style="opacity:0.8;"/>
   </g>
   <g id="patch_156">
    <path clip-path="url(#p9f9e4dcf20)" d="M 174.533594 167.939979 
L 189.348288 167.939979 
L 189.348288 142.739553 
L 174.533594 142.739553 
z
" style="opacity:0.6;"/>
   </g>
   <g id="patch_157">
    <path clip-path="url(#p9f9e4dcf20)" d="M 189.348288 167.939979 
L 192.041869 167.939979 
L 192.041869 142.739553 
L 189.348288 142.739553 
z
" style="opacity:0.4;"/>
   </g>
   <g id="patch_158">
    <path clip-path="url(#p9f9e4dcf20)" d="M 192.041869 167.939979 
L 192.041869 167.939979 
L 192.041869 142.739553 
L 192.041869 142.739553 
z
" style="fill:#b8b398;opacity:0.2;"/>
   </g>
   <g id="patch_159">
    <path clip-path="url(#p9f9e4dcf20)" d="M 192.041869 167.939979 
L 192.041869 167.939979 
L 192.041869 142.739553 
L 192.041869 142.739553 
z
" style="fill:#ee2a2a;opacity:0.4;"/>
   </g>
   <g id="patch_160">
    <path clip-path="url(#p9f9e4dcf20)" d="M 192.041869 167.939979 
L 227.058419 167.939979 
L 227.058419 142.739553 
L 192.041869 142.739553 
z
" style="fill:#ee2a2a;opacity:0.6;"/>
   </g>
   <g id="patch_161">
    <path clip-path="url(#p9f9e4dcf20)" d="M 227.058419 167.939979 
L 260.391481 167.939979 
L 260.391481 142.739553 
L 227.058419 142.739553 
z
" style="fill:#ee2a2a;opacity:0.8;"/>
   </g>
   <g id="matplotlib.axis_39"/>
   <g id="matplotlib.axis_40">
    <g id="ytick_20">
     <g id="line2d_20">
      <g>
       <use style="stroke:#000000;stroke-width:0.8;" x="174.533594" xlink:href="#m8f1839d15a" y="155.339766"/>
      </g>
     </g>
     <g id="text_26">
      <!--   -->
      <g transform="translate(164.355469 159.138984)scale(0.1 -0.1)">
       <use xlink:href="#DejaVuSans-32"/>
      </g>
     </g>
    </g>
   </g>
  </g>
  <g id="axes_21">
   <g id="patch_162">
    <path d="M 285.6625 169.2 
L 375.813281 169.2 
L 375.813281 141.479531 
L 285.6625 141.479531 
z
" style="fill:#ffffff;"/>
   </g>
   <g id="patch_163">
    <path clip-path="url(#pfd551854cc)" d="M 285.6625 167.939979 
L 285.6625 167.939979 
L 285.6625 142.739553 
L 285.6625 142.739553 
z
" style="opacity:0.8;"/>
   </g>
   <g id="patch_164">
    <path clip-path="url(#pfd551854cc)" d="M 285.6625 167.939979 
L 289.395452 167.939979 
L 289.395452 142.739553 
L 285.6625 142.739553 
z
" style="opacity:0.6;"/>
   </g>
   <g id="patch_165">
    <path clip-path="url(#pfd551854cc)" d="M 289.395452 167.939979 
L 289.395452 167.939979 
L 289.395452 142.739553 
L 289.395452 142.739553 
z
" style="opacity:0.4;"/>
   </g>
   <g id="patch_166">
    <path clip-path="url(#pfd551854cc)" d="M 289.395452 167.939979 
L 289.395452 167.939979 
L 289.395452 142.739553 
L 289.395452 142.739553 
z
" style="fill:#b8b398;opacity:0.2;"/>
   </g>
   <g id="patch_167">
    <path clip-path="url(#pfd551854cc)" d="M 289.395452 167.939979 
L 319.259064 167.939979 
L 319.259064 142.739553 
L 289.395452 142.739553 
z
" style="fill:#f7ce46;opacity:0.4;"/>
   </g>
   <g id="patch_168">
    <path clip-path="url(#pfd551854cc)" d="M 319.259064 167.939979 
L 360.321532 167.939979 
L 360.321532 142.739553 
L 319.259064 142.739553 
z
" style="fill:#f7ce46;opacity:0.6;"/>
   </g>
   <g id="patch_169">
    <path clip-path="url(#pfd551854cc)" d="M 360.321532 167.939979 
L 371.520387 167.939979 
L 371.520387 142.739553 
L 360.321532 142.739553 
z
" style="fill:#f7ce46;opacity:0.8;"/>
   </g>
   <g id="matplotlib.axis_41"/>
   <g id="matplotlib.axis_42">
    <g id="ytick_21">
     <g id="line2d_21">
      <g>
       <use style="stroke:#000000;stroke-width:0.8;" x="285.6625" xlink:href="#m8f1839d15a" y="155.339766"/>
      </g>
     </g>
     <g id="text_27">
      <!--   -->
      <g transform="translate(275.484375 159.138984)scale(0.1 -0.1)">
       <use xlink:href="#DejaVuSans-32"/>
      </g>
     </g>
    </g>
   </g>
  </g>
  <g id="axes_22">
   <g id="patch_170">
    <path d="M 396.791406 169.2 
L 486.942187 169.2 
L 486.942187 141.479531 
L 396.791406 141.479531 
z
" style="fill:#ffffff;"/>
   </g>
   <g id="patch_171">
    <path clip-path="url(#peca8dcce21)" d="M 396.791406 167.939979 
L 396.791406 167.939979 
L 396.791406 142.739553 
L 396.791406 142.739553 
z
" style="opacity:0.8;"/>
   </g>
   <g id="patch_172">
    <path clip-path="url(#peca8dcce21)" d="M 396.791406 167.939979 
L 399.786449 167.939979 
L 399.786449 142.739553 
L 396.791406 142.739553 
z
" style="opacity:0.6;"/>
   </g>
   <g id="patch_173">
    <path clip-path="url(#peca8dcce21)" d="M 399.786449 167.939979 
L 400.784796 167.939979 
L 400.784796 142.739553 
L 399.786449 142.739553 
z
" style="opacity:0.4;"/>
   </g>
   <g id="patch_174">
    <path clip-path="url(#peca8dcce21)" d="M 400.784796 167.939979 
L 415.760009 167.939979 
L 415.760009 142.739553 
L 400.784796 142.739553 
z
" style="fill:#b8b398;opacity:0.2;"/>
   </g>
   <g id="patch_175">
    <path clip-path="url(#peca8dcce21)" d="M 415.760009 167.939979 
L 439.72035 167.939979 
L 439.72035 142.739553 
L 415.760009 142.739553 
z
" style="fill:#ff9f15;opacity:0.4;"/>
   </g>
   <g id="patch_176">
    <path clip-path="url(#peca8dcce21)" d="M 439.72035 167.939979 
L 470.669123 167.939979 
L 470.669123 142.739553 
L 439.72035 142.739553 
z
" style="fill:#ff9f15;opacity:0.6;"/>
   </g>
   <g id="patch_177">
    <path clip-path="url(#peca8dcce21)" d="M 470.669123 167.939979 
L 482.649293 167.939979 
L 482.649293 142.739553 
L 470.669123 142.739553 
z
" style="fill:#ff9f15;opacity:0.8;"/>
   </g>
   <g id="matplotlib.axis_43"/>
   <g id="matplotlib.axis_44">
    <g id="ytick_22">
     <g id="line2d_22">
      <g>
       <use style="stroke:#000000;stroke-width:0.8;" x="396.791406" xlink:href="#m8f1839d15a" y="155.339766"/>
      </g>
     </g>
     <g id="text_28">
      <!--   -->
      <g transform="translate(386.613281 159.138984)scale(0.1 -0.1)">
       <use xlink:href="#DejaVuSans-32"/>
      </g>
     </g>
    </g>
   </g>
  </g>
  <g id="axes_23">
   <g id="patch_178">
    <path d="M 507.920313 169.2 
L 598.071094 169.2 
L 598.071094 141.479531 
L 507.920313 141.479531 
z
" style="fill:#ffffff;"/>
   </g>
   <g id="patch_179">
    <path clip-path="url(#p4046e2f3cb)" d="M 507.920313 167.939979 
L 507.920313 167.939979 
L 507.920313 142.739553 
L 507.920313 142.739553 
z
" style="opacity:0.8;"/>
   </g>
   <g id="patch_180">
    <path clip-path="url(#p4046e2f3cb)" d="M 507.920313 167.939979 
L 510.782242 167.939979 
L 510.782242 142.739553 
L 507.920313 142.739553 
z
" style="opacity:0.6;"/>
   </g>
   <g id="patch_181">
    <path clip-path="url(#p4046e2f3cb)" d="M 510.782242 167.939979 
L 513.644172 167.939979 
L 513.644172 142.739553 
L 510.782242 142.739553 
z
" style="opacity:0.4;"/>
   </g>
   <g id="patch_182">
    <path clip-path="url(#p4046e2f3cb)" d="M 513.644172 167.939979 
L 545.125397 167.939979 
L 545.125397 142.739553 
L 513.644172 142.739553 
z
" style="fill:#b8b398;opacity:0.2;"/>
   </g>
   <g id="patch_183">
    <path clip-path="url(#p4046e2f3cb)" d="M 545.125397 167.939979 
L 570.882763 167.939979 
L 570.882763 142.739553 
L 545.125397 142.739553 
z
" style="fill:#3ca3a7;opacity:0.4;"/>
   </g>
   <g id="patch_184">
    <path clip-path="url(#p4046e2f3cb)" d="M 570.882763 167.939979 
L 588.05434 167.939979 
L 588.05434 142.739553 
L 570.882763 142.739553 
z
" style="fill:#3ca3a7;opacity:0.6;"/>
   </g>
   <g id="patch_185">
    <path clip-path="url(#p4046e2f3cb)" d="M 588.05434 167.939979 
L 593.778199 167.939979 
L 593.778199 142.739553 
L 588.05434 142.739553 
z
" style="fill:#3ca3a7;opacity:0.8;"/>
   </g>
   <g id="matplotlib.axis_45"/>
   <g id="matplotlib.axis_46">
    <g id="ytick_23">
     <g id="line2d_23">
      <g>
       <use style="stroke:#000000;stroke-width:0.8;" x="507.920313" xlink:href="#m8f1839d15a" y="155.339766"/>
      </g>
     </g>
     <g id="text_29">
      <!--   -->
      <g transform="translate(497.742188 159.138984)scale(0.1 -0.1)">
       <use xlink:href="#DejaVuSans-32"/>
      </g>
     </g>
    </g>
   </g>
  </g>
  <g id="axes_24">
   <g id="patch_186">
    <path d="M 619.049219 169.2 
L 709.2 169.2 
L 709.2 141.479531 
L 619.049219 141.479531 
z
" style="fill:#ffffff;"/>
   </g>
   <g id="patch_187">
    <path clip-path="url(#pfd41dc9c32)" d="M 619.049219 167.939979 
L 620.055366 167.939979 
L 620.055366 142.739553 
L 619.049219 142.739553 
z
" style="opacity:0.8;"/>
   </g>
   <g id="patch_188">
    <path clip-path="url(#pfd41dc9c32)" d="M 620.055366 167.939979 
L 623.073807 167.939979 
L 623.073807 142.739553 
L 620.055366 142.739553 
z
" style="opacity:0.6;"/>
   </g>
   <g id="patch_189">
    <path clip-path="url(#pfd41dc9c32)" d="M 623.073807 167.939979 
L 623.744572 167.939979 
L 623.744572 142.739553 
L 623.073807 142.739553 
z
" style="opacity:0.4;"/>
   </g>
   <g id="patch_190">
    <path clip-path="url(#pfd41dc9c32)" d="M 623.744572 167.939979 
L 632.129131 167.939979 
L 632.129131 142.739553 
L 623.744572 142.739553 
z
" style="fill:#b8b398;opacity:0.2;"/>
   </g>
   <g id="patch_191">
    <path clip-path="url(#pfd41dc9c32)" d="M 632.129131 167.939979 
L 654.264368 167.939979 
L 654.264368 142.739553 
L 632.129131 142.739553 
z
" style="fill:#2186eb;opacity:0.4;"/>
   </g>
   <g id="patch_192">
    <path clip-path="url(#pfd41dc9c32)" d="M 654.264368 167.939979 
L 670.698104 167.939979 
L 670.698104 142.739553 
L 654.264368 142.739553 
z
" style="fill:#2186eb;opacity:0.6;"/>
   </g>
   <g id="patch_193">
    <path clip-path="url(#pfd41dc9c32)" d="M 670.698104 167.939979 
L 704.907106 167.939979 
L 704.907106 142.739553 
L 670.698104 142.739553 
z
" style="fill:#2186eb;opacity:0.8;"/>
   </g>
   <g id="matplotlib.axis_47"/>
   <g id="matplotlib.axis_48">
    <g id="ytick_24">
     <g id="line2d_24">
      <g>
       <use style="stroke:#000000;stroke-width:0.8;" x="619.049219" xlink:href="#m8f1839d15a" y="155.339766"/>
      </g>
     </g>
     <g id="text_30">
      <!--   -->
      <g transform="translate(608.871094 159.138984)scale(0.1 -0.1)">
       <use xlink:href="#DejaVuSans-32"/>
      </g>
     </g>
    </g>
   </g>
  </g>
 </g>
 <defs>
  <clipPath id="p91ca8ec1c9">
   <rect height="27.720469" width="90.150781" x="63.404688" y="25.918125"/>
  </clipPath>
  <clipPath id="p1b13cce0c5">
   <rect height="27.720469" width="90.150781" x="174.533594" y="25.918125"/>
  </clipPath>
  <clipPath id="p894a6c284d">
   <rect height="27.720469" width="90.150781" x="285.6625" y="25.918125"/>
  </clipPath>
  <clipPath id="pd085ad0459">
   <rect height="27.720469" width="90.150781" x="396.791406" y="25.918125"/>
  </clipPath>
  <clipPath id="pc078a8a2c5">
   <rect height="27.720469" width="90.150781" x="507.920313" y="25.918125"/>
  </clipPath>
  <clipPath id="pd66a5a62ef">
   <rect height="27.720469" width="90.150781" x="619.049219" y="25.918125"/>
  </clipPath>
  <clipPath id="pe1c8cb753f">
   <rect height="27.720469" width="90.150781" x="63.404688" y="64.438594"/>
  </clipPath>
  <clipPath id="pe4a42d9efa">
   <rect height="27.720469" width="90.150781" x="174.533594" y="64.438594"/>
  </clipPath>
  <clipPath id="p5f8cc0bd0a">
   <rect height="27.720469" width="90.150781" x="285.6625" y="64.438594"/>
  </clipPath>
  <clipPath id="p8e28b679b7">
   <rect height="27.720469" width="90.150781" x="396.791406" y="64.438594"/>
  </clipPath>
  <clipPath id="p4c5d66f5cf">
   <rect height="27.720469" width="90.150781" x="507.920313" y="64.438594"/>
  </clipPath>
  <clipPath id="pd56b86c4f9">
   <rect height="27.720469" width="90.150781" x="619.049219" y="64.438594"/>
  </clipPath>
  <clipPath id="p1d3beab3ca">
   <rect height="27.720469" width="90.150781" x="63.404688" y="102.959063"/>
  </clipPath>
  <clipPath id="pbc5e2b1dbf">
   <rect height="27.720469" width="90.150781" x="174.533594" y="102.959063"/>
  </clipPath>
  <clipPath id="p69b387aaf5">
   <rect height="27.720469" width="90.150781" x="285.6625" y="102.959063"/>
  </clipPath>
  <clipPath id="p63bd627502">
   <rect height="27.720469" width="90.150781" x="396.791406" y="102.959063"/>
  </clipPath>
  <clipPath id="p37038ce0cc">
   <rect height="27.720469" width="90.150781" x="507.920313" y="102.959063"/>
  </clipPath>
  <clipPath id="pa40a558787">
   <rect height="27.720469" width="90.150781" x="619.049219" y="102.959063"/>
  </clipPath>
  <clipPath id="p21a2905d72">
   <rect height="27.720469" width="90.150781" x="63.404688" y="141.479531"/>
  </clipPath>
  <clipPath id="p9f9e4dcf20">
   <rect height="27.720469" width="90.150781" x="174.533594" y="141.479531"/>
  </clipPath>
  <clipPath id="pfd551854cc">
   <rect height="27.720469" width="90.150781" x="285.6625" y="141.479531"/>
  </clipPath>
  <clipPath id="peca8dcce21">
   <rect height="27.720469" width="90.150781" x="396.791406" y="141.479531"/>
  </clipPath>
  <clipPath id="p4046e2f3cb">
   <rect height="27.720469" width="90.150781" x="507.920313" y="141.479531"/>
  </clipPath>
  <clipPath id="pfd41dc9c32">
   <rect height="27.720469" width="90.150781" x="619.049219" y="141.479531"/>
  </clipPath>
 </defs>
</svg>
