<?xml version="1.0" encoding="utf-8" standalone="no"?>
<!DOCTYPE svg PUBLIC "-//W3C//DTD SVG 1.1//EN"
  "http://www.w3.org/Graphics/SVG/1.1/DTD/svg11.dtd">
<!-- Created with matplotlib (https://matplotlib.org/) -->
<svg height="936pt" version="1.1" viewBox="0 0 432 936" width="432pt" xmlns="http://www.w3.org/2000/svg" xmlns:xlink="http://www.w3.org/1999/xlink">
 <metadata>
  <rdf:RDF xmlns:cc="http://creativecommons.org/ns#" xmlns:dc="http://purl.org/dc/elements/1.1/" xmlns:rdf="http://www.w3.org/1999/02/22-rdf-syntax-ns#">
   <cc:Work>
    <dc:type rdf:resource="http://purl.org/dc/dcmitype/StillImage"/>
    <dc:date>2022-12-13T00:48:30.397766</dc:date>
    <dc:format>image/svg+xml</dc:format>
    <dc:creator>
     <cc:Agent>
      <dc:title>Matplotlib v3.3.4, https://matplotlib.org/</dc:title>
     </cc:Agent>
    </dc:creator>
   </cc:Work>
  </rdf:RDF>
 </metadata>
 <defs>
  <style type="text/css">*{stroke-linecap:butt;stroke-linejoin:round;}</style>
 </defs>
 <g id="figure_1">
  <g id="patch_1">
   <path d="M 0 936 
L 432 936 
L 432 0 
L 0 0 
z
" style="fill:none;"/>
  </g>
  <g id="axes_1">
   <g id="patch_2">
    <path d="M 36.8875 220.295858 
L 421.2 220.295858 
L 421.2 25.918125 
L 36.8875 25.918125 
z
" style="fill:#ffffff;"/>
   </g>
   <g id="patch_3">
    <path clip-path="url(#pcd9d5eb6b3)" d="M 54.35625 220.295858 
L 86.535526 220.295858 
L 86.535526 136.93479 
L 54.35625 136.93479 
z
" style="fill:#ee2a2a;"/>
   </g>
   <g id="patch_4">
    <path clip-path="url(#pcd9d5eb6b3)" d="M 146.297039 220.295858 
L 178.476316 220.295858 
L 178.476316 160.215809 
L 146.297039 160.215809 
z
" style="fill:#ee2a2a;"/>
   </g>
   <g id="patch_5">
    <path clip-path="url(#pcd9d5eb6b3)" d="M 238.237829 220.295858 
L 270.417105 220.295858 
L 270.417105 115.155772 
L 238.237829 115.155772 
z
" style="fill:#ee2a2a;"/>
   </g>
   <g id="patch_6">
    <path clip-path="url(#pcd9d5eb6b3)" d="M 330.178618 220.295858 
L 362.357895 220.295858 
L 362.357895 65.214232 
L 330.178618 65.214232 
z
" style="fill:#ee2a2a;"/>
   </g>
   <g id="patch_7">
    <path clip-path="url(#pcd9d5eb6b3)" d="M 54.35625 136.93479 
L 86.535526 136.93479 
L 86.535526 109.147768 
L 54.35625 109.147768 
z
" style="fill:#64c466;"/>
   </g>
   <g id="patch_8">
    <path clip-path="url(#pcd9d5eb6b3)" d="M 146.297039 160.215809 
L 178.476316 160.215809 
L 178.476316 142.942795 
L 146.297039 142.942795 
z
" style="fill:#64c466;"/>
   </g>
   <g id="patch_9">
    <path clip-path="url(#pcd9d5eb6b3)" d="M 238.237829 115.155772 
L 270.417105 115.155772 
L 270.417105 87.36875 
L 238.237829 87.36875 
z
" style="fill:#64c466;"/>
   </g>
   <g id="patch_10">
    <path clip-path="url(#pcd9d5eb6b3)" d="M 330.178618 65.214232 
L 362.357895 65.214232 
L 362.357895 35.174208 
L 330.178618 35.174208 
z
" style="fill:#64c466;"/>
   </g>
   <g id="patch_11">
    <path clip-path="url(#pcd9d5eb6b3)" d="M 95.729605 220.295858 
L 127.908882 220.295858 
L 127.908882 212.034851 
L 95.729605 212.034851 
z
" style="fill:#c3eb98;"/>
   </g>
   <g id="patch_12">
    <path clip-path="url(#pcd9d5eb6b3)" d="M 187.670395 220.295858 
L 219.849671 220.295858 
L 219.849671 220.295858 
L 187.670395 220.295858 
z
" style="fill:#c3eb98;"/>
   </g>
   <g id="patch_13">
    <path clip-path="url(#pcd9d5eb6b3)" d="M 279.611184 220.295858 
L 311.790461 220.295858 
L 311.790461 219.544857 
L 279.611184 219.544857 
z
" style="fill:#c3eb98;"/>
   </g>
   <g id="patch_14">
    <path clip-path="url(#pcd9d5eb6b3)" d="M 371.551974 220.295858 
L 403.73125 220.295858 
L 403.73125 217.667356 
L 371.551974 217.667356 
z
" style="fill:#c3eb98;"/>
   </g>
   <g id="patch_15">
    <path clip-path="url(#pcd9d5eb6b3)" d="M 95.729605 212.034851 
L 127.908882 212.034851 
L 127.908882 211.283851 
L 95.729605 211.283851 
z
" style="fill:#a2cf72;"/>
   </g>
   <g id="patch_16">
    <path clip-path="url(#pcd9d5eb6b3)" d="M 187.670395 220.295858 
L 219.849671 220.295858 
L 219.849671 219.544857 
L 187.670395 219.544857 
z
" style="fill:#a2cf72;"/>
   </g>
   <g id="patch_17">
    <path clip-path="url(#pcd9d5eb6b3)" d="M 279.611184 219.544857 
L 311.790461 219.544857 
L 311.790461 219.544857 
L 279.611184 219.544857 
z
" style="fill:#a2cf72;"/>
   </g>
   <g id="patch_18">
    <path clip-path="url(#pcd9d5eb6b3)" d="M 371.551974 217.667356 
L 403.73125 217.667356 
L 403.73125 216.916355 
L 371.551974 216.916355 
z
" style="fill:#a2cf72;"/>
   </g>
   <g id="patch_19">
    <path clip-path="url(#pcd9d5eb6b3)" d="M 95.729605 211.283851 
L 127.908882 211.283851 
L 127.908882 200.769842 
L 95.729605 200.769842 
z
" style="fill:#8ebd5c;"/>
   </g>
   <g id="patch_20">
    <path clip-path="url(#pcd9d5eb6b3)" d="M 187.670395 219.544857 
L 219.849671 219.544857 
L 219.849671 218.793857 
L 187.670395 218.793857 
z
" style="fill:#8ebd5c;"/>
   </g>
   <g id="patch_21">
    <path clip-path="url(#pcd9d5eb6b3)" d="M 279.611184 219.544857 
L 311.790461 219.544857 
L 311.790461 218.793857 
L 279.611184 218.793857 
z
" style="fill:#8ebd5c;"/>
   </g>
   <g id="patch_22">
    <path clip-path="url(#pcd9d5eb6b3)" d="M 371.551974 216.916355 
L 403.73125 216.916355 
L 403.73125 216.165354 
L 371.551974 216.165354 
z
" style="fill:#8ebd5c;"/>
   </g>
   <g id="patch_23">
    <path clip-path="url(#pcd9d5eb6b3)" d="M 95.729605 200.769842 
L 127.908882 200.769842 
L 127.908882 194.010836 
L 95.729605 194.010836 
z
" style="fill:#ca54e8;"/>
   </g>
   <g id="patch_24">
    <path clip-path="url(#pcd9d5eb6b3)" d="M 187.670395 218.793857 
L 219.849671 218.793857 
L 219.849671 217.291855 
L 187.670395 217.291855 
z
" style="fill:#ca54e8;"/>
   </g>
   <g id="patch_25">
    <path clip-path="url(#pcd9d5eb6b3)" d="M 279.611184 218.793857 
L 311.790461 218.793857 
L 311.790461 217.291855 
L 279.611184 217.291855 
z
" style="fill:#ca54e8;"/>
   </g>
   <g id="patch_26">
    <path clip-path="url(#pcd9d5eb6b3)" d="M 371.551974 216.165354 
L 403.73125 216.165354 
L 403.73125 210.90835 
L 371.551974 210.90835 
z
" style="fill:#ca54e8;"/>
   </g>
   <g id="patch_27">
    <path clip-path="url(#pcd9d5eb6b3)" d="M 95.729605 194.010836 
L 127.908882 194.010836 
L 127.908882 140.689793 
L 95.729605 140.689793 
z
" style="fill:#eb6565;"/>
   </g>
   <g id="patch_28">
    <path clip-path="url(#pcd9d5eb6b3)" d="M 187.670395 217.291855 
L 219.849671 217.291855 
L 219.849671 203.773844 
L 187.670395 203.773844 
z
" style="fill:#eb6565;"/>
   </g>
   <g id="patch_29">
    <path clip-path="url(#pcd9d5eb6b3)" d="M 279.611184 217.291855 
L 311.790461 217.291855 
L 311.790461 196.263838 
L 279.611184 196.263838 
z
" style="fill:#eb6565;"/>
   </g>
   <g id="patch_30">
    <path clip-path="url(#pcd9d5eb6b3)" d="M 371.551974 210.90835 
L 403.73125 210.90835 
L 403.73125 171.856319 
L 371.551974 171.856319 
z
" style="fill:#eb6565;"/>
   </g>
   <g id="patch_31">
    <path clip-path="url(#pcd9d5eb6b3)" d="M 95.729605 140.689793 
L 127.908882 140.689793 
L 127.908882 139.938793 
L 95.729605 139.938793 
z
" style="fill:#b0f5b7;"/>
   </g>
   <g id="patch_32">
    <path clip-path="url(#pcd9d5eb6b3)" d="M 187.670395 203.773844 
L 219.849671 203.773844 
L 219.849671 200.769842 
L 187.670395 200.769842 
z
" style="fill:#b0f5b7;"/>
   </g>
   <g id="patch_33">
    <path clip-path="url(#pcd9d5eb6b3)" d="M 279.611184 196.263838 
L 311.790461 196.263838 
L 311.790461 194.761837 
L 279.611184 194.761837 
z
" style="fill:#b0f5b7;"/>
   </g>
   <g id="patch_34">
    <path clip-path="url(#pcd9d5eb6b3)" d="M 371.551974 171.856319 
L 403.73125 171.856319 
L 403.73125 169.978817 
L 371.551974 169.978817 
z
" style="fill:#b0f5b7;"/>
   </g>
   <g id="matplotlib.axis_1">
    <g id="xtick_1">
     <g id="line2d_1">
      <defs>
       <path d="M 0 0 
L 0 3.5 
" id="m0e1d658833" style="stroke:#000000;stroke-width:0.8;"/>
      </defs>
      <g>
       <use style="stroke:#000000;stroke-width:0.8;" x="45.162171" xlink:href="#m0e1d658833" y="220.295858"/>
      </g>
     </g>
     <g id="text_1">
      <!-- MUSS -->
      <g transform="translate(30.840296 234.894295)scale(0.1 -0.1)">
       <defs>
        <path d="M 9.8125 72.90625 
L 24.515625 72.90625 
L 43.109375 23.296875 
L 61.8125 72.90625 
L 76.515625 72.90625 
L 76.515625 0 
L 66.890625 0 
L 66.890625 64.015625 
L 48.09375 14.015625 
L 38.1875 14.015625 
L 19.390625 64.015625 
L 19.390625 0 
L 9.8125 0 
z
" id="DejaVuSans-77"/>
        <path d="M 8.6875 72.90625 
L 18.609375 72.90625 
L 18.609375 28.609375 
Q 18.609375 16.890625 22.84375 11.734375 
Q 27.09375 6.59375 36.625 6.59375 
Q 46.09375 6.59375 50.34375 11.734375 
Q 54.59375 16.890625 54.59375 28.609375 
L 54.59375 72.90625 
L 64.5 72.90625 
L 64.5 27.390625 
Q 64.5 13.140625 57.4375 5.859375 
Q 50.390625 -1.421875 36.625 -1.421875 
Q 22.796875 -1.421875 15.734375 5.859375 
Q 8.6875 13.140625 8.6875 27.390625 
z
" id="DejaVuSans-85"/>
        <path d="M 53.515625 70.515625 
L 53.515625 60.890625 
Q 47.90625 63.578125 42.921875 64.890625 
Q 37.9375 66.21875 33.296875 66.21875 
Q 25.25 66.21875 20.875 63.09375 
Q 16.5 59.96875 16.5 54.203125 
Q 16.5 49.359375 19.40625 46.890625 
Q 22.3125 44.4375 30.421875 42.921875 
L 36.375 41.703125 
Q 47.40625 39.59375 52.65625 34.296875 
Q 57.90625 29 57.90625 20.125 
Q 57.90625 9.515625 50.796875 4.046875 
Q 43.703125 -1.421875 29.984375 -1.421875 
Q 24.8125 -1.421875 18.96875 -0.25 
Q 13.140625 0.921875 6.890625 3.21875 
L 6.890625 13.375 
Q 12.890625 10.015625 18.65625 8.296875 
Q 24.421875 6.59375 29.984375 6.59375 
Q 38.421875 6.59375 43.015625 9.90625 
Q 47.609375 13.234375 47.609375 19.390625 
Q 47.609375 24.75 44.3125 27.78125 
Q 41.015625 30.8125 33.5 32.328125 
L 27.484375 33.5 
Q 16.453125 35.6875 11.515625 40.375 
Q 6.59375 45.0625 6.59375 53.421875 
Q 6.59375 63.09375 13.40625 68.65625 
Q 20.21875 74.21875 32.171875 74.21875 
Q 37.3125 74.21875 42.625 73.28125 
Q 47.953125 72.359375 53.515625 70.515625 
z
" id="DejaVuSans-83"/>
       </defs>
       <use xlink:href="#DejaVuSans-77"/>
       <use x="86.279297" xlink:href="#DejaVuSans-85"/>
       <use x="159.472656" xlink:href="#DejaVuSans-83"/>
       <use x="222.949219" xlink:href="#DejaVuSans-83"/>
      </g>
     </g>
    </g>
    <g id="xtick_2">
     <g id="line2d_2">
      <g>
       <use style="stroke:#000000;stroke-width:0.8;" x="91.132566" xlink:href="#m0e1d658833" y="220.295858"/>
      </g>
     </g>
     <g id="text_2">
      <!-- GPT-Zero -->
      <g transform="translate(68.338035 234.894295)scale(0.1 -0.1)">
       <defs>
        <path d="M 59.515625 10.40625 
L 59.515625 29.984375 
L 43.40625 29.984375 
L 43.40625 38.09375 
L 69.28125 38.09375 
L 69.28125 6.78125 
Q 63.578125 2.734375 56.6875 0.65625 
Q 49.8125 -1.421875 42 -1.421875 
Q 24.90625 -1.421875 15.25 8.5625 
Q 5.609375 18.5625 5.609375 36.375 
Q 5.609375 54.25 15.25 64.234375 
Q 24.90625 74.21875 42 74.21875 
Q 49.125 74.21875 55.546875 72.453125 
Q 61.96875 70.703125 67.390625 67.28125 
L 67.390625 56.78125 
Q 61.921875 61.421875 55.765625 63.765625 
Q 49.609375 66.109375 42.828125 66.109375 
Q 29.4375 66.109375 22.71875 58.640625 
Q 16.015625 51.171875 16.015625 36.375 
Q 16.015625 21.625 22.71875 14.15625 
Q 29.4375 6.6875 42.828125 6.6875 
Q 48.046875 6.6875 52.140625 7.59375 
Q 56.25 8.5 59.515625 10.40625 
z
" id="DejaVuSans-71"/>
        <path d="M 19.671875 64.796875 
L 19.671875 37.40625 
L 32.078125 37.40625 
Q 38.96875 37.40625 42.71875 40.96875 
Q 46.484375 44.53125 46.484375 51.125 
Q 46.484375 57.671875 42.71875 61.234375 
Q 38.96875 64.796875 32.078125 64.796875 
z
M 9.8125 72.90625 
L 32.078125 72.90625 
Q 44.34375 72.90625 50.609375 67.359375 
Q 56.890625 61.8125 56.890625 51.125 
Q 56.890625 40.328125 50.609375 34.8125 
Q 44.34375 29.296875 32.078125 29.296875 
L 19.671875 29.296875 
L 19.671875 0 
L 9.8125 0 
z
" id="DejaVuSans-80"/>
        <path d="M -0.296875 72.90625 
L 61.375 72.90625 
L 61.375 64.59375 
L 35.5 64.59375 
L 35.5 0 
L 25.59375 0 
L 25.59375 64.59375 
L -0.296875 64.59375 
z
" id="DejaVuSans-84"/>
        <path d="M 4.890625 31.390625 
L 31.203125 31.390625 
L 31.203125 23.390625 
L 4.890625 23.390625 
z
" id="DejaVuSans-45"/>
        <path d="M 5.609375 72.90625 
L 62.890625 72.90625 
L 62.890625 65.375 
L 16.796875 8.296875 
L 64.015625 8.296875 
L 64.015625 0 
L 4.5 0 
L 4.5 7.515625 
L 50.59375 64.59375 
L 5.609375 64.59375 
z
" id="DejaVuSans-90"/>
        <path d="M 56.203125 29.59375 
L 56.203125 25.203125 
L 14.890625 25.203125 
Q 15.484375 15.921875 20.484375 11.0625 
Q 25.484375 6.203125 34.421875 6.203125 
Q 39.59375 6.203125 44.453125 7.46875 
Q 49.3125 8.734375 54.109375 11.28125 
L 54.109375 2.78125 
Q 49.265625 0.734375 44.1875 -0.34375 
Q 39.109375 -1.421875 33.890625 -1.421875 
Q 20.796875 -1.421875 13.15625 6.1875 
Q 5.515625 13.8125 5.515625 26.8125 
Q 5.515625 40.234375 12.765625 48.109375 
Q 20.015625 56 32.328125 56 
Q 43.359375 56 49.78125 48.890625 
Q 56.203125 41.796875 56.203125 29.59375 
z
M 47.21875 32.234375 
Q 47.125 39.59375 43.09375 43.984375 
Q 39.0625 48.390625 32.421875 48.390625 
Q 24.90625 48.390625 20.390625 44.140625 
Q 15.875 39.890625 15.1875 32.171875 
z
" id="DejaVuSans-101"/>
        <path d="M 41.109375 46.296875 
Q 39.59375 47.171875 37.8125 47.578125 
Q 36.03125 48 33.890625 48 
Q 26.265625 48 22.1875 43.046875 
Q 18.109375 38.09375 18.109375 28.8125 
L 18.109375 0 
L 9.078125 0 
L 9.078125 54.6875 
L 18.109375 54.6875 
L 18.109375 46.1875 
Q 20.953125 51.171875 25.484375 53.578125 
Q 30.03125 56 36.53125 56 
Q 37.453125 56 38.578125 55.875 
Q 39.703125 55.765625 41.0625 55.515625 
z
" id="DejaVuSans-114"/>
        <path d="M 30.609375 48.390625 
Q 23.390625 48.390625 19.1875 42.75 
Q 14.984375 37.109375 14.984375 27.296875 
Q 14.984375 17.484375 19.15625 11.84375 
Q 23.34375 6.203125 30.609375 6.203125 
Q 37.796875 6.203125 41.984375 11.859375 
Q 46.1875 17.53125 46.1875 27.296875 
Q 46.1875 37.015625 41.984375 42.703125 
Q 37.796875 48.390625 30.609375 48.390625 
z
M 30.609375 56 
Q 42.328125 56 49.015625 48.375 
Q 55.71875 40.765625 55.71875 27.296875 
Q 55.71875 13.875 49.015625 6.21875 
Q 42.328125 -1.421875 30.609375 -1.421875 
Q 18.84375 -1.421875 12.171875 6.21875 
Q 5.515625 13.875 5.515625 27.296875 
Q 5.515625 40.765625 12.171875 48.375 
Q 18.84375 56 30.609375 56 
z
" id="DejaVuSans-111"/>
       </defs>
       <use xlink:href="#DejaVuSans-71"/>
       <use x="77.490234" xlink:href="#DejaVuSans-80"/>
       <use x="137.792969" xlink:href="#DejaVuSans-84"/>
       <use x="189.751953" xlink:href="#DejaVuSans-45"/>
       <use x="225.835938" xlink:href="#DejaVuSans-90"/>
       <use x="294.341797" xlink:href="#DejaVuSans-101"/>
       <use x="355.865234" xlink:href="#DejaVuSans-114"/>
       <use x="394.728516" xlink:href="#DejaVuSans-111"/>
      </g>
     </g>
    </g>
    <g id="xtick_3">
     <g id="line2d_3">
      <g>
       <use style="stroke:#000000;stroke-width:0.8;" x="137.102961" xlink:href="#m0e1d658833" y="220.295858"/>
      </g>
     </g>
     <g id="text_3">
      <!-- GPT-Few -->
      <g transform="translate(116.045929 234.894295)scale(0.1 -0.1)">
       <defs>
        <path d="M 9.8125 72.90625 
L 51.703125 72.90625 
L 51.703125 64.59375 
L 19.671875 64.59375 
L 19.671875 43.109375 
L 48.578125 43.109375 
L 48.578125 34.8125 
L 19.671875 34.8125 
L 19.671875 0 
L 9.8125 0 
z
" id="DejaVuSans-70"/>
        <path d="M 4.203125 54.6875 
L 13.1875 54.6875 
L 24.421875 12.015625 
L 35.59375 54.6875 
L 46.1875 54.6875 
L 57.421875 12.015625 
L 68.609375 54.6875 
L 77.59375 54.6875 
L 63.28125 0 
L 52.6875 0 
L 40.921875 44.828125 
L 29.109375 0 
L 18.5 0 
z
" id="DejaVuSans-119"/>
       </defs>
       <use xlink:href="#DejaVuSans-71"/>
       <use x="77.490234" xlink:href="#DejaVuSans-80"/>
       <use x="137.792969" xlink:href="#DejaVuSans-84"/>
       <use x="189.751953" xlink:href="#DejaVuSans-45"/>
       <use x="225.835938" xlink:href="#DejaVuSans-70"/>
       <use x="277.855469" xlink:href="#DejaVuSans-101"/>
       <use x="339.378906" xlink:href="#DejaVuSans-119"/>
      </g>
     </g>
    </g>
    <g id="xtick_4">
     <g id="line2d_4">
      <g>
       <use style="stroke:#000000;stroke-width:0.8;" x="183.073355" xlink:href="#m0e1d658833" y="220.295858"/>
      </g>
     </g>
     <g id="text_4">
      <!-- Our Data -->
      <g transform="translate(160.385855 234.894295)scale(0.1 -0.1)">
       <defs>
        <path d="M 39.40625 66.21875 
Q 28.65625 66.21875 22.328125 58.203125 
Q 16.015625 50.203125 16.015625 36.375 
Q 16.015625 22.609375 22.328125 14.59375 
Q 28.65625 6.59375 39.40625 6.59375 
Q 50.140625 6.59375 56.421875 14.59375 
Q 62.703125 22.609375 62.703125 36.375 
Q 62.703125 50.203125 56.421875 58.203125 
Q 50.140625 66.21875 39.40625 66.21875 
z
M 39.40625 74.21875 
Q 54.734375 74.21875 63.90625 63.9375 
Q 73.09375 53.65625 73.09375 36.375 
Q 73.09375 19.140625 63.90625 8.859375 
Q 54.734375 -1.421875 39.40625 -1.421875 
Q 24.03125 -1.421875 14.8125 8.828125 
Q 5.609375 19.09375 5.609375 36.375 
Q 5.609375 53.65625 14.8125 63.9375 
Q 24.03125 74.21875 39.40625 74.21875 
z
" id="DejaVuSans-79"/>
        <path d="M 8.5 21.578125 
L 8.5 54.6875 
L 17.484375 54.6875 
L 17.484375 21.921875 
Q 17.484375 14.15625 20.5 10.265625 
Q 23.53125 6.390625 29.59375 6.390625 
Q 36.859375 6.390625 41.078125 11.03125 
Q 45.3125 15.671875 45.3125 23.6875 
L 45.3125 54.6875 
L 54.296875 54.6875 
L 54.296875 0 
L 45.3125 0 
L 45.3125 8.40625 
Q 42.046875 3.421875 37.71875 1 
Q 33.40625 -1.421875 27.6875 -1.421875 
Q 18.265625 -1.421875 13.375 4.4375 
Q 8.5 10.296875 8.5 21.578125 
z
M 31.109375 56 
z
" id="DejaVuSans-117"/>
        <path id="DejaVuSans-32"/>
        <path d="M 19.671875 64.796875 
L 19.671875 8.109375 
L 31.59375 8.109375 
Q 46.6875 8.109375 53.6875 14.9375 
Q 60.6875 21.78125 60.6875 36.53125 
Q 60.6875 51.171875 53.6875 57.984375 
Q 46.6875 64.796875 31.59375 64.796875 
z
M 9.8125 72.90625 
L 30.078125 72.90625 
Q 51.265625 72.90625 61.171875 64.09375 
Q 71.09375 55.28125 71.09375 36.53125 
Q 71.09375 17.671875 61.125 8.828125 
Q 51.171875 0 30.078125 0 
L 9.8125 0 
z
" id="DejaVuSans-68"/>
        <path d="M 34.28125 27.484375 
Q 23.390625 27.484375 19.1875 25 
Q 14.984375 22.515625 14.984375 16.5 
Q 14.984375 11.71875 18.140625 8.90625 
Q 21.296875 6.109375 26.703125 6.109375 
Q 34.1875 6.109375 38.703125 11.40625 
Q 43.21875 16.703125 43.21875 25.484375 
L 43.21875 27.484375 
z
M 52.203125 31.203125 
L 52.203125 0 
L 43.21875 0 
L 43.21875 8.296875 
Q 40.140625 3.328125 35.546875 0.953125 
Q 30.953125 -1.421875 24.3125 -1.421875 
Q 15.921875 -1.421875 10.953125 3.296875 
Q 6 8.015625 6 15.921875 
Q 6 25.140625 12.171875 29.828125 
Q 18.359375 34.515625 30.609375 34.515625 
L 43.21875 34.515625 
L 43.21875 35.40625 
Q 43.21875 41.609375 39.140625 45 
Q 35.0625 48.390625 27.6875 48.390625 
Q 23 48.390625 18.546875 47.265625 
Q 14.109375 46.140625 10.015625 43.890625 
L 10.015625 52.203125 
Q 14.9375 54.109375 19.578125 55.046875 
Q 24.21875 56 28.609375 56 
Q 40.484375 56 46.34375 49.84375 
Q 52.203125 43.703125 52.203125 31.203125 
z
" id="DejaVuSans-97"/>
        <path d="M 18.3125 70.21875 
L 18.3125 54.6875 
L 36.8125 54.6875 
L 36.8125 47.703125 
L 18.3125 47.703125 
L 18.3125 18.015625 
Q 18.3125 11.328125 20.140625 9.421875 
Q 21.96875 7.515625 27.59375 7.515625 
L 36.8125 7.515625 
L 36.8125 0 
L 27.59375 0 
Q 17.1875 0 13.234375 3.875 
Q 9.28125 7.765625 9.28125 18.015625 
L 9.28125 47.703125 
L 2.6875 47.703125 
L 2.6875 54.6875 
L 9.28125 54.6875 
L 9.28125 70.21875 
z
" id="DejaVuSans-116"/>
       </defs>
       <use xlink:href="#DejaVuSans-79"/>
       <use x="78.710938" xlink:href="#DejaVuSans-117"/>
       <use x="142.089844" xlink:href="#DejaVuSans-114"/>
       <use x="183.203125" xlink:href="#DejaVuSans-32"/>
       <use x="214.990234" xlink:href="#DejaVuSans-68"/>
       <use x="291.992188" xlink:href="#DejaVuSans-97"/>
       <use x="353.271484" xlink:href="#DejaVuSans-116"/>
       <use x="392.480469" xlink:href="#DejaVuSans-97"/>
      </g>
     </g>
    </g>
    <g id="xtick_5">
     <g id="line2d_5">
      <g>
       <use style="stroke:#000000;stroke-width:0.8;" x="229.04375" xlink:href="#m0e1d658833" y="220.295858"/>
      </g>
     </g>
    </g>
    <g id="xtick_6">
     <g id="line2d_6">
      <g>
       <use style="stroke:#000000;stroke-width:0.8;" x="275.014145" xlink:href="#m0e1d658833" y="220.295858"/>
      </g>
     </g>
    </g>
    <g id="xtick_7">
     <g id="line2d_7">
      <g>
       <use style="stroke:#000000;stroke-width:0.8;" x="320.984539" xlink:href="#m0e1d658833" y="220.295858"/>
      </g>
     </g>
    </g>
    <g id="xtick_8">
     <g id="line2d_8">
      <g>
       <use style="stroke:#000000;stroke-width:0.8;" x="366.954934" xlink:href="#m0e1d658833" y="220.295858"/>
      </g>
     </g>
    </g>
    <g id="xtick_9">
     <g id="line2d_9">
      <g>
       <use style="stroke:#000000;stroke-width:0.8;" x="412.925329" xlink:href="#m0e1d658833" y="220.295858"/>
      </g>
     </g>
    </g>
   </g>
   <g id="matplotlib.axis_2">
    <g id="ytick_1">
     <g id="line2d_10">
      <defs>
       <path d="M 0 0 
L -3.5 0 
" id="m4b543b5bab" style="stroke:#000000;stroke-width:0.8;"/>
      </defs>
      <g>
       <use style="stroke:#000000;stroke-width:0.8;" x="36.8875" xlink:href="#m4b543b5bab" y="220.295858"/>
      </g>
     </g>
     <g id="text_5">
      <!-- 0 -->
      <g transform="translate(23.525 224.095077)scale(0.1 -0.1)">
       <defs>
        <path d="M 31.78125 66.40625 
Q 24.171875 66.40625 20.328125 58.90625 
Q 16.5 51.421875 16.5 36.375 
Q 16.5 21.390625 20.328125 13.890625 
Q 24.171875 6.390625 31.78125 6.390625 
Q 39.453125 6.390625 43.28125 13.890625 
Q 47.125 21.390625 47.125 36.375 
Q 47.125 51.421875 43.28125 58.90625 
Q 39.453125 66.40625 31.78125 66.40625 
z
M 31.78125 74.21875 
Q 44.046875 74.21875 50.515625 64.515625 
Q 56.984375 54.828125 56.984375 36.375 
Q 56.984375 17.96875 50.515625 8.265625 
Q 44.046875 -1.421875 31.78125 -1.421875 
Q 19.53125 -1.421875 13.0625 8.265625 
Q 6.59375 17.96875 6.59375 36.375 
Q 6.59375 54.828125 13.0625 64.515625 
Q 19.53125 74.21875 31.78125 74.21875 
z
" id="DejaVuSans-48"/>
       </defs>
       <use xlink:href="#DejaVuSans-48"/>
      </g>
     </g>
    </g>
    <g id="ytick_2">
     <g id="line2d_11">
      <g>
       <use style="stroke:#000000;stroke-width:0.8;" x="36.8875" xlink:href="#m4b543b5bab" y="183.496828"/>
      </g>
     </g>
     <g id="text_6">
      <!-- 49 -->
      <g transform="translate(17.1625 187.296047)scale(0.1 -0.1)">
       <defs>
        <path d="M 37.796875 64.3125 
L 12.890625 25.390625 
L 37.796875 25.390625 
z
M 35.203125 72.90625 
L 47.609375 72.90625 
L 47.609375 25.390625 
L 58.015625 25.390625 
L 58.015625 17.1875 
L 47.609375 17.1875 
L 47.609375 0 
L 37.796875 0 
L 37.796875 17.1875 
L 4.890625 17.1875 
L 4.890625 26.703125 
z
" id="DejaVuSans-52"/>
        <path d="M 10.984375 1.515625 
L 10.984375 10.5 
Q 14.703125 8.734375 18.5 7.8125 
Q 22.3125 6.890625 25.984375 6.890625 
Q 35.75 6.890625 40.890625 13.453125 
Q 46.046875 20.015625 46.78125 33.40625 
Q 43.953125 29.203125 39.59375 26.953125 
Q 35.25 24.703125 29.984375 24.703125 
Q 19.046875 24.703125 12.671875 31.3125 
Q 6.296875 37.9375 6.296875 49.421875 
Q 6.296875 60.640625 12.9375 67.421875 
Q 19.578125 74.21875 30.609375 74.21875 
Q 43.265625 74.21875 49.921875 64.515625 
Q 56.59375 54.828125 56.59375 36.375 
Q 56.59375 19.140625 48.40625 8.859375 
Q 40.234375 -1.421875 26.421875 -1.421875 
Q 22.703125 -1.421875 18.890625 -0.6875 
Q 15.09375 0.046875 10.984375 1.515625 
z
M 30.609375 32.421875 
Q 37.25 32.421875 41.125 36.953125 
Q 45.015625 41.5 45.015625 49.421875 
Q 45.015625 57.28125 41.125 61.84375 
Q 37.25 66.40625 30.609375 66.40625 
Q 23.96875 66.40625 20.09375 61.84375 
Q 16.21875 57.28125 16.21875 49.421875 
Q 16.21875 41.5 20.09375 36.953125 
Q 23.96875 32.421875 30.609375 32.421875 
z
" id="DejaVuSans-57"/>
       </defs>
       <use xlink:href="#DejaVuSans-52"/>
       <use x="63.623047" xlink:href="#DejaVuSans-57"/>
      </g>
     </g>
    </g>
    <g id="ytick_3">
     <g id="line2d_12">
      <g>
       <use style="stroke:#000000;stroke-width:0.8;" x="36.8875" xlink:href="#m4b543b5bab" y="146.697798"/>
      </g>
     </g>
     <g id="text_7">
      <!-- 98 -->
      <g transform="translate(17.1625 150.497017)scale(0.1 -0.1)">
       <defs>
        <path d="M 31.78125 34.625 
Q 24.75 34.625 20.71875 30.859375 
Q 16.703125 27.09375 16.703125 20.515625 
Q 16.703125 13.921875 20.71875 10.15625 
Q 24.75 6.390625 31.78125 6.390625 
Q 38.8125 6.390625 42.859375 10.171875 
Q 46.921875 13.96875 46.921875 20.515625 
Q 46.921875 27.09375 42.890625 30.859375 
Q 38.875 34.625 31.78125 34.625 
z
M 21.921875 38.8125 
Q 15.578125 40.375 12.03125 44.71875 
Q 8.5 49.078125 8.5 55.328125 
Q 8.5 64.0625 14.71875 69.140625 
Q 20.953125 74.21875 31.78125 74.21875 
Q 42.671875 74.21875 48.875 69.140625 
Q 55.078125 64.0625 55.078125 55.328125 
Q 55.078125 49.078125 51.53125 44.71875 
Q 48 40.375 41.703125 38.8125 
Q 48.828125 37.15625 52.796875 32.3125 
Q 56.78125 27.484375 56.78125 20.515625 
Q 56.78125 9.90625 50.3125 4.234375 
Q 43.84375 -1.421875 31.78125 -1.421875 
Q 19.734375 -1.421875 13.25 4.234375 
Q 6.78125 9.90625 6.78125 20.515625 
Q 6.78125 27.484375 10.78125 32.3125 
Q 14.796875 37.15625 21.921875 38.8125 
z
M 18.3125 54.390625 
Q 18.3125 48.734375 21.84375 45.5625 
Q 25.390625 42.390625 31.78125 42.390625 
Q 38.140625 42.390625 41.71875 45.5625 
Q 45.3125 48.734375 45.3125 54.390625 
Q 45.3125 60.0625 41.71875 63.234375 
Q 38.140625 66.40625 31.78125 66.40625 
Q 25.390625 66.40625 21.84375 63.234375 
Q 18.3125 60.0625 18.3125 54.390625 
z
" id="DejaVuSans-56"/>
       </defs>
       <use xlink:href="#DejaVuSans-57"/>
       <use x="63.623047" xlink:href="#DejaVuSans-56"/>
      </g>
     </g>
    </g>
    <g id="ytick_4">
     <g id="line2d_13">
      <g>
       <use style="stroke:#000000;stroke-width:0.8;" x="36.8875" xlink:href="#m4b543b5bab" y="109.898768"/>
      </g>
     </g>
     <g id="text_8">
      <!-- 147 -->
      <g transform="translate(10.8 113.697987)scale(0.1 -0.1)">
       <defs>
        <path d="M 12.40625 8.296875 
L 28.515625 8.296875 
L 28.515625 63.921875 
L 10.984375 60.40625 
L 10.984375 69.390625 
L 28.421875 72.90625 
L 38.28125 72.90625 
L 38.28125 8.296875 
L 54.390625 8.296875 
L 54.390625 0 
L 12.40625 0 
z
" id="DejaVuSans-49"/>
        <path d="M 8.203125 72.90625 
L 55.078125 72.90625 
L 55.078125 68.703125 
L 28.609375 0 
L 18.3125 0 
L 43.21875 64.59375 
L 8.203125 64.59375 
z
" id="DejaVuSans-55"/>
       </defs>
       <use xlink:href="#DejaVuSans-49"/>
       <use x="63.623047" xlink:href="#DejaVuSans-52"/>
       <use x="127.246094" xlink:href="#DejaVuSans-55"/>
      </g>
     </g>
    </g>
    <g id="ytick_5">
     <g id="line2d_14">
      <g>
       <use style="stroke:#000000;stroke-width:0.8;" x="36.8875" xlink:href="#m4b543b5bab" y="73.099738"/>
      </g>
     </g>
     <g id="text_9">
      <!-- 196 -->
      <g transform="translate(10.8 76.898957)scale(0.1 -0.1)">
       <defs>
        <path d="M 33.015625 40.375 
Q 26.375 40.375 22.484375 35.828125 
Q 18.609375 31.296875 18.609375 23.390625 
Q 18.609375 15.53125 22.484375 10.953125 
Q 26.375 6.390625 33.015625 6.390625 
Q 39.65625 6.390625 43.53125 10.953125 
Q 47.40625 15.53125 47.40625 23.390625 
Q 47.40625 31.296875 43.53125 35.828125 
Q 39.65625 40.375 33.015625 40.375 
z
M 52.59375 71.296875 
L 52.59375 62.3125 
Q 48.875 64.0625 45.09375 64.984375 
Q 41.3125 65.921875 37.59375 65.921875 
Q 27.828125 65.921875 22.671875 59.328125 
Q 17.53125 52.734375 16.796875 39.40625 
Q 19.671875 43.65625 24.015625 45.921875 
Q 28.375 48.1875 33.59375 48.1875 
Q 44.578125 48.1875 50.953125 41.515625 
Q 57.328125 34.859375 57.328125 23.390625 
Q 57.328125 12.15625 50.6875 5.359375 
Q 44.046875 -1.421875 33.015625 -1.421875 
Q 20.359375 -1.421875 13.671875 8.265625 
Q 6.984375 17.96875 6.984375 36.375 
Q 6.984375 53.65625 15.1875 63.9375 
Q 23.390625 74.21875 37.203125 74.21875 
Q 40.921875 74.21875 44.703125 73.484375 
Q 48.484375 72.75 52.59375 71.296875 
z
" id="DejaVuSans-54"/>
       </defs>
       <use xlink:href="#DejaVuSans-49"/>
       <use x="63.623047" xlink:href="#DejaVuSans-57"/>
       <use x="127.246094" xlink:href="#DejaVuSans-54"/>
      </g>
     </g>
    </g>
    <g id="ytick_6">
     <g id="line2d_15">
      <g>
       <use style="stroke:#000000;stroke-width:0.8;" x="36.8875" xlink:href="#m4b543b5bab" y="36.300708"/>
      </g>
     </g>
     <g id="text_10">
      <!-- 245 -->
      <g transform="translate(10.8 40.099927)scale(0.1 -0.1)">
       <defs>
        <path d="M 19.1875 8.296875 
L 53.609375 8.296875 
L 53.609375 0 
L 7.328125 0 
L 7.328125 8.296875 
Q 12.9375 14.109375 22.625 23.890625 
Q 32.328125 33.6875 34.8125 36.53125 
Q 39.546875 41.84375 41.421875 45.53125 
Q 43.3125 49.21875 43.3125 52.78125 
Q 43.3125 58.59375 39.234375 62.25 
Q 35.15625 65.921875 28.609375 65.921875 
Q 23.96875 65.921875 18.8125 64.3125 
Q 13.671875 62.703125 7.8125 59.421875 
L 7.8125 69.390625 
Q 13.765625 71.78125 18.9375 73 
Q 24.125 74.21875 28.421875 74.21875 
Q 39.75 74.21875 46.484375 68.546875 
Q 53.21875 62.890625 53.21875 53.421875 
Q 53.21875 48.921875 51.53125 44.890625 
Q 49.859375 40.875 45.40625 35.40625 
Q 44.1875 33.984375 37.640625 27.21875 
Q 31.109375 20.453125 19.1875 8.296875 
z
" id="DejaVuSans-50"/>
        <path d="M 10.796875 72.90625 
L 49.515625 72.90625 
L 49.515625 64.59375 
L 19.828125 64.59375 
L 19.828125 46.734375 
Q 21.96875 47.46875 24.109375 47.828125 
Q 26.265625 48.1875 28.421875 48.1875 
Q 40.625 48.1875 47.75 41.5 
Q 54.890625 34.8125 54.890625 23.390625 
Q 54.890625 11.625 47.5625 5.09375 
Q 40.234375 -1.421875 26.90625 -1.421875 
Q 22.3125 -1.421875 17.546875 -0.640625 
Q 12.796875 0.140625 7.71875 1.703125 
L 7.71875 11.625 
Q 12.109375 9.234375 16.796875 8.0625 
Q 21.484375 6.890625 26.703125 6.890625 
Q 35.15625 6.890625 40.078125 11.328125 
Q 45.015625 15.765625 45.015625 23.390625 
Q 45.015625 31 40.078125 35.4375 
Q 35.15625 39.890625 26.703125 39.890625 
Q 22.75 39.890625 18.8125 39.015625 
Q 14.890625 38.140625 10.796875 36.28125 
z
" id="DejaVuSans-53"/>
       </defs>
       <use xlink:href="#DejaVuSans-50"/>
       <use x="63.623047" xlink:href="#DejaVuSans-52"/>
       <use x="127.246094" xlink:href="#DejaVuSans-53"/>
      </g>
     </g>
    </g>
   </g>
   <g id="patch_35">
    <path d="M 36.8875 220.295858 
L 36.8875 25.918125 
" style="fill:none;stroke:#000000;stroke-linecap:square;stroke-linejoin:miter;stroke-width:0.8;"/>
   </g>
   <g id="patch_36">
    <path d="M 421.2 220.295858 
L 421.2 25.918125 
" style="fill:none;stroke:#000000;stroke-linecap:square;stroke-linejoin:miter;stroke-width:0.8;"/>
   </g>
   <g id="patch_37">
    <path d="M 36.8875 220.295858 
L 421.2 220.295858 
" style="fill:none;stroke:#000000;stroke-linecap:square;stroke-linejoin:miter;stroke-width:0.8;"/>
   </g>
   <g id="patch_38">
    <path d="M 36.8875 25.918125 
L 421.2 25.918125 
" style="fill:none;stroke:#000000;stroke-linecap:square;stroke-linejoin:miter;stroke-width:0.8;"/>
   </g>
   <g id="text_11">
    <!-- Content Edits -->
    <g transform="translate(188.529687 19.918125)scale(0.12 -0.12)">
     <defs>
      <path d="M 64.40625 67.28125 
L 64.40625 56.890625 
Q 59.421875 61.53125 53.78125 63.8125 
Q 48.140625 66.109375 41.796875 66.109375 
Q 29.296875 66.109375 22.65625 58.46875 
Q 16.015625 50.828125 16.015625 36.375 
Q 16.015625 21.96875 22.65625 14.328125 
Q 29.296875 6.6875 41.796875 6.6875 
Q 48.140625 6.6875 53.78125 8.984375 
Q 59.421875 11.28125 64.40625 15.921875 
L 64.40625 5.609375 
Q 59.234375 2.09375 53.4375 0.328125 
Q 47.65625 -1.421875 41.21875 -1.421875 
Q 24.65625 -1.421875 15.125 8.703125 
Q 5.609375 18.84375 5.609375 36.375 
Q 5.609375 53.953125 15.125 64.078125 
Q 24.65625 74.21875 41.21875 74.21875 
Q 47.75 74.21875 53.53125 72.484375 
Q 59.328125 70.75 64.40625 67.28125 
z
" id="DejaVuSans-67"/>
      <path d="M 54.890625 33.015625 
L 54.890625 0 
L 45.90625 0 
L 45.90625 32.71875 
Q 45.90625 40.484375 42.875 44.328125 
Q 39.84375 48.1875 33.796875 48.1875 
Q 26.515625 48.1875 22.3125 43.546875 
Q 18.109375 38.921875 18.109375 30.90625 
L 18.109375 0 
L 9.078125 0 
L 9.078125 54.6875 
L 18.109375 54.6875 
L 18.109375 46.1875 
Q 21.34375 51.125 25.703125 53.5625 
Q 30.078125 56 35.796875 56 
Q 45.21875 56 50.046875 50.171875 
Q 54.890625 44.34375 54.890625 33.015625 
z
" id="DejaVuSans-110"/>
      <path d="M 9.8125 72.90625 
L 55.90625 72.90625 
L 55.90625 64.59375 
L 19.671875 64.59375 
L 19.671875 43.015625 
L 54.390625 43.015625 
L 54.390625 34.71875 
L 19.671875 34.71875 
L 19.671875 8.296875 
L 56.78125 8.296875 
L 56.78125 0 
L 9.8125 0 
z
" id="DejaVuSans-69"/>
      <path d="M 45.40625 46.390625 
L 45.40625 75.984375 
L 54.390625 75.984375 
L 54.390625 0 
L 45.40625 0 
L 45.40625 8.203125 
Q 42.578125 3.328125 38.25 0.953125 
Q 33.9375 -1.421875 27.875 -1.421875 
Q 17.96875 -1.421875 11.734375 6.484375 
Q 5.515625 14.40625 5.515625 27.296875 
Q 5.515625 40.1875 11.734375 48.09375 
Q 17.96875 56 27.875 56 
Q 33.9375 56 38.25 53.625 
Q 42.578125 51.265625 45.40625 46.390625 
z
M 14.796875 27.296875 
Q 14.796875 17.390625 18.875 11.75 
Q 22.953125 6.109375 30.078125 6.109375 
Q 37.203125 6.109375 41.296875 11.75 
Q 45.40625 17.390625 45.40625 27.296875 
Q 45.40625 37.203125 41.296875 42.84375 
Q 37.203125 48.484375 30.078125 48.484375 
Q 22.953125 48.484375 18.875 42.84375 
Q 14.796875 37.203125 14.796875 27.296875 
z
" id="DejaVuSans-100"/>
      <path d="M 9.421875 54.6875 
L 18.40625 54.6875 
L 18.40625 0 
L 9.421875 0 
z
M 9.421875 75.984375 
L 18.40625 75.984375 
L 18.40625 64.59375 
L 9.421875 64.59375 
z
" id="DejaVuSans-105"/>
      <path d="M 44.28125 53.078125 
L 44.28125 44.578125 
Q 40.484375 46.53125 36.375 47.5 
Q 32.28125 48.484375 27.875 48.484375 
Q 21.1875 48.484375 17.84375 46.4375 
Q 14.5 44.390625 14.5 40.28125 
Q 14.5 37.15625 16.890625 35.375 
Q 19.28125 33.59375 26.515625 31.984375 
L 29.59375 31.296875 
Q 39.15625 29.25 43.1875 25.515625 
Q 47.21875 21.78125 47.21875 15.09375 
Q 47.21875 7.46875 41.1875 3.015625 
Q 35.15625 -1.421875 24.609375 -1.421875 
Q 20.21875 -1.421875 15.453125 -0.5625 
Q 10.6875 0.296875 5.421875 2 
L 5.421875 11.28125 
Q 10.40625 8.6875 15.234375 7.390625 
Q 20.0625 6.109375 24.8125 6.109375 
Q 31.15625 6.109375 34.5625 8.28125 
Q 37.984375 10.453125 37.984375 14.40625 
Q 37.984375 18.0625 35.515625 20.015625 
Q 33.0625 21.96875 24.703125 23.78125 
L 21.578125 24.515625 
Q 13.234375 26.265625 9.515625 29.90625 
Q 5.8125 33.546875 5.8125 39.890625 
Q 5.8125 47.609375 11.28125 51.796875 
Q 16.75 56 26.8125 56 
Q 31.78125 56 36.171875 55.265625 
Q 40.578125 54.546875 44.28125 53.078125 
z
" id="DejaVuSans-115"/>
     </defs>
     <use xlink:href="#DejaVuSans-67"/>
     <use x="69.824219" xlink:href="#DejaVuSans-111"/>
     <use x="131.005859" xlink:href="#DejaVuSans-110"/>
     <use x="194.384766" xlink:href="#DejaVuSans-116"/>
     <use x="233.59375" xlink:href="#DejaVuSans-101"/>
     <use x="295.117188" xlink:href="#DejaVuSans-110"/>
     <use x="358.496094" xlink:href="#DejaVuSans-116"/>
     <use x="397.705078" xlink:href="#DejaVuSans-32"/>
     <use x="429.492188" xlink:href="#DejaVuSans-69"/>
     <use x="492.675781" xlink:href="#DejaVuSans-100"/>
     <use x="556.152344" xlink:href="#DejaVuSans-105"/>
     <use x="583.935547" xlink:href="#DejaVuSans-116"/>
     <use x="623.144531" xlink:href="#DejaVuSans-115"/>
    </g>
   </g>
   <g id="legend_1">
    <g id="patch_39">
     <path d="M 72.071875 316.165018 
L 386.015625 316.165018 
Q 388.015625 316.165018 388.015625 314.165018 
L 388.015625 256.452518 
Q 388.015625 254.452518 386.015625 254.452518 
L 72.071875 254.452518 
Q 70.071875 254.452518 70.071875 256.452518 
L 70.071875 314.165018 
Q 70.071875 316.165018 72.071875 316.165018 
z
" style="fill:#ffffff;opacity:0.8;stroke:#cccccc;stroke-linejoin:miter;"/>
    </g>
    <g id="patch_40">
     <path d="M 74.071875 266.050955 
L 94.071875 266.050955 
L 94.071875 259.050955 
L 74.071875 259.050955 
z
" style="fill:#ee2a2a;"/>
    </g>
    <g id="text_12">
     <!-- Generalization -->
     <g transform="translate(102.071875 266.050955)scale(0.1 -0.1)">
      <defs>
       <path d="M 9.421875 75.984375 
L 18.40625 75.984375 
L 18.40625 0 
L 9.421875 0 
z
" id="DejaVuSans-108"/>
       <path d="M 5.515625 54.6875 
L 48.1875 54.6875 
L 48.1875 46.484375 
L 14.40625 7.171875 
L 48.1875 7.171875 
L 48.1875 0 
L 4.296875 0 
L 4.296875 8.203125 
L 38.09375 47.515625 
L 5.515625 47.515625 
z
" id="DejaVuSans-122"/>
      </defs>
      <use xlink:href="#DejaVuSans-71"/>
      <use x="77.490234" xlink:href="#DejaVuSans-101"/>
      <use x="139.013672" xlink:href="#DejaVuSans-110"/>
      <use x="202.392578" xlink:href="#DejaVuSans-101"/>
      <use x="263.916016" xlink:href="#DejaVuSans-114"/>
      <use x="305.029297" xlink:href="#DejaVuSans-97"/>
      <use x="366.308594" xlink:href="#DejaVuSans-108"/>
      <use x="394.091797" xlink:href="#DejaVuSans-105"/>
      <use x="421.875" xlink:href="#DejaVuSans-122"/>
      <use x="474.365234" xlink:href="#DejaVuSans-97"/>
      <use x="535.644531" xlink:href="#DejaVuSans-116"/>
      <use x="574.853516" xlink:href="#DejaVuSans-105"/>
      <use x="602.636719" xlink:href="#DejaVuSans-111"/>
      <use x="663.818359" xlink:href="#DejaVuSans-110"/>
     </g>
    </g>
    <g id="patch_41">
     <path d="M 74.071875 280.72908 
L 94.071875 280.72908 
L 94.071875 273.72908 
L 74.071875 273.72908 
z
" style="fill:#64c466;"/>
    </g>
    <g id="text_13">
     <!-- Elaboration -->
     <g transform="translate(102.071875 280.72908)scale(0.1 -0.1)">
      <defs>
       <path d="M 48.6875 27.296875 
Q 48.6875 37.203125 44.609375 42.84375 
Q 40.53125 48.484375 33.40625 48.484375 
Q 26.265625 48.484375 22.1875 42.84375 
Q 18.109375 37.203125 18.109375 27.296875 
Q 18.109375 17.390625 22.1875 11.75 
Q 26.265625 6.109375 33.40625 6.109375 
Q 40.53125 6.109375 44.609375 11.75 
Q 48.6875 17.390625 48.6875 27.296875 
z
M 18.109375 46.390625 
Q 20.953125 51.265625 25.265625 53.625 
Q 29.59375 56 35.59375 56 
Q 45.5625 56 51.78125 48.09375 
Q 58.015625 40.1875 58.015625 27.296875 
Q 58.015625 14.40625 51.78125 6.484375 
Q 45.5625 -1.421875 35.59375 -1.421875 
Q 29.59375 -1.421875 25.265625 0.953125 
Q 20.953125 3.328125 18.109375 8.203125 
L 18.109375 0 
L 9.078125 0 
L 9.078125 75.984375 
L 18.109375 75.984375 
z
" id="DejaVuSans-98"/>
      </defs>
      <use xlink:href="#DejaVuSans-69"/>
      <use x="63.183594" xlink:href="#DejaVuSans-108"/>
      <use x="90.966797" xlink:href="#DejaVuSans-97"/>
      <use x="152.246094" xlink:href="#DejaVuSans-98"/>
      <use x="215.722656" xlink:href="#DejaVuSans-111"/>
      <use x="276.904297" xlink:href="#DejaVuSans-114"/>
      <use x="318.017578" xlink:href="#DejaVuSans-97"/>
      <use x="379.296875" xlink:href="#DejaVuSans-116"/>
      <use x="418.505859" xlink:href="#DejaVuSans-105"/>
      <use x="446.289062" xlink:href="#DejaVuSans-111"/>
      <use x="507.470703" xlink:href="#DejaVuSans-110"/>
     </g>
    </g>
    <g id="patch_42">
     <path d="M 74.071875 295.407205 
L 94.071875 295.407205 
L 94.071875 288.407205 
L 74.071875 288.407205 
z
" style="fill:#c3eb98;"/>
    </g>
    <g id="text_14">
     <!-- Repetition Error -->
     <g transform="translate(102.071875 295.407205)scale(0.1 -0.1)">
      <defs>
       <path d="M 44.390625 34.1875 
Q 47.5625 33.109375 50.5625 29.59375 
Q 53.5625 26.078125 56.59375 19.921875 
L 66.609375 0 
L 56 0 
L 46.6875 18.703125 
Q 43.0625 26.03125 39.671875 28.421875 
Q 36.28125 30.8125 30.421875 30.8125 
L 19.671875 30.8125 
L 19.671875 0 
L 9.8125 0 
L 9.8125 72.90625 
L 32.078125 72.90625 
Q 44.578125 72.90625 50.734375 67.671875 
Q 56.890625 62.453125 56.890625 51.90625 
Q 56.890625 45.015625 53.6875 40.46875 
Q 50.484375 35.9375 44.390625 34.1875 
z
M 19.671875 64.796875 
L 19.671875 38.921875 
L 32.078125 38.921875 
Q 39.203125 38.921875 42.84375 42.21875 
Q 46.484375 45.515625 46.484375 51.90625 
Q 46.484375 58.296875 42.84375 61.546875 
Q 39.203125 64.796875 32.078125 64.796875 
z
" id="DejaVuSans-82"/>
       <path d="M 18.109375 8.203125 
L 18.109375 -20.796875 
L 9.078125 -20.796875 
L 9.078125 54.6875 
L 18.109375 54.6875 
L 18.109375 46.390625 
Q 20.953125 51.265625 25.265625 53.625 
Q 29.59375 56 35.59375 56 
Q 45.5625 56 51.78125 48.09375 
Q 58.015625 40.1875 58.015625 27.296875 
Q 58.015625 14.40625 51.78125 6.484375 
Q 45.5625 -1.421875 35.59375 -1.421875 
Q 29.59375 -1.421875 25.265625 0.953125 
Q 20.953125 3.328125 18.109375 8.203125 
z
M 48.6875 27.296875 
Q 48.6875 37.203125 44.609375 42.84375 
Q 40.53125 48.484375 33.40625 48.484375 
Q 26.265625 48.484375 22.1875 42.84375 
Q 18.109375 37.203125 18.109375 27.296875 
Q 18.109375 17.390625 22.1875 11.75 
Q 26.265625 6.109375 33.40625 6.109375 
Q 40.53125 6.109375 44.609375 11.75 
Q 48.6875 17.390625 48.6875 27.296875 
z
" id="DejaVuSans-112"/>
      </defs>
      <use xlink:href="#DejaVuSans-82"/>
      <use x="64.982422" xlink:href="#DejaVuSans-101"/>
      <use x="126.505859" xlink:href="#DejaVuSans-112"/>
      <use x="189.982422" xlink:href="#DejaVuSans-101"/>
      <use x="251.505859" xlink:href="#DejaVuSans-116"/>
      <use x="290.714844" xlink:href="#DejaVuSans-105"/>
      <use x="318.498047" xlink:href="#DejaVuSans-116"/>
      <use x="357.707031" xlink:href="#DejaVuSans-105"/>
      <use x="385.490234" xlink:href="#DejaVuSans-111"/>
      <use x="446.671875" xlink:href="#DejaVuSans-110"/>
      <use x="510.050781" xlink:href="#DejaVuSans-32"/>
      <use x="541.837891" xlink:href="#DejaVuSans-69"/>
      <use x="605.021484" xlink:href="#DejaVuSans-114"/>
      <use x="644.384766" xlink:href="#DejaVuSans-114"/>
      <use x="683.248047" xlink:href="#DejaVuSans-111"/>
      <use x="744.429688" xlink:href="#DejaVuSans-114"/>
     </g>
    </g>
    <g id="patch_43">
     <path d="M 74.071875 310.08533 
L 94.071875 310.08533 
L 94.071875 303.08533 
L 74.071875 303.08533 
z
" style="fill:#a2cf72;"/>
    </g>
    <g id="text_15">
     <!-- Contradiction Error -->
     <g transform="translate(102.071875 310.08533)scale(0.1 -0.1)">
      <defs>
       <path d="M 48.78125 52.59375 
L 48.78125 44.1875 
Q 44.96875 46.296875 41.140625 47.34375 
Q 37.3125 48.390625 33.40625 48.390625 
Q 24.65625 48.390625 19.8125 42.84375 
Q 14.984375 37.3125 14.984375 27.296875 
Q 14.984375 17.28125 19.8125 11.734375 
Q 24.65625 6.203125 33.40625 6.203125 
Q 37.3125 6.203125 41.140625 7.25 
Q 44.96875 8.296875 48.78125 10.40625 
L 48.78125 2.09375 
Q 45.015625 0.34375 40.984375 -0.53125 
Q 36.96875 -1.421875 32.421875 -1.421875 
Q 20.0625 -1.421875 12.78125 6.34375 
Q 5.515625 14.109375 5.515625 27.296875 
Q 5.515625 40.671875 12.859375 48.328125 
Q 20.21875 56 33.015625 56 
Q 37.15625 56 41.109375 55.140625 
Q 45.0625 54.296875 48.78125 52.59375 
z
" id="DejaVuSans-99"/>
      </defs>
      <use xlink:href="#DejaVuSans-67"/>
      <use x="69.824219" xlink:href="#DejaVuSans-111"/>
      <use x="131.005859" xlink:href="#DejaVuSans-110"/>
      <use x="194.384766" xlink:href="#DejaVuSans-116"/>
      <use x="233.59375" xlink:href="#DejaVuSans-114"/>
      <use x="274.707031" xlink:href="#DejaVuSans-97"/>
      <use x="335.986328" xlink:href="#DejaVuSans-100"/>
      <use x="399.462891" xlink:href="#DejaVuSans-105"/>
      <use x="427.246094" xlink:href="#DejaVuSans-99"/>
      <use x="482.226562" xlink:href="#DejaVuSans-116"/>
      <use x="521.435547" xlink:href="#DejaVuSans-105"/>
      <use x="549.21875" xlink:href="#DejaVuSans-111"/>
      <use x="610.400391" xlink:href="#DejaVuSans-110"/>
      <use x="673.779297" xlink:href="#DejaVuSans-32"/>
      <use x="705.566406" xlink:href="#DejaVuSans-69"/>
      <use x="768.75" xlink:href="#DejaVuSans-114"/>
      <use x="808.113281" xlink:href="#DejaVuSans-114"/>
      <use x="846.976562" xlink:href="#DejaVuSans-111"/>
      <use x="908.158203" xlink:href="#DejaVuSans-114"/>
     </g>
    </g>
    <g id="patch_44">
     <path d="M 216.998437 266.050955 
L 236.998437 266.050955 
L 236.998437 259.050955 
L 216.998437 259.050955 
z
" style="fill:#8ebd5c;"/>
    </g>
    <g id="text_16">
     <!-- Irrelevant Error -->
     <g transform="translate(244.998437 266.050955)scale(0.1 -0.1)">
      <defs>
       <path d="M 9.8125 72.90625 
L 19.671875 72.90625 
L 19.671875 0 
L 9.8125 0 
z
" id="DejaVuSans-73"/>
       <path d="M 2.984375 54.6875 
L 12.5 54.6875 
L 29.59375 8.796875 
L 46.6875 54.6875 
L 56.203125 54.6875 
L 35.6875 0 
L 23.484375 0 
z
" id="DejaVuSans-118"/>
      </defs>
      <use xlink:href="#DejaVuSans-73"/>
      <use x="29.492188" xlink:href="#DejaVuSans-114"/>
      <use x="68.855469" xlink:href="#DejaVuSans-114"/>
      <use x="107.71875" xlink:href="#DejaVuSans-101"/>
      <use x="169.242188" xlink:href="#DejaVuSans-108"/>
      <use x="197.025391" xlink:href="#DejaVuSans-101"/>
      <use x="258.548828" xlink:href="#DejaVuSans-118"/>
      <use x="317.728516" xlink:href="#DejaVuSans-97"/>
      <use x="379.007812" xlink:href="#DejaVuSans-110"/>
      <use x="442.386719" xlink:href="#DejaVuSans-116"/>
      <use x="481.595703" xlink:href="#DejaVuSans-32"/>
      <use x="513.382812" xlink:href="#DejaVuSans-69"/>
      <use x="576.566406" xlink:href="#DejaVuSans-114"/>
      <use x="615.929688" xlink:href="#DejaVuSans-114"/>
      <use x="654.792969" xlink:href="#DejaVuSans-111"/>
      <use x="715.974609" xlink:href="#DejaVuSans-114"/>
     </g>
    </g>
    <g id="patch_45">
     <path d="M 216.998437 280.72908 
L 236.998437 280.72908 
L 236.998437 273.72908 
L 216.998437 273.72908 
z
" style="fill:#ca54e8;"/>
    </g>
    <g id="text_17">
     <!-- Information Rewrite Error -->
     <g transform="translate(244.998437 280.72908)scale(0.1 -0.1)">
      <defs>
       <path d="M 37.109375 75.984375 
L 37.109375 68.5 
L 28.515625 68.5 
Q 23.6875 68.5 21.796875 66.546875 
Q 19.921875 64.59375 19.921875 59.515625 
L 19.921875 54.6875 
L 34.71875 54.6875 
L 34.71875 47.703125 
L 19.921875 47.703125 
L 19.921875 0 
L 10.890625 0 
L 10.890625 47.703125 
L 2.296875 47.703125 
L 2.296875 54.6875 
L 10.890625 54.6875 
L 10.890625 58.5 
Q 10.890625 67.625 15.140625 71.796875 
Q 19.390625 75.984375 28.609375 75.984375 
z
" id="DejaVuSans-102"/>
       <path d="M 52 44.1875 
Q 55.375 50.25 60.0625 53.125 
Q 64.75 56 71.09375 56 
Q 79.640625 56 84.28125 50.015625 
Q 88.921875 44.046875 88.921875 33.015625 
L 88.921875 0 
L 79.890625 0 
L 79.890625 32.71875 
Q 79.890625 40.578125 77.09375 44.375 
Q 74.3125 48.1875 68.609375 48.1875 
Q 61.625 48.1875 57.5625 43.546875 
Q 53.515625 38.921875 53.515625 30.90625 
L 53.515625 0 
L 44.484375 0 
L 44.484375 32.71875 
Q 44.484375 40.625 41.703125 44.40625 
Q 38.921875 48.1875 33.109375 48.1875 
Q 26.21875 48.1875 22.15625 43.53125 
Q 18.109375 38.875 18.109375 30.90625 
L 18.109375 0 
L 9.078125 0 
L 9.078125 54.6875 
L 18.109375 54.6875 
L 18.109375 46.1875 
Q 21.1875 51.21875 25.484375 53.609375 
Q 29.78125 56 35.6875 56 
Q 41.65625 56 45.828125 52.96875 
Q 50 49.953125 52 44.1875 
z
" id="DejaVuSans-109"/>
      </defs>
      <use xlink:href="#DejaVuSans-73"/>
      <use x="29.492188" xlink:href="#DejaVuSans-110"/>
      <use x="92.871094" xlink:href="#DejaVuSans-102"/>
      <use x="128.076172" xlink:href="#DejaVuSans-111"/>
      <use x="189.257812" xlink:href="#DejaVuSans-114"/>
      <use x="228.621094" xlink:href="#DejaVuSans-109"/>
      <use x="326.033203" xlink:href="#DejaVuSans-97"/>
      <use x="387.3125" xlink:href="#DejaVuSans-116"/>
      <use x="426.521484" xlink:href="#DejaVuSans-105"/>
      <use x="454.304688" xlink:href="#DejaVuSans-111"/>
      <use x="515.486328" xlink:href="#DejaVuSans-110"/>
      <use x="578.865234" xlink:href="#DejaVuSans-32"/>
      <use x="610.652344" xlink:href="#DejaVuSans-82"/>
      <use x="675.634766" xlink:href="#DejaVuSans-101"/>
      <use x="737.158203" xlink:href="#DejaVuSans-119"/>
      <use x="818.945312" xlink:href="#DejaVuSans-114"/>
      <use x="860.058594" xlink:href="#DejaVuSans-105"/>
      <use x="887.841797" xlink:href="#DejaVuSans-116"/>
      <use x="927.050781" xlink:href="#DejaVuSans-101"/>
      <use x="988.574219" xlink:href="#DejaVuSans-32"/>
      <use x="1020.361328" xlink:href="#DejaVuSans-69"/>
      <use x="1083.544922" xlink:href="#DejaVuSans-114"/>
      <use x="1122.908203" xlink:href="#DejaVuSans-114"/>
      <use x="1161.771484" xlink:href="#DejaVuSans-111"/>
      <use x="1222.953125" xlink:href="#DejaVuSans-114"/>
     </g>
    </g>
    <g id="patch_46">
     <path d="M 216.998437 295.407205 
L 236.998437 295.407205 
L 236.998437 288.407205 
L 216.998437 288.407205 
z
" style="fill:#eb6565;"/>
    </g>
    <g id="text_18">
     <!-- Bad Deletion Error -->
     <g transform="translate(244.998437 295.407205)scale(0.1 -0.1)">
      <defs>
       <path d="M 19.671875 34.8125 
L 19.671875 8.109375 
L 35.5 8.109375 
Q 43.453125 8.109375 47.28125 11.40625 
Q 51.125 14.703125 51.125 21.484375 
Q 51.125 28.328125 47.28125 31.5625 
Q 43.453125 34.8125 35.5 34.8125 
z
M 19.671875 64.796875 
L 19.671875 42.828125 
L 34.28125 42.828125 
Q 41.5 42.828125 45.03125 45.53125 
Q 48.578125 48.25 48.578125 53.8125 
Q 48.578125 59.328125 45.03125 62.0625 
Q 41.5 64.796875 34.28125 64.796875 
z
M 9.8125 72.90625 
L 35.015625 72.90625 
Q 46.296875 72.90625 52.390625 68.21875 
Q 58.5 63.53125 58.5 54.890625 
Q 58.5 48.1875 55.375 44.234375 
Q 52.25 40.28125 46.1875 39.3125 
Q 53.46875 37.75 57.5 32.78125 
Q 61.53125 27.828125 61.53125 20.40625 
Q 61.53125 10.640625 54.890625 5.3125 
Q 48.25 0 35.984375 0 
L 9.8125 0 
z
" id="DejaVuSans-66"/>
      </defs>
      <use xlink:href="#DejaVuSans-66"/>
      <use x="68.603516" xlink:href="#DejaVuSans-97"/>
      <use x="129.882812" xlink:href="#DejaVuSans-100"/>
      <use x="193.359375" xlink:href="#DejaVuSans-32"/>
      <use x="225.146484" xlink:href="#DejaVuSans-68"/>
      <use x="302.148438" xlink:href="#DejaVuSans-101"/>
      <use x="363.671875" xlink:href="#DejaVuSans-108"/>
      <use x="391.455078" xlink:href="#DejaVuSans-101"/>
      <use x="452.978516" xlink:href="#DejaVuSans-116"/>
      <use x="492.1875" xlink:href="#DejaVuSans-105"/>
      <use x="519.970703" xlink:href="#DejaVuSans-111"/>
      <use x="581.152344" xlink:href="#DejaVuSans-110"/>
      <use x="644.53125" xlink:href="#DejaVuSans-32"/>
      <use x="676.318359" xlink:href="#DejaVuSans-69"/>
      <use x="739.501953" xlink:href="#DejaVuSans-114"/>
      <use x="778.865234" xlink:href="#DejaVuSans-114"/>
      <use x="817.728516" xlink:href="#DejaVuSans-111"/>
      <use x="878.910156" xlink:href="#DejaVuSans-114"/>
     </g>
    </g>
    <g id="patch_47">
     <path d="M 216.998437 310.08533 
L 236.998437 310.08533 
L 236.998437 303.08533 
L 216.998437 303.08533 
z
" style="fill:#b0f5b7;"/>
    </g>
    <g id="text_19">
     <!-- Unnecessary Insertion Error -->
     <g transform="translate(244.998437 310.08533)scale(0.1 -0.1)">
      <defs>
       <path d="M 32.171875 -5.078125 
Q 28.375 -14.84375 24.75 -17.8125 
Q 21.140625 -20.796875 15.09375 -20.796875 
L 7.90625 -20.796875 
L 7.90625 -13.28125 
L 13.1875 -13.28125 
Q 16.890625 -13.28125 18.9375 -11.515625 
Q 21 -9.765625 23.484375 -3.21875 
L 25.09375 0.875 
L 2.984375 54.6875 
L 12.5 54.6875 
L 29.59375 11.921875 
L 46.6875 54.6875 
L 56.203125 54.6875 
z
" id="DejaVuSans-121"/>
      </defs>
      <use xlink:href="#DejaVuSans-85"/>
      <use x="73.193359" xlink:href="#DejaVuSans-110"/>
      <use x="136.572266" xlink:href="#DejaVuSans-110"/>
      <use x="199.951172" xlink:href="#DejaVuSans-101"/>
      <use x="261.474609" xlink:href="#DejaVuSans-99"/>
      <use x="316.455078" xlink:href="#DejaVuSans-101"/>
      <use x="377.978516" xlink:href="#DejaVuSans-115"/>
      <use x="430.078125" xlink:href="#DejaVuSans-115"/>
      <use x="482.177734" xlink:href="#DejaVuSans-97"/>
      <use x="543.457031" xlink:href="#DejaVuSans-114"/>
      <use x="584.570312" xlink:href="#DejaVuSans-121"/>
      <use x="643.75" xlink:href="#DejaVuSans-32"/>
      <use x="675.537109" xlink:href="#DejaVuSans-73"/>
      <use x="705.029297" xlink:href="#DejaVuSans-110"/>
      <use x="768.408203" xlink:href="#DejaVuSans-115"/>
      <use x="820.507812" xlink:href="#DejaVuSans-101"/>
      <use x="882.03125" xlink:href="#DejaVuSans-114"/>
      <use x="923.144531" xlink:href="#DejaVuSans-116"/>
      <use x="962.353516" xlink:href="#DejaVuSans-105"/>
      <use x="990.136719" xlink:href="#DejaVuSans-111"/>
      <use x="1051.318359" xlink:href="#DejaVuSans-110"/>
      <use x="1114.697266" xlink:href="#DejaVuSans-32"/>
      <use x="1146.484375" xlink:href="#DejaVuSans-69"/>
      <use x="1209.667969" xlink:href="#DejaVuSans-114"/>
      <use x="1249.03125" xlink:href="#DejaVuSans-114"/>
      <use x="1287.894531" xlink:href="#DejaVuSans-111"/>
      <use x="1349.076172" xlink:href="#DejaVuSans-114"/>
     </g>
    </g>
   </g>
  </g>
  <g id="axes_2">
   <g id="patch_48">
    <path d="M 36.8875 538.481275 
L 421.2 538.481275 
L 421.2 344.103542 
L 36.8875 344.103542 
z
" style="fill:#ffffff;"/>
   </g>
   <g id="patch_49">
    <path clip-path="url(#pbbe3bd9f87)" d="M 54.35625 538.481275 
L 86.535526 538.481275 
L 86.535526 528.73803 
L 54.35625 528.73803 
z
" style="fill:#54b387;"/>
   </g>
   <g id="patch_50">
    <path clip-path="url(#pbbe3bd9f87)" d="M 146.297039 538.481275 
L 178.476316 538.481275 
L 178.476316 518.994785 
L 146.297039 518.994785 
z
" style="fill:#54b387;"/>
   </g>
   <g id="patch_51">
    <path clip-path="url(#pbbe3bd9f87)" d="M 238.237829 538.481275 
L 270.417105 538.481275 
L 270.417105 522.892083 
L 238.237829 522.892083 
z
" style="fill:#54b387;"/>
   </g>
   <g id="patch_52">
    <path clip-path="url(#pbbe3bd9f87)" d="M 330.178618 538.481275 
L 362.357895 538.481275 
L 362.357895 518.994785 
L 330.178618 518.994785 
z
" style="fill:#54b387;"/>
   </g>
   <g id="patch_53">
    <path clip-path="url(#pbbe3bd9f87)" d="M 54.35625 528.73803 
L 86.535526 528.73803 
L 86.535526 495.610998 
L 54.35625 495.610998 
z
" style="fill:#7db39a;"/>
   </g>
   <g id="patch_54">
    <path clip-path="url(#pbbe3bd9f87)" d="M 146.297039 518.994785 
L 178.476316 518.994785 
L 178.476316 481.970455 
L 146.297039 481.970455 
z
" style="fill:#7db39a;"/>
   </g>
   <g id="patch_55">
    <path clip-path="url(#pbbe3bd9f87)" d="M 238.237829 522.892083 
L 270.417105 522.892083 
L 270.417105 468.329912 
L 238.237829 468.329912 
z
" style="fill:#7db39a;"/>
   </g>
   <g id="patch_56">
    <path clip-path="url(#pbbe3bd9f87)" d="M 330.178618 518.994785 
L 362.357895 518.994785 
L 362.357895 489.765051 
L 330.178618 489.765051 
z
" style="fill:#7db39a;"/>
   </g>
   <g id="patch_57">
    <path clip-path="url(#pbbe3bd9f87)" d="M 54.35625 495.610998 
L 86.535526 495.610998 
L 86.535526 423.510986 
L 54.35625 423.510986 
z
" style="fill:#ffa159;"/>
   </g>
   <g id="patch_58">
    <path clip-path="url(#pbbe3bd9f87)" d="M 146.297039 481.970455 
L 178.476316 481.970455 
L 178.476316 374.794763 
L 146.297039 374.794763 
z
" style="fill:#ffa159;"/>
   </g>
   <g id="patch_59">
    <path clip-path="url(#pbbe3bd9f87)" d="M 238.237829 468.329912 
L 270.417105 468.329912 
L 270.417105 353.359624 
L 238.237829 353.359624 
z
" style="fill:#ffa159;"/>
   </g>
   <g id="patch_60">
    <path clip-path="url(#pbbe3bd9f87)" d="M 330.178618 489.765051 
L 362.357895 489.765051 
L 362.357895 370.897465 
L 330.178618 370.897465 
z
" style="fill:#ffa159;"/>
   </g>
   <g id="patch_61">
    <path clip-path="url(#pbbe3bd9f87)" d="M 95.729605 538.481275 
L 127.908882 538.481275 
L 127.908882 536.532626 
L 95.729605 536.532626 
z
" style="fill:#54b387;"/>
   </g>
   <g id="patch_62">
    <path clip-path="url(#pbbe3bd9f87)" d="M 187.670395 538.481275 
L 219.849671 538.481275 
L 219.849671 536.532626 
L 187.670395 536.532626 
z
" style="fill:#54b387;"/>
   </g>
   <g id="patch_63">
    <path clip-path="url(#pbbe3bd9f87)" d="M 279.611184 538.481275 
L 311.790461 538.481275 
L 311.790461 536.532626 
L 279.611184 536.532626 
z
" style="fill:#54b387;"/>
   </g>
   <g id="patch_64">
    <path clip-path="url(#pbbe3bd9f87)" d="M 371.551974 538.481275 
L 403.73125 538.481275 
L 403.73125 538.481275 
L 371.551974 538.481275 
z
" style="fill:#54b387;"/>
   </g>
   <g id="patch_65">
    <path clip-path="url(#pbbe3bd9f87)" d="M 95.729605 536.532626 
L 127.908882 536.532626 
L 127.908882 520.943434 
L 95.729605 520.943434 
z
" style="fill:#7db39a;"/>
   </g>
   <g id="patch_66">
    <path clip-path="url(#pbbe3bd9f87)" d="M 187.670395 536.532626 
L 219.849671 536.532626 
L 219.849671 530.686679 
L 187.670395 530.686679 
z
" style="fill:#7db39a;"/>
   </g>
   <g id="patch_67">
    <path clip-path="url(#pbbe3bd9f87)" d="M 279.611184 536.532626 
L 311.790461 536.532626 
L 311.790461 526.789381 
L 279.611184 526.789381 
z
" style="fill:#7db39a;"/>
   </g>
   <g id="patch_68">
    <path clip-path="url(#pbbe3bd9f87)" d="M 371.551974 538.481275 
L 403.73125 538.481275 
L 403.73125 531.661003 
L 371.551974 531.661003 
z
" style="fill:#7db39a;"/>
   </g>
   <g id="patch_69">
    <path clip-path="url(#pbbe3bd9f87)" d="M 95.729605 520.943434 
L 127.908882 520.943434 
L 127.908882 515.097487 
L 95.729605 515.097487 
z
" style="fill:#ffa159;"/>
   </g>
   <g id="patch_70">
    <path clip-path="url(#pbbe3bd9f87)" d="M 187.670395 530.686679 
L 219.849671 530.686679 
L 219.849671 520.943434 
L 187.670395 520.943434 
z
" style="fill:#ffa159;"/>
   </g>
   <g id="patch_71">
    <path clip-path="url(#pbbe3bd9f87)" d="M 279.611184 526.789381 
L 311.790461 526.789381 
L 311.790461 509.25154 
L 279.611184 509.25154 
z
" style="fill:#ffa159;"/>
   </g>
   <g id="patch_72">
    <path clip-path="url(#pbbe3bd9f87)" d="M 371.551974 531.661003 
L 403.73125 531.661003 
L 403.73125 522.892083 
L 371.551974 522.892083 
z
" style="fill:#ffa159;"/>
   </g>
   <g id="matplotlib.axis_3">
    <g id="xtick_10">
     <g id="line2d_16">
      <g>
       <use style="stroke:#000000;stroke-width:0.8;" x="45.162171" xlink:href="#m0e1d658833" y="538.481275"/>
      </g>
     </g>
     <g id="text_20">
      <!-- MUSS -->
      <g transform="translate(30.840296 553.079712)scale(0.1 -0.1)">
       <use xlink:href="#DejaVuSans-77"/>
       <use x="86.279297" xlink:href="#DejaVuSans-85"/>
       <use x="159.472656" xlink:href="#DejaVuSans-83"/>
       <use x="222.949219" xlink:href="#DejaVuSans-83"/>
      </g>
     </g>
    </g>
    <g id="xtick_11">
     <g id="line2d_17">
      <g>
       <use style="stroke:#000000;stroke-width:0.8;" x="91.132566" xlink:href="#m0e1d658833" y="538.481275"/>
      </g>
     </g>
     <g id="text_21">
      <!-- GPT-Zero -->
      <g transform="translate(68.338035 553.079712)scale(0.1 -0.1)">
       <use xlink:href="#DejaVuSans-71"/>
       <use x="77.490234" xlink:href="#DejaVuSans-80"/>
       <use x="137.792969" xlink:href="#DejaVuSans-84"/>
       <use x="189.751953" xlink:href="#DejaVuSans-45"/>
       <use x="225.835938" xlink:href="#DejaVuSans-90"/>
       <use x="294.341797" xlink:href="#DejaVuSans-101"/>
       <use x="355.865234" xlink:href="#DejaVuSans-114"/>
       <use x="394.728516" xlink:href="#DejaVuSans-111"/>
      </g>
     </g>
    </g>
    <g id="xtick_12">
     <g id="line2d_18">
      <g>
       <use style="stroke:#000000;stroke-width:0.8;" x="137.102961" xlink:href="#m0e1d658833" y="538.481275"/>
      </g>
     </g>
     <g id="text_22">
      <!-- GPT-Few -->
      <g transform="translate(116.045929 553.079712)scale(0.1 -0.1)">
       <use xlink:href="#DejaVuSans-71"/>
       <use x="77.490234" xlink:href="#DejaVuSans-80"/>
       <use x="137.792969" xlink:href="#DejaVuSans-84"/>
       <use x="189.751953" xlink:href="#DejaVuSans-45"/>
       <use x="225.835938" xlink:href="#DejaVuSans-70"/>
       <use x="277.855469" xlink:href="#DejaVuSans-101"/>
       <use x="339.378906" xlink:href="#DejaVuSans-119"/>
      </g>
     </g>
    </g>
    <g id="xtick_13">
     <g id="line2d_19">
      <g>
       <use style="stroke:#000000;stroke-width:0.8;" x="183.073355" xlink:href="#m0e1d658833" y="538.481275"/>
      </g>
     </g>
     <g id="text_23">
      <!-- Our Data -->
      <g transform="translate(160.385855 553.079712)scale(0.1 -0.1)">
       <use xlink:href="#DejaVuSans-79"/>
       <use x="78.710938" xlink:href="#DejaVuSans-117"/>
       <use x="142.089844" xlink:href="#DejaVuSans-114"/>
       <use x="183.203125" xlink:href="#DejaVuSans-32"/>
       <use x="214.990234" xlink:href="#DejaVuSans-68"/>
       <use x="291.992188" xlink:href="#DejaVuSans-97"/>
       <use x="353.271484" xlink:href="#DejaVuSans-116"/>
       <use x="392.480469" xlink:href="#DejaVuSans-97"/>
      </g>
     </g>
    </g>
    <g id="xtick_14">
     <g id="line2d_20">
      <g>
       <use style="stroke:#000000;stroke-width:0.8;" x="229.04375" xlink:href="#m0e1d658833" y="538.481275"/>
      </g>
     </g>
    </g>
    <g id="xtick_15">
     <g id="line2d_21">
      <g>
       <use style="stroke:#000000;stroke-width:0.8;" x="275.014145" xlink:href="#m0e1d658833" y="538.481275"/>
      </g>
     </g>
    </g>
    <g id="xtick_16">
     <g id="line2d_22">
      <g>
       <use style="stroke:#000000;stroke-width:0.8;" x="320.984539" xlink:href="#m0e1d658833" y="538.481275"/>
      </g>
     </g>
    </g>
    <g id="xtick_17">
     <g id="line2d_23">
      <g>
       <use style="stroke:#000000;stroke-width:0.8;" x="366.954934" xlink:href="#m0e1d658833" y="538.481275"/>
      </g>
     </g>
    </g>
    <g id="xtick_18">
     <g id="line2d_24">
      <g>
       <use style="stroke:#000000;stroke-width:0.8;" x="412.925329" xlink:href="#m0e1d658833" y="538.481275"/>
      </g>
     </g>
    </g>
   </g>
   <g id="matplotlib.axis_4">
    <g id="ytick_7">
     <g id="line2d_25">
      <g>
       <use style="stroke:#000000;stroke-width:0.8;" x="36.8875" xlink:href="#m4b543b5bab" y="538.481275"/>
      </g>
     </g>
     <g id="text_24">
      <!-- 0 -->
      <g transform="translate(23.525 542.280493)scale(0.1 -0.1)">
       <use xlink:href="#DejaVuSans-48"/>
      </g>
     </g>
    </g>
    <g id="ytick_8">
     <g id="line2d_26">
      <g>
       <use style="stroke:#000000;stroke-width:0.8;" x="36.8875" xlink:href="#m4b543b5bab" y="501.456944"/>
      </g>
     </g>
     <g id="text_25">
      <!-- 19 -->
      <g transform="translate(17.1625 505.256163)scale(0.1 -0.1)">
       <use xlink:href="#DejaVuSans-49"/>
       <use x="63.623047" xlink:href="#DejaVuSans-57"/>
      </g>
     </g>
    </g>
    <g id="ytick_9">
     <g id="line2d_27">
      <g>
       <use style="stroke:#000000;stroke-width:0.8;" x="36.8875" xlink:href="#m4b543b5bab" y="464.432614"/>
      </g>
     </g>
     <g id="text_26">
      <!-- 38 -->
      <g transform="translate(17.1625 468.231833)scale(0.1 -0.1)">
       <defs>
        <path d="M 40.578125 39.3125 
Q 47.65625 37.796875 51.625 33 
Q 55.609375 28.21875 55.609375 21.1875 
Q 55.609375 10.40625 48.1875 4.484375 
Q 40.765625 -1.421875 27.09375 -1.421875 
Q 22.515625 -1.421875 17.65625 -0.515625 
Q 12.796875 0.390625 7.625 2.203125 
L 7.625 11.71875 
Q 11.71875 9.328125 16.59375 8.109375 
Q 21.484375 6.890625 26.8125 6.890625 
Q 36.078125 6.890625 40.9375 10.546875 
Q 45.796875 14.203125 45.796875 21.1875 
Q 45.796875 27.640625 41.28125 31.265625 
Q 36.765625 34.90625 28.71875 34.90625 
L 20.21875 34.90625 
L 20.21875 43.015625 
L 29.109375 43.015625 
Q 36.375 43.015625 40.234375 45.921875 
Q 44.09375 48.828125 44.09375 54.296875 
Q 44.09375 59.90625 40.109375 62.90625 
Q 36.140625 65.921875 28.71875 65.921875 
Q 24.65625 65.921875 20.015625 65.03125 
Q 15.375 64.15625 9.8125 62.3125 
L 9.8125 71.09375 
Q 15.4375 72.65625 20.34375 73.4375 
Q 25.25 74.21875 29.59375 74.21875 
Q 40.828125 74.21875 47.359375 69.109375 
Q 53.90625 64.015625 53.90625 55.328125 
Q 53.90625 49.265625 50.4375 45.09375 
Q 46.96875 40.921875 40.578125 39.3125 
z
" id="DejaVuSans-51"/>
       </defs>
       <use xlink:href="#DejaVuSans-51"/>
       <use x="63.623047" xlink:href="#DejaVuSans-56"/>
      </g>
     </g>
    </g>
    <g id="ytick_10">
     <g id="line2d_28">
      <g>
       <use style="stroke:#000000;stroke-width:0.8;" x="36.8875" xlink:href="#m4b543b5bab" y="427.408284"/>
      </g>
     </g>
     <g id="text_27">
      <!-- 57 -->
      <g transform="translate(17.1625 431.207503)scale(0.1 -0.1)">
       <use xlink:href="#DejaVuSans-53"/>
       <use x="63.623047" xlink:href="#DejaVuSans-55"/>
      </g>
     </g>
    </g>
    <g id="ytick_11">
     <g id="line2d_29">
      <g>
       <use style="stroke:#000000;stroke-width:0.8;" x="36.8875" xlink:href="#m4b543b5bab" y="390.383954"/>
      </g>
     </g>
     <g id="text_28">
      <!-- 76 -->
      <g transform="translate(17.1625 394.183173)scale(0.1 -0.1)">
       <use xlink:href="#DejaVuSans-55"/>
       <use x="63.623047" xlink:href="#DejaVuSans-54"/>
      </g>
     </g>
    </g>
    <g id="ytick_12">
     <g id="line2d_30">
      <g>
       <use style="stroke:#000000;stroke-width:0.8;" x="36.8875" xlink:href="#m4b543b5bab" y="353.359624"/>
      </g>
     </g>
     <g id="text_29">
      <!-- 95 -->
      <g transform="translate(17.1625 357.158843)scale(0.1 -0.1)">
       <use xlink:href="#DejaVuSans-57"/>
       <use x="63.623047" xlink:href="#DejaVuSans-53"/>
      </g>
     </g>
    </g>
   </g>
   <g id="patch_73">
    <path d="M 36.8875 538.481275 
L 36.8875 344.103542 
" style="fill:none;stroke:#000000;stroke-linecap:square;stroke-linejoin:miter;stroke-width:0.8;"/>
   </g>
   <g id="patch_74">
    <path d="M 421.2 538.481275 
L 421.2 344.103542 
" style="fill:none;stroke:#000000;stroke-linecap:square;stroke-linejoin:miter;stroke-width:0.8;"/>
   </g>
   <g id="patch_75">
    <path d="M 36.8875 538.481275 
L 421.2 538.481275 
" style="fill:none;stroke:#000000;stroke-linecap:square;stroke-linejoin:miter;stroke-width:0.8;"/>
   </g>
   <g id="patch_76">
    <path d="M 36.8875 344.103542 
L 421.2 344.103542 
" style="fill:none;stroke:#000000;stroke-linecap:square;stroke-linejoin:miter;stroke-width:0.8;"/>
   </g>
   <g id="text_30">
    <!-- Syntax Edits -->
    <g transform="translate(191.64875 338.103542)scale(0.12 -0.12)">
     <defs>
      <path d="M 54.890625 54.6875 
L 35.109375 28.078125 
L 55.90625 0 
L 45.3125 0 
L 29.390625 21.484375 
L 13.484375 0 
L 2.875 0 
L 24.125 28.609375 
L 4.6875 54.6875 
L 15.28125 54.6875 
L 29.78125 35.203125 
L 44.28125 54.6875 
z
" id="DejaVuSans-120"/>
     </defs>
     <use xlink:href="#DejaVuSans-83"/>
     <use x="63.476562" xlink:href="#DejaVuSans-121"/>
     <use x="122.65625" xlink:href="#DejaVuSans-110"/>
     <use x="186.035156" xlink:href="#DejaVuSans-116"/>
     <use x="225.244141" xlink:href="#DejaVuSans-97"/>
     <use x="286.523438" xlink:href="#DejaVuSans-120"/>
     <use x="345.703125" xlink:href="#DejaVuSans-32"/>
     <use x="377.490234" xlink:href="#DejaVuSans-69"/>
     <use x="440.673828" xlink:href="#DejaVuSans-100"/>
     <use x="504.150391" xlink:href="#DejaVuSans-105"/>
     <use x="531.933594" xlink:href="#DejaVuSans-116"/>
     <use x="571.142578" xlink:href="#DejaVuSans-115"/>
    </g>
   </g>
   <g id="legend_2">
    <g id="patch_77">
     <path d="M 89.822656 619.672309 
L 368.264844 619.672309 
Q 370.264844 619.672309 370.264844 617.672309 
L 370.264844 574.637934 
Q 370.264844 572.637934 368.264844 572.637934 
L 89.822656 572.637934 
Q 87.822656 572.637934 87.822656 574.637934 
L 87.822656 617.672309 
Q 87.822656 619.672309 89.822656 619.672309 
z
" style="fill:#ffffff;opacity:0.8;stroke:#cccccc;stroke-linejoin:miter;"/>
    </g>
    <g id="patch_78">
     <path d="M 91.822656 584.236372 
L 111.822656 584.236372 
L 111.822656 577.236372 
L 91.822656 577.236372 
z
" style="fill:#54b387;"/>
    </g>
    <g id="text_31">
     <!-- Word-level -->
     <g transform="translate(119.822656 584.236372)scale(0.1 -0.1)">
      <defs>
       <path d="M 3.328125 72.90625 
L 13.28125 72.90625 
L 28.609375 11.28125 
L 43.890625 72.90625 
L 54.984375 72.90625 
L 70.3125 11.28125 
L 85.59375 72.90625 
L 95.609375 72.90625 
L 77.296875 0 
L 64.890625 0 
L 49.515625 63.28125 
L 33.984375 0 
L 21.578125 0 
z
" id="DejaVuSans-87"/>
      </defs>
      <use xlink:href="#DejaVuSans-87"/>
      <use x="93.001953" xlink:href="#DejaVuSans-111"/>
      <use x="154.183594" xlink:href="#DejaVuSans-114"/>
      <use x="193.546875" xlink:href="#DejaVuSans-100"/>
      <use x="257.023438" xlink:href="#DejaVuSans-45"/>
      <use x="293.107422" xlink:href="#DejaVuSans-108"/>
      <use x="320.890625" xlink:href="#DejaVuSans-101"/>
      <use x="382.414062" xlink:href="#DejaVuSans-118"/>
      <use x="441.59375" xlink:href="#DejaVuSans-101"/>
      <use x="503.117188" xlink:href="#DejaVuSans-108"/>
     </g>
    </g>
    <g id="patch_79">
     <path d="M 91.822656 598.914497 
L 111.822656 598.914497 
L 111.822656 591.914497 
L 91.822656 591.914497 
z
" style="fill:#7db39a;"/>
    </g>
    <g id="text_32">
     <!-- Component-level -->
     <g transform="translate(119.822656 598.914497)scale(0.1 -0.1)">
      <use xlink:href="#DejaVuSans-67"/>
      <use x="69.824219" xlink:href="#DejaVuSans-111"/>
      <use x="131.005859" xlink:href="#DejaVuSans-109"/>
      <use x="228.417969" xlink:href="#DejaVuSans-112"/>
      <use x="291.894531" xlink:href="#DejaVuSans-111"/>
      <use x="353.076172" xlink:href="#DejaVuSans-110"/>
      <use x="416.455078" xlink:href="#DejaVuSans-101"/>
      <use x="477.978516" xlink:href="#DejaVuSans-110"/>
      <use x="541.357422" xlink:href="#DejaVuSans-116"/>
      <use x="580.566406" xlink:href="#DejaVuSans-45"/>
      <use x="616.650391" xlink:href="#DejaVuSans-108"/>
      <use x="644.433594" xlink:href="#DejaVuSans-101"/>
      <use x="705.957031" xlink:href="#DejaVuSans-118"/>
      <use x="765.136719" xlink:href="#DejaVuSans-101"/>
      <use x="826.660156" xlink:href="#DejaVuSans-108"/>
     </g>
    </g>
    <g id="patch_80">
     <path d="M 91.822656 613.592622 
L 111.822656 613.592622 
L 111.822656 606.592622 
L 91.822656 606.592622 
z
" style="fill:#ffa159;"/>
    </g>
    <g id="text_33">
     <!-- Structure -->
     <g transform="translate(119.822656 613.592622)scale(0.1 -0.1)">
      <use xlink:href="#DejaVuSans-83"/>
      <use x="63.476562" xlink:href="#DejaVuSans-116"/>
      <use x="102.685547" xlink:href="#DejaVuSans-114"/>
      <use x="143.798828" xlink:href="#DejaVuSans-117"/>
      <use x="207.177734" xlink:href="#DejaVuSans-99"/>
      <use x="262.158203" xlink:href="#DejaVuSans-116"/>
      <use x="301.367188" xlink:href="#DejaVuSans-117"/>
      <use x="364.746094" xlink:href="#DejaVuSans-114"/>
      <use x="403.609375" xlink:href="#DejaVuSans-101"/>
     </g>
    </g>
    <g id="patch_81">
     <path d="M 225.269531 584.236372 
L 245.269531 584.236372 
L 245.269531 577.236372 
L 225.269531 577.236372 
z
" style="fill:#54b387;"/>
    </g>
    <g id="text_34">
     <!-- Word-level Error -->
     <g transform="translate(253.269531 584.236372)scale(0.1 -0.1)">
      <use xlink:href="#DejaVuSans-87"/>
      <use x="93.001953" xlink:href="#DejaVuSans-111"/>
      <use x="154.183594" xlink:href="#DejaVuSans-114"/>
      <use x="193.546875" xlink:href="#DejaVuSans-100"/>
      <use x="257.023438" xlink:href="#DejaVuSans-45"/>
      <use x="293.107422" xlink:href="#DejaVuSans-108"/>
      <use x="320.890625" xlink:href="#DejaVuSans-101"/>
      <use x="382.414062" xlink:href="#DejaVuSans-118"/>
      <use x="441.59375" xlink:href="#DejaVuSans-101"/>
      <use x="503.117188" xlink:href="#DejaVuSans-108"/>
      <use x="530.900391" xlink:href="#DejaVuSans-32"/>
      <use x="562.6875" xlink:href="#DejaVuSans-69"/>
      <use x="625.871094" xlink:href="#DejaVuSans-114"/>
      <use x="665.234375" xlink:href="#DejaVuSans-114"/>
      <use x="704.097656" xlink:href="#DejaVuSans-111"/>
      <use x="765.279297" xlink:href="#DejaVuSans-114"/>
     </g>
    </g>
    <g id="patch_82">
     <path d="M 225.269531 598.914497 
L 245.269531 598.914497 
L 245.269531 591.914497 
L 225.269531 591.914497 
z
" style="fill:#7db39a;"/>
    </g>
    <g id="text_35">
     <!-- Component-level Error -->
     <g transform="translate(253.269531 598.914497)scale(0.1 -0.1)">
      <use xlink:href="#DejaVuSans-67"/>
      <use x="69.824219" xlink:href="#DejaVuSans-111"/>
      <use x="131.005859" xlink:href="#DejaVuSans-109"/>
      <use x="228.417969" xlink:href="#DejaVuSans-112"/>
      <use x="291.894531" xlink:href="#DejaVuSans-111"/>
      <use x="353.076172" xlink:href="#DejaVuSans-110"/>
      <use x="416.455078" xlink:href="#DejaVuSans-101"/>
      <use x="477.978516" xlink:href="#DejaVuSans-110"/>
      <use x="541.357422" xlink:href="#DejaVuSans-116"/>
      <use x="580.566406" xlink:href="#DejaVuSans-45"/>
      <use x="616.650391" xlink:href="#DejaVuSans-108"/>
      <use x="644.433594" xlink:href="#DejaVuSans-101"/>
      <use x="705.957031" xlink:href="#DejaVuSans-118"/>
      <use x="765.136719" xlink:href="#DejaVuSans-101"/>
      <use x="826.660156" xlink:href="#DejaVuSans-108"/>
      <use x="854.443359" xlink:href="#DejaVuSans-32"/>
      <use x="886.230469" xlink:href="#DejaVuSans-69"/>
      <use x="949.414062" xlink:href="#DejaVuSans-114"/>
      <use x="988.777344" xlink:href="#DejaVuSans-114"/>
      <use x="1027.640625" xlink:href="#DejaVuSans-111"/>
      <use x="1088.822266" xlink:href="#DejaVuSans-114"/>
     </g>
    </g>
    <g id="patch_83">
     <path d="M 225.269531 613.592622 
L 245.269531 613.592622 
L 245.269531 606.592622 
L 225.269531 606.592622 
z
" style="fill:#ffa159;"/>
    </g>
    <g id="text_36">
     <!-- Structure Error -->
     <g transform="translate(253.269531 613.592622)scale(0.1 -0.1)">
      <use xlink:href="#DejaVuSans-83"/>
      <use x="63.476562" xlink:href="#DejaVuSans-116"/>
      <use x="102.685547" xlink:href="#DejaVuSans-114"/>
      <use x="143.798828" xlink:href="#DejaVuSans-117"/>
      <use x="207.177734" xlink:href="#DejaVuSans-99"/>
      <use x="262.158203" xlink:href="#DejaVuSans-116"/>
      <use x="301.367188" xlink:href="#DejaVuSans-117"/>
      <use x="364.746094" xlink:href="#DejaVuSans-114"/>
      <use x="403.609375" xlink:href="#DejaVuSans-101"/>
      <use x="465.132812" xlink:href="#DejaVuSans-32"/>
      <use x="496.919922" xlink:href="#DejaVuSans-69"/>
      <use x="560.103516" xlink:href="#DejaVuSans-114"/>
      <use x="599.466797" xlink:href="#DejaVuSans-114"/>
      <use x="638.330078" xlink:href="#DejaVuSans-111"/>
      <use x="699.511719" xlink:href="#DejaVuSans-114"/>
     </g>
    </g>
   </g>
  </g>
  <g id="axes_3">
   <g id="patch_84">
    <path d="M 36.8875 856.666691 
L 421.2 856.666691 
L 421.2 662.288958 
L 36.8875 662.288958 
z
" style="fill:#ffffff;"/>
   </g>
   <g id="patch_85">
    <path clip-path="url(#pb33e131cde)" d="M 54.35625 856.666691 
L 86.535526 856.666691 
L 86.535526 704.502304 
L 54.35625 704.502304 
z
" style="fill:#2186eb;"/>
   </g>
   <g id="patch_86">
    <path clip-path="url(#pb33e131cde)" d="M 146.297039 856.666691 
L 178.476316 856.666691 
L 178.476316 759.477825 
L 146.297039 759.477825 
z
" style="fill:#2186eb;"/>
   </g>
   <g id="patch_87">
    <path clip-path="url(#pb33e131cde)" d="M 238.237829 856.666691 
L 270.417105 856.666691 
L 270.417105 693.703541 
L 238.237829 693.703541 
z
" style="fill:#2186eb;"/>
   </g>
   <g id="patch_88">
    <path clip-path="url(#pb33e131cde)" d="M 330.178618 856.666691 
L 362.357895 856.666691 
L 362.357895 672.106016 
L 330.178618 672.106016 
z
" style="fill:#2186eb;"/>
   </g>
   <g id="patch_89">
    <path clip-path="url(#pb33e131cde)" d="M 95.729605 856.666691 
L 127.908882 856.666691 
L 127.908882 852.739868 
L 95.729605 852.739868 
z
" style="fill:#8e88f7;"/>
   </g>
   <g id="patch_90">
    <path clip-path="url(#pb33e131cde)" d="M 187.670395 856.666691 
L 219.849671 856.666691 
L 219.849671 854.70328 
L 187.670395 854.70328 
z
" style="fill:#8e88f7;"/>
   </g>
   <g id="patch_91">
    <path clip-path="url(#pb33e131cde)" d="M 279.611184 856.666691 
L 311.790461 856.666691 
L 311.790461 851.758163 
L 279.611184 851.758163 
z
" style="fill:#8e88f7;"/>
   </g>
   <g id="patch_92">
    <path clip-path="url(#pb33e131cde)" d="M 371.551974 856.666691 
L 403.73125 856.666691 
L 403.73125 849.794751 
L 371.551974 849.794751 
z
" style="fill:#8e88f7;"/>
   </g>
   <g id="patch_93">
    <path clip-path="url(#pb33e131cde)" d="M 95.729605 852.739868 
L 127.908882 852.739868 
L 127.908882 849.794751 
L 95.729605 849.794751 
z
" style="fill:#ad9ef0;"/>
   </g>
   <g id="patch_94">
    <path clip-path="url(#pb33e131cde)" d="M 187.670395 854.70328 
L 219.849671 854.70328 
L 219.849671 849.794751 
L 187.670395 849.794751 
z
" style="fill:#ad9ef0;"/>
   </g>
   <g id="patch_95">
    <path clip-path="url(#pb33e131cde)" d="M 279.611184 851.758163 
L 311.790461 851.758163 
L 311.790461 845.867928 
L 279.611184 845.867928 
z
" style="fill:#ad9ef0;"/>
   </g>
   <g id="patch_96">
    <path clip-path="url(#pb33e131cde)" d="M 371.551974 849.794751 
L 403.73125 849.794751 
L 403.73125 841.941105 
L 371.551974 841.941105 
z
" style="fill:#ad9ef0;"/>
   </g>
   <g id="matplotlib.axis_5">
    <g id="xtick_19">
     <g id="line2d_31">
      <g>
       <use style="stroke:#000000;stroke-width:0.8;" x="45.162171" xlink:href="#m0e1d658833" y="856.666691"/>
      </g>
     </g>
     <g id="text_37">
      <!-- MUSS -->
      <g transform="translate(30.840296 871.265129)scale(0.1 -0.1)">
       <use xlink:href="#DejaVuSans-77"/>
       <use x="86.279297" xlink:href="#DejaVuSans-85"/>
       <use x="159.472656" xlink:href="#DejaVuSans-83"/>
       <use x="222.949219" xlink:href="#DejaVuSans-83"/>
      </g>
     </g>
    </g>
    <g id="xtick_20">
     <g id="line2d_32">
      <g>
       <use style="stroke:#000000;stroke-width:0.8;" x="91.132566" xlink:href="#m0e1d658833" y="856.666691"/>
      </g>
     </g>
     <g id="text_38">
      <!-- GPT-Zero -->
      <g transform="translate(68.338035 871.265129)scale(0.1 -0.1)">
       <use xlink:href="#DejaVuSans-71"/>
       <use x="77.490234" xlink:href="#DejaVuSans-80"/>
       <use x="137.792969" xlink:href="#DejaVuSans-84"/>
       <use x="189.751953" xlink:href="#DejaVuSans-45"/>
       <use x="225.835938" xlink:href="#DejaVuSans-90"/>
       <use x="294.341797" xlink:href="#DejaVuSans-101"/>
       <use x="355.865234" xlink:href="#DejaVuSans-114"/>
       <use x="394.728516" xlink:href="#DejaVuSans-111"/>
      </g>
     </g>
    </g>
    <g id="xtick_21">
     <g id="line2d_33">
      <g>
       <use style="stroke:#000000;stroke-width:0.8;" x="137.102961" xlink:href="#m0e1d658833" y="856.666691"/>
      </g>
     </g>
     <g id="text_39">
      <!-- GPT-Few -->
      <g transform="translate(116.045929 871.265129)scale(0.1 -0.1)">
       <use xlink:href="#DejaVuSans-71"/>
       <use x="77.490234" xlink:href="#DejaVuSans-80"/>
       <use x="137.792969" xlink:href="#DejaVuSans-84"/>
       <use x="189.751953" xlink:href="#DejaVuSans-45"/>
       <use x="225.835938" xlink:href="#DejaVuSans-70"/>
       <use x="277.855469" xlink:href="#DejaVuSans-101"/>
       <use x="339.378906" xlink:href="#DejaVuSans-119"/>
      </g>
     </g>
    </g>
    <g id="xtick_22">
     <g id="line2d_34">
      <g>
       <use style="stroke:#000000;stroke-width:0.8;" x="183.073355" xlink:href="#m0e1d658833" y="856.666691"/>
      </g>
     </g>
     <g id="text_40">
      <!-- Our Data -->
      <g transform="translate(160.385855 871.265129)scale(0.1 -0.1)">
       <use xlink:href="#DejaVuSans-79"/>
       <use x="78.710938" xlink:href="#DejaVuSans-117"/>
       <use x="142.089844" xlink:href="#DejaVuSans-114"/>
       <use x="183.203125" xlink:href="#DejaVuSans-32"/>
       <use x="214.990234" xlink:href="#DejaVuSans-68"/>
       <use x="291.992188" xlink:href="#DejaVuSans-97"/>
       <use x="353.271484" xlink:href="#DejaVuSans-116"/>
       <use x="392.480469" xlink:href="#DejaVuSans-97"/>
      </g>
     </g>
    </g>
    <g id="xtick_23">
     <g id="line2d_35">
      <g>
       <use style="stroke:#000000;stroke-width:0.8;" x="229.04375" xlink:href="#m0e1d658833" y="856.666691"/>
      </g>
     </g>
    </g>
    <g id="xtick_24">
     <g id="line2d_36">
      <g>
       <use style="stroke:#000000;stroke-width:0.8;" x="275.014145" xlink:href="#m0e1d658833" y="856.666691"/>
      </g>
     </g>
    </g>
    <g id="xtick_25">
     <g id="line2d_37">
      <g>
       <use style="stroke:#000000;stroke-width:0.8;" x="320.984539" xlink:href="#m0e1d658833" y="856.666691"/>
      </g>
     </g>
    </g>
    <g id="xtick_26">
     <g id="line2d_38">
      <g>
       <use style="stroke:#000000;stroke-width:0.8;" x="366.954934" xlink:href="#m0e1d658833" y="856.666691"/>
      </g>
     </g>
    </g>
    <g id="xtick_27">
     <g id="line2d_39">
      <g>
       <use style="stroke:#000000;stroke-width:0.8;" x="412.925329" xlink:href="#m0e1d658833" y="856.666691"/>
      </g>
     </g>
    </g>
    <g id="text_41">
     <!-- System -->
     <g transform="translate(210.398438 884.943254)scale(0.1 -0.1)">
      <use xlink:href="#DejaVuSans-83"/>
      <use x="63.476562" xlink:href="#DejaVuSans-121"/>
      <use x="122.65625" xlink:href="#DejaVuSans-115"/>
      <use x="174.755859" xlink:href="#DejaVuSans-116"/>
      <use x="213.964844" xlink:href="#DejaVuSans-101"/>
      <use x="275.488281" xlink:href="#DejaVuSans-109"/>
     </g>
    </g>
   </g>
   <g id="matplotlib.axis_6">
    <g id="ytick_13">
     <g id="line2d_40">
      <g>
       <use style="stroke:#000000;stroke-width:0.8;" x="36.8875" xlink:href="#m4b543b5bab" y="856.666691"/>
      </g>
     </g>
     <g id="text_42">
      <!-- 0 -->
      <g transform="translate(23.525 860.46591)scale(0.1 -0.1)">
       <use xlink:href="#DejaVuSans-48"/>
      </g>
     </g>
    </g>
    <g id="ytick_14">
     <g id="line2d_41">
      <g>
       <use style="stroke:#000000;stroke-width:0.8;" x="36.8875" xlink:href="#m4b543b5bab" y="819.361874"/>
      </g>
     </g>
     <g id="text_43">
      <!-- 38 -->
      <g transform="translate(17.1625 823.161093)scale(0.1 -0.1)">
       <use xlink:href="#DejaVuSans-51"/>
       <use x="63.623047" xlink:href="#DejaVuSans-56"/>
      </g>
     </g>
    </g>
    <g id="ytick_15">
     <g id="line2d_42">
      <g>
       <use style="stroke:#000000;stroke-width:0.8;" x="36.8875" xlink:href="#m4b543b5bab" y="782.057056"/>
      </g>
     </g>
     <g id="text_44">
      <!-- 76 -->
      <g transform="translate(17.1625 785.856275)scale(0.1 -0.1)">
       <use xlink:href="#DejaVuSans-55"/>
       <use x="63.623047" xlink:href="#DejaVuSans-54"/>
      </g>
     </g>
    </g>
    <g id="ytick_16">
     <g id="line2d_43">
      <g>
       <use style="stroke:#000000;stroke-width:0.8;" x="36.8875" xlink:href="#m4b543b5bab" y="744.752239"/>
      </g>
     </g>
     <g id="text_45">
      <!-- 114 -->
      <g transform="translate(10.8 748.551458)scale(0.1 -0.1)">
       <use xlink:href="#DejaVuSans-49"/>
       <use x="63.623047" xlink:href="#DejaVuSans-49"/>
       <use x="127.246094" xlink:href="#DejaVuSans-52"/>
      </g>
     </g>
    </g>
    <g id="ytick_17">
     <g id="line2d_44">
      <g>
       <use style="stroke:#000000;stroke-width:0.8;" x="36.8875" xlink:href="#m4b543b5bab" y="707.447422"/>
      </g>
     </g>
     <g id="text_46">
      <!-- 152 -->
      <g transform="translate(10.8 711.24664)scale(0.1 -0.1)">
       <use xlink:href="#DejaVuSans-49"/>
       <use x="63.623047" xlink:href="#DejaVuSans-53"/>
       <use x="127.246094" xlink:href="#DejaVuSans-50"/>
      </g>
     </g>
    </g>
    <g id="ytick_18">
     <g id="line2d_45">
      <g>
       <use style="stroke:#000000;stroke-width:0.8;" x="36.8875" xlink:href="#m4b543b5bab" y="670.142604"/>
      </g>
     </g>
     <g id="text_47">
      <!-- 190 -->
      <g transform="translate(10.8 673.941823)scale(0.1 -0.1)">
       <use xlink:href="#DejaVuSans-49"/>
       <use x="63.623047" xlink:href="#DejaVuSans-57"/>
       <use x="127.246094" xlink:href="#DejaVuSans-48"/>
      </g>
     </g>
    </g>
   </g>
   <g id="patch_97">
    <path d="M 36.8875 856.666691 
L 36.8875 662.288958 
" style="fill:none;stroke:#000000;stroke-linecap:square;stroke-linejoin:miter;stroke-width:0.8;"/>
   </g>
   <g id="patch_98">
    <path d="M 421.2 856.666691 
L 421.2 662.288958 
" style="fill:none;stroke:#000000;stroke-linecap:square;stroke-linejoin:miter;stroke-width:0.8;"/>
   </g>
   <g id="patch_99">
    <path d="M 36.8875 856.666691 
L 421.2 856.666691 
" style="fill:none;stroke:#000000;stroke-linecap:square;stroke-linejoin:miter;stroke-width:0.8;"/>
   </g>
   <g id="patch_100">
    <path d="M 36.8875 662.288958 
L 421.2 662.288958 
" style="fill:none;stroke:#000000;stroke-linecap:square;stroke-linejoin:miter;stroke-width:0.8;"/>
   </g>
   <g id="text_48">
    <!-- Lexical Edits -->
    <g transform="translate(191.705938 656.288958)scale(0.12 -0.12)">
     <defs>
      <path d="M 9.8125 72.90625 
L 19.671875 72.90625 
L 19.671875 8.296875 
L 55.171875 8.296875 
L 55.171875 0 
L 9.8125 0 
z
" id="DejaVuSans-76"/>
     </defs>
     <use xlink:href="#DejaVuSans-76"/>
     <use x="53.962891" xlink:href="#DejaVuSans-101"/>
     <use x="113.736328" xlink:href="#DejaVuSans-120"/>
     <use x="172.916016" xlink:href="#DejaVuSans-105"/>
     <use x="200.699219" xlink:href="#DejaVuSans-99"/>
     <use x="255.679688" xlink:href="#DejaVuSans-97"/>
     <use x="316.958984" xlink:href="#DejaVuSans-108"/>
     <use x="344.742188" xlink:href="#DejaVuSans-32"/>
     <use x="376.529297" xlink:href="#DejaVuSans-69"/>
     <use x="439.712891" xlink:href="#DejaVuSans-100"/>
     <use x="503.189453" xlink:href="#DejaVuSans-105"/>
     <use x="530.972656" xlink:href="#DejaVuSans-116"/>
     <use x="570.181641" xlink:href="#DejaVuSans-115"/>
    </g>
   </g>
   <g id="legend_3">
    <g id="patch_101">
     <path d="M 93.535937 923.179601 
L 364.551562 923.179601 
Q 366.551562 923.179601 366.551562 921.179601 
L 366.551562 892.823351 
Q 366.551562 890.823351 364.551562 890.823351 
L 93.535937 890.823351 
Q 91.535937 890.823351 91.535937 892.823351 
L 91.535937 921.179601 
Q 91.535937 923.179601 93.535937 923.179601 
z
" style="fill:#ffffff;opacity:0.8;stroke:#cccccc;stroke-linejoin:miter;"/>
    </g>
    <g id="patch_102">
     <path d="M 95.535937 902.421789 
L 115.535937 902.421789 
L 115.535937 895.421789 
L 95.535937 895.421789 
z
" style="fill:#2186eb;"/>
    </g>
    <g id="text_49">
     <!-- Same Information -->
     <g transform="translate(123.535937 902.421789)scale(0.1 -0.1)">
      <use xlink:href="#DejaVuSans-83"/>
      <use x="63.476562" xlink:href="#DejaVuSans-97"/>
      <use x="124.755859" xlink:href="#DejaVuSans-109"/>
      <use x="222.167969" xlink:href="#DejaVuSans-101"/>
      <use x="283.691406" xlink:href="#DejaVuSans-32"/>
      <use x="315.478516" xlink:href="#DejaVuSans-73"/>
      <use x="344.970703" xlink:href="#DejaVuSans-110"/>
      <use x="408.349609" xlink:href="#DejaVuSans-102"/>
      <use x="443.554688" xlink:href="#DejaVuSans-111"/>
      <use x="504.736328" xlink:href="#DejaVuSans-114"/>
      <use x="544.099609" xlink:href="#DejaVuSans-109"/>
      <use x="641.511719" xlink:href="#DejaVuSans-97"/>
      <use x="702.791016" xlink:href="#DejaVuSans-116"/>
      <use x="742" xlink:href="#DejaVuSans-105"/>
      <use x="769.783203" xlink:href="#DejaVuSans-111"/>
      <use x="830.964844" xlink:href="#DejaVuSans-110"/>
     </g>
    </g>
    <g id="patch_103">
     <path d="M 95.535937 917.099914 
L 115.535937 917.099914 
L 115.535937 910.099914 
L 95.535937 910.099914 
z
" style="fill:#8e88f7;"/>
    </g>
    <g id="text_50">
     <!-- Complex Wording Error -->
     <g transform="translate(123.535937 917.099914)scale(0.1 -0.1)">
      <defs>
       <path d="M 45.40625 27.984375 
Q 45.40625 37.75 41.375 43.109375 
Q 37.359375 48.484375 30.078125 48.484375 
Q 22.859375 48.484375 18.828125 43.109375 
Q 14.796875 37.75 14.796875 27.984375 
Q 14.796875 18.265625 18.828125 12.890625 
Q 22.859375 7.515625 30.078125 7.515625 
Q 37.359375 7.515625 41.375 12.890625 
Q 45.40625 18.265625 45.40625 27.984375 
z
M 54.390625 6.78125 
Q 54.390625 -7.171875 48.1875 -13.984375 
Q 42 -20.796875 29.203125 -20.796875 
Q 24.46875 -20.796875 20.265625 -20.09375 
Q 16.0625 -19.390625 12.109375 -17.921875 
L 12.109375 -9.1875 
Q 16.0625 -11.328125 19.921875 -12.34375 
Q 23.78125 -13.375 27.78125 -13.375 
Q 36.625 -13.375 41.015625 -8.765625 
Q 45.40625 -4.15625 45.40625 5.171875 
L 45.40625 9.625 
Q 42.625 4.78125 38.28125 2.390625 
Q 33.9375 0 27.875 0 
Q 17.828125 0 11.671875 7.65625 
Q 5.515625 15.328125 5.515625 27.984375 
Q 5.515625 40.671875 11.671875 48.328125 
Q 17.828125 56 27.875 56 
Q 33.9375 56 38.28125 53.609375 
Q 42.625 51.21875 45.40625 46.390625 
L 45.40625 54.6875 
L 54.390625 54.6875 
z
" id="DejaVuSans-103"/>
      </defs>
      <use xlink:href="#DejaVuSans-67"/>
      <use x="69.824219" xlink:href="#DejaVuSans-111"/>
      <use x="131.005859" xlink:href="#DejaVuSans-109"/>
      <use x="228.417969" xlink:href="#DejaVuSans-112"/>
      <use x="291.894531" xlink:href="#DejaVuSans-108"/>
      <use x="319.677734" xlink:href="#DejaVuSans-101"/>
      <use x="379.451172" xlink:href="#DejaVuSans-120"/>
      <use x="438.630859" xlink:href="#DejaVuSans-32"/>
      <use x="470.417969" xlink:href="#DejaVuSans-87"/>
      <use x="563.419922" xlink:href="#DejaVuSans-111"/>
      <use x="624.601562" xlink:href="#DejaVuSans-114"/>
      <use x="663.964844" xlink:href="#DejaVuSans-100"/>
      <use x="727.441406" xlink:href="#DejaVuSans-105"/>
      <use x="755.224609" xlink:href="#DejaVuSans-110"/>
      <use x="818.603516" xlink:href="#DejaVuSans-103"/>
      <use x="882.080078" xlink:href="#DejaVuSans-32"/>
      <use x="913.867188" xlink:href="#DejaVuSans-69"/>
      <use x="977.050781" xlink:href="#DejaVuSans-114"/>
      <use x="1016.414062" xlink:href="#DejaVuSans-114"/>
      <use x="1055.277344" xlink:href="#DejaVuSans-111"/>
      <use x="1116.458984" xlink:href="#DejaVuSans-114"/>
     </g>
    </g>
    <g id="patch_104">
     <path d="M 259.295313 902.421789 
L 279.295313 902.421789 
L 279.295313 895.421789 
L 259.295313 895.421789 
z
" style="fill:#ad9ef0;"/>
    </g>
    <g id="text_51">
     <!-- Grammar Error -->
     <g transform="translate(287.295313 902.421789)scale(0.1 -0.1)">
      <use xlink:href="#DejaVuSans-71"/>
      <use x="77.490234" xlink:href="#DejaVuSans-114"/>
      <use x="118.603516" xlink:href="#DejaVuSans-97"/>
      <use x="179.882812" xlink:href="#DejaVuSans-109"/>
      <use x="277.294922" xlink:href="#DejaVuSans-109"/>
      <use x="374.707031" xlink:href="#DejaVuSans-97"/>
      <use x="435.986328" xlink:href="#DejaVuSans-114"/>
      <use x="477.099609" xlink:href="#DejaVuSans-32"/>
      <use x="508.886719" xlink:href="#DejaVuSans-69"/>
      <use x="572.070312" xlink:href="#DejaVuSans-114"/>
      <use x="611.433594" xlink:href="#DejaVuSans-114"/>
      <use x="650.296875" xlink:href="#DejaVuSans-111"/>
      <use x="711.478516" xlink:href="#DejaVuSans-114"/>
     </g>
    </g>
   </g>
  </g>
 </g>
 <defs>
  <clipPath id="pcd9d5eb6b3">
   <rect height="194.377733" width="384.3125" x="36.8875" y="25.918125"/>
  </clipPath>
  <clipPath id="pbbe3bd9f87">
   <rect height="194.377733" width="384.3125" x="36.8875" y="344.103542"/>
  </clipPath>
  <clipPath id="pb33e131cde">
   <rect height="194.377733" width="384.3125" x="36.8875" y="662.288958"/>
  </clipPath>
 </defs>
</svg>
