<?xml version="1.0" encoding="utf-8" standalone="no"?>
<!DOCTYPE svg PUBLIC "-//W3C//DTD SVG 1.1//EN"
  "http://www.w3.org/Graphics/SVG/1.1/DTD/svg11.dtd">
<svg xmlns:xlink="http://www.w3.org/1999/xlink" width="482.4pt" height="266.4pt" viewBox="0 0 482.4 266.4" xmlns="http://www.w3.org/2000/svg" version="1.1">
 <metadata>
  <rdf:RDF xmlns:dc="http://purl.org/dc/elements/1.1/" xmlns:cc="http://creativecommons.org/ns#" xmlns:rdf="http://www.w3.org/1999/02/22-rdf-syntax-ns#">
   <cc:Work>
    <dc:type rdf:resource="http://purl.org/dc/dcmitype/StillImage"/>
    <dc:date>2022-12-24T02:09:44.471071</dc:date>
    <dc:format>image/svg+xml</dc:format>
    <dc:creator>
     <cc:Agent>
      <dc:title>Matplotlib v3.6.2, https://matplotlib.org/</dc:title>
     </cc:Agent>
    </dc:creator>
   </cc:Work>
  </rdf:RDF>
 </metadata>
 <defs>
  <style type="text/css">*{stroke-linejoin: round; stroke-linecap: butt}</style>
 </defs>
 <g id="figure_1">
  <g id="patch_1">
   <path d="M 0 266.4 
L 482.4 266.4 
L 482.4 0 
L 0 0 
L 0 266.4 
z
" style="fill: none"/>
  </g>
  <g id="axes_1">
   <g id="patch_2">
    <path d="M 39.765625 236.04375 
L 245.820312 236.04375 
L 245.820312 15.118125 
L 39.765625 15.118125 
z
" style="fill: #ffffff"/>
   </g>
   <g id="patch_3">
    <path d="M 49.131747 236.04375 
L 58.497869 236.04375 
L 58.497869 235.432107 
L 49.131747 235.432107 
z
" clip-path="url(#p175c027869)" style="fill: #ffb145; opacity: 0.3"/>
   </g>
   <g id="patch_4">
    <path d="M 58.497869 236.04375 
L 67.863991 236.04375 
L 67.863991 235.737928 
L 58.497869 235.737928 
z
" clip-path="url(#p175c027869)" style="fill: #ffb145; opacity: 0.3"/>
   </g>
   <g id="patch_5">
    <path d="M 67.863991 236.04375 
L 77.230114 236.04375 
L 77.230114 235.737928 
L 67.863991 235.737928 
z
" clip-path="url(#p175c027869)" style="fill: #ffb145; opacity: 0.3"/>
   </g>
   <g id="patch_6">
    <path d="M 77.230114 236.04375 
L 86.596236 236.04375 
L 86.596236 236.04375 
L 77.230114 236.04375 
z
" clip-path="url(#p175c027869)" style="fill: #ffb145; opacity: 0.3"/>
   </g>
   <g id="patch_7">
    <path d="M 86.596236 236.04375 
L 95.962358 236.04375 
L 95.962358 236.04375 
L 86.596236 236.04375 
z
" clip-path="url(#p175c027869)" style="fill: #ffb145; opacity: 0.3"/>
   </g>
   <g id="patch_8">
    <path d="M 95.962358 236.04375 
L 105.32848 236.04375 
L 105.32848 236.04375 
L 95.962358 236.04375 
z
" clip-path="url(#p175c027869)" style="fill: #ffb145; opacity: 0.3"/>
   </g>
   <g id="patch_9">
    <path d="M 105.32848 236.04375 
L 114.694602 236.04375 
L 114.694602 235.432107 
L 105.32848 235.432107 
z
" clip-path="url(#p175c027869)" style="fill: #ffb145; opacity: 0.3"/>
   </g>
   <g id="patch_10">
    <path d="M 114.694602 236.04375 
L 124.060724 236.04375 
L 124.060724 236.04375 
L 114.694602 236.04375 
z
" clip-path="url(#p175c027869)" style="fill: #ffb145; opacity: 0.3"/>
   </g>
   <g id="patch_11">
    <path d="M 124.060724 236.04375 
L 133.426847 236.04375 
L 133.426847 235.432107 
L 124.060724 235.432107 
z
" clip-path="url(#p175c027869)" style="fill: #ffb145; opacity: 0.3"/>
   </g>
   <g id="patch_12">
    <path d="M 133.426847 236.04375 
L 142.792969 236.04375 
L 142.792969 235.432107 
L 133.426847 235.432107 
z
" clip-path="url(#p175c027869)" style="fill: #ffb145; opacity: 0.3"/>
   </g>
   <g id="patch_13">
    <path d="M 142.792969 236.04375 
L 152.159091 236.04375 
L 152.159091 235.126285 
L 142.792969 235.126285 
z
" clip-path="url(#p175c027869)" style="fill: #ffb145; opacity: 0.3"/>
   </g>
   <g id="patch_14">
    <path d="M 152.159091 236.04375 
L 161.525213 236.04375 
L 161.525213 235.432107 
L 152.159091 235.432107 
z
" clip-path="url(#p175c027869)" style="fill: #ffb145; opacity: 0.3"/>
   </g>
   <g id="patch_15">
    <path d="M 161.525213 236.04375 
L 170.891335 236.04375 
L 170.891335 232.373889 
L 161.525213 232.373889 
z
" clip-path="url(#p175c027869)" style="fill: #ffb145; opacity: 0.3"/>
   </g>
   <g id="patch_16">
    <path d="M 170.891335 236.04375 
L 180.257457 236.04375 
L 180.257457 228.092385 
L 170.891335 228.092385 
z
" clip-path="url(#p175c027869)" style="fill: #ffb145; opacity: 0.3"/>
   </g>
   <g id="patch_17">
    <path d="M 180.257457 236.04375 
L 189.62358 236.04375 
L 189.62358 227.480741 
L 180.257457 227.480741 
z
" clip-path="url(#p175c027869)" style="fill: #ffb145; opacity: 0.3"/>
   </g>
   <g id="patch_18">
    <path d="M 189.62358 236.04375 
L 198.989702 236.04375 
L 198.989702 77.016445 
L 189.62358 77.016445 
z
" clip-path="url(#p175c027869)" style="fill: #ffb145; opacity: 0.3"/>
   </g>
   <g id="patch_19">
    <path d="M 198.989702 236.04375 
L 208.355824 236.04375 
L 208.355824 236.04375 
L 198.989702 236.04375 
z
" clip-path="url(#p175c027869)" style="fill: #ffb145; opacity: 0.3"/>
   </g>
   <g id="patch_20">
    <path d="M 208.355824 236.04375 
L 217.721946 236.04375 
L 217.721946 236.04375 
L 208.355824 236.04375 
z
" clip-path="url(#p175c027869)" style="fill: #ffb145; opacity: 0.3"/>
   </g>
   <g id="patch_21">
    <path d="M 217.721946 236.04375 
L 227.088068 236.04375 
L 227.088068 235.737928 
L 217.721946 235.737928 
z
" clip-path="url(#p175c027869)" style="fill: #ffb145; opacity: 0.3"/>
   </g>
   <g id="patch_22">
    <path d="M 227.088068 236.04375 
L 236.45419 236.04375 
L 236.45419 235.737928 
L 227.088068 235.737928 
z
" clip-path="url(#p175c027869)" style="fill: #ffb145; opacity: 0.3"/>
   </g>
   <g id="patch_23">
    <path d="M 128.51013 236.04375 
L 131.953358 236.04375 
L 131.953358 235.737928 
L 128.51013 235.737928 
z
" clip-path="url(#p175c027869)" style="fill: #ff4545; opacity: 0.3"/>
   </g>
   <g id="patch_24">
    <path d="M 131.953358 236.04375 
L 135.396586 236.04375 
L 135.396586 236.04375 
L 131.953358 236.04375 
z
" clip-path="url(#p175c027869)" style="fill: #ff4545; opacity: 0.3"/>
   </g>
   <g id="patch_25">
    <path d="M 135.396586 236.04375 
L 138.839814 236.04375 
L 138.839814 236.04375 
L 135.396586 236.04375 
z
" clip-path="url(#p175c027869)" style="fill: #ff4545; opacity: 0.3"/>
   </g>
   <g id="patch_26">
    <path d="M 138.839814 236.04375 
L 142.283042 236.04375 
L 142.283042 236.04375 
L 138.839814 236.04375 
z
" clip-path="url(#p175c027869)" style="fill: #ff4545; opacity: 0.3"/>
   </g>
   <g id="patch_27">
    <path d="M 142.283042 236.04375 
L 145.72627 236.04375 
L 145.72627 236.04375 
L 142.283042 236.04375 
z
" clip-path="url(#p175c027869)" style="fill: #ff4545; opacity: 0.3"/>
   </g>
   <g id="patch_28">
    <path d="M 145.72627 236.04375 
L 149.169498 236.04375 
L 149.169498 236.04375 
L 145.72627 236.04375 
z
" clip-path="url(#p175c027869)" style="fill: #ff4545; opacity: 0.3"/>
   </g>
   <g id="patch_29">
    <path d="M 149.169498 236.04375 
L 152.612726 236.04375 
L 152.612726 236.04375 
L 149.169498 236.04375 
z
" clip-path="url(#p175c027869)" style="fill: #ff4545; opacity: 0.3"/>
   </g>
   <g id="patch_30">
    <path d="M 152.612726 236.04375 
L 156.055954 236.04375 
L 156.055954 236.04375 
L 152.612726 236.04375 
z
" clip-path="url(#p175c027869)" style="fill: #ff4545; opacity: 0.3"/>
   </g>
   <g id="patch_31">
    <path d="M 156.055954 236.04375 
L 159.499182 236.04375 
L 159.499182 236.04375 
L 156.055954 236.04375 
z
" clip-path="url(#p175c027869)" style="fill: #ff4545; opacity: 0.3"/>
   </g>
   <g id="patch_32">
    <path d="M 159.499182 236.04375 
L 162.94241 236.04375 
L 162.94241 235.432107 
L 159.499182 235.432107 
z
" clip-path="url(#p175c027869)" style="fill: #ff4545; opacity: 0.3"/>
   </g>
   <g id="patch_33">
    <path d="M 162.94241 236.04375 
L 166.385638 236.04375 
L 166.385638 236.04375 
L 162.94241 236.04375 
z
" clip-path="url(#p175c027869)" style="fill: #ff4545; opacity: 0.3"/>
   </g>
   <g id="patch_34">
    <path d="M 166.385638 236.04375 
L 169.828866 236.04375 
L 169.828866 236.04375 
L 166.385638 236.04375 
z
" clip-path="url(#p175c027869)" style="fill: #ff4545; opacity: 0.3"/>
   </g>
   <g id="patch_35">
    <path d="M 169.828866 236.04375 
L 173.272094 236.04375 
L 173.272094 235.126285 
L 169.828866 235.126285 
z
" clip-path="url(#p175c027869)" style="fill: #ff4545; opacity: 0.3"/>
   </g>
   <g id="patch_36">
    <path d="M 173.272094 236.04375 
L 176.715322 236.04375 
L 176.715322 236.04375 
L 173.272094 236.04375 
z
" clip-path="url(#p175c027869)" style="fill: #ff4545; opacity: 0.3"/>
   </g>
   <g id="patch_37">
    <path d="M 176.715322 236.04375 
L 180.15855 236.04375 
L 180.15855 235.737928 
L 176.715322 235.737928 
z
" clip-path="url(#p175c027869)" style="fill: #ff4545; opacity: 0.3"/>
   </g>
   <g id="patch_38">
    <path d="M 180.15855 236.04375 
L 183.601778 236.04375 
L 183.601778 235.432107 
L 180.15855 235.432107 
z
" clip-path="url(#p175c027869)" style="fill: #ff4545; opacity: 0.3"/>
   </g>
   <g id="patch_39">
    <path d="M 183.601778 236.04375 
L 187.045006 236.04375 
L 187.045006 235.126285 
L 183.601778 235.126285 
z
" clip-path="url(#p175c027869)" style="fill: #ff4545; opacity: 0.3"/>
   </g>
   <g id="patch_40">
    <path d="M 187.045006 236.04375 
L 190.488234 236.04375 
L 190.488234 234.514641 
L 187.045006 234.514641 
z
" clip-path="url(#p175c027869)" style="fill: #ff4545; opacity: 0.3"/>
   </g>
   <g id="patch_41">
    <path d="M 190.488234 236.04375 
L 193.931462 236.04375 
L 193.931462 234.514641 
L 190.488234 234.514641 
z
" clip-path="url(#p175c027869)" style="fill: #ff4545; opacity: 0.3"/>
   </g>
   <g id="patch_42">
    <path d="M 193.931462 236.04375 
L 197.37469 236.04375 
L 197.37469 111.574302 
L 193.931462 111.574302 
z
" clip-path="url(#p175c027869)" style="fill: #ff4545; opacity: 0.3"/>
   </g>
   <g id="patch_43">
    <path d="M 162.720217 236.04375 
L 164.452941 236.04375 
L 164.452941 235.432107 
L 162.720217 235.432107 
z
" clip-path="url(#p175c027869)" style="fill: #ff45d7; opacity: 0.3"/>
   </g>
   <g id="patch_44">
    <path d="M 164.452941 236.04375 
L 166.185664 236.04375 
L 166.185664 236.04375 
L 164.452941 236.04375 
z
" clip-path="url(#p175c027869)" style="fill: #ff45d7; opacity: 0.3"/>
   </g>
   <g id="patch_45">
    <path d="M 166.185664 236.04375 
L 167.918388 236.04375 
L 167.918388 236.04375 
L 166.185664 236.04375 
z
" clip-path="url(#p175c027869)" style="fill: #ff45d7; opacity: 0.3"/>
   </g>
   <g id="patch_46">
    <path d="M 167.918388 236.04375 
L 169.651112 236.04375 
L 169.651112 236.04375 
L 167.918388 236.04375 
z
" clip-path="url(#p175c027869)" style="fill: #ff45d7; opacity: 0.3"/>
   </g>
   <g id="patch_47">
    <path d="M 169.651112 236.04375 
L 171.383835 236.04375 
L 171.383835 236.04375 
L 169.651112 236.04375 
z
" clip-path="url(#p175c027869)" style="fill: #ff45d7; opacity: 0.3"/>
   </g>
   <g id="patch_48">
    <path d="M 171.383835 236.04375 
L 173.116559 236.04375 
L 173.116559 235.737928 
L 171.383835 235.737928 
z
" clip-path="url(#p175c027869)" style="fill: #ff45d7; opacity: 0.3"/>
   </g>
   <g id="patch_49">
    <path d="M 173.116559 236.04375 
L 174.849283 236.04375 
L 174.849283 235.432107 
L 173.116559 235.432107 
z
" clip-path="url(#p175c027869)" style="fill: #ff45d7; opacity: 0.3"/>
   </g>
   <g id="patch_50">
    <path d="M 174.849283 236.04375 
L 176.582006 236.04375 
L 176.582006 235.737928 
L 174.849283 235.737928 
z
" clip-path="url(#p175c027869)" style="fill: #ff45d7; opacity: 0.3"/>
   </g>
   <g id="patch_51">
    <path d="M 176.582006 236.04375 
L 178.31473 236.04375 
L 178.31473 235.432107 
L 176.582006 235.432107 
z
" clip-path="url(#p175c027869)" style="fill: #ff45d7; opacity: 0.3"/>
   </g>
   <g id="patch_52">
    <path d="M 178.31473 236.04375 
L 180.047453 236.04375 
L 180.047453 235.432107 
L 178.31473 235.432107 
z
" clip-path="url(#p175c027869)" style="fill: #ff45d7; opacity: 0.3"/>
   </g>
   <g id="patch_53">
    <path d="M 180.047453 236.04375 
L 181.780177 236.04375 
L 181.780177 234.514641 
L 180.047453 234.514641 
z
" clip-path="url(#p175c027869)" style="fill: #ff45d7; opacity: 0.3"/>
   </g>
   <g id="patch_54">
    <path d="M 181.780177 236.04375 
L 183.512901 236.04375 
L 183.512901 236.04375 
L 181.780177 236.04375 
z
" clip-path="url(#p175c027869)" style="fill: #ff45d7; opacity: 0.3"/>
   </g>
   <g id="patch_55">
    <path d="M 183.512901 236.04375 
L 185.245624 236.04375 
L 185.245624 235.126285 
L 183.512901 235.126285 
z
" clip-path="url(#p175c027869)" style="fill: #ff45d7; opacity: 0.3"/>
   </g>
   <g id="patch_56">
    <path d="M 185.245624 236.04375 
L 186.978348 236.04375 
L 186.978348 235.432107 
L 185.245624 235.432107 
z
" clip-path="url(#p175c027869)" style="fill: #ff45d7; opacity: 0.3"/>
   </g>
   <g id="patch_57">
    <path d="M 186.978348 236.04375 
L 188.711072 236.04375 
L 188.711072 235.432107 
L 186.978348 235.432107 
z
" clip-path="url(#p175c027869)" style="fill: #ff45d7; opacity: 0.3"/>
   </g>
   <g id="patch_58">
    <path d="M 188.711072 236.04375 
L 190.443795 236.04375 
L 190.443795 234.820463 
L 188.711072 234.820463 
z
" clip-path="url(#p175c027869)" style="fill: #ff45d7; opacity: 0.3"/>
   </g>
   <g id="patch_59">
    <path d="M 190.443795 236.04375 
L 192.176519 236.04375 
L 192.176519 233.902998 
L 190.443795 233.902998 
z
" clip-path="url(#p175c027869)" style="fill: #ff45d7; opacity: 0.3"/>
   </g>
   <g id="patch_60">
    <path d="M 192.176519 236.04375 
L 193.909243 236.04375 
L 193.909243 235.126285 
L 192.176519 235.126285 
z
" clip-path="url(#p175c027869)" style="fill: #ff45d7; opacity: 0.3"/>
   </g>
   <g id="patch_61">
    <path d="M 193.909243 236.04375 
L 195.641966 236.04375 
L 195.641966 234.820463 
L 193.909243 234.820463 
z
" clip-path="url(#p175c027869)" style="fill: #ff45d7; opacity: 0.3"/>
   </g>
   <g id="patch_62">
    <path d="M 195.641966 236.04375 
L 197.37469 236.04375 
L 197.37469 53.468171 
L 195.641966 53.468171 
z
" clip-path="url(#p175c027869)" style="fill: #ff45d7; opacity: 0.3"/>
   </g>
   <g id="patch_63">
    <path d="M 81.87068 236.04375 
L 88.378368 236.04375 
L 88.378368 235.737928 
L 81.87068 235.737928 
z
" clip-path="url(#p175c027869)" style="fill: #45ffda; opacity: 0.3"/>
   </g>
   <g id="patch_64">
    <path d="M 88.378368 236.04375 
L 94.886055 236.04375 
L 94.886055 236.04375 
L 88.378368 236.04375 
z
" clip-path="url(#p175c027869)" style="fill: #45ffda; opacity: 0.3"/>
   </g>
   <g id="patch_65">
    <path d="M 94.886055 236.04375 
L 101.393743 236.04375 
L 101.393743 236.04375 
L 94.886055 236.04375 
z
" clip-path="url(#p175c027869)" style="fill: #45ffda; opacity: 0.3"/>
   </g>
   <g id="patch_66">
    <path d="M 101.393743 236.04375 
L 107.901431 236.04375 
L 107.901431 236.04375 
L 101.393743 236.04375 
z
" clip-path="url(#p175c027869)" style="fill: #45ffda; opacity: 0.3"/>
   </g>
   <g id="patch_67">
    <path d="M 107.901431 236.04375 
L 114.409119 236.04375 
L 114.409119 236.04375 
L 107.901431 236.04375 
z
" clip-path="url(#p175c027869)" style="fill: #45ffda; opacity: 0.3"/>
   </g>
   <g id="patch_68">
    <path d="M 114.409119 236.04375 
L 120.916807 236.04375 
L 120.916807 236.04375 
L 114.409119 236.04375 
z
" clip-path="url(#p175c027869)" style="fill: #45ffda; opacity: 0.3"/>
   </g>
   <g id="patch_69">
    <path d="M 120.916807 236.04375 
L 127.424495 236.04375 
L 127.424495 236.04375 
L 120.916807 236.04375 
z
" clip-path="url(#p175c027869)" style="fill: #45ffda; opacity: 0.3"/>
   </g>
   <g id="patch_70">
    <path d="M 127.424495 236.04375 
L 133.932182 236.04375 
L 133.932182 236.04375 
L 127.424495 236.04375 
z
" clip-path="url(#p175c027869)" style="fill: #45ffda; opacity: 0.3"/>
   </g>
   <g id="patch_71">
    <path d="M 133.932182 236.04375 
L 140.43987 236.04375 
L 140.43987 235.737928 
L 133.932182 235.737928 
z
" clip-path="url(#p175c027869)" style="fill: #45ffda; opacity: 0.3"/>
   </g>
   <g id="patch_72">
    <path d="M 140.43987 236.04375 
L 146.947558 236.04375 
L 146.947558 235.737928 
L 140.43987 235.737928 
z
" clip-path="url(#p175c027869)" style="fill: #45ffda; opacity: 0.3"/>
   </g>
   <g id="patch_73">
    <path d="M 146.947558 236.04375 
L 153.455246 236.04375 
L 153.455246 236.04375 
L 146.947558 236.04375 
z
" clip-path="url(#p175c027869)" style="fill: #45ffda; opacity: 0.3"/>
   </g>
   <g id="patch_74">
    <path d="M 153.455246 236.04375 
L 159.962934 236.04375 
L 159.962934 236.04375 
L 153.455246 236.04375 
z
" clip-path="url(#p175c027869)" style="fill: #45ffda; opacity: 0.3"/>
   </g>
   <g id="patch_75">
    <path d="M 159.962934 236.04375 
L 166.470621 236.04375 
L 166.470621 235.432107 
L 159.962934 235.432107 
z
" clip-path="url(#p175c027869)" style="fill: #45ffda; opacity: 0.3"/>
   </g>
   <g id="patch_76">
    <path d="M 166.470621 236.04375 
L 172.978309 236.04375 
L 172.978309 234.514641 
L 166.470621 234.514641 
z
" clip-path="url(#p175c027869)" style="fill: #45ffda; opacity: 0.3"/>
   </g>
   <g id="patch_77">
    <path d="M 172.978309 236.04375 
L 179.485997 236.04375 
L 179.485997 232.679711 
L 172.978309 232.679711 
z
" clip-path="url(#p175c027869)" style="fill: #45ffda; opacity: 0.3"/>
   </g>
   <g id="patch_78">
    <path d="M 179.485997 236.04375 
L 185.993685 236.04375 
L 185.993685 228.704028 
L 179.485997 228.704028 
z
" clip-path="url(#p175c027869)" style="fill: #45ffda; opacity: 0.3"/>
   </g>
   <g id="patch_79">
    <path d="M 185.993685 236.04375 
L 192.501373 236.04375 
L 192.501373 231.456424 
L 185.993685 231.456424 
z
" clip-path="url(#p175c027869)" style="fill: #45ffda; opacity: 0.3"/>
   </g>
   <g id="patch_80">
    <path d="M 192.501373 236.04375 
L 199.009061 236.04375 
L 199.009061 25.638393 
L 192.501373 25.638393 
z
" clip-path="url(#p175c027869)" style="fill: #45ffda; opacity: 0.3"/>
   </g>
   <g id="patch_81">
    <path d="M 199.009061 236.04375 
L 205.516748 236.04375 
L 205.516748 236.04375 
L 199.009061 236.04375 
z
" clip-path="url(#p175c027869)" style="fill: #45ffda; opacity: 0.3"/>
   </g>
   <g id="patch_82">
    <path d="M 205.516748 236.04375 
L 212.024436 236.04375 
L 212.024436 235.737928 
L 205.516748 235.737928 
z
" clip-path="url(#p175c027869)" style="fill: #45ffda; opacity: 0.3"/>
   </g>
   <g id="matplotlib.axis_1">
    <g id="xtick_1">
     <g id="line2d_1">
      <defs>
       <path id="m4a69bc1891" d="M 0 0 
L 0 3.5 
" style="stroke: #000000; stroke-width: 0.8"/>
      </defs>
      <g>
       <use xlink:href="#m4a69bc1891" x="78.712097" y="236.04375" style="stroke: #000000; stroke-width: 0.8"/>
      </g>
     </g>
     <g id="text_1">
      <!-- −15 -->
      <g transform="translate(68.159753 250.642188) scale(0.1 -0.1)">
       <defs>
        <path id="DejaVuSans-2212" d="M 678 2272 
L 4684 2272 
L 4684 1741 
L 678 1741 
L 678 2272 
z
" transform="scale(0.015625)"/>
        <path id="DejaVuSans-31" d="M 794 531 
L 1825 531 
L 1825 4091 
L 703 3866 
L 703 4441 
L 1819 4666 
L 2450 4666 
L 2450 531 
L 3481 531 
L 3481 0 
L 794 0 
L 794 531 
z
" transform="scale(0.015625)"/>
        <path id="DejaVuSans-35" d="M 691 4666 
L 3169 4666 
L 3169 4134 
L 1269 4134 
L 1269 2991 
Q 1406 3038 1543 3061 
Q 1681 3084 1819 3084 
Q 2600 3084 3056 2656 
Q 3513 2228 3513 1497 
Q 3513 744 3044 326 
Q 2575 -91 1722 -91 
Q 1428 -91 1123 -41 
Q 819 9 494 109 
L 494 744 
Q 775 591 1075 516 
Q 1375 441 1709 441 
Q 2250 441 2565 725 
Q 2881 1009 2881 1497 
Q 2881 1984 2565 2268 
Q 2250 2553 1709 2553 
Q 1456 2553 1204 2497 
Q 953 2441 691 2322 
L 691 4666 
z
" transform="scale(0.015625)"/>
       </defs>
       <use xlink:href="#DejaVuSans-2212"/>
       <use xlink:href="#DejaVuSans-31" x="83.789062"/>
       <use xlink:href="#DejaVuSans-35" x="147.412109"/>
      </g>
     </g>
    </g>
    <g id="xtick_2">
     <g id="line2d_2">
      <g>
       <use xlink:href="#m4a69bc1891" x="118.266294" y="236.04375" style="stroke: #000000; stroke-width: 0.8"/>
      </g>
     </g>
     <g id="text_2">
      <!-- −10 -->
      <g transform="translate(107.713951 250.642188) scale(0.1 -0.1)">
       <defs>
        <path id="DejaVuSans-30" d="M 2034 4250 
Q 1547 4250 1301 3770 
Q 1056 3291 1056 2328 
Q 1056 1369 1301 889 
Q 1547 409 2034 409 
Q 2525 409 2770 889 
Q 3016 1369 3016 2328 
Q 3016 3291 2770 3770 
Q 2525 4250 2034 4250 
z
M 2034 4750 
Q 2819 4750 3233 4129 
Q 3647 3509 3647 2328 
Q 3647 1150 3233 529 
Q 2819 -91 2034 -91 
Q 1250 -91 836 529 
Q 422 1150 422 2328 
Q 422 3509 836 4129 
Q 1250 4750 2034 4750 
z
" transform="scale(0.015625)"/>
       </defs>
       <use xlink:href="#DejaVuSans-2212"/>
       <use xlink:href="#DejaVuSans-31" x="83.789062"/>
       <use xlink:href="#DejaVuSans-30" x="147.412109"/>
      </g>
     </g>
    </g>
    <g id="xtick_3">
     <g id="line2d_3">
      <g>
       <use xlink:href="#m4a69bc1891" x="157.820492" y="236.04375" style="stroke: #000000; stroke-width: 0.8"/>
      </g>
     </g>
     <g id="text_3">
      <!-- −5 -->
      <g transform="translate(150.449398 250.642188) scale(0.1 -0.1)">
       <use xlink:href="#DejaVuSans-2212"/>
       <use xlink:href="#DejaVuSans-35" x="83.789062"/>
      </g>
     </g>
    </g>
    <g id="xtick_4">
     <g id="line2d_4">
      <g>
       <use xlink:href="#m4a69bc1891" x="197.37469" y="236.04375" style="stroke: #000000; stroke-width: 0.8"/>
      </g>
     </g>
     <g id="text_4">
      <!-- 0 -->
      <g transform="translate(194.19344 250.642188) scale(0.1 -0.1)">
       <use xlink:href="#DejaVuSans-30"/>
      </g>
     </g>
    </g>
    <g id="xtick_5">
     <g id="line2d_5">
      <g>
       <use xlink:href="#m4a69bc1891" x="236.928887" y="236.04375" style="stroke: #000000; stroke-width: 0.8"/>
      </g>
     </g>
     <g id="text_5">
      <!-- 5 -->
      <g transform="translate(233.747637 250.642188) scale(0.1 -0.1)">
       <use xlink:href="#DejaVuSans-35"/>
      </g>
     </g>
    </g>
    <g id="text_6">
     <!-- Our Score -->
     <g transform="translate(118.041406 264.320313) scale(0.1 -0.1)">
      <defs>
       <path id="DejaVuSans-4f" d="M 2522 4238 
Q 1834 4238 1429 3725 
Q 1025 3213 1025 2328 
Q 1025 1447 1429 934 
Q 1834 422 2522 422 
Q 3209 422 3611 934 
Q 4013 1447 4013 2328 
Q 4013 3213 3611 3725 
Q 3209 4238 2522 4238 
z
M 2522 4750 
Q 3503 4750 4090 4092 
Q 4678 3434 4678 2328 
Q 4678 1225 4090 567 
Q 3503 -91 2522 -91 
Q 1538 -91 948 565 
Q 359 1222 359 2328 
Q 359 3434 948 4092 
Q 1538 4750 2522 4750 
z
" transform="scale(0.015625)"/>
       <path id="DejaVuSans-75" d="M 544 1381 
L 544 3500 
L 1119 3500 
L 1119 1403 
Q 1119 906 1312 657 
Q 1506 409 1894 409 
Q 2359 409 2629 706 
Q 2900 1003 2900 1516 
L 2900 3500 
L 3475 3500 
L 3475 0 
L 2900 0 
L 2900 538 
Q 2691 219 2414 64 
Q 2138 -91 1772 -91 
Q 1169 -91 856 284 
Q 544 659 544 1381 
z
M 1991 3584 
L 1991 3584 
z
" transform="scale(0.015625)"/>
       <path id="DejaVuSans-72" d="M 2631 2963 
Q 2534 3019 2420 3045 
Q 2306 3072 2169 3072 
Q 1681 3072 1420 2755 
Q 1159 2438 1159 1844 
L 1159 0 
L 581 0 
L 581 3500 
L 1159 3500 
L 1159 2956 
Q 1341 3275 1631 3429 
Q 1922 3584 2338 3584 
Q 2397 3584 2469 3576 
Q 2541 3569 2628 3553 
L 2631 2963 
z
" transform="scale(0.015625)"/>
       <path id="DejaVuSans-20" transform="scale(0.015625)"/>
       <path id="DejaVuSans-53" d="M 3425 4513 
L 3425 3897 
Q 3066 4069 2747 4153 
Q 2428 4238 2131 4238 
Q 1616 4238 1336 4038 
Q 1056 3838 1056 3469 
Q 1056 3159 1242 3001 
Q 1428 2844 1947 2747 
L 2328 2669 
Q 3034 2534 3370 2195 
Q 3706 1856 3706 1288 
Q 3706 609 3251 259 
Q 2797 -91 1919 -91 
Q 1588 -91 1214 -16 
Q 841 59 441 206 
L 441 856 
Q 825 641 1194 531 
Q 1563 422 1919 422 
Q 2459 422 2753 634 
Q 3047 847 3047 1241 
Q 3047 1584 2836 1778 
Q 2625 1972 2144 2069 
L 1759 2144 
Q 1053 2284 737 2584 
Q 422 2884 422 3419 
Q 422 4038 858 4394 
Q 1294 4750 2059 4750 
Q 2388 4750 2728 4690 
Q 3069 4631 3425 4513 
z
" transform="scale(0.015625)"/>
       <path id="DejaVuSans-63" d="M 3122 3366 
L 3122 2828 
Q 2878 2963 2633 3030 
Q 2388 3097 2138 3097 
Q 1578 3097 1268 2742 
Q 959 2388 959 1747 
Q 959 1106 1268 751 
Q 1578 397 2138 397 
Q 2388 397 2633 464 
Q 2878 531 3122 666 
L 3122 134 
Q 2881 22 2623 -34 
Q 2366 -91 2075 -91 
Q 1284 -91 818 406 
Q 353 903 353 1747 
Q 353 2603 823 3093 
Q 1294 3584 2113 3584 
Q 2378 3584 2631 3529 
Q 2884 3475 3122 3366 
z
" transform="scale(0.015625)"/>
       <path id="DejaVuSans-6f" d="M 1959 3097 
Q 1497 3097 1228 2736 
Q 959 2375 959 1747 
Q 959 1119 1226 758 
Q 1494 397 1959 397 
Q 2419 397 2687 759 
Q 2956 1122 2956 1747 
Q 2956 2369 2687 2733 
Q 2419 3097 1959 3097 
z
M 1959 3584 
Q 2709 3584 3137 3096 
Q 3566 2609 3566 1747 
Q 3566 888 3137 398 
Q 2709 -91 1959 -91 
Q 1206 -91 779 398 
Q 353 888 353 1747 
Q 353 2609 779 3096 
Q 1206 3584 1959 3584 
z
" transform="scale(0.015625)"/>
       <path id="DejaVuSans-65" d="M 3597 1894 
L 3597 1613 
L 953 1613 
Q 991 1019 1311 708 
Q 1631 397 2203 397 
Q 2534 397 2845 478 
Q 3156 559 3463 722 
L 3463 178 
Q 3153 47 2828 -22 
Q 2503 -91 2169 -91 
Q 1331 -91 842 396 
Q 353 884 353 1716 
Q 353 2575 817 3079 
Q 1281 3584 2069 3584 
Q 2775 3584 3186 3129 
Q 3597 2675 3597 1894 
z
M 3022 2063 
Q 3016 2534 2758 2815 
Q 2500 3097 2075 3097 
Q 1594 3097 1305 2825 
Q 1016 2553 972 2059 
L 3022 2063 
z
" transform="scale(0.015625)"/>
      </defs>
      <use xlink:href="#DejaVuSans-4f"/>
      <use xlink:href="#DejaVuSans-75" x="78.710938"/>
      <use xlink:href="#DejaVuSans-72" x="142.089844"/>
      <use xlink:href="#DejaVuSans-20" x="183.203125"/>
      <use xlink:href="#DejaVuSans-53" x="214.990234"/>
      <use xlink:href="#DejaVuSans-63" x="278.466797"/>
      <use xlink:href="#DejaVuSans-6f" x="333.447266"/>
      <use xlink:href="#DejaVuSans-72" x="394.628906"/>
      <use xlink:href="#DejaVuSans-65" x="433.492188"/>
     </g>
    </g>
   </g>
   <g id="matplotlib.axis_2">
    <g id="ytick_1">
     <g id="line2d_6">
      <defs>
       <path id="m4993a242e7" d="M 0 0 
L -3.5 0 
" style="stroke: #000000; stroke-width: 0.8"/>
      </defs>
      <g>
       <use xlink:href="#m4993a242e7" x="39.765625" y="236.04375" style="stroke: #000000; stroke-width: 0.8"/>
      </g>
     </g>
     <g id="text_7">
      <!-- 0 -->
      <g transform="translate(26.403125 239.842969) scale(0.1 -0.1)">
       <use xlink:href="#DejaVuSans-30"/>
      </g>
     </g>
    </g>
    <g id="ytick_2">
     <g id="line2d_7">
      <g>
       <use xlink:href="#m4993a242e7" x="39.765625" y="220.752663" style="stroke: #000000; stroke-width: 0.8"/>
      </g>
     </g>
     <g id="text_8">
      <!-- 50 -->
      <g transform="translate(20.040625 224.551882) scale(0.1 -0.1)">
       <use xlink:href="#DejaVuSans-35"/>
       <use xlink:href="#DejaVuSans-30" x="63.623047"/>
      </g>
     </g>
    </g>
    <g id="ytick_3">
     <g id="line2d_8">
      <g>
       <use xlink:href="#m4993a242e7" x="39.765625" y="205.461576" style="stroke: #000000; stroke-width: 0.8"/>
      </g>
     </g>
     <g id="text_9">
      <!-- 100 -->
      <g transform="translate(13.678125 209.260795) scale(0.1 -0.1)">
       <use xlink:href="#DejaVuSans-31"/>
       <use xlink:href="#DejaVuSans-30" x="63.623047"/>
       <use xlink:href="#DejaVuSans-30" x="127.246094"/>
      </g>
     </g>
    </g>
    <g id="ytick_4">
     <g id="line2d_9">
      <g>
       <use xlink:href="#m4993a242e7" x="39.765625" y="190.170489" style="stroke: #000000; stroke-width: 0.8"/>
      </g>
     </g>
     <g id="text_10">
      <!-- 150 -->
      <g transform="translate(13.678125 193.969708) scale(0.1 -0.1)">
       <use xlink:href="#DejaVuSans-31"/>
       <use xlink:href="#DejaVuSans-35" x="63.623047"/>
       <use xlink:href="#DejaVuSans-30" x="127.246094"/>
      </g>
     </g>
    </g>
    <g id="ytick_5">
     <g id="line2d_10">
      <g>
       <use xlink:href="#m4993a242e7" x="39.765625" y="174.879402" style="stroke: #000000; stroke-width: 0.8"/>
      </g>
     </g>
     <g id="text_11">
      <!-- 200 -->
      <g transform="translate(13.678125 178.678621) scale(0.1 -0.1)">
       <defs>
        <path id="DejaVuSans-32" d="M 1228 531 
L 3431 531 
L 3431 0 
L 469 0 
L 469 531 
Q 828 903 1448 1529 
Q 2069 2156 2228 2338 
Q 2531 2678 2651 2914 
Q 2772 3150 2772 3378 
Q 2772 3750 2511 3984 
Q 2250 4219 1831 4219 
Q 1534 4219 1204 4116 
Q 875 4013 500 3803 
L 500 4441 
Q 881 4594 1212 4672 
Q 1544 4750 1819 4750 
Q 2544 4750 2975 4387 
Q 3406 4025 3406 3419 
Q 3406 3131 3298 2873 
Q 3191 2616 2906 2266 
Q 2828 2175 2409 1742 
Q 1991 1309 1228 531 
z
" transform="scale(0.015625)"/>
       </defs>
       <use xlink:href="#DejaVuSans-32"/>
       <use xlink:href="#DejaVuSans-30" x="63.623047"/>
       <use xlink:href="#DejaVuSans-30" x="127.246094"/>
      </g>
     </g>
    </g>
    <g id="ytick_6">
     <g id="line2d_11">
      <g>
       <use xlink:href="#m4993a242e7" x="39.765625" y="159.588315" style="stroke: #000000; stroke-width: 0.8"/>
      </g>
     </g>
     <g id="text_12">
      <!-- 250 -->
      <g transform="translate(13.678125 163.387534) scale(0.1 -0.1)">
       <use xlink:href="#DejaVuSans-32"/>
       <use xlink:href="#DejaVuSans-35" x="63.623047"/>
       <use xlink:href="#DejaVuSans-30" x="127.246094"/>
      </g>
     </g>
    </g>
    <g id="ytick_7">
     <g id="line2d_12">
      <g>
       <use xlink:href="#m4993a242e7" x="39.765625" y="144.297228" style="stroke: #000000; stroke-width: 0.8"/>
      </g>
     </g>
     <g id="text_13">
      <!-- 300 -->
      <g transform="translate(13.678125 148.096447) scale(0.1 -0.1)">
       <defs>
        <path id="DejaVuSans-33" d="M 2597 2516 
Q 3050 2419 3304 2112 
Q 3559 1806 3559 1356 
Q 3559 666 3084 287 
Q 2609 -91 1734 -91 
Q 1441 -91 1130 -33 
Q 819 25 488 141 
L 488 750 
Q 750 597 1062 519 
Q 1375 441 1716 441 
Q 2309 441 2620 675 
Q 2931 909 2931 1356 
Q 2931 1769 2642 2001 
Q 2353 2234 1838 2234 
L 1294 2234 
L 1294 2753 
L 1863 2753 
Q 2328 2753 2575 2939 
Q 2822 3125 2822 3475 
Q 2822 3834 2567 4026 
Q 2313 4219 1838 4219 
Q 1578 4219 1281 4162 
Q 984 4106 628 3988 
L 628 4550 
Q 988 4650 1302 4700 
Q 1616 4750 1894 4750 
Q 2613 4750 3031 4423 
Q 3450 4097 3450 3541 
Q 3450 3153 3228 2886 
Q 3006 2619 2597 2516 
z
" transform="scale(0.015625)"/>
       </defs>
       <use xlink:href="#DejaVuSans-33"/>
       <use xlink:href="#DejaVuSans-30" x="63.623047"/>
       <use xlink:href="#DejaVuSans-30" x="127.246094"/>
      </g>
     </g>
    </g>
    <g id="ytick_8">
     <g id="line2d_13">
      <g>
       <use xlink:href="#m4993a242e7" x="39.765625" y="129.006141" style="stroke: #000000; stroke-width: 0.8"/>
      </g>
     </g>
     <g id="text_14">
      <!-- 350 -->
      <g transform="translate(13.678125 132.80536) scale(0.1 -0.1)">
       <use xlink:href="#DejaVuSans-33"/>
       <use xlink:href="#DejaVuSans-35" x="63.623047"/>
       <use xlink:href="#DejaVuSans-30" x="127.246094"/>
      </g>
     </g>
    </g>
    <g id="ytick_9">
     <g id="line2d_14">
      <g>
       <use xlink:href="#m4993a242e7" x="39.765625" y="113.715054" style="stroke: #000000; stroke-width: 0.8"/>
      </g>
     </g>
     <g id="text_15">
      <!-- 400 -->
      <g transform="translate(13.678125 117.514273) scale(0.1 -0.1)">
       <defs>
        <path id="DejaVuSans-34" d="M 2419 4116 
L 825 1625 
L 2419 1625 
L 2419 4116 
z
M 2253 4666 
L 3047 4666 
L 3047 1625 
L 3713 1625 
L 3713 1100 
L 3047 1100 
L 3047 0 
L 2419 0 
L 2419 1100 
L 313 1100 
L 313 1709 
L 2253 4666 
z
" transform="scale(0.015625)"/>
       </defs>
       <use xlink:href="#DejaVuSans-34"/>
       <use xlink:href="#DejaVuSans-30" x="63.623047"/>
       <use xlink:href="#DejaVuSans-30" x="127.246094"/>
      </g>
     </g>
    </g>
    <g id="text_16">
     <!-- Frequency -->
     <g transform="translate(7.598438 151.410625) rotate(-90) scale(0.1 -0.1)">
      <defs>
       <path id="DejaVuSans-46" d="M 628 4666 
L 3309 4666 
L 3309 4134 
L 1259 4134 
L 1259 2759 
L 3109 2759 
L 3109 2228 
L 1259 2228 
L 1259 0 
L 628 0 
L 628 4666 
z
" transform="scale(0.015625)"/>
       <path id="DejaVuSans-71" d="M 947 1747 
Q 947 1113 1208 752 
Q 1469 391 1925 391 
Q 2381 391 2643 752 
Q 2906 1113 2906 1747 
Q 2906 2381 2643 2742 
Q 2381 3103 1925 3103 
Q 1469 3103 1208 2742 
Q 947 2381 947 1747 
z
M 2906 525 
Q 2725 213 2448 61 
Q 2172 -91 1784 -91 
Q 1150 -91 751 415 
Q 353 922 353 1747 
Q 353 2572 751 3078 
Q 1150 3584 1784 3584 
Q 2172 3584 2448 3432 
Q 2725 3281 2906 2969 
L 2906 3500 
L 3481 3500 
L 3481 -1331 
L 2906 -1331 
L 2906 525 
z
" transform="scale(0.015625)"/>
       <path id="DejaVuSans-6e" d="M 3513 2113 
L 3513 0 
L 2938 0 
L 2938 2094 
Q 2938 2591 2744 2837 
Q 2550 3084 2163 3084 
Q 1697 3084 1428 2787 
Q 1159 2491 1159 1978 
L 1159 0 
L 581 0 
L 581 3500 
L 1159 3500 
L 1159 2956 
Q 1366 3272 1645 3428 
Q 1925 3584 2291 3584 
Q 2894 3584 3203 3211 
Q 3513 2838 3513 2113 
z
" transform="scale(0.015625)"/>
       <path id="DejaVuSans-79" d="M 2059 -325 
Q 1816 -950 1584 -1140 
Q 1353 -1331 966 -1331 
L 506 -1331 
L 506 -850 
L 844 -850 
Q 1081 -850 1212 -737 
Q 1344 -625 1503 -206 
L 1606 56 
L 191 3500 
L 800 3500 
L 1894 763 
L 2988 3500 
L 3597 3500 
L 2059 -325 
z
" transform="scale(0.015625)"/>
      </defs>
      <use xlink:href="#DejaVuSans-46"/>
      <use xlink:href="#DejaVuSans-72" x="50.269531"/>
      <use xlink:href="#DejaVuSans-65" x="89.132812"/>
      <use xlink:href="#DejaVuSans-71" x="150.65625"/>
      <use xlink:href="#DejaVuSans-75" x="214.132812"/>
      <use xlink:href="#DejaVuSans-65" x="277.511719"/>
      <use xlink:href="#DejaVuSans-6e" x="339.035156"/>
      <use xlink:href="#DejaVuSans-63" x="402.414062"/>
      <use xlink:href="#DejaVuSans-79" x="457.394531"/>
     </g>
    </g>
   </g>
   <g id="patch_83">
    <path d="M 39.765625 236.04375 
L 39.765625 15.118125 
" style="fill: none; stroke: #000000; stroke-width: 0.8; stroke-linejoin: miter; stroke-linecap: square"/>
   </g>
   <g id="patch_84">
    <path d="M 245.820312 236.04375 
L 245.820312 15.118125 
" style="fill: none; stroke: #000000; stroke-width: 0.8; stroke-linejoin: miter; stroke-linecap: square"/>
   </g>
   <g id="patch_85">
    <path d="M 39.765625 236.04375 
L 245.820312 236.04375 
" style="fill: none; stroke: #000000; stroke-width: 0.8; stroke-linejoin: miter; stroke-linecap: square"/>
   </g>
   <g id="patch_86">
    <path d="M 39.765625 15.118125 
L 245.820312 15.118125 
" style="fill: none; stroke: #000000; stroke-width: 0.8; stroke-linejoin: miter; stroke-linecap: square"/>
   </g>
   <g id="text_17">
    <!-- Distribution of Edit Scores -->
    <g transform="translate(64.738594 9.118125) scale(0.12 -0.12)">
     <defs>
      <path id="DejaVuSans-44" d="M 1259 4147 
L 1259 519 
L 2022 519 
Q 2988 519 3436 956 
Q 3884 1394 3884 2338 
Q 3884 3275 3436 3711 
Q 2988 4147 2022 4147 
L 1259 4147 
z
M 628 4666 
L 1925 4666 
Q 3281 4666 3915 4102 
Q 4550 3538 4550 2338 
Q 4550 1131 3912 565 
Q 3275 0 1925 0 
L 628 0 
L 628 4666 
z
" transform="scale(0.015625)"/>
      <path id="DejaVuSans-69" d="M 603 3500 
L 1178 3500 
L 1178 0 
L 603 0 
L 603 3500 
z
M 603 4863 
L 1178 4863 
L 1178 4134 
L 603 4134 
L 603 4863 
z
" transform="scale(0.015625)"/>
      <path id="DejaVuSans-73" d="M 2834 3397 
L 2834 2853 
Q 2591 2978 2328 3040 
Q 2066 3103 1784 3103 
Q 1356 3103 1142 2972 
Q 928 2841 928 2578 
Q 928 2378 1081 2264 
Q 1234 2150 1697 2047 
L 1894 2003 
Q 2506 1872 2764 1633 
Q 3022 1394 3022 966 
Q 3022 478 2636 193 
Q 2250 -91 1575 -91 
Q 1294 -91 989 -36 
Q 684 19 347 128 
L 347 722 
Q 666 556 975 473 
Q 1284 391 1588 391 
Q 1994 391 2212 530 
Q 2431 669 2431 922 
Q 2431 1156 2273 1281 
Q 2116 1406 1581 1522 
L 1381 1569 
Q 847 1681 609 1914 
Q 372 2147 372 2553 
Q 372 3047 722 3315 
Q 1072 3584 1716 3584 
Q 2034 3584 2315 3537 
Q 2597 3491 2834 3397 
z
" transform="scale(0.015625)"/>
      <path id="DejaVuSans-74" d="M 1172 4494 
L 1172 3500 
L 2356 3500 
L 2356 3053 
L 1172 3053 
L 1172 1153 
Q 1172 725 1289 603 
Q 1406 481 1766 481 
L 2356 481 
L 2356 0 
L 1766 0 
Q 1100 0 847 248 
Q 594 497 594 1153 
L 594 3053 
L 172 3053 
L 172 3500 
L 594 3500 
L 594 4494 
L 1172 4494 
z
" transform="scale(0.015625)"/>
      <path id="DejaVuSans-62" d="M 3116 1747 
Q 3116 2381 2855 2742 
Q 2594 3103 2138 3103 
Q 1681 3103 1420 2742 
Q 1159 2381 1159 1747 
Q 1159 1113 1420 752 
Q 1681 391 2138 391 
Q 2594 391 2855 752 
Q 3116 1113 3116 1747 
z
M 1159 2969 
Q 1341 3281 1617 3432 
Q 1894 3584 2278 3584 
Q 2916 3584 3314 3078 
Q 3713 2572 3713 1747 
Q 3713 922 3314 415 
Q 2916 -91 2278 -91 
Q 1894 -91 1617 61 
Q 1341 213 1159 525 
L 1159 0 
L 581 0 
L 581 4863 
L 1159 4863 
L 1159 2969 
z
" transform="scale(0.015625)"/>
      <path id="DejaVuSans-66" d="M 2375 4863 
L 2375 4384 
L 1825 4384 
Q 1516 4384 1395 4259 
Q 1275 4134 1275 3809 
L 1275 3500 
L 2222 3500 
L 2222 3053 
L 1275 3053 
L 1275 0 
L 697 0 
L 697 3053 
L 147 3053 
L 147 3500 
L 697 3500 
L 697 3744 
Q 697 4328 969 4595 
Q 1241 4863 1831 4863 
L 2375 4863 
z
" transform="scale(0.015625)"/>
      <path id="DejaVuSans-45" d="M 628 4666 
L 3578 4666 
L 3578 4134 
L 1259 4134 
L 1259 2753 
L 3481 2753 
L 3481 2222 
L 1259 2222 
L 1259 531 
L 3634 531 
L 3634 0 
L 628 0 
L 628 4666 
z
" transform="scale(0.015625)"/>
      <path id="DejaVuSans-64" d="M 2906 2969 
L 2906 4863 
L 3481 4863 
L 3481 0 
L 2906 0 
L 2906 525 
Q 2725 213 2448 61 
Q 2172 -91 1784 -91 
Q 1150 -91 751 415 
Q 353 922 353 1747 
Q 353 2572 751 3078 
Q 1150 3584 1784 3584 
Q 2172 3584 2448 3432 
Q 2725 3281 2906 2969 
z
M 947 1747 
Q 947 1113 1208 752 
Q 1469 391 1925 391 
Q 2381 391 2643 752 
Q 2906 1113 2906 1747 
Q 2906 2381 2643 2742 
Q 2381 3103 1925 3103 
Q 1469 3103 1208 2742 
Q 947 2381 947 1747 
z
" transform="scale(0.015625)"/>
     </defs>
     <use xlink:href="#DejaVuSans-44"/>
     <use xlink:href="#DejaVuSans-69" x="77.001953"/>
     <use xlink:href="#DejaVuSans-73" x="104.785156"/>
     <use xlink:href="#DejaVuSans-74" x="156.884766"/>
     <use xlink:href="#DejaVuSans-72" x="196.09375"/>
     <use xlink:href="#DejaVuSans-69" x="237.207031"/>
     <use xlink:href="#DejaVuSans-62" x="264.990234"/>
     <use xlink:href="#DejaVuSans-75" x="328.466797"/>
     <use xlink:href="#DejaVuSans-74" x="391.845703"/>
     <use xlink:href="#DejaVuSans-69" x="431.054688"/>
     <use xlink:href="#DejaVuSans-6f" x="458.837891"/>
     <use xlink:href="#DejaVuSans-6e" x="520.019531"/>
     <use xlink:href="#DejaVuSans-20" x="583.398438"/>
     <use xlink:href="#DejaVuSans-6f" x="615.185547"/>
     <use xlink:href="#DejaVuSans-66" x="676.367188"/>
     <use xlink:href="#DejaVuSans-20" x="711.572266"/>
     <use xlink:href="#DejaVuSans-45" x="743.359375"/>
     <use xlink:href="#DejaVuSans-64" x="806.542969"/>
     <use xlink:href="#DejaVuSans-69" x="870.019531"/>
     <use xlink:href="#DejaVuSans-74" x="897.802734"/>
     <use xlink:href="#DejaVuSans-20" x="937.011719"/>
     <use xlink:href="#DejaVuSans-53" x="968.798828"/>
     <use xlink:href="#DejaVuSans-63" x="1032.275391"/>
     <use xlink:href="#DejaVuSans-6f" x="1087.255859"/>
     <use xlink:href="#DejaVuSans-72" x="1148.4375"/>
     <use xlink:href="#DejaVuSans-65" x="1187.300781"/>
     <use xlink:href="#DejaVuSans-73" x="1248.824219"/>
    </g>
   </g>
  </g>
  <g id="axes_2">
   <g id="patch_87">
    <path d="M 276.345312 236.04375 
L 482.4 236.04375 
L 482.4 15.118125 
L 276.345312 15.118125 
z
" style="fill: #ffffff"/>
   </g>
   <g id="patch_88">
    <path d="M 285.711435 236.04375 
L 292.813941 236.04375 
L 292.813941 227.206725 
L 285.711435 227.206725 
z
" clip-path="url(#p73029f5a4e)" style="fill: #ffb145; opacity: 0.3"/>
   </g>
   <g id="patch_89">
    <path d="M 292.813941 236.04375 
L 299.916447 236.04375 
L 299.916447 218.3697 
L 292.813941 218.3697 
z
" clip-path="url(#p73029f5a4e)" style="fill: #ffb145; opacity: 0.3"/>
   </g>
   <g id="patch_90">
    <path d="M 299.916447 236.04375 
L 307.018953 236.04375 
L 307.018953 227.206725 
L 299.916447 227.206725 
z
" clip-path="url(#p73029f5a4e)" style="fill: #ffb145; opacity: 0.3"/>
   </g>
   <g id="patch_91">
    <path d="M 307.018953 236.04375 
L 314.121459 236.04375 
L 314.121459 227.206725 
L 307.018953 227.206725 
z
" clip-path="url(#p73029f5a4e)" style="fill: #ffb145; opacity: 0.3"/>
   </g>
   <g id="patch_92">
    <path d="M 314.121459 236.04375 
L 321.223965 236.04375 
L 321.223965 200.69565 
L 314.121459 200.69565 
z
" clip-path="url(#p73029f5a4e)" style="fill: #ffb145; opacity: 0.3"/>
   </g>
   <g id="patch_93">
    <path d="M 321.223965 236.04375 
L 328.326471 236.04375 
L 328.326471 227.206725 
L 321.223965 227.206725 
z
" clip-path="url(#p73029f5a4e)" style="fill: #ffb145; opacity: 0.3"/>
   </g>
   <g id="patch_94">
    <path d="M 328.326471 236.04375 
L 335.428977 236.04375 
L 335.428977 209.532675 
L 328.326471 209.532675 
z
" clip-path="url(#p73029f5a4e)" style="fill: #ffb145; opacity: 0.3"/>
   </g>
   <g id="patch_95">
    <path d="M 335.428977 236.04375 
L 342.531483 236.04375 
L 342.531483 191.858625 
L 335.428977 191.858625 
z
" clip-path="url(#p73029f5a4e)" style="fill: #ffb145; opacity: 0.3"/>
   </g>
   <g id="patch_96">
    <path d="M 342.531483 236.04375 
L 349.633989 236.04375 
L 349.633989 200.69565 
L 342.531483 200.69565 
z
" clip-path="url(#p73029f5a4e)" style="fill: #ffb145; opacity: 0.3"/>
   </g>
   <g id="patch_97">
    <path d="M 349.633989 236.04375 
L 356.736495 236.04375 
L 356.736495 94.65135 
L 349.633989 94.65135 
z
" clip-path="url(#p73029f5a4e)" style="fill: #ffb145; opacity: 0.3"/>
   </g>
   <g id="patch_98">
    <path d="M 356.736495 236.04375 
L 363.839001 236.04375 
L 363.839001 138.836475 
L 356.736495 138.836475 
z
" clip-path="url(#p73029f5a4e)" style="fill: #ffb145; opacity: 0.3"/>
   </g>
   <g id="patch_99">
    <path d="M 363.839001 236.04375 
L 370.941507 236.04375 
L 370.941507 156.510525 
L 363.839001 156.510525 
z
" clip-path="url(#p73029f5a4e)" style="fill: #ffb145; opacity: 0.3"/>
   </g>
   <g id="patch_100">
    <path d="M 370.941507 236.04375 
L 378.044013 236.04375 
L 378.044013 191.858625 
L 370.941507 191.858625 
z
" clip-path="url(#p73029f5a4e)" style="fill: #ffb145; opacity: 0.3"/>
   </g>
   <g id="patch_101">
    <path d="M 378.044013 236.04375 
L 385.146519 236.04375 
L 385.146519 174.184575 
L 378.044013 174.184575 
z
" clip-path="url(#p73029f5a4e)" style="fill: #ffb145; opacity: 0.3"/>
   </g>
   <g id="patch_102">
    <path d="M 385.146519 236.04375 
L 392.249025 236.04375 
L 392.249025 191.858625 
L 385.146519 191.858625 
z
" clip-path="url(#p73029f5a4e)" style="fill: #ffb145; opacity: 0.3"/>
   </g>
   <g id="patch_103">
    <path d="M 392.249025 236.04375 
L 399.351531 236.04375 
L 399.351531 209.532675 
L 392.249025 209.532675 
z
" clip-path="url(#p73029f5a4e)" style="fill: #ffb145; opacity: 0.3"/>
   </g>
   <g id="patch_104">
    <path d="M 399.351531 236.04375 
L 406.454037 236.04375 
L 406.454037 200.69565 
L 399.351531 200.69565 
z
" clip-path="url(#p73029f5a4e)" style="fill: #ffb145; opacity: 0.3"/>
   </g>
   <g id="patch_105">
    <path d="M 406.454037 236.04375 
L 413.556543 236.04375 
L 413.556543 218.3697 
L 406.454037 218.3697 
z
" clip-path="url(#p73029f5a4e)" style="fill: #ffb145; opacity: 0.3"/>
   </g>
   <g id="patch_106">
    <path d="M 413.556543 236.04375 
L 420.659049 236.04375 
L 420.659049 218.3697 
L 413.556543 218.3697 
z
" clip-path="url(#p73029f5a4e)" style="fill: #ffb145; opacity: 0.3"/>
   </g>
   <g id="patch_107">
    <path d="M 420.659049 236.04375 
L 427.761555 236.04375 
L 427.761555 227.206725 
L 420.659049 227.206725 
z
" clip-path="url(#p73029f5a4e)" style="fill: #ffb145; opacity: 0.3"/>
   </g>
   <g id="patch_108">
    <path d="M 319.306536 236.04375 
L 325.052114 236.04375 
L 325.052114 227.206725 
L 319.306536 227.206725 
z
" clip-path="url(#p73029f5a4e)" style="fill: #ff4545; opacity: 0.3"/>
   </g>
   <g id="patch_109">
    <path d="M 325.052114 236.04375 
L 330.797692 236.04375 
L 330.797692 236.04375 
L 325.052114 236.04375 
z
" clip-path="url(#p73029f5a4e)" style="fill: #ff4545; opacity: 0.3"/>
   </g>
   <g id="patch_110">
    <path d="M 330.797692 236.04375 
L 336.54327 236.04375 
L 336.54327 218.3697 
L 330.797692 218.3697 
z
" clip-path="url(#p73029f5a4e)" style="fill: #ff4545; opacity: 0.3"/>
   </g>
   <g id="patch_111">
    <path d="M 336.54327 236.04375 
L 342.288849 236.04375 
L 342.288849 227.206725 
L 336.54327 227.206725 
z
" clip-path="url(#p73029f5a4e)" style="fill: #ff4545; opacity: 0.3"/>
   </g>
   <g id="patch_112">
    <path d="M 342.288849 236.04375 
L 348.034427 236.04375 
L 348.034427 218.3697 
L 342.288849 218.3697 
z
" clip-path="url(#p73029f5a4e)" style="fill: #ff4545; opacity: 0.3"/>
   </g>
   <g id="patch_113">
    <path d="M 348.034427 236.04375 
L 353.780005 236.04375 
L 353.780005 76.9773 
L 348.034427 76.9773 
z
" clip-path="url(#p73029f5a4e)" style="fill: #ff4545; opacity: 0.3"/>
   </g>
   <g id="patch_114">
    <path d="M 353.780005 236.04375 
L 359.525583 236.04375 
L 359.525583 112.3254 
L 353.780005 112.3254 
z
" clip-path="url(#p73029f5a4e)" style="fill: #ff4545; opacity: 0.3"/>
   </g>
   <g id="patch_115">
    <path d="M 359.525583 236.04375 
L 365.271162 236.04375 
L 365.271162 121.162425 
L 359.525583 121.162425 
z
" clip-path="url(#p73029f5a4e)" style="fill: #ff4545; opacity: 0.3"/>
   </g>
   <g id="patch_116">
    <path d="M 365.271162 236.04375 
L 371.01674 236.04375 
L 371.01674 165.34755 
L 365.271162 165.34755 
z
" clip-path="url(#p73029f5a4e)" style="fill: #ff4545; opacity: 0.3"/>
   </g>
   <g id="patch_117">
    <path d="M 371.01674 236.04375 
L 376.762318 236.04375 
L 376.762318 165.34755 
L 371.01674 165.34755 
z
" clip-path="url(#p73029f5a4e)" style="fill: #ff4545; opacity: 0.3"/>
   </g>
   <g id="patch_118">
    <path d="M 376.762318 236.04375 
L 382.507896 236.04375 
L 382.507896 218.3697 
L 376.762318 218.3697 
z
" clip-path="url(#p73029f5a4e)" style="fill: #ff4545; opacity: 0.3"/>
   </g>
   <g id="patch_119">
    <path d="M 382.507896 236.04375 
L 388.253475 236.04375 
L 388.253475 200.69565 
L 382.507896 200.69565 
z
" clip-path="url(#p73029f5a4e)" style="fill: #ff4545; opacity: 0.3"/>
   </g>
   <g id="patch_120">
    <path d="M 388.253475 236.04375 
L 393.999053 236.04375 
L 393.999053 209.532675 
L 388.253475 209.532675 
z
" clip-path="url(#p73029f5a4e)" style="fill: #ff4545; opacity: 0.3"/>
   </g>
   <g id="patch_121">
    <path d="M 393.999053 236.04375 
L 399.744631 236.04375 
L 399.744631 209.532675 
L 393.999053 209.532675 
z
" clip-path="url(#p73029f5a4e)" style="fill: #ff4545; opacity: 0.3"/>
   </g>
   <g id="patch_122">
    <path d="M 399.744631 236.04375 
L 405.490209 236.04375 
L 405.490209 218.3697 
L 399.744631 218.3697 
z
" clip-path="url(#p73029f5a4e)" style="fill: #ff4545; opacity: 0.3"/>
   </g>
   <g id="patch_123">
    <path d="M 405.490209 236.04375 
L 411.235788 236.04375 
L 411.235788 218.3697 
L 405.490209 218.3697 
z
" clip-path="url(#p73029f5a4e)" style="fill: #ff4545; opacity: 0.3"/>
   </g>
   <g id="patch_124">
    <path d="M 411.235788 236.04375 
L 416.981366 236.04375 
L 416.981366 218.3697 
L 411.235788 218.3697 
z
" clip-path="url(#p73029f5a4e)" style="fill: #ff4545; opacity: 0.3"/>
   </g>
   <g id="patch_125">
    <path d="M 416.981366 236.04375 
L 422.726944 236.04375 
L 422.726944 227.206725 
L 416.981366 227.206725 
z
" clip-path="url(#p73029f5a4e)" style="fill: #ff4545; opacity: 0.3"/>
   </g>
   <g id="patch_126">
    <path d="M 422.726944 236.04375 
L 428.472522 236.04375 
L 428.472522 236.04375 
L 422.726944 236.04375 
z
" clip-path="url(#p73029f5a4e)" style="fill: #ff4545; opacity: 0.3"/>
   </g>
   <g id="patch_127">
    <path d="M 428.472522 236.04375 
L 434.218101 236.04375 
L 434.218101 227.206725 
L 428.472522 227.206725 
z
" clip-path="url(#p73029f5a4e)" style="fill: #ff4545; opacity: 0.3"/>
   </g>
   <g id="patch_128">
    <path d="M 330.714148 236.04375 
L 335.921403 236.04375 
L 335.921403 218.3697 
L 330.714148 218.3697 
z
" clip-path="url(#p73029f5a4e)" style="fill: #ff45d7; opacity: 0.3"/>
   </g>
   <g id="patch_129">
    <path d="M 335.921403 236.04375 
L 341.128659 236.04375 
L 341.128659 236.04375 
L 335.921403 236.04375 
z
" clip-path="url(#p73029f5a4e)" style="fill: #ff45d7; opacity: 0.3"/>
   </g>
   <g id="patch_130">
    <path d="M 341.128659 236.04375 
L 346.335914 236.04375 
L 346.335914 209.532675 
L 341.128659 209.532675 
z
" clip-path="url(#p73029f5a4e)" style="fill: #ff45d7; opacity: 0.3"/>
   </g>
   <g id="patch_131">
    <path d="M 346.335914 236.04375 
L 351.543169 236.04375 
L 351.543169 165.34755 
L 346.335914 165.34755 
z
" clip-path="url(#p73029f5a4e)" style="fill: #ff45d7; opacity: 0.3"/>
   </g>
   <g id="patch_132">
    <path d="M 351.543169 236.04375 
L 356.750424 236.04375 
L 356.750424 183.0216 
L 351.543169 183.0216 
z
" clip-path="url(#p73029f5a4e)" style="fill: #ff45d7; opacity: 0.3"/>
   </g>
   <g id="patch_133">
    <path d="M 356.750424 236.04375 
L 361.957679 236.04375 
L 361.957679 165.34755 
L 356.750424 165.34755 
z
" clip-path="url(#p73029f5a4e)" style="fill: #ff45d7; opacity: 0.3"/>
   </g>
   <g id="patch_134">
    <path d="M 361.957679 236.04375 
L 367.164934 236.04375 
L 367.164934 147.6735 
L 361.957679 147.6735 
z
" clip-path="url(#p73029f5a4e)" style="fill: #ff45d7; opacity: 0.3"/>
   </g>
   <g id="patch_135">
    <path d="M 367.164934 236.04375 
L 372.372189 236.04375 
L 372.372189 165.34755 
L 367.164934 165.34755 
z
" clip-path="url(#p73029f5a4e)" style="fill: #ff45d7; opacity: 0.3"/>
   </g>
   <g id="patch_136">
    <path d="M 372.372189 236.04375 
L 377.579444 236.04375 
L 377.579444 183.0216 
L 372.372189 183.0216 
z
" clip-path="url(#p73029f5a4e)" style="fill: #ff45d7; opacity: 0.3"/>
   </g>
   <g id="patch_137">
    <path d="M 377.579444 236.04375 
L 382.786699 236.04375 
L 382.786699 183.0216 
L 377.579444 183.0216 
z
" clip-path="url(#p73029f5a4e)" style="fill: #ff45d7; opacity: 0.3"/>
   </g>
   <g id="patch_138">
    <path d="M 382.786699 236.04375 
L 387.993954 236.04375 
L 387.993954 209.532675 
L 382.786699 209.532675 
z
" clip-path="url(#p73029f5a4e)" style="fill: #ff45d7; opacity: 0.3"/>
   </g>
   <g id="patch_139">
    <path d="M 387.993954 236.04375 
L 393.201209 236.04375 
L 393.201209 191.858625 
L 387.993954 191.858625 
z
" clip-path="url(#p73029f5a4e)" style="fill: #ff45d7; opacity: 0.3"/>
   </g>
   <g id="patch_140">
    <path d="M 393.201209 236.04375 
L 398.408464 236.04375 
L 398.408464 191.858625 
L 393.201209 191.858625 
z
" clip-path="url(#p73029f5a4e)" style="fill: #ff45d7; opacity: 0.3"/>
   </g>
   <g id="patch_141">
    <path d="M 398.408464 236.04375 
L 403.615719 236.04375 
L 403.615719 165.34755 
L 398.408464 165.34755 
z
" clip-path="url(#p73029f5a4e)" style="fill: #ff45d7; opacity: 0.3"/>
   </g>
   <g id="patch_142">
    <path d="M 403.615719 236.04375 
L 408.822974 236.04375 
L 408.822974 218.3697 
L 403.615719 218.3697 
z
" clip-path="url(#p73029f5a4e)" style="fill: #ff45d7; opacity: 0.3"/>
   </g>
   <g id="patch_143">
    <path d="M 408.822974 236.04375 
L 414.030229 236.04375 
L 414.030229 209.532675 
L 408.822974 209.532675 
z
" clip-path="url(#p73029f5a4e)" style="fill: #ff45d7; opacity: 0.3"/>
   </g>
   <g id="patch_144">
    <path d="M 414.030229 236.04375 
L 419.237484 236.04375 
L 419.237484 218.3697 
L 414.030229 218.3697 
z
" clip-path="url(#p73029f5a4e)" style="fill: #ff45d7; opacity: 0.3"/>
   </g>
   <g id="patch_145">
    <path d="M 419.237484 236.04375 
L 424.444739 236.04375 
L 424.444739 218.3697 
L 419.237484 218.3697 
z
" clip-path="url(#p73029f5a4e)" style="fill: #ff45d7; opacity: 0.3"/>
   </g>
   <g id="patch_146">
    <path d="M 424.444739 236.04375 
L 429.651994 236.04375 
L 429.651994 227.206725 
L 424.444739 227.206725 
z
" clip-path="url(#p73029f5a4e)" style="fill: #ff45d7; opacity: 0.3"/>
   </g>
   <g id="patch_147">
    <path d="M 429.651994 236.04375 
L 434.859249 236.04375 
L 434.859249 218.3697 
L 429.651994 218.3697 
z
" clip-path="url(#p73029f5a4e)" style="fill: #ff45d7; opacity: 0.3"/>
   </g>
   <g id="patch_148">
    <path d="M 300.105351 236.04375 
L 308.751777 236.04375 
L 308.751777 227.206725 
L 300.105351 227.206725 
z
" clip-path="url(#p73029f5a4e)" style="fill: #45ff7a; opacity: 0.3"/>
   </g>
   <g id="patch_149">
    <path d="M 308.751777 236.04375 
L 317.398203 236.04375 
L 317.398203 236.04375 
L 308.751777 236.04375 
z
" clip-path="url(#p73029f5a4e)" style="fill: #45ff7a; opacity: 0.3"/>
   </g>
   <g id="patch_150">
    <path d="M 317.398203 236.04375 
L 326.04463 236.04375 
L 326.04463 236.04375 
L 317.398203 236.04375 
z
" clip-path="url(#p73029f5a4e)" style="fill: #45ff7a; opacity: 0.3"/>
   </g>
   <g id="patch_151">
    <path d="M 326.04463 236.04375 
L 334.691056 236.04375 
L 334.691056 227.206725 
L 326.04463 227.206725 
z
" clip-path="url(#p73029f5a4e)" style="fill: #45ff7a; opacity: 0.3"/>
   </g>
   <g id="patch_152">
    <path d="M 334.691056 236.04375 
L 343.337482 236.04375 
L 343.337482 200.69565 
L 334.691056 200.69565 
z
" clip-path="url(#p73029f5a4e)" style="fill: #45ff7a; opacity: 0.3"/>
   </g>
   <g id="patch_153">
    <path d="M 343.337482 236.04375 
L 351.983909 236.04375 
L 351.983909 191.858625 
L 343.337482 191.858625 
z
" clip-path="url(#p73029f5a4e)" style="fill: #45ff7a; opacity: 0.3"/>
   </g>
   <g id="patch_154">
    <path d="M 351.983909 236.04375 
L 360.630335 236.04375 
L 360.630335 138.836475 
L 351.983909 138.836475 
z
" clip-path="url(#p73029f5a4e)" style="fill: #45ff7a; opacity: 0.3"/>
   </g>
   <g id="patch_155">
    <path d="M 360.630335 236.04375 
L 369.276761 236.04375 
L 369.276761 94.65135 
L 360.630335 94.65135 
z
" clip-path="url(#p73029f5a4e)" style="fill: #45ff7a; opacity: 0.3"/>
   </g>
   <g id="patch_156">
    <path d="M 369.276761 236.04375 
L 377.923188 236.04375 
L 377.923188 165.34755 
L 369.276761 165.34755 
z
" clip-path="url(#p73029f5a4e)" style="fill: #45ff7a; opacity: 0.3"/>
   </g>
   <g id="patch_157">
    <path d="M 377.923188 236.04375 
L 386.569614 236.04375 
L 386.569614 129.99945 
L 377.923188 129.99945 
z
" clip-path="url(#p73029f5a4e)" style="fill: #45ff7a; opacity: 0.3"/>
   </g>
   <g id="patch_158">
    <path d="M 386.569614 236.04375 
L 395.216041 236.04375 
L 395.216041 156.510525 
L 386.569614 156.510525 
z
" clip-path="url(#p73029f5a4e)" style="fill: #45ff7a; opacity: 0.3"/>
   </g>
   <g id="patch_159">
    <path d="M 395.216041 236.04375 
L 403.862467 236.04375 
L 403.862467 165.34755 
L 395.216041 165.34755 
z
" clip-path="url(#p73029f5a4e)" style="fill: #45ff7a; opacity: 0.3"/>
   </g>
   <g id="patch_160">
    <path d="M 403.862467 236.04375 
L 412.508893 236.04375 
L 412.508893 174.184575 
L 403.862467 174.184575 
z
" clip-path="url(#p73029f5a4e)" style="fill: #45ff7a; opacity: 0.3"/>
   </g>
   <g id="patch_161">
    <path d="M 412.508893 236.04375 
L 421.15532 236.04375 
L 421.15532 200.69565 
L 412.508893 200.69565 
z
" clip-path="url(#p73029f5a4e)" style="fill: #45ff7a; opacity: 0.3"/>
   </g>
   <g id="patch_162">
    <path d="M 421.15532 236.04375 
L 429.801746 236.04375 
L 429.801746 227.206725 
L 421.15532 227.206725 
z
" clip-path="url(#p73029f5a4e)" style="fill: #45ff7a; opacity: 0.3"/>
   </g>
   <g id="patch_163">
    <path d="M 429.801746 236.04375 
L 438.448172 236.04375 
L 438.448172 236.04375 
L 429.801746 236.04375 
z
" clip-path="url(#p73029f5a4e)" style="fill: #45ff7a; opacity: 0.3"/>
   </g>
   <g id="patch_164">
    <path d="M 438.448172 236.04375 
L 447.094599 236.04375 
L 447.094599 227.206725 
L 438.448172 227.206725 
z
" clip-path="url(#p73029f5a4e)" style="fill: #45ff7a; opacity: 0.3"/>
   </g>
   <g id="patch_165">
    <path d="M 447.094599 236.04375 
L 455.741025 236.04375 
L 455.741025 236.04375 
L 447.094599 236.04375 
z
" clip-path="url(#p73029f5a4e)" style="fill: #45ff7a; opacity: 0.3"/>
   </g>
   <g id="patch_166">
    <path d="M 455.741025 236.04375 
L 464.387451 236.04375 
L 464.387451 236.04375 
L 455.741025 236.04375 
z
" clip-path="url(#p73029f5a4e)" style="fill: #45ff7a; opacity: 0.3"/>
   </g>
   <g id="patch_167">
    <path d="M 464.387451 236.04375 
L 473.033878 236.04375 
L 473.033878 227.206725 
L 464.387451 227.206725 
z
" clip-path="url(#p73029f5a4e)" style="fill: #45ff7a; opacity: 0.3"/>
   </g>
   <g id="matplotlib.axis_3">
    <g id="xtick_6">
     <g id="line2d_15">
      <g>
       <use xlink:href="#m4a69bc1891" x="281.853314" y="236.04375" style="stroke: #000000; stroke-width: 0.8"/>
      </g>
     </g>
     <g id="text_18">
      <!-- −20 -->
      <g transform="translate(271.30097 250.642188) scale(0.1 -0.1)">
       <use xlink:href="#DejaVuSans-2212"/>
       <use xlink:href="#DejaVuSans-32" x="83.789062"/>
       <use xlink:href="#DejaVuSans-30" x="147.412109"/>
      </g>
     </g>
    </g>
    <g id="xtick_7">
     <g id="line2d_16">
      <g>
       <use xlink:href="#m4a69bc1891" x="349.462554" y="236.04375" style="stroke: #000000; stroke-width: 0.8"/>
      </g>
     </g>
     <g id="text_19">
      <!-- 0 -->
      <g transform="translate(346.281304 250.642188) scale(0.1 -0.1)">
       <use xlink:href="#DejaVuSans-30"/>
      </g>
     </g>
    </g>
    <g id="xtick_8">
     <g id="line2d_17">
      <g>
       <use xlink:href="#m4a69bc1891" x="417.071795" y="236.04375" style="stroke: #000000; stroke-width: 0.8"/>
      </g>
     </g>
     <g id="text_20">
      <!-- 20 -->
      <g transform="translate(410.709295 250.642188) scale(0.1 -0.1)">
       <use xlink:href="#DejaVuSans-32"/>
       <use xlink:href="#DejaVuSans-30" x="63.623047"/>
      </g>
     </g>
    </g>
    <g id="text_21">
     <!-- Our Score -->
     <g transform="translate(354.621094 264.320313) scale(0.1 -0.1)">
      <use xlink:href="#DejaVuSans-4f"/>
      <use xlink:href="#DejaVuSans-75" x="78.710938"/>
      <use xlink:href="#DejaVuSans-72" x="142.089844"/>
      <use xlink:href="#DejaVuSans-20" x="183.203125"/>
      <use xlink:href="#DejaVuSans-53" x="214.990234"/>
      <use xlink:href="#DejaVuSans-63" x="278.466797"/>
      <use xlink:href="#DejaVuSans-6f" x="333.447266"/>
      <use xlink:href="#DejaVuSans-72" x="394.628906"/>
      <use xlink:href="#DejaVuSans-65" x="433.492188"/>
     </g>
    </g>
   </g>
   <g id="matplotlib.axis_4">
    <g id="ytick_10">
     <g id="line2d_18">
      <g>
       <use xlink:href="#m4993a242e7" x="276.345312" y="236.04375" style="stroke: #000000; stroke-width: 0.8"/>
      </g>
     </g>
     <g id="text_22">
      <!-- 0 -->
      <g transform="translate(262.982812 239.842969) scale(0.1 -0.1)">
       <use xlink:href="#DejaVuSans-30"/>
      </g>
     </g>
    </g>
    <g id="ytick_11">
     <g id="line2d_19">
      <g>
       <use xlink:href="#m4993a242e7" x="276.345312" y="191.858625" style="stroke: #000000; stroke-width: 0.8"/>
      </g>
     </g>
     <g id="text_23">
      <!-- 5 -->
      <g transform="translate(262.982812 195.657844) scale(0.1 -0.1)">
       <use xlink:href="#DejaVuSans-35"/>
      </g>
     </g>
    </g>
    <g id="ytick_12">
     <g id="line2d_20">
      <g>
       <use xlink:href="#m4993a242e7" x="276.345312" y="147.6735" style="stroke: #000000; stroke-width: 0.8"/>
      </g>
     </g>
     <g id="text_24">
      <!-- 10 -->
      <g transform="translate(256.620312 151.472719) scale(0.1 -0.1)">
       <use xlink:href="#DejaVuSans-31"/>
       <use xlink:href="#DejaVuSans-30" x="63.623047"/>
      </g>
     </g>
    </g>
    <g id="ytick_13">
     <g id="line2d_21">
      <g>
       <use xlink:href="#m4993a242e7" x="276.345312" y="103.488375" style="stroke: #000000; stroke-width: 0.8"/>
      </g>
     </g>
     <g id="text_25">
      <!-- 15 -->
      <g transform="translate(256.620312 107.287594) scale(0.1 -0.1)">
       <use xlink:href="#DejaVuSans-31"/>
       <use xlink:href="#DejaVuSans-35" x="63.623047"/>
      </g>
     </g>
    </g>
    <g id="ytick_14">
     <g id="line2d_22">
      <g>
       <use xlink:href="#m4993a242e7" x="276.345312" y="59.30325" style="stroke: #000000; stroke-width: 0.8"/>
      </g>
     </g>
     <g id="text_26">
      <!-- 20 -->
      <g transform="translate(256.620312 63.102469) scale(0.1 -0.1)">
       <use xlink:href="#DejaVuSans-32"/>
       <use xlink:href="#DejaVuSans-30" x="63.623047"/>
      </g>
     </g>
    </g>
    <g id="ytick_15">
     <g id="line2d_23">
      <g>
       <use xlink:href="#m4993a242e7" x="276.345312" y="15.118125" style="stroke: #000000; stroke-width: 0.8"/>
      </g>
     </g>
     <g id="text_27">
      <!-- 25 -->
      <g transform="translate(256.620312 18.917344) scale(0.1 -0.1)">
       <use xlink:href="#DejaVuSans-32"/>
       <use xlink:href="#DejaVuSans-35" x="63.623047"/>
      </g>
     </g>
    </g>
   </g>
   <g id="patch_168">
    <path d="M 276.345312 236.04375 
L 276.345312 15.118125 
" style="fill: none; stroke: #000000; stroke-width: 0.8; stroke-linejoin: miter; stroke-linecap: square"/>
   </g>
   <g id="patch_169">
    <path d="M 482.4 236.04375 
L 482.4 15.118125 
" style="fill: none; stroke: #000000; stroke-width: 0.8; stroke-linejoin: miter; stroke-linecap: square"/>
   </g>
   <g id="patch_170">
    <path d="M 276.345312 236.04375 
L 482.4 236.04375 
" style="fill: none; stroke: #000000; stroke-width: 0.8; stroke-linejoin: miter; stroke-linecap: square"/>
   </g>
   <g id="patch_171">
    <path d="M 276.345312 15.118125 
L 482.4 15.118125 
" style="fill: none; stroke: #000000; stroke-width: 0.8; stroke-linejoin: miter; stroke-linecap: square"/>
   </g>
   <g id="text_28">
    <!-- Distribution of Sentence Scores -->
    <g transform="translate(284.796719 9.118125) scale(0.12 -0.12)">
     <use xlink:href="#DejaVuSans-44"/>
     <use xlink:href="#DejaVuSans-69" x="77.001953"/>
     <use xlink:href="#DejaVuSans-73" x="104.785156"/>
     <use xlink:href="#DejaVuSans-74" x="156.884766"/>
     <use xlink:href="#DejaVuSans-72" x="196.09375"/>
     <use xlink:href="#DejaVuSans-69" x="237.207031"/>
     <use xlink:href="#DejaVuSans-62" x="264.990234"/>
     <use xlink:href="#DejaVuSans-75" x="328.466797"/>
     <use xlink:href="#DejaVuSans-74" x="391.845703"/>
     <use xlink:href="#DejaVuSans-69" x="431.054688"/>
     <use xlink:href="#DejaVuSans-6f" x="458.837891"/>
     <use xlink:href="#DejaVuSans-6e" x="520.019531"/>
     <use xlink:href="#DejaVuSans-20" x="583.398438"/>
     <use xlink:href="#DejaVuSans-6f" x="615.185547"/>
     <use xlink:href="#DejaVuSans-66" x="676.367188"/>
     <use xlink:href="#DejaVuSans-20" x="711.572266"/>
     <use xlink:href="#DejaVuSans-53" x="743.359375"/>
     <use xlink:href="#DejaVuSans-65" x="806.835938"/>
     <use xlink:href="#DejaVuSans-6e" x="868.359375"/>
     <use xlink:href="#DejaVuSans-74" x="931.738281"/>
     <use xlink:href="#DejaVuSans-65" x="970.947266"/>
     <use xlink:href="#DejaVuSans-6e" x="1032.470703"/>
     <use xlink:href="#DejaVuSans-63" x="1095.849609"/>
     <use xlink:href="#DejaVuSans-65" x="1150.830078"/>
     <use xlink:href="#DejaVuSans-20" x="1212.353516"/>
     <use xlink:href="#DejaVuSans-53" x="1244.140625"/>
     <use xlink:href="#DejaVuSans-63" x="1307.617188"/>
     <use xlink:href="#DejaVuSans-6f" x="1362.597656"/>
     <use xlink:href="#DejaVuSans-72" x="1423.779297"/>
     <use xlink:href="#DejaVuSans-65" x="1462.642578"/>
     <use xlink:href="#DejaVuSans-73" x="1524.166016"/>
    </g>
   </g>
   <g id="legend_1">
    <g id="patch_172">
     <path d="M 397.810937 81.830625 
L 475.4 81.830625 
Q 477.4 81.830625 477.4 79.830625 
L 477.4 22.118125 
Q 477.4 20.118125 475.4 20.118125 
L 397.810937 20.118125 
Q 395.810937 20.118125 395.810937 22.118125 
L 395.810937 79.830625 
Q 395.810937 81.830625 397.810937 81.830625 
z
" style="fill: #ffffff; opacity: 0.8; stroke: #cccccc; stroke-linejoin: miter"/>
    </g>
    <g id="patch_173">
     <path d="M 399.810937 31.716563 
L 419.810937 31.716563 
L 419.810937 24.716563 
L 399.810937 24.716563 
z
" style="fill: #ffb145; opacity: 0.3"/>
    </g>
    <g id="text_29">
     <!-- MUSS -->
     <g transform="translate(427.810937 31.716563) scale(0.1 -0.1)">
      <defs>
       <path id="DejaVuSans-4d" d="M 628 4666 
L 1569 4666 
L 2759 1491 
L 3956 4666 
L 4897 4666 
L 4897 0 
L 4281 0 
L 4281 4097 
L 3078 897 
L 2444 897 
L 1241 4097 
L 1241 0 
L 628 0 
L 628 4666 
z
" transform="scale(0.015625)"/>
       <path id="DejaVuSans-55" d="M 556 4666 
L 1191 4666 
L 1191 1831 
Q 1191 1081 1462 751 
Q 1734 422 2344 422 
Q 2950 422 3222 751 
Q 3494 1081 3494 1831 
L 3494 4666 
L 4128 4666 
L 4128 1753 
Q 4128 841 3676 375 
Q 3225 -91 2344 -91 
Q 1459 -91 1007 375 
Q 556 841 556 1753 
L 556 4666 
z
" transform="scale(0.015625)"/>
      </defs>
      <use xlink:href="#DejaVuSans-4d"/>
      <use xlink:href="#DejaVuSans-55" x="86.279297"/>
      <use xlink:href="#DejaVuSans-53" x="159.472656"/>
      <use xlink:href="#DejaVuSans-53" x="222.949219"/>
     </g>
    </g>
    <g id="patch_174">
     <path d="M 399.810937 46.394688 
L 419.810937 46.394688 
L 419.810937 39.394688 
L 399.810937 39.394688 
z
" style="fill: #ff4545; opacity: 0.3"/>
    </g>
    <g id="text_30">
     <!-- GPT-Zero -->
     <g transform="translate(427.810937 46.394688) scale(0.1 -0.1)">
      <defs>
       <path id="DejaVuSans-47" d="M 3809 666 
L 3809 1919 
L 2778 1919 
L 2778 2438 
L 4434 2438 
L 4434 434 
Q 4069 175 3628 42 
Q 3188 -91 2688 -91 
Q 1594 -91 976 548 
Q 359 1188 359 2328 
Q 359 3472 976 4111 
Q 1594 4750 2688 4750 
Q 3144 4750 3555 4637 
Q 3966 4525 4313 4306 
L 4313 3634 
Q 3963 3931 3569 4081 
Q 3175 4231 2741 4231 
Q 1884 4231 1454 3753 
Q 1025 3275 1025 2328 
Q 1025 1384 1454 906 
Q 1884 428 2741 428 
Q 3075 428 3337 486 
Q 3600 544 3809 666 
z
" transform="scale(0.015625)"/>
       <path id="DejaVuSans-50" d="M 1259 4147 
L 1259 2394 
L 2053 2394 
Q 2494 2394 2734 2622 
Q 2975 2850 2975 3272 
Q 2975 3691 2734 3919 
Q 2494 4147 2053 4147 
L 1259 4147 
z
M 628 4666 
L 2053 4666 
Q 2838 4666 3239 4311 
Q 3641 3956 3641 3272 
Q 3641 2581 3239 2228 
Q 2838 1875 2053 1875 
L 1259 1875 
L 1259 0 
L 628 0 
L 628 4666 
z
" transform="scale(0.015625)"/>
       <path id="DejaVuSans-54" d="M -19 4666 
L 3928 4666 
L 3928 4134 
L 2272 4134 
L 2272 0 
L 1638 0 
L 1638 4134 
L -19 4134 
L -19 4666 
z
" transform="scale(0.015625)"/>
       <path id="DejaVuSans-2d" d="M 313 2009 
L 1997 2009 
L 1997 1497 
L 313 1497 
L 313 2009 
z
" transform="scale(0.015625)"/>
       <path id="DejaVuSans-5a" d="M 359 4666 
L 4025 4666 
L 4025 4184 
L 1075 531 
L 4097 531 
L 4097 0 
L 288 0 
L 288 481 
L 3238 4134 
L 359 4134 
L 359 4666 
z
" transform="scale(0.015625)"/>
      </defs>
      <use xlink:href="#DejaVuSans-47"/>
      <use xlink:href="#DejaVuSans-50" x="77.490234"/>
      <use xlink:href="#DejaVuSans-54" x="137.792969"/>
      <use xlink:href="#DejaVuSans-2d" x="189.751953"/>
      <use xlink:href="#DejaVuSans-5a" x="225.835938"/>
      <use xlink:href="#DejaVuSans-65" x="294.341797"/>
      <use xlink:href="#DejaVuSans-72" x="355.865234"/>
      <use xlink:href="#DejaVuSans-6f" x="394.728516"/>
     </g>
    </g>
    <g id="patch_175">
     <path d="M 399.810937 61.072812 
L 419.810937 61.072812 
L 419.810937 54.072812 
L 399.810937 54.072812 
z
" style="fill: #ff45d7; opacity: 0.3"/>
    </g>
    <g id="text_31">
     <!-- GPT-Few -->
     <g transform="translate(427.810937 61.072812) scale(0.1 -0.1)">
      <defs>
       <path id="DejaVuSans-77" d="M 269 3500 
L 844 3500 
L 1563 769 
L 2278 3500 
L 2956 3500 
L 3675 769 
L 4391 3500 
L 4966 3500 
L 4050 0 
L 3372 0 
L 2619 2869 
L 1863 0 
L 1184 0 
L 269 3500 
z
" transform="scale(0.015625)"/>
      </defs>
      <use xlink:href="#DejaVuSans-47"/>
      <use xlink:href="#DejaVuSans-50" x="77.490234"/>
      <use xlink:href="#DejaVuSans-54" x="137.792969"/>
      <use xlink:href="#DejaVuSans-2d" x="189.751953"/>
      <use xlink:href="#DejaVuSans-46" x="225.835938"/>
      <use xlink:href="#DejaVuSans-65" x="277.855469"/>
      <use xlink:href="#DejaVuSans-77" x="339.378906"/>
     </g>
    </g>
    <g id="patch_176">
     <path d="M 399.810937 75.750938 
L 419.810937 75.750938 
L 419.810937 68.750938 
L 399.810937 68.750938 
z
" style="fill: #45ff7a; opacity: 0.3"/>
    </g>
    <g id="text_32">
     <!-- Human -->
     <g transform="translate(427.810937 75.750938) scale(0.1 -0.1)">
      <defs>
       <path id="DejaVuSans-48" d="M 628 4666 
L 1259 4666 
L 1259 2753 
L 3553 2753 
L 3553 4666 
L 4184 4666 
L 4184 0 
L 3553 0 
L 3553 2222 
L 1259 2222 
L 1259 0 
L 628 0 
L 628 4666 
z
" transform="scale(0.015625)"/>
       <path id="DejaVuSans-6d" d="M 3328 2828 
Q 3544 3216 3844 3400 
Q 4144 3584 4550 3584 
Q 5097 3584 5394 3201 
Q 5691 2819 5691 2113 
L 5691 0 
L 5113 0 
L 5113 2094 
Q 5113 2597 4934 2840 
Q 4756 3084 4391 3084 
Q 3944 3084 3684 2787 
Q 3425 2491 3425 1978 
L 3425 0 
L 2847 0 
L 2847 2094 
Q 2847 2600 2669 2842 
Q 2491 3084 2119 3084 
Q 1678 3084 1418 2786 
Q 1159 2488 1159 1978 
L 1159 0 
L 581 0 
L 581 3500 
L 1159 3500 
L 1159 2956 
Q 1356 3278 1631 3431 
Q 1906 3584 2284 3584 
Q 2666 3584 2933 3390 
Q 3200 3197 3328 2828 
z
" transform="scale(0.015625)"/>
       <path id="DejaVuSans-61" d="M 2194 1759 
Q 1497 1759 1228 1600 
Q 959 1441 959 1056 
Q 959 750 1161 570 
Q 1363 391 1709 391 
Q 2188 391 2477 730 
Q 2766 1069 2766 1631 
L 2766 1759 
L 2194 1759 
z
M 3341 1997 
L 3341 0 
L 2766 0 
L 2766 531 
Q 2569 213 2275 61 
Q 1981 -91 1556 -91 
Q 1019 -91 701 211 
Q 384 513 384 1019 
Q 384 1609 779 1909 
Q 1175 2209 1959 2209 
L 2766 2209 
L 2766 2266 
Q 2766 2663 2505 2880 
Q 2244 3097 1772 3097 
Q 1472 3097 1187 3025 
Q 903 2953 641 2809 
L 641 3341 
Q 956 3463 1253 3523 
Q 1550 3584 1831 3584 
Q 2591 3584 2966 3190 
Q 3341 2797 3341 1997 
z
" transform="scale(0.015625)"/>
      </defs>
      <use xlink:href="#DejaVuSans-48"/>
      <use xlink:href="#DejaVuSans-75" x="75.195312"/>
      <use xlink:href="#DejaVuSans-6d" x="138.574219"/>
      <use xlink:href="#DejaVuSans-61" x="235.986328"/>
      <use xlink:href="#DejaVuSans-6e" x="297.265625"/>
     </g>
    </g>
   </g>
  </g>
 </g>
 <defs>
  <clipPath id="p175c027869">
   <rect x="39.765625" y="15.118125" width="206.054687" height="220.925625"/>
  </clipPath>
  <clipPath id="p73029f5a4e">
   <rect x="276.345312" y="15.118125" width="206.054687" height="220.925625"/>
  </clipPath>
 </defs>
</svg>
