<?xml version="1.0" encoding="utf-8" standalone="no"?>
<!DOCTYPE svg PUBLIC "-//W3C//DTD SVG 1.1//EN"
  "http://www.w3.org/Graphics/SVG/1.1/DTD/svg11.dtd">
<svg xmlns:xlink="http://www.w3.org/1999/xlink" width="482.4pt" height="266.4pt" viewBox="0 0 482.4 266.4" xmlns="http://www.w3.org/2000/svg" version="1.1">
 <metadata>
  <rdf:RDF xmlns:dc="http://purl.org/dc/elements/1.1/" xmlns:cc="http://creativecommons.org/ns#" xmlns:rdf="http://www.w3.org/1999/02/22-rdf-syntax-ns#">
   <cc:Work>
    <dc:type rdf:resource="http://purl.org/dc/dcmitype/StillImage"/>
    <dc:date>2022-12-22T23:34:09.936066</dc:date>
    <dc:format>image/svg+xml</dc:format>
    <dc:creator>
     <cc:Agent>
      <dc:title>Matplotlib v3.6.2, https://matplotlib.org/</dc:title>
     </cc:Agent>
    </dc:creator>
   </cc:Work>
  </rdf:RDF>
 </metadata>
 <defs>
  <style type="text/css">*{stroke-linejoin: round; stroke-linecap: butt}</style>
 </defs>
 <g id="figure_1">
  <g id="patch_1">
   <path d="M 0 266.4 
L 482.4 266.4 
L 482.4 0 
L 0 0 
L 0 266.4 
z
" style="fill: none"/>
  </g>
  <g id="axes_1">
   <g id="patch_2">
    <path d="M 39.765625 236.04375 
L 245.820312 236.04375 
L 245.820312 15.118125 
L 39.765625 15.118125 
z
" style="fill: #ffffff"/>
   </g>
   <g id="patch_3">
    <path d="M 49.131747 236.04375 
L 55.703469 236.04375 
L 55.703469 234.939122 
L 49.131747 234.939122 
z
" clip-path="url(#pdd3cd1c6f0)" style="fill: #ffb145; opacity: 0.3"/>
   </g>
   <g id="patch_4">
    <path d="M 55.703469 236.04375 
L 62.27519 236.04375 
L 62.27519 234.939122 
L 55.703469 234.939122 
z
" clip-path="url(#pdd3cd1c6f0)" style="fill: #ffb145; opacity: 0.3"/>
   </g>
   <g id="patch_5">
    <path d="M 62.27519 236.04375 
L 68.846912 236.04375 
L 68.846912 236.04375 
L 62.27519 236.04375 
z
" clip-path="url(#pdd3cd1c6f0)" style="fill: #ffb145; opacity: 0.3"/>
   </g>
   <g id="patch_6">
    <path d="M 68.846912 236.04375 
L 75.418633 236.04375 
L 75.418633 236.04375 
L 68.846912 236.04375 
z
" clip-path="url(#pdd3cd1c6f0)" style="fill: #ffb145; opacity: 0.3"/>
   </g>
   <g id="patch_7">
    <path d="M 75.418633 236.04375 
L 81.990355 236.04375 
L 81.990355 234.939122 
L 75.418633 234.939122 
z
" clip-path="url(#pdd3cd1c6f0)" style="fill: #ffb145; opacity: 0.3"/>
   </g>
   <g id="patch_8">
    <path d="M 81.990355 236.04375 
L 88.562076 236.04375 
L 88.562076 234.939122 
L 81.990355 234.939122 
z
" clip-path="url(#pdd3cd1c6f0)" style="fill: #ffb145; opacity: 0.3"/>
   </g>
   <g id="patch_9">
    <path d="M 88.562076 236.04375 
L 95.133798 236.04375 
L 95.133798 233.834494 
L 88.562076 233.834494 
z
" clip-path="url(#pdd3cd1c6f0)" style="fill: #ffb145; opacity: 0.3"/>
   </g>
   <g id="patch_10">
    <path d="M 95.133798 236.04375 
L 101.70552 236.04375 
L 101.70552 234.386808 
L 95.133798 234.386808 
z
" clip-path="url(#pdd3cd1c6f0)" style="fill: #ffb145; opacity: 0.3"/>
   </g>
   <g id="patch_11">
    <path d="M 101.70552 236.04375 
L 108.277241 236.04375 
L 108.277241 217.265072 
L 101.70552 217.265072 
z
" clip-path="url(#pdd3cd1c6f0)" style="fill: #ffb145; opacity: 0.3"/>
   </g>
   <g id="patch_12">
    <path d="M 108.277241 236.04375 
L 114.848963 236.04375 
L 114.848963 211.189617 
L 108.277241 211.189617 
z
" clip-path="url(#pdd3cd1c6f0)" style="fill: #ffb145; opacity: 0.3"/>
   </g>
   <g id="patch_13">
    <path d="M 114.848963 236.04375 
L 121.420684 236.04375 
L 121.420684 68.692589 
L 114.848963 68.692589 
z
" clip-path="url(#pdd3cd1c6f0)" style="fill: #ffb145; opacity: 0.3"/>
   </g>
   <g id="patch_14">
    <path d="M 121.420684 236.04375 
L 127.992406 236.04375 
L 127.992406 168.10912 
L 121.420684 168.10912 
z
" clip-path="url(#pdd3cd1c6f0)" style="fill: #ffb145; opacity: 0.3"/>
   </g>
   <g id="patch_15">
    <path d="M 127.992406 236.04375 
L 134.564127 236.04375 
L 134.564127 208.428047 
L 127.992406 208.428047 
z
" clip-path="url(#pdd3cd1c6f0)" style="fill: #ffb145; opacity: 0.3"/>
   </g>
   <g id="patch_16">
    <path d="M 134.564127 236.04375 
L 141.135849 236.04375 
L 141.135849 227.759039 
L 134.564127 227.759039 
z
" clip-path="url(#pdd3cd1c6f0)" style="fill: #ffb145; opacity: 0.3"/>
   </g>
   <g id="patch_17">
    <path d="M 141.135849 236.04375 
L 147.70757 236.04375 
L 147.70757 232.177552 
L 141.135849 232.177552 
z
" clip-path="url(#pdd3cd1c6f0)" style="fill: #ffb145; opacity: 0.3"/>
   </g>
   <g id="patch_18">
    <path d="M 147.70757 236.04375 
L 154.279292 236.04375 
L 154.279292 233.834494 
L 147.70757 233.834494 
z
" clip-path="url(#pdd3cd1c6f0)" style="fill: #ffb145; opacity: 0.3"/>
   </g>
   <g id="patch_19">
    <path d="M 154.279292 236.04375 
L 160.851013 236.04375 
L 160.851013 234.386808 
L 154.279292 234.386808 
z
" clip-path="url(#pdd3cd1c6f0)" style="fill: #ffb145; opacity: 0.3"/>
   </g>
   <g id="patch_20">
    <path d="M 160.851013 236.04375 
L 167.422735 236.04375 
L 167.422735 235.491436 
L 160.851013 235.491436 
z
" clip-path="url(#pdd3cd1c6f0)" style="fill: #ffb145; opacity: 0.3"/>
   </g>
   <g id="patch_21">
    <path d="M 167.422735 236.04375 
L 173.994457 236.04375 
L 173.994457 236.04375 
L 167.422735 236.04375 
z
" clip-path="url(#pdd3cd1c6f0)" style="fill: #ffb145; opacity: 0.3"/>
   </g>
   <g id="patch_22">
    <path d="M 173.994457 236.04375 
L 180.566178 236.04375 
L 180.566178 234.386808 
L 173.994457 234.386808 
z
" clip-path="url(#pdd3cd1c6f0)" style="fill: #ffb145; opacity: 0.3"/>
   </g>
   <g id="patch_23">
    <path d="M 85.658311 236.04375 
L 91.583542 236.04375 
L 91.583542 235.491436 
L 85.658311 235.491436 
z
" clip-path="url(#pdd3cd1c6f0)" style="fill: #ff4545; opacity: 0.3"/>
   </g>
   <g id="patch_24">
    <path d="M 91.583542 236.04375 
L 97.508772 236.04375 
L 97.508772 236.04375 
L 91.583542 236.04375 
z
" clip-path="url(#pdd3cd1c6f0)" style="fill: #ff4545; opacity: 0.3"/>
   </g>
   <g id="patch_25">
    <path d="M 97.508772 236.04375 
L 103.434003 236.04375 
L 103.434003 234.939122 
L 97.508772 234.939122 
z
" clip-path="url(#pdd3cd1c6f0)" style="fill: #ff4545; opacity: 0.3"/>
   </g>
   <g id="patch_26">
    <path d="M 103.434003 236.04375 
L 109.359234 236.04375 
L 109.359234 234.386808 
L 103.434003 234.386808 
z
" clip-path="url(#pdd3cd1c6f0)" style="fill: #ff4545; opacity: 0.3"/>
   </g>
   <g id="patch_27">
    <path d="M 109.359234 236.04375 
L 115.284464 236.04375 
L 115.284464 227.206725 
L 109.359234 227.206725 
z
" clip-path="url(#pdd3cd1c6f0)" style="fill: #ff4545; opacity: 0.3"/>
   </g>
   <g id="patch_28">
    <path d="M 115.284464 236.04375 
L 121.209695 236.04375 
L 121.209695 106.249945 
L 115.284464 106.249945 
z
" clip-path="url(#pdd3cd1c6f0)" style="fill: #ff4545; opacity: 0.3"/>
   </g>
   <g id="patch_29">
    <path d="M 121.209695 236.04375 
L 127.134926 236.04375 
L 127.134926 175.289203 
L 121.209695 175.289203 
z
" clip-path="url(#pdd3cd1c6f0)" style="fill: #ff4545; opacity: 0.3"/>
   </g>
   <g id="patch_30">
    <path d="M 127.134926 236.04375 
L 133.060157 236.04375 
L 133.060157 220.026642 
L 127.134926 220.026642 
z
" clip-path="url(#pdd3cd1c6f0)" style="fill: #ff4545; opacity: 0.3"/>
   </g>
   <g id="patch_31">
    <path d="M 133.060157 236.04375 
L 138.985387 236.04375 
L 138.985387 231.072923 
L 133.060157 231.072923 
z
" clip-path="url(#pdd3cd1c6f0)" style="fill: #ff4545; opacity: 0.3"/>
   </g>
   <g id="patch_32">
    <path d="M 138.985387 236.04375 
L 144.910618 236.04375 
L 144.910618 232.177552 
L 138.985387 232.177552 
z
" clip-path="url(#pdd3cd1c6f0)" style="fill: #ff4545; opacity: 0.3"/>
   </g>
   <g id="patch_33">
    <path d="M 144.910618 236.04375 
L 150.835849 236.04375 
L 150.835849 231.625238 
L 144.910618 231.625238 
z
" clip-path="url(#pdd3cd1c6f0)" style="fill: #ff4545; opacity: 0.3"/>
   </g>
   <g id="patch_34">
    <path d="M 150.835849 236.04375 
L 156.761079 236.04375 
L 156.761079 233.834494 
L 150.835849 233.834494 
z
" clip-path="url(#pdd3cd1c6f0)" style="fill: #ff4545; opacity: 0.3"/>
   </g>
   <g id="patch_35">
    <path d="M 156.761079 236.04375 
L 162.68631 236.04375 
L 162.68631 235.491436 
L 156.761079 235.491436 
z
" clip-path="url(#pdd3cd1c6f0)" style="fill: #ff4545; opacity: 0.3"/>
   </g>
   <g id="patch_36">
    <path d="M 162.68631 236.04375 
L 168.611541 236.04375 
L 168.611541 235.491436 
L 162.68631 235.491436 
z
" clip-path="url(#pdd3cd1c6f0)" style="fill: #ff4545; opacity: 0.3"/>
   </g>
   <g id="patch_37">
    <path d="M 168.611541 236.04375 
L 174.536771 236.04375 
L 174.536771 234.939122 
L 168.611541 234.939122 
z
" clip-path="url(#pdd3cd1c6f0)" style="fill: #ff4545; opacity: 0.3"/>
   </g>
   <g id="patch_38">
    <path d="M 174.536771 236.04375 
L 180.462002 236.04375 
L 180.462002 236.04375 
L 174.536771 236.04375 
z
" clip-path="url(#pdd3cd1c6f0)" style="fill: #ff4545; opacity: 0.3"/>
   </g>
   <g id="patch_39">
    <path d="M 180.462002 236.04375 
L 186.387233 236.04375 
L 186.387233 236.04375 
L 180.462002 236.04375 
z
" clip-path="url(#pdd3cd1c6f0)" style="fill: #ff4545; opacity: 0.3"/>
   </g>
   <g id="patch_40">
    <path d="M 186.387233 236.04375 
L 192.312463 236.04375 
L 192.312463 236.04375 
L 186.387233 236.04375 
z
" clip-path="url(#pdd3cd1c6f0)" style="fill: #ff4545; opacity: 0.3"/>
   </g>
   <g id="patch_41">
    <path d="M 192.312463 236.04375 
L 198.237694 236.04375 
L 198.237694 236.04375 
L 192.312463 236.04375 
z
" clip-path="url(#pdd3cd1c6f0)" style="fill: #ff4545; opacity: 0.3"/>
   </g>
   <g id="patch_42">
    <path d="M 198.237694 236.04375 
L 204.162925 236.04375 
L 204.162925 235.491436 
L 198.237694 235.491436 
z
" clip-path="url(#pdd3cd1c6f0)" style="fill: #ff4545; opacity: 0.3"/>
   </g>
   <g id="patch_43">
    <path d="M 101.400342 236.04375 
L 108.153034 236.04375 
L 108.153034 231.625238 
L 101.400342 231.625238 
z
" clip-path="url(#pdd3cd1c6f0)" style="fill: #ff45d7; opacity: 0.3"/>
   </g>
   <g id="patch_44">
    <path d="M 108.153034 236.04375 
L 114.905727 236.04375 
L 114.905727 220.578956 
L 108.153034 220.578956 
z
" clip-path="url(#pdd3cd1c6f0)" style="fill: #ff45d7; opacity: 0.3"/>
   </g>
   <g id="patch_45">
    <path d="M 114.905727 236.04375 
L 121.658419 236.04375 
L 121.658419 41.6292 
L 114.905727 41.6292 
z
" clip-path="url(#pdd3cd1c6f0)" style="fill: #ff45d7; opacity: 0.3"/>
   </g>
   <g id="patch_46">
    <path d="M 121.658419 236.04375 
L 128.411111 236.04375 
L 128.411111 152.092013 
L 121.658419 152.092013 
z
" clip-path="url(#pdd3cd1c6f0)" style="fill: #ff45d7; opacity: 0.3"/>
   </g>
   <g id="patch_47">
    <path d="M 128.411111 236.04375 
L 135.163804 236.04375 
L 135.163804 204.561848 
L 128.411111 204.561848 
z
" clip-path="url(#pdd3cd1c6f0)" style="fill: #ff45d7; opacity: 0.3"/>
   </g>
   <g id="patch_48">
    <path d="M 135.163804 236.04375 
L 141.916496 236.04375 
L 141.916496 226.654411 
L 135.163804 226.654411 
z
" clip-path="url(#pdd3cd1c6f0)" style="fill: #ff45d7; opacity: 0.3"/>
   </g>
   <g id="patch_49">
    <path d="M 141.916496 236.04375 
L 148.669189 236.04375 
L 148.669189 232.177552 
L 141.916496 232.177552 
z
" clip-path="url(#pdd3cd1c6f0)" style="fill: #ff45d7; opacity: 0.3"/>
   </g>
   <g id="patch_50">
    <path d="M 148.669189 236.04375 
L 155.421881 236.04375 
L 155.421881 232.729866 
L 148.669189 232.729866 
z
" clip-path="url(#pdd3cd1c6f0)" style="fill: #ff45d7; opacity: 0.3"/>
   </g>
   <g id="patch_51">
    <path d="M 155.421881 236.04375 
L 162.174574 236.04375 
L 162.174574 234.386808 
L 155.421881 234.386808 
z
" clip-path="url(#pdd3cd1c6f0)" style="fill: #ff45d7; opacity: 0.3"/>
   </g>
   <g id="patch_52">
    <path d="M 162.174574 236.04375 
L 168.927266 236.04375 
L 168.927266 234.939122 
L 162.174574 234.939122 
z
" clip-path="url(#pdd3cd1c6f0)" style="fill: #ff45d7; opacity: 0.3"/>
   </g>
   <g id="patch_53">
    <path d="M 168.927266 236.04375 
L 175.679958 236.04375 
L 175.679958 234.939122 
L 168.927266 234.939122 
z
" clip-path="url(#pdd3cd1c6f0)" style="fill: #ff45d7; opacity: 0.3"/>
   </g>
   <g id="patch_54">
    <path d="M 175.679958 236.04375 
L 182.432651 236.04375 
L 182.432651 235.491436 
L 175.679958 235.491436 
z
" clip-path="url(#pdd3cd1c6f0)" style="fill: #ff45d7; opacity: 0.3"/>
   </g>
   <g id="patch_55">
    <path d="M 182.432651 236.04375 
L 189.185343 236.04375 
L 189.185343 236.04375 
L 182.432651 236.04375 
z
" clip-path="url(#pdd3cd1c6f0)" style="fill: #ff45d7; opacity: 0.3"/>
   </g>
   <g id="patch_56">
    <path d="M 189.185343 236.04375 
L 195.938036 236.04375 
L 195.938036 236.04375 
L 189.185343 236.04375 
z
" clip-path="url(#pdd3cd1c6f0)" style="fill: #ff45d7; opacity: 0.3"/>
   </g>
   <g id="patch_57">
    <path d="M 195.938036 236.04375 
L 202.690728 236.04375 
L 202.690728 236.04375 
L 195.938036 236.04375 
z
" clip-path="url(#pdd3cd1c6f0)" style="fill: #ff45d7; opacity: 0.3"/>
   </g>
   <g id="patch_58">
    <path d="M 202.690728 236.04375 
L 209.443421 236.04375 
L 209.443421 235.491436 
L 202.690728 235.491436 
z
" clip-path="url(#pdd3cd1c6f0)" style="fill: #ff45d7; opacity: 0.3"/>
   </g>
   <g id="patch_59">
    <path d="M 209.443421 236.04375 
L 216.196113 236.04375 
L 216.196113 236.04375 
L 209.443421 236.04375 
z
" clip-path="url(#pdd3cd1c6f0)" style="fill: #ff45d7; opacity: 0.3"/>
   </g>
   <g id="patch_60">
    <path d="M 216.196113 236.04375 
L 222.948805 236.04375 
L 222.948805 236.04375 
L 216.196113 236.04375 
z
" clip-path="url(#pdd3cd1c6f0)" style="fill: #ff45d7; opacity: 0.3"/>
   </g>
   <g id="patch_61">
    <path d="M 222.948805 236.04375 
L 229.701498 236.04375 
L 229.701498 236.04375 
L 222.948805 236.04375 
z
" clip-path="url(#pdd3cd1c6f0)" style="fill: #ff45d7; opacity: 0.3"/>
   </g>
   <g id="patch_62">
    <path d="M 229.701498 236.04375 
L 236.45419 236.04375 
L 236.45419 235.491436 
L 229.701498 235.491436 
z
" clip-path="url(#pdd3cd1c6f0)" style="fill: #ff45d7; opacity: 0.3"/>
   </g>
   <g id="patch_63">
    <path d="M 93.05705 236.04375 
L 99.386421 236.04375 
L 99.386421 234.386808 
L 93.05705 234.386808 
z
" clip-path="url(#pdd3cd1c6f0)" style="fill: #45ffda; opacity: 0.3"/>
   </g>
   <g id="patch_64">
    <path d="M 99.386421 236.04375 
L 105.715791 236.04375 
L 105.715791 232.729866 
L 99.386421 232.729866 
z
" clip-path="url(#pdd3cd1c6f0)" style="fill: #45ffda; opacity: 0.3"/>
   </g>
   <g id="patch_65">
    <path d="M 105.715791 236.04375 
L 112.045162 236.04375 
L 112.045162 218.922014 
L 105.715791 218.922014 
z
" clip-path="url(#pdd3cd1c6f0)" style="fill: #45ffda; opacity: 0.3"/>
   </g>
   <g id="patch_66">
    <path d="M 112.045162 236.04375 
L 118.374532 236.04375 
L 118.374532 110.668458 
L 112.045162 110.668458 
z
" clip-path="url(#pdd3cd1c6f0)" style="fill: #45ffda; opacity: 0.3"/>
   </g>
   <g id="patch_67">
    <path d="M 118.374532 236.04375 
L 124.703903 236.04375 
L 124.703903 79.73887 
L 118.374532 79.73887 
z
" clip-path="url(#pdd3cd1c6f0)" style="fill: #45ffda; opacity: 0.3"/>
   </g>
   <g id="patch_68">
    <path d="M 124.703903 236.04375 
L 131.033273 236.04375 
L 131.033273 169.766063 
L 124.703903 169.766063 
z
" clip-path="url(#pdd3cd1c6f0)" style="fill: #45ffda; opacity: 0.3"/>
   </g>
   <g id="patch_69">
    <path d="M 131.033273 236.04375 
L 137.362644 236.04375 
L 137.362644 215.60813 
L 131.033273 215.60813 
z
" clip-path="url(#pdd3cd1c6f0)" style="fill: #45ffda; opacity: 0.3"/>
   </g>
   <g id="patch_70">
    <path d="M 137.362644 236.04375 
L 143.692014 236.04375 
L 143.692014 223.892841 
L 137.362644 223.892841 
z
" clip-path="url(#pdd3cd1c6f0)" style="fill: #45ffda; opacity: 0.3"/>
   </g>
   <g id="patch_71">
    <path d="M 143.692014 236.04375 
L 150.021385 236.04375 
L 150.021385 229.968295 
L 143.692014 229.968295 
z
" clip-path="url(#pdd3cd1c6f0)" style="fill: #45ffda; opacity: 0.3"/>
   </g>
   <g id="patch_72">
    <path d="M 150.021385 236.04375 
L 156.350755 236.04375 
L 156.350755 233.834494 
L 150.021385 233.834494 
z
" clip-path="url(#pdd3cd1c6f0)" style="fill: #45ffda; opacity: 0.3"/>
   </g>
   <g id="patch_73">
    <path d="M 156.350755 236.04375 
L 162.680126 236.04375 
L 162.680126 235.491436 
L 156.350755 235.491436 
z
" clip-path="url(#pdd3cd1c6f0)" style="fill: #45ffda; opacity: 0.3"/>
   </g>
   <g id="patch_74">
    <path d="M 162.680126 236.04375 
L 169.009496 236.04375 
L 169.009496 235.491436 
L 162.680126 235.491436 
z
" clip-path="url(#pdd3cd1c6f0)" style="fill: #45ffda; opacity: 0.3"/>
   </g>
   <g id="patch_75">
    <path d="M 169.009496 236.04375 
L 175.338867 236.04375 
L 175.338867 235.491436 
L 169.009496 235.491436 
z
" clip-path="url(#pdd3cd1c6f0)" style="fill: #45ffda; opacity: 0.3"/>
   </g>
   <g id="patch_76">
    <path d="M 175.338867 236.04375 
L 181.668237 236.04375 
L 181.668237 236.04375 
L 175.338867 236.04375 
z
" clip-path="url(#pdd3cd1c6f0)" style="fill: #45ffda; opacity: 0.3"/>
   </g>
   <g id="patch_77">
    <path d="M 181.668237 236.04375 
L 187.997608 236.04375 
L 187.997608 235.491436 
L 181.668237 235.491436 
z
" clip-path="url(#pdd3cd1c6f0)" style="fill: #45ffda; opacity: 0.3"/>
   </g>
   <g id="patch_78">
    <path d="M 187.997608 236.04375 
L 194.326979 236.04375 
L 194.326979 236.04375 
L 187.997608 236.04375 
z
" clip-path="url(#pdd3cd1c6f0)" style="fill: #45ffda; opacity: 0.3"/>
   </g>
   <g id="patch_79">
    <path d="M 194.326979 236.04375 
L 200.656349 236.04375 
L 200.656349 236.04375 
L 194.326979 236.04375 
z
" clip-path="url(#pdd3cd1c6f0)" style="fill: #45ffda; opacity: 0.3"/>
   </g>
   <g id="patch_80">
    <path d="M 200.656349 236.04375 
L 206.98572 236.04375 
L 206.98572 236.04375 
L 200.656349 236.04375 
z
" clip-path="url(#pdd3cd1c6f0)" style="fill: #45ffda; opacity: 0.3"/>
   </g>
   <g id="patch_81">
    <path d="M 206.98572 236.04375 
L 213.31509 236.04375 
L 213.31509 236.04375 
L 206.98572 236.04375 
z
" clip-path="url(#pdd3cd1c6f0)" style="fill: #45ffda; opacity: 0.3"/>
   </g>
   <g id="patch_82">
    <path d="M 213.31509 236.04375 
L 219.644461 236.04375 
L 219.644461 235.491436 
L 213.31509 235.491436 
z
" clip-path="url(#pdd3cd1c6f0)" style="fill: #45ffda; opacity: 0.3"/>
   </g>
   <g id="matplotlib.axis_1">
    <g id="xtick_1">
     <g id="line2d_1">
      <defs>
       <path id="ma665a7a929" d="M 0 0 
L 0 3.5 
" style="stroke: #000000; stroke-width: 0.8"/>
      </defs>
      <g>
       <use xlink:href="#ma665a7a929" x="44.542205" y="236.04375" style="stroke: #000000; stroke-width: 0.8"/>
      </g>
     </g>
     <g id="text_1">
      <!-- −20 -->
      <g transform="translate(33.989862 250.642188) scale(0.1 -0.1)">
       <defs>
        <path id="DejaVuSans-2212" d="M 678 2272 
L 4684 2272 
L 4684 1741 
L 678 1741 
L 678 2272 
z
" transform="scale(0.015625)"/>
        <path id="DejaVuSans-32" d="M 1228 531 
L 3431 531 
L 3431 0 
L 469 0 
L 469 531 
Q 828 903 1448 1529 
Q 2069 2156 2228 2338 
Q 2531 2678 2651 2914 
Q 2772 3150 2772 3378 
Q 2772 3750 2511 3984 
Q 2250 4219 1831 4219 
Q 1534 4219 1204 4116 
Q 875 4013 500 3803 
L 500 4441 
Q 881 4594 1212 4672 
Q 1544 4750 1819 4750 
Q 2544 4750 2975 4387 
Q 3406 4025 3406 3419 
Q 3406 3131 3298 2873 
Q 3191 2616 2906 2266 
Q 2828 2175 2409 1742 
Q 1991 1309 1228 531 
z
" transform="scale(0.015625)"/>
        <path id="DejaVuSans-30" d="M 2034 4250 
Q 1547 4250 1301 3770 
Q 1056 3291 1056 2328 
Q 1056 1369 1301 889 
Q 1547 409 2034 409 
Q 2525 409 2770 889 
Q 3016 1369 3016 2328 
Q 3016 3291 2770 3770 
Q 2525 4250 2034 4250 
z
M 2034 4750 
Q 2819 4750 3233 4129 
Q 3647 3509 3647 2328 
Q 3647 1150 3233 529 
Q 2819 -91 2034 -91 
Q 1250 -91 836 529 
Q 422 1150 422 2328 
Q 422 3509 836 4129 
Q 1250 4750 2034 4750 
z
" transform="scale(0.015625)"/>
       </defs>
       <use xlink:href="#DejaVuSans-2212"/>
       <use xlink:href="#DejaVuSans-32" x="83.789062"/>
       <use xlink:href="#DejaVuSans-30" x="147.412109"/>
      </g>
     </g>
    </g>
    <g id="xtick_2">
     <g id="line2d_2">
      <g>
       <use xlink:href="#ma665a7a929" x="80.944533" y="236.04375" style="stroke: #000000; stroke-width: 0.8"/>
      </g>
     </g>
     <g id="text_2">
      <!-- −10 -->
      <g transform="translate(70.392189 250.642188) scale(0.1 -0.1)">
       <defs>
        <path id="DejaVuSans-31" d="M 794 531 
L 1825 531 
L 1825 4091 
L 703 3866 
L 703 4441 
L 1819 4666 
L 2450 4666 
L 2450 531 
L 3481 531 
L 3481 0 
L 794 0 
L 794 531 
z
" transform="scale(0.015625)"/>
       </defs>
       <use xlink:href="#DejaVuSans-2212"/>
       <use xlink:href="#DejaVuSans-31" x="83.789062"/>
       <use xlink:href="#DejaVuSans-30" x="147.412109"/>
      </g>
     </g>
    </g>
    <g id="xtick_3">
     <g id="line2d_3">
      <g>
       <use xlink:href="#ma665a7a929" x="117.34686" y="236.04375" style="stroke: #000000; stroke-width: 0.8"/>
      </g>
     </g>
     <g id="text_3">
      <!-- 0 -->
      <g transform="translate(114.16561 250.642188) scale(0.1 -0.1)">
       <use xlink:href="#DejaVuSans-30"/>
      </g>
     </g>
    </g>
    <g id="xtick_4">
     <g id="line2d_4">
      <g>
       <use xlink:href="#ma665a7a929" x="153.749187" y="236.04375" style="stroke: #000000; stroke-width: 0.8"/>
      </g>
     </g>
     <g id="text_4">
      <!-- 10 -->
      <g transform="translate(147.386687 250.642188) scale(0.1 -0.1)">
       <use xlink:href="#DejaVuSans-31"/>
       <use xlink:href="#DejaVuSans-30" x="63.623047"/>
      </g>
     </g>
    </g>
    <g id="xtick_5">
     <g id="line2d_5">
      <g>
       <use xlink:href="#ma665a7a929" x="190.151514" y="236.04375" style="stroke: #000000; stroke-width: 0.8"/>
      </g>
     </g>
     <g id="text_5">
      <!-- 20 -->
      <g transform="translate(183.789014 250.642188) scale(0.1 -0.1)">
       <use xlink:href="#DejaVuSans-32"/>
       <use xlink:href="#DejaVuSans-30" x="63.623047"/>
      </g>
     </g>
    </g>
    <g id="xtick_6">
     <g id="line2d_6">
      <g>
       <use xlink:href="#ma665a7a929" x="226.553841" y="236.04375" style="stroke: #000000; stroke-width: 0.8"/>
      </g>
     </g>
     <g id="text_6">
      <!-- 30 -->
      <g transform="translate(220.191341 250.642188) scale(0.1 -0.1)">
       <defs>
        <path id="DejaVuSans-33" d="M 2597 2516 
Q 3050 2419 3304 2112 
Q 3559 1806 3559 1356 
Q 3559 666 3084 287 
Q 2609 -91 1734 -91 
Q 1441 -91 1130 -33 
Q 819 25 488 141 
L 488 750 
Q 750 597 1062 519 
Q 1375 441 1716 441 
Q 2309 441 2620 675 
Q 2931 909 2931 1356 
Q 2931 1769 2642 2001 
Q 2353 2234 1838 2234 
L 1294 2234 
L 1294 2753 
L 1863 2753 
Q 2328 2753 2575 2939 
Q 2822 3125 2822 3475 
Q 2822 3834 2567 4026 
Q 2313 4219 1838 4219 
Q 1578 4219 1281 4162 
Q 984 4106 628 3988 
L 628 4550 
Q 988 4650 1302 4700 
Q 1616 4750 1894 4750 
Q 2613 4750 3031 4423 
Q 3450 4097 3450 3541 
Q 3450 3153 3228 2886 
Q 3006 2619 2597 2516 
z
" transform="scale(0.015625)"/>
       </defs>
       <use xlink:href="#DejaVuSans-33"/>
       <use xlink:href="#DejaVuSans-30" x="63.623047"/>
      </g>
     </g>
    </g>
    <g id="text_7">
     <!-- Our Score -->
     <g transform="translate(118.041406 264.320313) scale(0.1 -0.1)">
      <defs>
       <path id="DejaVuSans-4f" d="M 2522 4238 
Q 1834 4238 1429 3725 
Q 1025 3213 1025 2328 
Q 1025 1447 1429 934 
Q 1834 422 2522 422 
Q 3209 422 3611 934 
Q 4013 1447 4013 2328 
Q 4013 3213 3611 3725 
Q 3209 4238 2522 4238 
z
M 2522 4750 
Q 3503 4750 4090 4092 
Q 4678 3434 4678 2328 
Q 4678 1225 4090 567 
Q 3503 -91 2522 -91 
Q 1538 -91 948 565 
Q 359 1222 359 2328 
Q 359 3434 948 4092 
Q 1538 4750 2522 4750 
z
" transform="scale(0.015625)"/>
       <path id="DejaVuSans-75" d="M 544 1381 
L 544 3500 
L 1119 3500 
L 1119 1403 
Q 1119 906 1312 657 
Q 1506 409 1894 409 
Q 2359 409 2629 706 
Q 2900 1003 2900 1516 
L 2900 3500 
L 3475 3500 
L 3475 0 
L 2900 0 
L 2900 538 
Q 2691 219 2414 64 
Q 2138 -91 1772 -91 
Q 1169 -91 856 284 
Q 544 659 544 1381 
z
M 1991 3584 
L 1991 3584 
z
" transform="scale(0.015625)"/>
       <path id="DejaVuSans-72" d="M 2631 2963 
Q 2534 3019 2420 3045 
Q 2306 3072 2169 3072 
Q 1681 3072 1420 2755 
Q 1159 2438 1159 1844 
L 1159 0 
L 581 0 
L 581 3500 
L 1159 3500 
L 1159 2956 
Q 1341 3275 1631 3429 
Q 1922 3584 2338 3584 
Q 2397 3584 2469 3576 
Q 2541 3569 2628 3553 
L 2631 2963 
z
" transform="scale(0.015625)"/>
       <path id="DejaVuSans-20" transform="scale(0.015625)"/>
       <path id="DejaVuSans-53" d="M 3425 4513 
L 3425 3897 
Q 3066 4069 2747 4153 
Q 2428 4238 2131 4238 
Q 1616 4238 1336 4038 
Q 1056 3838 1056 3469 
Q 1056 3159 1242 3001 
Q 1428 2844 1947 2747 
L 2328 2669 
Q 3034 2534 3370 2195 
Q 3706 1856 3706 1288 
Q 3706 609 3251 259 
Q 2797 -91 1919 -91 
Q 1588 -91 1214 -16 
Q 841 59 441 206 
L 441 856 
Q 825 641 1194 531 
Q 1563 422 1919 422 
Q 2459 422 2753 634 
Q 3047 847 3047 1241 
Q 3047 1584 2836 1778 
Q 2625 1972 2144 2069 
L 1759 2144 
Q 1053 2284 737 2584 
Q 422 2884 422 3419 
Q 422 4038 858 4394 
Q 1294 4750 2059 4750 
Q 2388 4750 2728 4690 
Q 3069 4631 3425 4513 
z
" transform="scale(0.015625)"/>
       <path id="DejaVuSans-63" d="M 3122 3366 
L 3122 2828 
Q 2878 2963 2633 3030 
Q 2388 3097 2138 3097 
Q 1578 3097 1268 2742 
Q 959 2388 959 1747 
Q 959 1106 1268 751 
Q 1578 397 2138 397 
Q 2388 397 2633 464 
Q 2878 531 3122 666 
L 3122 134 
Q 2881 22 2623 -34 
Q 2366 -91 2075 -91 
Q 1284 -91 818 406 
Q 353 903 353 1747 
Q 353 2603 823 3093 
Q 1294 3584 2113 3584 
Q 2378 3584 2631 3529 
Q 2884 3475 3122 3366 
z
" transform="scale(0.015625)"/>
       <path id="DejaVuSans-6f" d="M 1959 3097 
Q 1497 3097 1228 2736 
Q 959 2375 959 1747 
Q 959 1119 1226 758 
Q 1494 397 1959 397 
Q 2419 397 2687 759 
Q 2956 1122 2956 1747 
Q 2956 2369 2687 2733 
Q 2419 3097 1959 3097 
z
M 1959 3584 
Q 2709 3584 3137 3096 
Q 3566 2609 3566 1747 
Q 3566 888 3137 398 
Q 2709 -91 1959 -91 
Q 1206 -91 779 398 
Q 353 888 353 1747 
Q 353 2609 779 3096 
Q 1206 3584 1959 3584 
z
" transform="scale(0.015625)"/>
       <path id="DejaVuSans-65" d="M 3597 1894 
L 3597 1613 
L 953 1613 
Q 991 1019 1311 708 
Q 1631 397 2203 397 
Q 2534 397 2845 478 
Q 3156 559 3463 722 
L 3463 178 
Q 3153 47 2828 -22 
Q 2503 -91 2169 -91 
Q 1331 -91 842 396 
Q 353 884 353 1716 
Q 353 2575 817 3079 
Q 1281 3584 2069 3584 
Q 2775 3584 3186 3129 
Q 3597 2675 3597 1894 
z
M 3022 2063 
Q 3016 2534 2758 2815 
Q 2500 3097 2075 3097 
Q 1594 3097 1305 2825 
Q 1016 2553 972 2059 
L 3022 2063 
z
" transform="scale(0.015625)"/>
      </defs>
      <use xlink:href="#DejaVuSans-4f"/>
      <use xlink:href="#DejaVuSans-75" x="78.710938"/>
      <use xlink:href="#DejaVuSans-72" x="142.089844"/>
      <use xlink:href="#DejaVuSans-20" x="183.203125"/>
      <use xlink:href="#DejaVuSans-53" x="214.990234"/>
      <use xlink:href="#DejaVuSans-63" x="278.466797"/>
      <use xlink:href="#DejaVuSans-6f" x="333.447266"/>
      <use xlink:href="#DejaVuSans-72" x="394.628906"/>
      <use xlink:href="#DejaVuSans-65" x="433.492188"/>
     </g>
    </g>
   </g>
   <g id="matplotlib.axis_2">
    <g id="ytick_1">
     <g id="line2d_7">
      <defs>
       <path id="m37b6cf5ce1" d="M 0 0 
L -3.5 0 
" style="stroke: #000000; stroke-width: 0.8"/>
      </defs>
      <g>
       <use xlink:href="#m37b6cf5ce1" x="39.765625" y="236.04375" style="stroke: #000000; stroke-width: 0.8"/>
      </g>
     </g>
     <g id="text_8">
      <!-- 0 -->
      <g transform="translate(26.403125 239.842969) scale(0.1 -0.1)">
       <use xlink:href="#DejaVuSans-30"/>
      </g>
     </g>
    </g>
    <g id="ytick_2">
     <g id="line2d_8">
      <g>
       <use xlink:href="#m37b6cf5ce1" x="39.765625" y="208.428047" style="stroke: #000000; stroke-width: 0.8"/>
      </g>
     </g>
     <g id="text_9">
      <!-- 50 -->
      <g transform="translate(20.040625 212.227266) scale(0.1 -0.1)">
       <defs>
        <path id="DejaVuSans-35" d="M 691 4666 
L 3169 4666 
L 3169 4134 
L 1269 4134 
L 1269 2991 
Q 1406 3038 1543 3061 
Q 1681 3084 1819 3084 
Q 2600 3084 3056 2656 
Q 3513 2228 3513 1497 
Q 3513 744 3044 326 
Q 2575 -91 1722 -91 
Q 1428 -91 1123 -41 
Q 819 9 494 109 
L 494 744 
Q 775 591 1075 516 
Q 1375 441 1709 441 
Q 2250 441 2565 725 
Q 2881 1009 2881 1497 
Q 2881 1984 2565 2268 
Q 2250 2553 1709 2553 
Q 1456 2553 1204 2497 
Q 953 2441 691 2322 
L 691 4666 
z
" transform="scale(0.015625)"/>
       </defs>
       <use xlink:href="#DejaVuSans-35"/>
       <use xlink:href="#DejaVuSans-30" x="63.623047"/>
      </g>
     </g>
    </g>
    <g id="ytick_3">
     <g id="line2d_9">
      <g>
       <use xlink:href="#m37b6cf5ce1" x="39.765625" y="180.812344" style="stroke: #000000; stroke-width: 0.8"/>
      </g>
     </g>
     <g id="text_10">
      <!-- 100 -->
      <g transform="translate(13.678125 184.611563) scale(0.1 -0.1)">
       <use xlink:href="#DejaVuSans-31"/>
       <use xlink:href="#DejaVuSans-30" x="63.623047"/>
       <use xlink:href="#DejaVuSans-30" x="127.246094"/>
      </g>
     </g>
    </g>
    <g id="ytick_4">
     <g id="line2d_10">
      <g>
       <use xlink:href="#m37b6cf5ce1" x="39.765625" y="153.196641" style="stroke: #000000; stroke-width: 0.8"/>
      </g>
     </g>
     <g id="text_11">
      <!-- 150 -->
      <g transform="translate(13.678125 156.995859) scale(0.1 -0.1)">
       <use xlink:href="#DejaVuSans-31"/>
       <use xlink:href="#DejaVuSans-35" x="63.623047"/>
       <use xlink:href="#DejaVuSans-30" x="127.246094"/>
      </g>
     </g>
    </g>
    <g id="ytick_5">
     <g id="line2d_11">
      <g>
       <use xlink:href="#m37b6cf5ce1" x="39.765625" y="125.580938" style="stroke: #000000; stroke-width: 0.8"/>
      </g>
     </g>
     <g id="text_12">
      <!-- 200 -->
      <g transform="translate(13.678125 129.380156) scale(0.1 -0.1)">
       <use xlink:href="#DejaVuSans-32"/>
       <use xlink:href="#DejaVuSans-30" x="63.623047"/>
       <use xlink:href="#DejaVuSans-30" x="127.246094"/>
      </g>
     </g>
    </g>
    <g id="ytick_6">
     <g id="line2d_12">
      <g>
       <use xlink:href="#m37b6cf5ce1" x="39.765625" y="97.965234" style="stroke: #000000; stroke-width: 0.8"/>
      </g>
     </g>
     <g id="text_13">
      <!-- 250 -->
      <g transform="translate(13.678125 101.764453) scale(0.1 -0.1)">
       <use xlink:href="#DejaVuSans-32"/>
       <use xlink:href="#DejaVuSans-35" x="63.623047"/>
       <use xlink:href="#DejaVuSans-30" x="127.246094"/>
      </g>
     </g>
    </g>
    <g id="ytick_7">
     <g id="line2d_13">
      <g>
       <use xlink:href="#m37b6cf5ce1" x="39.765625" y="70.349531" style="stroke: #000000; stroke-width: 0.8"/>
      </g>
     </g>
     <g id="text_14">
      <!-- 300 -->
      <g transform="translate(13.678125 74.14875) scale(0.1 -0.1)">
       <use xlink:href="#DejaVuSans-33"/>
       <use xlink:href="#DejaVuSans-30" x="63.623047"/>
       <use xlink:href="#DejaVuSans-30" x="127.246094"/>
      </g>
     </g>
    </g>
    <g id="ytick_8">
     <g id="line2d_14">
      <g>
       <use xlink:href="#m37b6cf5ce1" x="39.765625" y="42.733828" style="stroke: #000000; stroke-width: 0.8"/>
      </g>
     </g>
     <g id="text_15">
      <!-- 350 -->
      <g transform="translate(13.678125 46.533047) scale(0.1 -0.1)">
       <use xlink:href="#DejaVuSans-33"/>
       <use xlink:href="#DejaVuSans-35" x="63.623047"/>
       <use xlink:href="#DejaVuSans-30" x="127.246094"/>
      </g>
     </g>
    </g>
    <g id="ytick_9">
     <g id="line2d_15">
      <g>
       <use xlink:href="#m37b6cf5ce1" x="39.765625" y="15.118125" style="stroke: #000000; stroke-width: 0.8"/>
      </g>
     </g>
     <g id="text_16">
      <!-- 400 -->
      <g transform="translate(13.678125 18.917344) scale(0.1 -0.1)">
       <defs>
        <path id="DejaVuSans-34" d="M 2419 4116 
L 825 1625 
L 2419 1625 
L 2419 4116 
z
M 2253 4666 
L 3047 4666 
L 3047 1625 
L 3713 1625 
L 3713 1100 
L 3047 1100 
L 3047 0 
L 2419 0 
L 2419 1100 
L 313 1100 
L 313 1709 
L 2253 4666 
z
" transform="scale(0.015625)"/>
       </defs>
       <use xlink:href="#DejaVuSans-34"/>
       <use xlink:href="#DejaVuSans-30" x="63.623047"/>
       <use xlink:href="#DejaVuSans-30" x="127.246094"/>
      </g>
     </g>
    </g>
    <g id="text_17">
     <!-- Frequency -->
     <g transform="translate(7.598438 151.410625) rotate(-90) scale(0.1 -0.1)">
      <defs>
       <path id="DejaVuSans-46" d="M 628 4666 
L 3309 4666 
L 3309 4134 
L 1259 4134 
L 1259 2759 
L 3109 2759 
L 3109 2228 
L 1259 2228 
L 1259 0 
L 628 0 
L 628 4666 
z
" transform="scale(0.015625)"/>
       <path id="DejaVuSans-71" d="M 947 1747 
Q 947 1113 1208 752 
Q 1469 391 1925 391 
Q 2381 391 2643 752 
Q 2906 1113 2906 1747 
Q 2906 2381 2643 2742 
Q 2381 3103 1925 3103 
Q 1469 3103 1208 2742 
Q 947 2381 947 1747 
z
M 2906 525 
Q 2725 213 2448 61 
Q 2172 -91 1784 -91 
Q 1150 -91 751 415 
Q 353 922 353 1747 
Q 353 2572 751 3078 
Q 1150 3584 1784 3584 
Q 2172 3584 2448 3432 
Q 2725 3281 2906 2969 
L 2906 3500 
L 3481 3500 
L 3481 -1331 
L 2906 -1331 
L 2906 525 
z
" transform="scale(0.015625)"/>
       <path id="DejaVuSans-6e" d="M 3513 2113 
L 3513 0 
L 2938 0 
L 2938 2094 
Q 2938 2591 2744 2837 
Q 2550 3084 2163 3084 
Q 1697 3084 1428 2787 
Q 1159 2491 1159 1978 
L 1159 0 
L 581 0 
L 581 3500 
L 1159 3500 
L 1159 2956 
Q 1366 3272 1645 3428 
Q 1925 3584 2291 3584 
Q 2894 3584 3203 3211 
Q 3513 2838 3513 2113 
z
" transform="scale(0.015625)"/>
       <path id="DejaVuSans-79" d="M 2059 -325 
Q 1816 -950 1584 -1140 
Q 1353 -1331 966 -1331 
L 506 -1331 
L 506 -850 
L 844 -850 
Q 1081 -850 1212 -737 
Q 1344 -625 1503 -206 
L 1606 56 
L 191 3500 
L 800 3500 
L 1894 763 
L 2988 3500 
L 3597 3500 
L 2059 -325 
z
" transform="scale(0.015625)"/>
      </defs>
      <use xlink:href="#DejaVuSans-46"/>
      <use xlink:href="#DejaVuSans-72" x="50.269531"/>
      <use xlink:href="#DejaVuSans-65" x="89.132812"/>
      <use xlink:href="#DejaVuSans-71" x="150.65625"/>
      <use xlink:href="#DejaVuSans-75" x="214.132812"/>
      <use xlink:href="#DejaVuSans-65" x="277.511719"/>
      <use xlink:href="#DejaVuSans-6e" x="339.035156"/>
      <use xlink:href="#DejaVuSans-63" x="402.414062"/>
      <use xlink:href="#DejaVuSans-79" x="457.394531"/>
     </g>
    </g>
   </g>
   <g id="patch_83">
    <path d="M 39.765625 236.04375 
L 39.765625 15.118125 
" style="fill: none; stroke: #000000; stroke-width: 0.8; stroke-linejoin: miter; stroke-linecap: square"/>
   </g>
   <g id="patch_84">
    <path d="M 245.820312 236.04375 
L 245.820312 15.118125 
" style="fill: none; stroke: #000000; stroke-width: 0.8; stroke-linejoin: miter; stroke-linecap: square"/>
   </g>
   <g id="patch_85">
    <path d="M 39.765625 236.04375 
L 245.820312 236.04375 
" style="fill: none; stroke: #000000; stroke-width: 0.8; stroke-linejoin: miter; stroke-linecap: square"/>
   </g>
   <g id="patch_86">
    <path d="M 39.765625 15.118125 
L 245.820312 15.118125 
" style="fill: none; stroke: #000000; stroke-width: 0.8; stroke-linejoin: miter; stroke-linecap: square"/>
   </g>
   <g id="text_18">
    <!-- Distribution of Edit Scores -->
    <g transform="translate(64.738594 9.118125) scale(0.12 -0.12)">
     <defs>
      <path id="DejaVuSans-44" d="M 1259 4147 
L 1259 519 
L 2022 519 
Q 2988 519 3436 956 
Q 3884 1394 3884 2338 
Q 3884 3275 3436 3711 
Q 2988 4147 2022 4147 
L 1259 4147 
z
M 628 4666 
L 1925 4666 
Q 3281 4666 3915 4102 
Q 4550 3538 4550 2338 
Q 4550 1131 3912 565 
Q 3275 0 1925 0 
L 628 0 
L 628 4666 
z
" transform="scale(0.015625)"/>
      <path id="DejaVuSans-69" d="M 603 3500 
L 1178 3500 
L 1178 0 
L 603 0 
L 603 3500 
z
M 603 4863 
L 1178 4863 
L 1178 4134 
L 603 4134 
L 603 4863 
z
" transform="scale(0.015625)"/>
      <path id="DejaVuSans-73" d="M 2834 3397 
L 2834 2853 
Q 2591 2978 2328 3040 
Q 2066 3103 1784 3103 
Q 1356 3103 1142 2972 
Q 928 2841 928 2578 
Q 928 2378 1081 2264 
Q 1234 2150 1697 2047 
L 1894 2003 
Q 2506 1872 2764 1633 
Q 3022 1394 3022 966 
Q 3022 478 2636 193 
Q 2250 -91 1575 -91 
Q 1294 -91 989 -36 
Q 684 19 347 128 
L 347 722 
Q 666 556 975 473 
Q 1284 391 1588 391 
Q 1994 391 2212 530 
Q 2431 669 2431 922 
Q 2431 1156 2273 1281 
Q 2116 1406 1581 1522 
L 1381 1569 
Q 847 1681 609 1914 
Q 372 2147 372 2553 
Q 372 3047 722 3315 
Q 1072 3584 1716 3584 
Q 2034 3584 2315 3537 
Q 2597 3491 2834 3397 
z
" transform="scale(0.015625)"/>
      <path id="DejaVuSans-74" d="M 1172 4494 
L 1172 3500 
L 2356 3500 
L 2356 3053 
L 1172 3053 
L 1172 1153 
Q 1172 725 1289 603 
Q 1406 481 1766 481 
L 2356 481 
L 2356 0 
L 1766 0 
Q 1100 0 847 248 
Q 594 497 594 1153 
L 594 3053 
L 172 3053 
L 172 3500 
L 594 3500 
L 594 4494 
L 1172 4494 
z
" transform="scale(0.015625)"/>
      <path id="DejaVuSans-62" d="M 3116 1747 
Q 3116 2381 2855 2742 
Q 2594 3103 2138 3103 
Q 1681 3103 1420 2742 
Q 1159 2381 1159 1747 
Q 1159 1113 1420 752 
Q 1681 391 2138 391 
Q 2594 391 2855 752 
Q 3116 1113 3116 1747 
z
M 1159 2969 
Q 1341 3281 1617 3432 
Q 1894 3584 2278 3584 
Q 2916 3584 3314 3078 
Q 3713 2572 3713 1747 
Q 3713 922 3314 415 
Q 2916 -91 2278 -91 
Q 1894 -91 1617 61 
Q 1341 213 1159 525 
L 1159 0 
L 581 0 
L 581 4863 
L 1159 4863 
L 1159 2969 
z
" transform="scale(0.015625)"/>
      <path id="DejaVuSans-66" d="M 2375 4863 
L 2375 4384 
L 1825 4384 
Q 1516 4384 1395 4259 
Q 1275 4134 1275 3809 
L 1275 3500 
L 2222 3500 
L 2222 3053 
L 1275 3053 
L 1275 0 
L 697 0 
L 697 3053 
L 147 3053 
L 147 3500 
L 697 3500 
L 697 3744 
Q 697 4328 969 4595 
Q 1241 4863 1831 4863 
L 2375 4863 
z
" transform="scale(0.015625)"/>
      <path id="DejaVuSans-45" d="M 628 4666 
L 3578 4666 
L 3578 4134 
L 1259 4134 
L 1259 2753 
L 3481 2753 
L 3481 2222 
L 1259 2222 
L 1259 531 
L 3634 531 
L 3634 0 
L 628 0 
L 628 4666 
z
" transform="scale(0.015625)"/>
      <path id="DejaVuSans-64" d="M 2906 2969 
L 2906 4863 
L 3481 4863 
L 3481 0 
L 2906 0 
L 2906 525 
Q 2725 213 2448 61 
Q 2172 -91 1784 -91 
Q 1150 -91 751 415 
Q 353 922 353 1747 
Q 353 2572 751 3078 
Q 1150 3584 1784 3584 
Q 2172 3584 2448 3432 
Q 2725 3281 2906 2969 
z
M 947 1747 
Q 947 1113 1208 752 
Q 1469 391 1925 391 
Q 2381 391 2643 752 
Q 2906 1113 2906 1747 
Q 2906 2381 2643 2742 
Q 2381 3103 1925 3103 
Q 1469 3103 1208 2742 
Q 947 2381 947 1747 
z
" transform="scale(0.015625)"/>
     </defs>
     <use xlink:href="#DejaVuSans-44"/>
     <use xlink:href="#DejaVuSans-69" x="77.001953"/>
     <use xlink:href="#DejaVuSans-73" x="104.785156"/>
     <use xlink:href="#DejaVuSans-74" x="156.884766"/>
     <use xlink:href="#DejaVuSans-72" x="196.09375"/>
     <use xlink:href="#DejaVuSans-69" x="237.207031"/>
     <use xlink:href="#DejaVuSans-62" x="264.990234"/>
     <use xlink:href="#DejaVuSans-75" x="328.466797"/>
     <use xlink:href="#DejaVuSans-74" x="391.845703"/>
     <use xlink:href="#DejaVuSans-69" x="431.054688"/>
     <use xlink:href="#DejaVuSans-6f" x="458.837891"/>
     <use xlink:href="#DejaVuSans-6e" x="520.019531"/>
     <use xlink:href="#DejaVuSans-20" x="583.398438"/>
     <use xlink:href="#DejaVuSans-6f" x="615.185547"/>
     <use xlink:href="#DejaVuSans-66" x="676.367188"/>
     <use xlink:href="#DejaVuSans-20" x="711.572266"/>
     <use xlink:href="#DejaVuSans-45" x="743.359375"/>
     <use xlink:href="#DejaVuSans-64" x="806.542969"/>
     <use xlink:href="#DejaVuSans-69" x="870.019531"/>
     <use xlink:href="#DejaVuSans-74" x="897.802734"/>
     <use xlink:href="#DejaVuSans-20" x="937.011719"/>
     <use xlink:href="#DejaVuSans-53" x="968.798828"/>
     <use xlink:href="#DejaVuSans-63" x="1032.275391"/>
     <use xlink:href="#DejaVuSans-6f" x="1087.255859"/>
     <use xlink:href="#DejaVuSans-72" x="1148.4375"/>
     <use xlink:href="#DejaVuSans-65" x="1187.300781"/>
     <use xlink:href="#DejaVuSans-73" x="1248.824219"/>
    </g>
   </g>
  </g>
  <g id="axes_2">
   <g id="patch_87">
    <path d="M 276.345312 236.04375 
L 482.4 236.04375 
L 482.4 15.118125 
L 276.345312 15.118125 
z
" style="fill: #ffffff"/>
   </g>
   <g id="patch_88">
    <path d="M 285.711435 236.04375 
L 293.774774 236.04375 
L 293.774774 218.3697 
L 285.711435 218.3697 
z
" clip-path="url(#p810a60e823)" style="fill: #ffb145; opacity: 0.3"/>
   </g>
   <g id="patch_89">
    <path d="M 293.774774 236.04375 
L 301.838113 236.04375 
L 301.838113 227.206725 
L 293.774774 227.206725 
z
" clip-path="url(#p810a60e823)" style="fill: #ffb145; opacity: 0.3"/>
   </g>
   <g id="patch_90">
    <path d="M 301.838113 236.04375 
L 309.901453 236.04375 
L 309.901453 227.206725 
L 301.838113 227.206725 
z
" clip-path="url(#p810a60e823)" style="fill: #ffb145; opacity: 0.3"/>
   </g>
   <g id="patch_91">
    <path d="M 309.901453 236.04375 
L 317.964792 236.04375 
L 317.964792 200.69565 
L 309.901453 200.69565 
z
" clip-path="url(#p810a60e823)" style="fill: #ffb145; opacity: 0.3"/>
   </g>
   <g id="patch_92">
    <path d="M 317.964792 236.04375 
L 326.028132 236.04375 
L 326.028132 200.69565 
L 317.964792 200.69565 
z
" clip-path="url(#p810a60e823)" style="fill: #ffb145; opacity: 0.3"/>
   </g>
   <g id="patch_93">
    <path d="M 326.028132 236.04375 
L 334.091471 236.04375 
L 334.091471 218.3697 
L 326.028132 218.3697 
z
" clip-path="url(#p810a60e823)" style="fill: #ffb145; opacity: 0.3"/>
   </g>
   <g id="patch_94">
    <path d="M 334.091471 236.04375 
L 342.15481 236.04375 
L 342.15481 183.0216 
L 334.091471 183.0216 
z
" clip-path="url(#p810a60e823)" style="fill: #ffb145; opacity: 0.3"/>
   </g>
   <g id="patch_95">
    <path d="M 342.15481 236.04375 
L 350.21815 236.04375 
L 350.21815 112.3254 
L 342.15481 112.3254 
z
" clip-path="url(#p810a60e823)" style="fill: #ffb145; opacity: 0.3"/>
   </g>
   <g id="patch_96">
    <path d="M 350.21815 236.04375 
L 358.281489 236.04375 
L 358.281489 76.9773 
L 350.21815 76.9773 
z
" clip-path="url(#p810a60e823)" style="fill: #ffb145; opacity: 0.3"/>
   </g>
   <g id="patch_97">
    <path d="M 358.281489 236.04375 
L 366.344829 236.04375 
L 366.344829 191.858625 
L 358.281489 191.858625 
z
" clip-path="url(#p810a60e823)" style="fill: #ffb145; opacity: 0.3"/>
   </g>
   <g id="patch_98">
    <path d="M 366.344829 236.04375 
L 374.408168 236.04375 
L 374.408168 183.0216 
L 366.344829 183.0216 
z
" clip-path="url(#p810a60e823)" style="fill: #ffb145; opacity: 0.3"/>
   </g>
   <g id="patch_99">
    <path d="M 374.408168 236.04375 
L 382.471507 236.04375 
L 382.471507 183.0216 
L 374.408168 183.0216 
z
" clip-path="url(#p810a60e823)" style="fill: #ffb145; opacity: 0.3"/>
   </g>
   <g id="patch_100">
    <path d="M 382.471507 236.04375 
L 390.534847 236.04375 
L 390.534847 200.69565 
L 382.471507 200.69565 
z
" clip-path="url(#p810a60e823)" style="fill: #ffb145; opacity: 0.3"/>
   </g>
   <g id="patch_101">
    <path d="M 390.534847 236.04375 
L 398.598186 236.04375 
L 398.598186 183.0216 
L 390.534847 183.0216 
z
" clip-path="url(#p810a60e823)" style="fill: #ffb145; opacity: 0.3"/>
   </g>
   <g id="patch_102">
    <path d="M 398.598186 236.04375 
L 406.661526 236.04375 
L 406.661526 218.3697 
L 398.598186 218.3697 
z
" clip-path="url(#p810a60e823)" style="fill: #ffb145; opacity: 0.3"/>
   </g>
   <g id="patch_103">
    <path d="M 406.661526 236.04375 
L 414.724865 236.04375 
L 414.724865 218.3697 
L 406.661526 218.3697 
z
" clip-path="url(#p810a60e823)" style="fill: #ffb145; opacity: 0.3"/>
   </g>
   <g id="patch_104">
    <path d="M 414.724865 236.04375 
L 422.788204 236.04375 
L 422.788204 227.206725 
L 414.724865 227.206725 
z
" clip-path="url(#p810a60e823)" style="fill: #ffb145; opacity: 0.3"/>
   </g>
   <g id="patch_105">
    <path d="M 422.788204 236.04375 
L 430.851544 236.04375 
L 430.851544 227.206725 
L 422.788204 227.206725 
z
" clip-path="url(#p810a60e823)" style="fill: #ffb145; opacity: 0.3"/>
   </g>
   <g id="patch_106">
    <path d="M 430.851544 236.04375 
L 438.914883 236.04375 
L 438.914883 227.206725 
L 430.851544 227.206725 
z
" clip-path="url(#p810a60e823)" style="fill: #ffb145; opacity: 0.3"/>
   </g>
   <g id="patch_107">
    <path d="M 438.914883 236.04375 
L 446.978223 236.04375 
L 446.978223 227.206725 
L 438.914883 227.206725 
z
" clip-path="url(#p810a60e823)" style="fill: #ffb145; opacity: 0.3"/>
   </g>
   <g id="patch_108">
    <path d="M 316.188069 236.04375 
L 322.910023 236.04375 
L 322.910023 227.206725 
L 316.188069 227.206725 
z
" clip-path="url(#p810a60e823)" style="fill: #ff4545; opacity: 0.3"/>
   </g>
   <g id="patch_109">
    <path d="M 322.910023 236.04375 
L 329.631977 236.04375 
L 329.631977 218.3697 
L 322.910023 218.3697 
z
" clip-path="url(#p810a60e823)" style="fill: #ff4545; opacity: 0.3"/>
   </g>
   <g id="patch_110">
    <path d="M 329.631977 236.04375 
L 336.35393 236.04375 
L 336.35393 227.206725 
L 329.631977 227.206725 
z
" clip-path="url(#p810a60e823)" style="fill: #ff4545; opacity: 0.3"/>
   </g>
   <g id="patch_111">
    <path d="M 336.35393 236.04375 
L 343.075884 236.04375 
L 343.075884 218.3697 
L 336.35393 218.3697 
z
" clip-path="url(#p810a60e823)" style="fill: #ff4545; opacity: 0.3"/>
   </g>
   <g id="patch_112">
    <path d="M 343.075884 236.04375 
L 349.797838 236.04375 
L 349.797838 68.140275 
L 343.075884 68.140275 
z
" clip-path="url(#p810a60e823)" style="fill: #ff4545; opacity: 0.3"/>
   </g>
   <g id="patch_113">
    <path d="M 349.797838 236.04375 
L 356.519792 236.04375 
L 356.519792 121.162425 
L 349.797838 121.162425 
z
" clip-path="url(#p810a60e823)" style="fill: #ff4545; opacity: 0.3"/>
   </g>
   <g id="patch_114">
    <path d="M 356.519792 236.04375 
L 363.241746 236.04375 
L 363.241746 121.162425 
L 356.519792 121.162425 
z
" clip-path="url(#p810a60e823)" style="fill: #ff4545; opacity: 0.3"/>
   </g>
   <g id="patch_115">
    <path d="M 363.241746 236.04375 
L 369.963699 236.04375 
L 369.963699 174.184575 
L 363.241746 174.184575 
z
" clip-path="url(#p810a60e823)" style="fill: #ff4545; opacity: 0.3"/>
   </g>
   <g id="patch_116">
    <path d="M 369.963699 236.04375 
L 376.685653 236.04375 
L 376.685653 174.184575 
L 369.963699 174.184575 
z
" clip-path="url(#p810a60e823)" style="fill: #ff4545; opacity: 0.3"/>
   </g>
   <g id="patch_117">
    <path d="M 376.685653 236.04375 
L 383.407607 236.04375 
L 383.407607 183.0216 
L 376.685653 183.0216 
z
" clip-path="url(#p810a60e823)" style="fill: #ff4545; opacity: 0.3"/>
   </g>
   <g id="patch_118">
    <path d="M 383.407607 236.04375 
L 390.129561 236.04375 
L 390.129561 191.858625 
L 383.407607 191.858625 
z
" clip-path="url(#p810a60e823)" style="fill: #ff4545; opacity: 0.3"/>
   </g>
   <g id="patch_119">
    <path d="M 390.129561 236.04375 
L 396.851515 236.04375 
L 396.851515 191.858625 
L 390.129561 191.858625 
z
" clip-path="url(#p810a60e823)" style="fill: #ff4545; opacity: 0.3"/>
   </g>
   <g id="patch_120">
    <path d="M 396.851515 236.04375 
L 403.573468 236.04375 
L 403.573468 236.04375 
L 396.851515 236.04375 
z
" clip-path="url(#p810a60e823)" style="fill: #ff4545; opacity: 0.3"/>
   </g>
   <g id="patch_121">
    <path d="M 403.573468 236.04375 
L 410.295422 236.04375 
L 410.295422 227.206725 
L 403.573468 227.206725 
z
" clip-path="url(#p810a60e823)" style="fill: #ff4545; opacity: 0.3"/>
   </g>
   <g id="patch_122">
    <path d="M 410.295422 236.04375 
L 417.017376 236.04375 
L 417.017376 218.3697 
L 410.295422 218.3697 
z
" clip-path="url(#p810a60e823)" style="fill: #ff4545; opacity: 0.3"/>
   </g>
   <g id="patch_123">
    <path d="M 417.017376 236.04375 
L 423.73933 236.04375 
L 423.73933 218.3697 
L 417.017376 218.3697 
z
" clip-path="url(#p810a60e823)" style="fill: #ff4545; opacity: 0.3"/>
   </g>
   <g id="patch_124">
    <path d="M 423.73933 236.04375 
L 430.461283 236.04375 
L 430.461283 236.04375 
L 423.73933 236.04375 
z
" clip-path="url(#p810a60e823)" style="fill: #ff4545; opacity: 0.3"/>
   </g>
   <g id="patch_125">
    <path d="M 430.461283 236.04375 
L 437.183237 236.04375 
L 437.183237 236.04375 
L 430.461283 236.04375 
z
" clip-path="url(#p810a60e823)" style="fill: #ff4545; opacity: 0.3"/>
   </g>
   <g id="patch_126">
    <path d="M 437.183237 236.04375 
L 443.905191 236.04375 
L 443.905191 236.04375 
L 437.183237 236.04375 
z
" clip-path="url(#p810a60e823)" style="fill: #ff4545; opacity: 0.3"/>
   </g>
   <g id="patch_127">
    <path d="M 443.905191 236.04375 
L 450.627145 236.04375 
L 450.627145 227.206725 
L 443.905191 227.206725 
z
" clip-path="url(#p810a60e823)" style="fill: #ff4545; opacity: 0.3"/>
   </g>
   <g id="patch_128">
    <path d="M 326.53677 236.04375 
L 333.861625 236.04375 
L 333.861625 218.3697 
L 326.53677 218.3697 
z
" clip-path="url(#p810a60e823)" style="fill: #ff45d7; opacity: 0.3"/>
   </g>
   <g id="patch_129">
    <path d="M 333.861625 236.04375 
L 341.186481 236.04375 
L 341.186481 218.3697 
L 333.861625 218.3697 
z
" clip-path="url(#p810a60e823)" style="fill: #ff45d7; opacity: 0.3"/>
   </g>
   <g id="patch_130">
    <path d="M 341.186481 236.04375 
L 348.511336 236.04375 
L 348.511336 156.510525 
L 341.186481 156.510525 
z
" clip-path="url(#p810a60e823)" style="fill: #ff45d7; opacity: 0.3"/>
   </g>
   <g id="patch_131">
    <path d="M 348.511336 236.04375 
L 355.836191 236.04375 
L 355.836191 85.814325 
L 348.511336 85.814325 
z
" clip-path="url(#p810a60e823)" style="fill: #ff45d7; opacity: 0.3"/>
   </g>
   <g id="patch_132">
    <path d="M 355.836191 236.04375 
L 363.161047 236.04375 
L 363.161047 156.510525 
L 355.836191 156.510525 
z
" clip-path="url(#p810a60e823)" style="fill: #ff45d7; opacity: 0.3"/>
   </g>
   <g id="patch_133">
    <path d="M 363.161047 236.04375 
L 370.485902 236.04375 
L 370.485902 156.510525 
L 363.161047 156.510525 
z
" clip-path="url(#p810a60e823)" style="fill: #ff45d7; opacity: 0.3"/>
   </g>
   <g id="patch_134">
    <path d="M 370.485902 236.04375 
L 377.810758 236.04375 
L 377.810758 174.184575 
L 370.485902 174.184575 
z
" clip-path="url(#p810a60e823)" style="fill: #ff45d7; opacity: 0.3"/>
   </g>
   <g id="patch_135">
    <path d="M 377.810758 236.04375 
L 385.135613 236.04375 
L 385.135613 191.858625 
L 377.810758 191.858625 
z
" clip-path="url(#p810a60e823)" style="fill: #ff45d7; opacity: 0.3"/>
   </g>
   <g id="patch_136">
    <path d="M 385.135613 236.04375 
L 392.460468 236.04375 
L 392.460468 200.69565 
L 385.135613 200.69565 
z
" clip-path="url(#p810a60e823)" style="fill: #ff45d7; opacity: 0.3"/>
   </g>
   <g id="patch_137">
    <path d="M 392.460468 236.04375 
L 399.785324 236.04375 
L 399.785324 165.34755 
L 392.460468 165.34755 
z
" clip-path="url(#p810a60e823)" style="fill: #ff45d7; opacity: 0.3"/>
   </g>
   <g id="patch_138">
    <path d="M 399.785324 236.04375 
L 407.110179 236.04375 
L 407.110179 200.69565 
L 399.785324 200.69565 
z
" clip-path="url(#p810a60e823)" style="fill: #ff45d7; opacity: 0.3"/>
   </g>
   <g id="patch_139">
    <path d="M 407.110179 236.04375 
L 414.435035 236.04375 
L 414.435035 183.0216 
L 407.110179 183.0216 
z
" clip-path="url(#p810a60e823)" style="fill: #ff45d7; opacity: 0.3"/>
   </g>
   <g id="patch_140">
    <path d="M 414.435035 236.04375 
L 421.75989 236.04375 
L 421.75989 227.206725 
L 414.435035 227.206725 
z
" clip-path="url(#p810a60e823)" style="fill: #ff45d7; opacity: 0.3"/>
   </g>
   <g id="patch_141">
    <path d="M 421.75989 236.04375 
L 429.084745 236.04375 
L 429.084745 227.206725 
L 421.75989 227.206725 
z
" clip-path="url(#p810a60e823)" style="fill: #ff45d7; opacity: 0.3"/>
   </g>
   <g id="patch_142">
    <path d="M 429.084745 236.04375 
L 436.409601 236.04375 
L 436.409601 227.206725 
L 429.084745 227.206725 
z
" clip-path="url(#p810a60e823)" style="fill: #ff45d7; opacity: 0.3"/>
   </g>
   <g id="patch_143">
    <path d="M 436.409601 236.04375 
L 443.734456 236.04375 
L 443.734456 227.206725 
L 436.409601 227.206725 
z
" clip-path="url(#p810a60e823)" style="fill: #ff45d7; opacity: 0.3"/>
   </g>
   <g id="patch_144">
    <path d="M 443.734456 236.04375 
L 451.059312 236.04375 
L 451.059312 227.206725 
L 443.734456 227.206725 
z
" clip-path="url(#p810a60e823)" style="fill: #ff45d7; opacity: 0.3"/>
   </g>
   <g id="patch_145">
    <path d="M 451.059312 236.04375 
L 458.384167 236.04375 
L 458.384167 218.3697 
L 451.059312 218.3697 
z
" clip-path="url(#p810a60e823)" style="fill: #ff45d7; opacity: 0.3"/>
   </g>
   <g id="patch_146">
    <path d="M 458.384167 236.04375 
L 465.709022 236.04375 
L 465.709022 236.04375 
L 458.384167 236.04375 
z
" clip-path="url(#p810a60e823)" style="fill: #ff45d7; opacity: 0.3"/>
   </g>
   <g id="patch_147">
    <path d="M 465.709022 236.04375 
L 473.033878 236.04375 
L 473.033878 227.206725 
L 465.709022 227.206725 
z
" clip-path="url(#p810a60e823)" style="fill: #ff45d7; opacity: 0.3"/>
   </g>
   <g id="patch_148">
    <path d="M 332.957972 236.04375 
L 339.757892 236.04375 
L 339.757892 200.69565 
L 332.957972 200.69565 
z
" clip-path="url(#p810a60e823)" style="fill: #45ff7a; opacity: 0.3"/>
   </g>
   <g id="patch_149">
    <path d="M 339.757892 236.04375 
L 346.557812 236.04375 
L 346.557812 183.0216 
L 339.757892 183.0216 
z
" clip-path="url(#p810a60e823)" style="fill: #45ff7a; opacity: 0.3"/>
   </g>
   <g id="patch_150">
    <path d="M 346.557812 236.04375 
L 353.357732 236.04375 
L 353.357732 156.510525 
L 346.557812 156.510525 
z
" clip-path="url(#p810a60e823)" style="fill: #45ff7a; opacity: 0.3"/>
   </g>
   <g id="patch_151">
    <path d="M 353.357732 236.04375 
L 360.157652 236.04375 
L 360.157652 129.99945 
L 353.357732 129.99945 
z
" clip-path="url(#p810a60e823)" style="fill: #45ff7a; opacity: 0.3"/>
   </g>
   <g id="patch_152">
    <path d="M 360.157652 236.04375 
L 366.957573 236.04375 
L 366.957573 174.184575 
L 360.157652 174.184575 
z
" clip-path="url(#p810a60e823)" style="fill: #45ff7a; opacity: 0.3"/>
   </g>
   <g id="patch_153">
    <path d="M 366.957573 236.04375 
L 373.757493 236.04375 
L 373.757493 156.510525 
L 366.957573 156.510525 
z
" clip-path="url(#p810a60e823)" style="fill: #45ff7a; opacity: 0.3"/>
   </g>
   <g id="patch_154">
    <path d="M 373.757493 236.04375 
L 380.557413 236.04375 
L 380.557413 121.162425 
L 373.757493 121.162425 
z
" clip-path="url(#p810a60e823)" style="fill: #45ff7a; opacity: 0.3"/>
   </g>
   <g id="patch_155">
    <path d="M 380.557413 236.04375 
L 387.357333 236.04375 
L 387.357333 174.184575 
L 380.557413 174.184575 
z
" clip-path="url(#p810a60e823)" style="fill: #45ff7a; opacity: 0.3"/>
   </g>
   <g id="patch_156">
    <path d="M 387.357333 236.04375 
L 394.157253 236.04375 
L 394.157253 200.69565 
L 387.357333 200.69565 
z
" clip-path="url(#p810a60e823)" style="fill: #45ff7a; opacity: 0.3"/>
   </g>
   <g id="patch_157">
    <path d="M 394.157253 236.04375 
L 400.957173 236.04375 
L 400.957173 218.3697 
L 394.157253 218.3697 
z
" clip-path="url(#p810a60e823)" style="fill: #45ff7a; opacity: 0.3"/>
   </g>
   <g id="patch_158">
    <path d="M 400.957173 236.04375 
L 407.757094 236.04375 
L 407.757094 165.34755 
L 400.957173 165.34755 
z
" clip-path="url(#p810a60e823)" style="fill: #45ff7a; opacity: 0.3"/>
   </g>
   <g id="patch_159">
    <path d="M 407.757094 236.04375 
L 414.557014 236.04375 
L 414.557014 227.206725 
L 407.757094 227.206725 
z
" clip-path="url(#p810a60e823)" style="fill: #45ff7a; opacity: 0.3"/>
   </g>
   <g id="patch_160">
    <path d="M 414.557014 236.04375 
L 421.356934 236.04375 
L 421.356934 218.3697 
L 414.557014 218.3697 
z
" clip-path="url(#p810a60e823)" style="fill: #45ff7a; opacity: 0.3"/>
   </g>
   <g id="patch_161">
    <path d="M 421.356934 236.04375 
L 428.156854 236.04375 
L 428.156854 236.04375 
L 421.356934 236.04375 
z
" clip-path="url(#p810a60e823)" style="fill: #45ff7a; opacity: 0.3"/>
   </g>
   <g id="patch_162">
    <path d="M 428.156854 236.04375 
L 434.956774 236.04375 
L 434.956774 218.3697 
L 428.156854 218.3697 
z
" clip-path="url(#p810a60e823)" style="fill: #45ff7a; opacity: 0.3"/>
   </g>
   <g id="patch_163">
    <path d="M 434.956774 236.04375 
L 441.756694 236.04375 
L 441.756694 236.04375 
L 434.956774 236.04375 
z
" clip-path="url(#p810a60e823)" style="fill: #45ff7a; opacity: 0.3"/>
   </g>
   <g id="patch_164">
    <path d="M 441.756694 236.04375 
L 448.556615 236.04375 
L 448.556615 227.206725 
L 441.756694 227.206725 
z
" clip-path="url(#p810a60e823)" style="fill: #45ff7a; opacity: 0.3"/>
   </g>
   <g id="patch_165">
    <path d="M 448.556615 236.04375 
L 455.356535 236.04375 
L 455.356535 236.04375 
L 448.556615 236.04375 
z
" clip-path="url(#p810a60e823)" style="fill: #45ff7a; opacity: 0.3"/>
   </g>
   <g id="patch_166">
    <path d="M 455.356535 236.04375 
L 462.156455 236.04375 
L 462.156455 227.206725 
L 455.356535 227.206725 
z
" clip-path="url(#p810a60e823)" style="fill: #45ff7a; opacity: 0.3"/>
   </g>
   <g id="patch_167">
    <path d="M 462.156455 236.04375 
L 468.956375 236.04375 
L 468.956375 227.206725 
L 462.156455 227.206725 
z
" clip-path="url(#p810a60e823)" style="fill: #45ff7a; opacity: 0.3"/>
   </g>
   <g id="matplotlib.axis_3">
    <g id="xtick_7">
     <g id="line2d_16">
      <g>
       <use xlink:href="#ma665a7a929" x="282.211444" y="236.04375" style="stroke: #000000; stroke-width: 0.8"/>
      </g>
     </g>
     <g id="text_19">
      <!-- −20 -->
      <g transform="translate(271.6591 250.642188) scale(0.1 -0.1)">
       <use xlink:href="#DejaVuSans-2212"/>
       <use xlink:href="#DejaVuSans-32" x="83.789062"/>
       <use xlink:href="#DejaVuSans-30" x="147.412109"/>
      </g>
     </g>
    </g>
    <g id="xtick_8">
     <g id="line2d_17">
      <g>
       <use xlink:href="#ma665a7a929" x="343.544854" y="236.04375" style="stroke: #000000; stroke-width: 0.8"/>
      </g>
     </g>
     <g id="text_20">
      <!-- 0 -->
      <g transform="translate(340.363604 250.642188) scale(0.1 -0.1)">
       <use xlink:href="#DejaVuSans-30"/>
      </g>
     </g>
    </g>
    <g id="xtick_9">
     <g id="line2d_18">
      <g>
       <use xlink:href="#ma665a7a929" x="404.878264" y="236.04375" style="stroke: #000000; stroke-width: 0.8"/>
      </g>
     </g>
     <g id="text_21">
      <!-- 20 -->
      <g transform="translate(398.515764 250.642188) scale(0.1 -0.1)">
       <use xlink:href="#DejaVuSans-32"/>
       <use xlink:href="#DejaVuSans-30" x="63.623047"/>
      </g>
     </g>
    </g>
    <g id="xtick_10">
     <g id="line2d_19">
      <g>
       <use xlink:href="#ma665a7a929" x="466.211674" y="236.04375" style="stroke: #000000; stroke-width: 0.8"/>
      </g>
     </g>
     <g id="text_22">
      <!-- 40 -->
      <g transform="translate(459.849174 250.642188) scale(0.1 -0.1)">
       <use xlink:href="#DejaVuSans-34"/>
       <use xlink:href="#DejaVuSans-30" x="63.623047"/>
      </g>
     </g>
    </g>
    <g id="text_23">
     <!-- Our Score -->
     <g transform="translate(354.621094 264.320313) scale(0.1 -0.1)">
      <use xlink:href="#DejaVuSans-4f"/>
      <use xlink:href="#DejaVuSans-75" x="78.710938"/>
      <use xlink:href="#DejaVuSans-72" x="142.089844"/>
      <use xlink:href="#DejaVuSans-20" x="183.203125"/>
      <use xlink:href="#DejaVuSans-53" x="214.990234"/>
      <use xlink:href="#DejaVuSans-63" x="278.466797"/>
      <use xlink:href="#DejaVuSans-6f" x="333.447266"/>
      <use xlink:href="#DejaVuSans-72" x="394.628906"/>
      <use xlink:href="#DejaVuSans-65" x="433.492188"/>
     </g>
    </g>
   </g>
   <g id="matplotlib.axis_4">
    <g id="ytick_10">
     <g id="line2d_20">
      <g>
       <use xlink:href="#m37b6cf5ce1" x="276.345312" y="236.04375" style="stroke: #000000; stroke-width: 0.8"/>
      </g>
     </g>
     <g id="text_24">
      <!-- 0 -->
      <g transform="translate(262.982812 239.842969) scale(0.1 -0.1)">
       <use xlink:href="#DejaVuSans-30"/>
      </g>
     </g>
    </g>
    <g id="ytick_11">
     <g id="line2d_21">
      <g>
       <use xlink:href="#m37b6cf5ce1" x="276.345312" y="191.858625" style="stroke: #000000; stroke-width: 0.8"/>
      </g>
     </g>
     <g id="text_25">
      <!-- 5 -->
      <g transform="translate(262.982812 195.657844) scale(0.1 -0.1)">
       <use xlink:href="#DejaVuSans-35"/>
      </g>
     </g>
    </g>
    <g id="ytick_12">
     <g id="line2d_22">
      <g>
       <use xlink:href="#m37b6cf5ce1" x="276.345312" y="147.6735" style="stroke: #000000; stroke-width: 0.8"/>
      </g>
     </g>
     <g id="text_26">
      <!-- 10 -->
      <g transform="translate(256.620312 151.472719) scale(0.1 -0.1)">
       <use xlink:href="#DejaVuSans-31"/>
       <use xlink:href="#DejaVuSans-30" x="63.623047"/>
      </g>
     </g>
    </g>
    <g id="ytick_13">
     <g id="line2d_23">
      <g>
       <use xlink:href="#m37b6cf5ce1" x="276.345312" y="103.488375" style="stroke: #000000; stroke-width: 0.8"/>
      </g>
     </g>
     <g id="text_27">
      <!-- 15 -->
      <g transform="translate(256.620312 107.287594) scale(0.1 -0.1)">
       <use xlink:href="#DejaVuSans-31"/>
       <use xlink:href="#DejaVuSans-35" x="63.623047"/>
      </g>
     </g>
    </g>
    <g id="ytick_14">
     <g id="line2d_24">
      <g>
       <use xlink:href="#m37b6cf5ce1" x="276.345312" y="59.30325" style="stroke: #000000; stroke-width: 0.8"/>
      </g>
     </g>
     <g id="text_28">
      <!-- 20 -->
      <g transform="translate(256.620312 63.102469) scale(0.1 -0.1)">
       <use xlink:href="#DejaVuSans-32"/>
       <use xlink:href="#DejaVuSans-30" x="63.623047"/>
      </g>
     </g>
    </g>
    <g id="ytick_15">
     <g id="line2d_25">
      <g>
       <use xlink:href="#m37b6cf5ce1" x="276.345312" y="15.118125" style="stroke: #000000; stroke-width: 0.8"/>
      </g>
     </g>
     <g id="text_29">
      <!-- 25 -->
      <g transform="translate(256.620312 18.917344) scale(0.1 -0.1)">
       <use xlink:href="#DejaVuSans-32"/>
       <use xlink:href="#DejaVuSans-35" x="63.623047"/>
      </g>
     </g>
    </g>
   </g>
   <g id="patch_168">
    <path d="M 276.345312 236.04375 
L 276.345312 15.118125 
" style="fill: none; stroke: #000000; stroke-width: 0.8; stroke-linejoin: miter; stroke-linecap: square"/>
   </g>
   <g id="patch_169">
    <path d="M 482.4 236.04375 
L 482.4 15.118125 
" style="fill: none; stroke: #000000; stroke-width: 0.8; stroke-linejoin: miter; stroke-linecap: square"/>
   </g>
   <g id="patch_170">
    <path d="M 276.345312 236.04375 
L 482.4 236.04375 
" style="fill: none; stroke: #000000; stroke-width: 0.8; stroke-linejoin: miter; stroke-linecap: square"/>
   </g>
   <g id="patch_171">
    <path d="M 276.345312 15.118125 
L 482.4 15.118125 
" style="fill: none; stroke: #000000; stroke-width: 0.8; stroke-linejoin: miter; stroke-linecap: square"/>
   </g>
   <g id="text_30">
    <!-- Distribution of Sentence Scores -->
    <g transform="translate(284.796719 9.118125) scale(0.12 -0.12)">
     <use xlink:href="#DejaVuSans-44"/>
     <use xlink:href="#DejaVuSans-69" x="77.001953"/>
     <use xlink:href="#DejaVuSans-73" x="104.785156"/>
     <use xlink:href="#DejaVuSans-74" x="156.884766"/>
     <use xlink:href="#DejaVuSans-72" x="196.09375"/>
     <use xlink:href="#DejaVuSans-69" x="237.207031"/>
     <use xlink:href="#DejaVuSans-62" x="264.990234"/>
     <use xlink:href="#DejaVuSans-75" x="328.466797"/>
     <use xlink:href="#DejaVuSans-74" x="391.845703"/>
     <use xlink:href="#DejaVuSans-69" x="431.054688"/>
     <use xlink:href="#DejaVuSans-6f" x="458.837891"/>
     <use xlink:href="#DejaVuSans-6e" x="520.019531"/>
     <use xlink:href="#DejaVuSans-20" x="583.398438"/>
     <use xlink:href="#DejaVuSans-6f" x="615.185547"/>
     <use xlink:href="#DejaVuSans-66" x="676.367188"/>
     <use xlink:href="#DejaVuSans-20" x="711.572266"/>
     <use xlink:href="#DejaVuSans-53" x="743.359375"/>
     <use xlink:href="#DejaVuSans-65" x="806.835938"/>
     <use xlink:href="#DejaVuSans-6e" x="868.359375"/>
     <use xlink:href="#DejaVuSans-74" x="931.738281"/>
     <use xlink:href="#DejaVuSans-65" x="970.947266"/>
     <use xlink:href="#DejaVuSans-6e" x="1032.470703"/>
     <use xlink:href="#DejaVuSans-63" x="1095.849609"/>
     <use xlink:href="#DejaVuSans-65" x="1150.830078"/>
     <use xlink:href="#DejaVuSans-20" x="1212.353516"/>
     <use xlink:href="#DejaVuSans-53" x="1244.140625"/>
     <use xlink:href="#DejaVuSans-63" x="1307.617188"/>
     <use xlink:href="#DejaVuSans-6f" x="1362.597656"/>
     <use xlink:href="#DejaVuSans-72" x="1423.779297"/>
     <use xlink:href="#DejaVuSans-65" x="1462.642578"/>
     <use xlink:href="#DejaVuSans-73" x="1524.166016"/>
    </g>
   </g>
   <g id="legend_1">
    <g id="patch_172">
     <path d="M 397.810937 81.830625 
L 475.4 81.830625 
Q 477.4 81.830625 477.4 79.830625 
L 477.4 22.118125 
Q 477.4 20.118125 475.4 20.118125 
L 397.810937 20.118125 
Q 395.810937 20.118125 395.810937 22.118125 
L 395.810937 79.830625 
Q 395.810937 81.830625 397.810937 81.830625 
z
" style="fill: #ffffff; opacity: 0.8; stroke: #cccccc; stroke-linejoin: miter"/>
    </g>
    <g id="patch_173">
     <path d="M 399.810937 31.716563 
L 419.810937 31.716563 
L 419.810937 24.716563 
L 399.810937 24.716563 
z
" style="fill: #ffb145; opacity: 0.3"/>
    </g>
    <g id="text_31">
     <!-- MUSS -->
     <g transform="translate(427.810937 31.716563) scale(0.1 -0.1)">
      <defs>
       <path id="DejaVuSans-4d" d="M 628 4666 
L 1569 4666 
L 2759 1491 
L 3956 4666 
L 4897 4666 
L 4897 0 
L 4281 0 
L 4281 4097 
L 3078 897 
L 2444 897 
L 1241 4097 
L 1241 0 
L 628 0 
L 628 4666 
z
" transform="scale(0.015625)"/>
       <path id="DejaVuSans-55" d="M 556 4666 
L 1191 4666 
L 1191 1831 
Q 1191 1081 1462 751 
Q 1734 422 2344 422 
Q 2950 422 3222 751 
Q 3494 1081 3494 1831 
L 3494 4666 
L 4128 4666 
L 4128 1753 
Q 4128 841 3676 375 
Q 3225 -91 2344 -91 
Q 1459 -91 1007 375 
Q 556 841 556 1753 
L 556 4666 
z
" transform="scale(0.015625)"/>
      </defs>
      <use xlink:href="#DejaVuSans-4d"/>
      <use xlink:href="#DejaVuSans-55" x="86.279297"/>
      <use xlink:href="#DejaVuSans-53" x="159.472656"/>
      <use xlink:href="#DejaVuSans-53" x="222.949219"/>
     </g>
    </g>
    <g id="patch_174">
     <path d="M 399.810937 46.394688 
L 419.810937 46.394688 
L 419.810937 39.394688 
L 399.810937 39.394688 
z
" style="fill: #ff4545; opacity: 0.3"/>
    </g>
    <g id="text_32">
     <!-- GPT-Zero -->
     <g transform="translate(427.810937 46.394688) scale(0.1 -0.1)">
      <defs>
       <path id="DejaVuSans-47" d="M 3809 666 
L 3809 1919 
L 2778 1919 
L 2778 2438 
L 4434 2438 
L 4434 434 
Q 4069 175 3628 42 
Q 3188 -91 2688 -91 
Q 1594 -91 976 548 
Q 359 1188 359 2328 
Q 359 3472 976 4111 
Q 1594 4750 2688 4750 
Q 3144 4750 3555 4637 
Q 3966 4525 4313 4306 
L 4313 3634 
Q 3963 3931 3569 4081 
Q 3175 4231 2741 4231 
Q 1884 4231 1454 3753 
Q 1025 3275 1025 2328 
Q 1025 1384 1454 906 
Q 1884 428 2741 428 
Q 3075 428 3337 486 
Q 3600 544 3809 666 
z
" transform="scale(0.015625)"/>
       <path id="DejaVuSans-50" d="M 1259 4147 
L 1259 2394 
L 2053 2394 
Q 2494 2394 2734 2622 
Q 2975 2850 2975 3272 
Q 2975 3691 2734 3919 
Q 2494 4147 2053 4147 
L 1259 4147 
z
M 628 4666 
L 2053 4666 
Q 2838 4666 3239 4311 
Q 3641 3956 3641 3272 
Q 3641 2581 3239 2228 
Q 2838 1875 2053 1875 
L 1259 1875 
L 1259 0 
L 628 0 
L 628 4666 
z
" transform="scale(0.015625)"/>
       <path id="DejaVuSans-54" d="M -19 4666 
L 3928 4666 
L 3928 4134 
L 2272 4134 
L 2272 0 
L 1638 0 
L 1638 4134 
L -19 4134 
L -19 4666 
z
" transform="scale(0.015625)"/>
       <path id="DejaVuSans-2d" d="M 313 2009 
L 1997 2009 
L 1997 1497 
L 313 1497 
L 313 2009 
z
" transform="scale(0.015625)"/>
       <path id="DejaVuSans-5a" d="M 359 4666 
L 4025 4666 
L 4025 4184 
L 1075 531 
L 4097 531 
L 4097 0 
L 288 0 
L 288 481 
L 3238 4134 
L 359 4134 
L 359 4666 
z
" transform="scale(0.015625)"/>
      </defs>
      <use xlink:href="#DejaVuSans-47"/>
      <use xlink:href="#DejaVuSans-50" x="77.490234"/>
      <use xlink:href="#DejaVuSans-54" x="137.792969"/>
      <use xlink:href="#DejaVuSans-2d" x="189.751953"/>
      <use xlink:href="#DejaVuSans-5a" x="225.835938"/>
      <use xlink:href="#DejaVuSans-65" x="294.341797"/>
      <use xlink:href="#DejaVuSans-72" x="355.865234"/>
      <use xlink:href="#DejaVuSans-6f" x="394.728516"/>
     </g>
    </g>
    <g id="patch_175">
     <path d="M 399.810937 61.072812 
L 419.810937 61.072812 
L 419.810937 54.072812 
L 399.810937 54.072812 
z
" style="fill: #ff45d7; opacity: 0.3"/>
    </g>
    <g id="text_33">
     <!-- GPT-Few -->
     <g transform="translate(427.810937 61.072812) scale(0.1 -0.1)">
      <defs>
       <path id="DejaVuSans-77" d="M 269 3500 
L 844 3500 
L 1563 769 
L 2278 3500 
L 2956 3500 
L 3675 769 
L 4391 3500 
L 4966 3500 
L 4050 0 
L 3372 0 
L 2619 2869 
L 1863 0 
L 1184 0 
L 269 3500 
z
" transform="scale(0.015625)"/>
      </defs>
      <use xlink:href="#DejaVuSans-47"/>
      <use xlink:href="#DejaVuSans-50" x="77.490234"/>
      <use xlink:href="#DejaVuSans-54" x="137.792969"/>
      <use xlink:href="#DejaVuSans-2d" x="189.751953"/>
      <use xlink:href="#DejaVuSans-46" x="225.835938"/>
      <use xlink:href="#DejaVuSans-65" x="277.855469"/>
      <use xlink:href="#DejaVuSans-77" x="339.378906"/>
     </g>
    </g>
    <g id="patch_176">
     <path d="M 399.810937 75.750938 
L 419.810937 75.750938 
L 419.810937 68.750938 
L 399.810937 68.750938 
z
" style="fill: #45ff7a; opacity: 0.3"/>
    </g>
    <g id="text_34">
     <!-- Human -->
     <g transform="translate(427.810937 75.750938) scale(0.1 -0.1)">
      <defs>
       <path id="DejaVuSans-48" d="M 628 4666 
L 1259 4666 
L 1259 2753 
L 3553 2753 
L 3553 4666 
L 4184 4666 
L 4184 0 
L 3553 0 
L 3553 2222 
L 1259 2222 
L 1259 0 
L 628 0 
L 628 4666 
z
" transform="scale(0.015625)"/>
       <path id="DejaVuSans-6d" d="M 3328 2828 
Q 3544 3216 3844 3400 
Q 4144 3584 4550 3584 
Q 5097 3584 5394 3201 
Q 5691 2819 5691 2113 
L 5691 0 
L 5113 0 
L 5113 2094 
Q 5113 2597 4934 2840 
Q 4756 3084 4391 3084 
Q 3944 3084 3684 2787 
Q 3425 2491 3425 1978 
L 3425 0 
L 2847 0 
L 2847 2094 
Q 2847 2600 2669 2842 
Q 2491 3084 2119 3084 
Q 1678 3084 1418 2786 
Q 1159 2488 1159 1978 
L 1159 0 
L 581 0 
L 581 3500 
L 1159 3500 
L 1159 2956 
Q 1356 3278 1631 3431 
Q 1906 3584 2284 3584 
Q 2666 3584 2933 3390 
Q 3200 3197 3328 2828 
z
" transform="scale(0.015625)"/>
       <path id="DejaVuSans-61" d="M 2194 1759 
Q 1497 1759 1228 1600 
Q 959 1441 959 1056 
Q 959 750 1161 570 
Q 1363 391 1709 391 
Q 2188 391 2477 730 
Q 2766 1069 2766 1631 
L 2766 1759 
L 2194 1759 
z
M 3341 1997 
L 3341 0 
L 2766 0 
L 2766 531 
Q 2569 213 2275 61 
Q 1981 -91 1556 -91 
Q 1019 -91 701 211 
Q 384 513 384 1019 
Q 384 1609 779 1909 
Q 1175 2209 1959 2209 
L 2766 2209 
L 2766 2266 
Q 2766 2663 2505 2880 
Q 2244 3097 1772 3097 
Q 1472 3097 1187 3025 
Q 903 2953 641 2809 
L 641 3341 
Q 956 3463 1253 3523 
Q 1550 3584 1831 3584 
Q 2591 3584 2966 3190 
Q 3341 2797 3341 1997 
z
" transform="scale(0.015625)"/>
      </defs>
      <use xlink:href="#DejaVuSans-48"/>
      <use xlink:href="#DejaVuSans-75" x="75.195312"/>
      <use xlink:href="#DejaVuSans-6d" x="138.574219"/>
      <use xlink:href="#DejaVuSans-61" x="235.986328"/>
      <use xlink:href="#DejaVuSans-6e" x="297.265625"/>
     </g>
    </g>
   </g>
  </g>
 </g>
 <defs>
  <clipPath id="pdd3cd1c6f0">
   <rect x="39.765625" y="15.118125" width="206.054687" height="220.925625"/>
  </clipPath>
  <clipPath id="p810a60e823">
   <rect x="276.345312" y="15.118125" width="206.054687" height="220.925625"/>
  </clipPath>
 </defs>
</svg>
